<?xml version="1.0" encoding="UTF-8" standalone="no"?>
<!-- Created with Inkscape (http://www.inkscape.org/) -->

<svg
   class="{{ class | default('') }}"
   viewBox="0 0 13.808103 10.120813"
   version="1.1"
   id="svg1"
   xmlns="http://www.w3.org/2000/svg"
   xmlns:svg="http://www.w3.org/2000/svg">
  <defs
     id="defs1" />
  <g
     id="layer1"
     transform="translate(-189.17706,-150.81249)">
    <path
       style="fill:currentColor"
       d="m 195.89986,160.87484 c -1.0011,-0.28854 -1.60403,-1.06103 -1.60403,-2.05511 v -0.28742 l -0.16364,-0.10172 c -0.18883,-0.11738 -0.4259,-0.41943 -0.57687,-0.73499 -0.0899,-0.18791 -0.10249,-0.24828 -0.1,-0.47956 0.003,-0.32289 0.0817,-0.54322 0.31822,-0.89691 l 0.16617,-0.24845 -0.11133,-0.21944 c -0.10109,-0.19926 -0.11122,-0.24545 -0.11012,-0.50219 0.001,-0.24961 0.0137,-0.30861 0.10799,-0.50352 0.10359,-0.21414 0.35526,-0.51028 0.54678,-0.64337 0.0901,-0.0626 0.094,-0.0767 0.1003,-0.36118 0.005,-0.22683 0.0241,-0.33468 0.0815,-0.46139 0.14051,-0.30994 0.43746,-0.54541 0.81101,-0.64308 l 0.20068,-0.0525 0.0695,-0.19793 c 0.17165,-0.489 0.3753,-0.75467 0.70163,-0.91533 0.20612,-0.10147 0.24212,-0.10835 0.56912,-0.10887 0.2969,-4.8e-4 0.37492,0.0111 0.52195,0.0776 0.21121,0.0955 0.39595,0.28986 0.52428,0.55162 l 0.0966,0.19704 0.009,1.36426 0.009,1.36426 h -0.22656 c -0.33624,0 -0.52432,-0.0677 -0.70843,-0.25518 -0.21389,-0.21775 -0.30177,-0.42829 -0.30072,-0.72048 9.7e-4,-0.27249 0.0435,-0.44695 0.18395,-0.75534 0.11287,-0.24776 0.10123,-0.33606 -0.0443,-0.33606 -0.0925,0 -0.19173,0.15695 -0.2964,0.46871 l -0.0685,0.20412 -0.17898,-0.0185 c -0.20405,-0.0211 -0.5138,0.0315 -0.72895,0.12376 -0.11567,0.0496 -0.14672,0.0798 -0.14672,0.14269 0,0.14644 0.0775,0.17155 0.28472,0.0923 0.21037,-0.0805 0.49646,-0.12218 0.62215,-0.0906 0.071,0.0178 0.0853,0.0405 0.0853,0.1349 0,0.34174 0.15145,0.7013 0.40014,0.94999 0.23188,0.23188 0.40551,0.30101 0.79876,0.31805 l 0.32246,0.014 v 1.40544 1.40543 l -0.10749,-0.0185 c -0.0591,-0.0102 -0.36447,-0.0367 -0.67857,-0.0589 -0.31959,-0.0226 -0.5842,-0.0561 -0.60087,-0.0762 -0.051,-0.0615 -0.69667,-1.28019 -0.69667,-1.31503 0,-0.0181 0.1137,-0.24249 0.25267,-0.49853 0.2691,-0.49579 0.28172,-0.57026 0.0966,-0.57026 -0.0815,0 -0.11286,0.0421 -0.33219,0.44542 -0.13322,0.24498 -0.25781,0.45061 -0.27686,0.45696 -0.019,0.006 -0.20004,-0.0128 -0.4022,-0.0426 -0.38833,-0.0572 -0.46254,-0.0439 -0.46254,0.0828 0,0.0993 0.0755,0.12921 0.47862,0.18956 l 0.39061,0.0585 0.19541,0.36381 c 0.10747,0.20009 0.2677,0.50098 0.35606,0.66864 l 0.16065,0.30484 -0.30556,0.40629 c -0.40121,0.53348 -0.40725,0.54526 -0.32274,0.62976 0.0371,0.0372 0.0891,0.0581 0.11736,0.0473 0.0279,-0.0107 0.20208,-0.22112 0.38715,-0.46762 l 0.3365,-0.44818 0.1365,6.9e-4 c 0.0751,3.7e-4 0.38951,0.0225 0.69874,0.0492 0.30923,0.0267 0.56677,0.0487 0.5723,0.0489 0.006,2.4e-4 0.006,0.32499 0,0.72167 l -0.0101,0.72123 -0.12411,0.25094 c -0.20374,0.41195 -0.58438,0.71832 -1.03983,0.83695 -0.2529,0.0659 -0.73497,0.0597 -0.9858,-0.0126 z m 3.63024,0.0109 c -0.44386,-0.11953 -0.8253,-0.43018 -1.02566,-0.83531 l -0.12411,-0.25093 -0.01,-0.71863 -0.01,-0.71863 0.17541,-0.0189 c 0.27893,-0.0301 1.01183,-0.0855 1.13226,-0.0855 0.10252,0 0.13248,0.0301 0.44639,0.44818 0.18508,0.2465 0.35824,0.45652 0.38482,0.46672 0.0652,0.025 0.1467,-0.0475 0.1467,-0.1306 0,-0.0371 -0.14899,-0.26594 -0.33109,-0.50847 l -0.33108,-0.44096 0.35594,-0.66984 0.35593,-0.66985 0.39416,-0.0585 c 0.40649,-0.0603 0.48218,-0.0901 0.48218,-0.18956 0,-0.12707 -0.0733,-0.13938 -0.4796,-0.0806 -0.21947,0.0318 -0.39729,0.0433 -0.41321,0.0268 -0.0154,-0.0159 -0.13193,-0.22241 -0.25903,-0.45888 -0.20962,-0.39002 -0.23948,-0.42995 -0.3215,-0.42995 -0.18756,0 -0.17461,0.0747 0.10088,0.58232 l 0.25836,0.47601 -0.27573,0.52917 c -0.15164,0.29104 -0.31499,0.59614 -0.36298,0.67799 l -0.0873,0.14883 -0.47729,0.0384 c -0.26251,0.0211 -0.57031,0.0466 -0.684,0.0566 l -0.20671,0.0182 v -1.39993 -1.39994 l 0.32246,-0.0156 c 0.2242,-0.0109 0.36846,-0.036 0.4734,-0.0825 0.19769,-0.0876 0.46546,-0.35842 0.57425,-0.58078 0.0919,-0.18777 0.16674,-0.5519 0.13443,-0.65372 -0.0162,-0.051 0.005,-0.0644 0.13084,-0.0833 0.17924,-0.0269 0.3328,-0.004 0.58879,0.0893 0.21347,0.0775 0.28938,0.0529 0.28938,-0.0938 0,-0.063 -0.0306,-0.0939 -0.14056,-0.14203 -0.20542,-0.09 -0.53051,-0.14485 -0.73353,-0.1239 l -0.17739,0.0183 -0.0865,-0.23723 c -0.1215,-0.33312 -0.20314,-0.45866 -0.28988,-0.44574 -0.14295,0.0213 -0.14438,0.0989 -0.008,0.41076 0.12439,0.28356 0.12907,0.30742 0.12907,0.65803 0,0.41554 -0.0252,0.48481 -0.27273,0.74943 -0.17761,0.18988 -0.3674,0.2593 -0.70893,0.2593 h -0.22551 v -1.32257 -1.32257 l 0.0864,-0.21593 c 0.11033,-0.27559 0.32189,-0.51262 0.54924,-0.61537 0.14923,-0.0674 0.2251,-0.0787 0.52188,-0.0777 0.30308,0.001 0.37103,0.0122 0.53406,0.0876 0.32495,0.15022 0.54596,0.42554 0.71993,0.89685 l 0.0874,0.23687 0.201,0.0526 c 0.25526,0.0667 0.46319,0.18854 0.62208,0.36442 0.19778,0.21892 0.26316,0.39732 0.27073,0.73871 0.006,0.29209 0.007,0.29533 0.11683,0.37856 0.20968,0.15958 0.39515,0.38609 0.51708,0.63149 0.11076,0.22291 0.12236,0.27164 0.12209,0.51263 -2.7e-4,0.23734 -0.0126,0.29043 -0.1132,0.48823 l -0.11289,0.22193 0.13366,0.19148 c 0.27202,0.38969 0.39875,0.77354 0.35799,1.08439 -0.0451,0.34424 -0.38762,0.88954 -0.67611,1.07648 l -0.1588,0.1029 -0.0178,0.35292 c -0.0323,0.63898 -0.23363,1.08781 -0.66545,1.48323 -0.24762,0.22675 -0.64047,0.43841 -0.96773,0.52141 -0.24955,0.0633 -0.72816,0.0635 -0.96212,5.5e-4 z m -7.69821,-2.99406 c -0.70938,-0.0662 -1.29313,-0.21703 -1.7467,-0.45129 -0.65695,-0.33931 -0.9533,-0.83107 -0.90254,-1.49767 0.0739,-0.97002 0.35778,-2.14607 0.7705,-3.19154 0.19135,-0.48473 0.6856,-1.49578 0.8061,-1.64896 0.1615,-0.20532 0.55816,-0.29244 1.31885,-0.28967 0.73368,0.003 0.93861,0.0715 1.04545,0.35128 0.1004,0.26288 0.019,0.52079 -0.20585,0.6525 -0.15611,0.0914 -0.5901,0.16737 -0.85827,0.15016 -0.18436,-0.0118 -0.29481,-0.0423 -0.49173,-0.13586 -0.2059,-0.0978 -0.26659,-0.11386 -0.32067,-0.0849 -0.0764,0.0409 -0.0745,0.0594 0.051,0.50061 0.20435,0.71807 0.20439,1.58633 10e-5,2.55538 -0.046,0.21828 -0.0914,0.43648 -0.10075,0.48489 -0.013,0.0672 1.2e-4,0.0972 0.0556,0.12691 0.062,0.0332 0.10746,0.0213 0.30925,-0.0808 0.31635,-0.16013 0.54391,-0.21591 0.88279,-0.21638 0.31504,-4.5e-4 0.5814,0.0578 0.82209,0.17977 0.15086,0.0765 0.16225,0.0913 0.18374,0.24006 0.0126,0.0872 0.0586,0.23746 0.10215,0.33391 l 0.0793,0.17535 -0.0961,0.13271 c -0.0529,0.073 -0.10248,0.15036 -0.11023,0.17191 -0.008,0.0227 -0.0466,-0.003 -0.0912,-0.06 -0.12664,-0.16287 -0.37304,-0.38131 -0.45316,-0.40172 -0.0818,-0.0208 -0.1732,0.0361 -0.1732,0.1079 0,0.0249 0.10206,0.14591 0.2268,0.26881 0.31228,0.30766 0.34303,0.37393 0.28061,0.60472 -0.0652,0.24105 -0.0411,0.63328 0.0518,0.84331 0.0385,0.087 0.0631,0.16507 0.0546,0.1735 -0.0311,0.0311 -1.17024,0.0351 -1.49029,0.005 z m -1.47344,-1.33561 c 0.152,-0.135 0.24819,-0.17904 0.50807,-0.23265 0.0816,-0.0168 0.0917,-0.0321 0.0827,-0.12552 -0.009,-0.0978 -0.0207,-0.10721 -0.13995,-0.11696 -0.16943,-0.0138 -0.37856,0.0684 -0.58104,0.22842 -0.19976,0.1579 -0.24757,0.23675 -0.19879,0.32789 0.0548,0.10242 0.14827,0.0794 0.32903,-0.0812 z"
       id="path1" />
  </g>
</svg>
