<svg xmlns="http://www.w3.org/2000/svg" viewBox="0 0 556 645"><path style="fill:currentColor" fill-rule="evenodd" d="M230.458 3.861c-2.177 2.002-5.923 5.214-8.325 7.139-2.403 1.925-4.878 3.961-5.5 4.523C212.133 19.59 180.922 41 179.494 41c-.24 0-3.712 1.925-7.715 4.278C162.913 50.49 137.663 62.01 123 67.534c-9.625 3.626-35.025 11.157-43 12.749a9939 9939 0 0 0-17.5 3.551c-8.25 1.679-21.75 4.013-30 5.186-15.523 2.208-20.878 3.443-23.247 5.361-4.529 3.665-7.304 7.313-7.981 10.495C.847 106.869.52 153.05.544 207.5.583 296.516.77 308.063 2.399 322c.996 8.525 1.91 16.625 2.031 18 .373 4.243 1.623 12.302 2.559 16.5 6.085 27.288 11.212 45.405 17.828 63 17.286 45.969 49.612 93.196 87.163 127.343 13.28 12.078 16.605 14.963 21.19 18.392 2.011 1.504 4.258 3.319 4.993 4.033s2.912 2.393 4.837 3.732 4.079 2.996 4.786 3.682c.708.686 2.62 2.036 4.25 2.999 1.63.962 2.964 2.103 2.964 2.535s.563.785 1.25.786 2.825 1.351 4.75 2.998 4.063 2.996 4.75 2.998c.688.001 1.25.452 1.25 1.002s.675 1 1.5 1 1.5.45 1.5 1 .675 1 1.5 1 1.504.337 1.508.75 1.017 1.243 2.25 1.845 6.742 3.863 12.242 7.246 10.563 6.153 11.25 6.155c.688.002 1.25.344 1.25.76s1.463 1.392 3.25 2.17c1.787.777 3.475 1.74 3.75 2.139.651.944 41.297 20.727 57.5 27.986 6.192 2.774 17.132 3.736 21.723 1.911 12.799-5.09 47.111-21.521 63.777-30.541 6.881-3.724 20.187-11.657 36.435-21.722 2.729-1.691 29.959-20.974 30.565-21.645.275-.305 2.75-2.334 5.5-4.509 16.433-13 40.404-36.29 51.508-50.045 3.552-4.4 7.251-8.869 8.218-9.931 2.489-2.731 18.618-25.963 22.604-32.559 6.084-10.066 19.17-34.896 19.17-36.374 0-.273 1.291-3.34 2.87-6.816 9.984-21.99 20.275-59.975 24.198-89.32 3.824-28.601 3.892-30.923 3.912-134.364.02-101.017.013-101.376-2.072-105.086-1.151-2.048-3.84-4.856-5.976-6.241-3.745-2.428-6.61-3.075-26.432-5.969-62.431-9.115-115.223-28.299-159.803-58.069-13.229-8.834-11.867-7.811-24.55-18.436C320.998-.355 320.972-.374 320.032.591c-.488.5-2.232 5.859-3.875 11.909-2.882 10.608-10.392 35.551-17.915 59.5-4.012 12.771-4.384 16.843-2.012 22 .885 1.925 3.474 8.9 5.752 15.5s6.647 18.883 9.708 27.295l5.565 15.296-2.378 3.261c-1.307 1.794-5.977 8.307-10.377 14.474s-12.838 17.952-18.75 26.189S275 211.369 275 211.829s7.404 13.157 16.453 28.213l16.452 27.375-1.782 3.042c-.981 1.672-3.603 6.191-5.828 10.041-4.73 8.187-14.8 25.341-22.133 37.701-2.839 4.786-5.162 9.183-5.162 9.77 0 1.265 2.718 5.489 10.957 17.029 3.337 4.675 7.629 10.75 9.538 13.5 1.908 2.75 7.969 11.3 13.47 19s10.558 14.788 11.239 15.75c1.208 1.708 3.796 2.432 3.796 1.062 0-.779-14.654-29.924-22.281-44.312C290.488 332.584 289 329.564 289 328.25c0-.718 3.3-5.905 7.334-11.527 4.034-5.623 10.221-14.446 13.75-19.608s7.067-10.337 7.864-11.5 3.608-5.146 6.25-8.85 4.802-7.45 4.802-8.325-1.749-4.595-3.887-8.266c-2.137-3.67-8.632-15.899-14.432-27.174l-10.545-20.5 13.506-17.5C339.679 161.263 342 158.081 342 156.125c0-1.084-2.484-9.308-5.52-18.275s-7.835-23.935-10.663-33.262l-5.142-16.959 1.56-5.564c1.898-6.768 6.765-20.291 7.662-21.289.641-.713 14.289 7.91 14.936 9.437.184.433.778.787 1.32.787.543 0 2.868 1.279 5.167 2.841 6.729 4.574 35.973 20.151 37.841 20.157.363.001 3.963 1.523 8 3.382 22.71 10.46 58.379 21.24 91.339 27.605 6.05 1.168 12.627 2.549 14.616 3.069 1.989.521 5.251.946 7.25.946H514l-.059 84.25c-.054 78.179-.586 100.133-2.863 118.25-3.527 28.055-9.588 51.95-19.526 76.972-21.062 53.032-60.07 100.885-113.052 138.687-11.063 7.893-41.971 27.015-51.107 31.618-2.141 1.078-8.618 4.414-14.393 7.412s-16.053 7.981-22.84 11.073l-12.341 5.622-8.159-3.649c-34.697-15.516-75.991-39.314-100.16-57.724-19.659-14.974-45.597-39.509-59.742-56.511-12.21-14.676-26.568-36.767-35.748-55-10.341-20.541-22.043-54.714-25.043-73.135A719 719 0 0 0 46.919 345c-4.441-24.168-4.981-36.896-5.418-127.738-.387-80.539-.302-86.295 1.292-87.107.939-.479 5.307-1.41 9.707-2.069 20.617-3.091 59.41-12.821 79.5-19.939 28.954-10.259 57.162-24.321 85.268-42.508l8.768-5.674.982 2.583c.54 1.42.982 2.98.982 3.467 0 .486 2.447 8.445 5.438 17.685C247.7 127.758 252 141.319 252 142.239c0 .548-4.097 9.381-9.104 19.629-5.007 10.247-9.682 20.207-10.389 22.132s-5.384 11.794-10.395 21.931C217.1 216.068 213 224.956 213 225.681s4.613 7.07 10.25 14.098 12.725 16.044 15.75 20.037 6.975 9.1 8.777 11.349c3.822 4.769 3.948 4.03-3.267 19.273-2.88 6.084-6.251 13.312-7.492 16.062s-5.352 11.455-9.137 19.345S221 340.734 221 341.399s1.615 2.759 3.589 4.655c1.974 1.895 8.836 9.501 15.25 16.901s14.297 16.328 17.518 19.839c5.257 5.732 5.792 6.709 5.219 9.546-.352 1.738-1.351 9.01-2.222 16.16s-1.953 15.7-2.404 19-1.491 12.075-2.312 19.5-2.161 18.225-2.98 24c-2.317 16.353-3.073 28-1.816 28 .593 0 1.552-1.687 2.133-3.75 2.674-9.507 26.334-104.091 26.703-106.75.317-2.278-.269-3.722-2.432-6-7.549-7.95-34.246-42.621-34.246-44.474 0-1.124 2.89-6.82 17.012-33.526 8.119-15.355 12.303-23.014 13.641-24.973.741-1.084 1.347-2.813 1.347-3.841 0-1.599-6.14-11.077-12.754-19.686-1.056-1.375-6.688-9.518-12.514-18.096l-10.594-15.596 12.798-25.404c7.039-13.972 15.558-30.798 18.931-37.391 3.373-6.592 6.133-12.944 6.133-14.114 0-1.733-12.675-47.291-20.977-75.399-1.056-3.575-4.239-14.825-7.073-25s-6.195-21.875-7.469-26c-1.273-4.125-2.884-9.845-3.578-12.712S236.141.884 235.529.649s-2.894 1.211-5.071 3.212"/></svg>