<svg xmlns="http://www.w3.org/2000/svg" viewBox="0 0 820 886"><path style="fill:currentColor" fill-rule="evenodd" d="M416.5 1.046c-2.75.428-8.352.818-12.448.866-17.976.212-51.224 5.919-80.052 13.741C233.033 40.335 150.922 95.877 91.386 173c-38.807 50.27-68.062 112.705-80.828 172.5-1.41 6.6-3.067 14.191-3.683 16.87-1.774 7.705-2.968 16.61-5.448 40.63-2.521 24.419-1.341 71.806 2.479 99.5 3.36 24.365 8.571 46.974 17.287 75 2.48 7.972 11.904 32.882 14.845 39.239 1.079 2.332 1.962 4.493 1.962 4.802 0 2.065 18.736 37.636 24.618 46.74 2.41 3.73 4.382 6.96 4.382 7.179 0 .838 18.613 27.442 24.865 35.54 16.272 21.077 44.321 50.973 60.559 64.548 16.493 13.787 15.387 12.894 24.099 19.449 3.287 2.474 6.202 4.724 6.477 5 .275.277 3.425 2.509 7 4.961s6.65 4.815 6.833 5.25c.184.436.886.792 1.562.792.675 0 2.1.788 3.166 1.75 1.067.963 3.177 2.389 4.689 3.169s2.75 1.793 2.75 2.25.458.831 1.018.831 4.048 1.856 7.75 4.124c11.129 6.818 13.124 7.917 28.815 15.869 26.327 13.342 49.646 22.335 78.917 30.436 16.92 4.683 19.401 5.264 34 7.965 33.508 6.199 44.356 7.106 85 7.106 34.592 0 39.408-.305 64.915-4.114 97.733-14.592 190.828-64.298 255.601-136.473 18.617-20.743 45.893-57.748 48.408-65.674 1.935-6.095-2.923-13.929-10.108-16.3-2.84-.937-4.274-.845-7.795.5-2.373.906-5.374 2.581-6.668 3.721-7.231 6.372-30.726 22.382-42.098 28.688-40.517 22.466-78.308 34.913-123.255 40.595-42.836 5.415-91.997 1.062-135.767-12.022-11.678-3.491-25.957-8.399-30.233-10.391-1.1-.513-7.625-3.443-14.5-6.513-43.741-19.53-87.209-51.481-116.338-85.517-4.472-5.225-8.4-9.725-8.73-10-1.898-1.585-15.468-20.301-22.475-31-23.486-35.859-39.872-75.298-48.819-117.5-1.368-6.457-2.333-11.928-4.671-26.5-2.317-14.445-3.254-42.447-2.006-60 3.481-48.964 10.298-79.386 26.327-117.5 5.467-12.998 17.978-38.026 20.285-40.579.785-.868 1.427-1.892 1.427-2.274 0-1.242 8.22-13.878 16.358-25.147 32.3-44.728 78.7-83.639 126.788-106.323 20.764-9.795 46.586-19.004 64.854-23.13 5.225-1.18 11.075-2.529 13-2.997 1.925-.469 7.325-1.383 12-2.032s11.425-1.63 15-2.18c5.196-.799 34.476-1.894 49.405-1.847 3.543.011 10.034-6.332 10.889-10.64.955-4.81-1.206-11.186-4.675-13.794-3.994-3.003-23.4-9.452-43.443-14.437-13.745-3.418-23.895-5.364-47.676-9.139-20.379-3.235-70.77-4.996-84-2.935M413 27.668c-11.045.6-33.878 3.63-49 6.502-83.21 15.808-155.593 54.368-216.556 115.363C123.84 173.151 97.107 207.767 83.758 232a1405 1405 0 0 1-6.713 12c-6.241 11.012-10.591 19.921-16.925 34.666C37.296 331.795 26.115 389.52 27.322 448c.591 28.621 1.329 36.981 5.674 64.25 10.924 68.557 44.07 139.811 91.479 196.647 16.68 19.998 40.89 43.833 58.025 57.128 3.85 2.988 7.225 5.688 7.5 6.002.275.313 2.075 1.651 4 2.973s3.725 2.675 4 3.007c.81.977 33.085 22.377 38.055 25.232 8.631 4.958 37.493 19.386 45.461 22.726 26.845 11.252 52.302 19.061 79.984 24.536 14.123 2.794 18.825 3.516 40 6.146 19.354 2.404 64.017 2.414 81 .018 6.6-.932 15.6-2.176 20-2.767 34.434-4.619 71.537-15.147 106-30.077 16.46-7.131 24.305-11.155 45-23.08 12.876-7.42 39.594-26.279 51.5-36.353 19.321-16.347 39.791-35.93 38.7-37.022-.338-.337-2.546.398-4.907 1.633-28.73 15.028-74.392 28.623-110.793 32.986-50.783 6.086-104.158.957-154-14.799-10.684-3.378-23.877-8.189-30.248-11.031-2.339-1.043-8.077-3.602-12.752-5.685-7.833-3.491-15.303-7.288-25.5-12.962-9.777-5.44-12.258-6.904-16.3-9.619-2.365-1.589-4.728-2.889-5.25-2.889s-.95-.45-.95-1-.437-1-.971-1c-1.061 0-9.277-5.452-12.432-8.25-1.086-.962-2.297-1.75-2.691-1.75s-2.672-1.603-5.061-3.562a732 732 0 0 0-5.845-4.751c-15.507-12.304-17.11-13.745-34.111-30.658-14.253-14.178-25.723-27.081-33.359-37.529-1.609-2.2-3.213-4.225-3.566-4.5-.98-.763-16.964-24.853-16.964-25.566 0-.344-.85-1.82-1.89-3.28-6.94-9.748-27.487-51.435-30.389-61.654-.312-1.1-1.958-5.781-3.658-10.402-6.228-16.934-13.774-48.016-16.048-66.098-.588-4.675-1.493-11.65-2.011-15.5-2.511-18.657-1.968-60.087 1.093-83.5 4.055-31.012 13.197-66.164 23.797-91.5 7.269-17.373 10.956-25.074 20.59-43 3.957-7.365 12.54-21.648 13.518-22.5.316-.275 2.536-3.425 4.932-7 4.189-6.25 15.803-21.967 16.995-23 .318-.275 3.793-4.325 7.722-9 23.255-27.664 55.483-54.719 89.349-75.006 11.382-6.819 39.142-20.765 48-24.115 22.394-8.469 42.419-14.645 55-16.962 12.914-2.378 12.471-2.512-18-5.428-13.785-1.319-46.973-1.745-64-.821m98.055 113.542c-3.447 1.825-5.463 5.712-11.139 21.478-2.735 7.596-5.4 14.712-5.922 15.812s-1.629 4.072-2.462 6.605c-2.831 8.615-4.486 11.726-7.261 13.647-2.644 1.83-10.323 4.979-34.771 14.257-15.414 5.85-17.122 6.695-19.417 9.612-6.114 7.773-2.3 17.517 8.197 20.941 2.871.936 5.67 2.034 6.22 2.44s2.8 1.3 5 1.987c12.327 3.851 34.66 13.398 36.342 15.537 1.022 1.299 4.484 9.475 7.694 18.168 13.39 36.259 13.415 36.31 19.417 38.29 4.885 1.613 11.098-.067 14.292-3.864 1.315-1.563 4.119-7.742 6.23-13.731s4.616-12.689 5.567-14.889c.95-2.2 2.725-6.7 3.943-10 1.219-3.3 2.702-7.302 3.296-8.894 1.852-4.959 4.86-7.109 16.219-11.589 11.952-4.715 29.95-11.478 35.444-13.318 1.894-.635 4.932-2.641 6.75-4.46 2.812-2.812 3.306-4.014 3.306-8.05 0-4.664-1.673-8.341-4.954-10.89-.85-.66-6.271-2.998-12.046-5.196a2482 2482 0 0 1-21-8.122c-5.775-2.27-11.736-4.513-13.246-4.983-6.313-1.968-8.722-4.895-12.754-15.498-.418-1.1-1.463-3.8-2.321-6s-4.07-10.971-7.138-19.49c-6.503-18.055-8.136-20.178-15.942-20.733-2.949-.209-6.13.184-7.544.933m2.558 60.942c-5.681 12.162-13.081 19.337-25.613 24.832-3.025 1.327-5.844 2.689-6.263 3.027-.42.339 2.73 2.143 7 4.01s8.361 3.979 9.091 4.693c.73.715 2.169 1.749 3.197 2.299 3.166 1.695 10.636 12.24 13.482 19.033 1.487 3.55 2.835 6.596 2.996 6.769s1.078-2.077 2.036-5c4.477-13.65 15.279-24.049 30.432-29.295 1.941-.671 3.304-1.623 3.029-2.115-.275-.491-3.65-2.264-7.5-3.94-11.482-4.997-18.037-11.482-23.923-23.667l-4.203-8.701zM101 258.206c0 1.53 7.679 14.404 25.193 42.238 7.594 12.069 13.808 22.869 13.81 24S138.464 331 136.58 336.5c-9.867 28.797-15.619 48.041-15.078 50.443.317 1.406 3.596 5.733 7.287 9.615 19.628 20.645 31.742 33.654 31.996 34.36.157.436-5.693 5.376-13 10.977-7.307 5.602-13.96 10.737-14.785 11.412s-5.448 4.092-10.274 7.594C111.597 468.977 109 472.012 109 476.942c0 3.266 2.233 7.729 5.032 10.058 1.127.938 21.54 26.47 29.982 37.5 4.63 6.05 8.658 11.225 8.952 11.5s2.051 2.454 3.905 4.842l3.371 4.342-.677 8.158c-.372 4.487-1.083 10.858-1.579 14.158s-1.363 10.5-1.927 16-1.733 16.012-2.598 23.361c-.865 7.348-1.342 13.591-1.06 13.873 1.753 1.753 3.732-2.213 7.427-14.884 2.301-7.893 6.702-22.45 9.78-32.35 8.835-28.422 8.979-29.093 7.048-32.835-.898-1.741-5.724-9.015-10.724-16.165-14.478-20.704-30.935-45.684-30.893-46.891.021-.61 1.934-2.526 4.25-4.258 3.565-2.666 10.3-7.804 27.075-20.657 1.575-1.207 6.75-5.119 11.5-8.694 8.561-6.443 8.639-6.542 8.943-11.3l.307-4.799-22.057-21.615c-22.815-22.358-23.074-22.712-21.157-28.887.496-1.594 2.34-9.199 4.1-16.899s4.528-19.164 6.151-25.475c1.743-6.772 2.695-12.503 2.323-13.983-.489-1.951-7.165-10.916-10.456-14.042-.289-.275-3.078-3.696-6.196-7.602s-6.282-7.732-7.031-8.5c-.749-.769-6.574-7.473-12.945-14.898-6.37-7.425-12.745-14.738-14.167-16.25-2.732-2.908-4.679-3.55-4.679-1.544m622.325 88.253c-1.746.76-3.86 2.429-4.698 3.711-.838 1.281-5.386 12.697-10.107 25.368s-9.427 24.425-10.458 26.12c-1.61 2.647-4.394 4.071-19.718 10.085-9.814 3.852-20.858 7.989-24.541 9.194-9.171 3-13.008 5.781-14.708 10.66-2.867 8.225 1.167 13.846 13.196 18.39 20.982 7.927 34.664 13.385 39.699 15.838l5.49 2.675 4.612 11.5c2.537 6.325 5.861 14.875 7.388 19 6.746 18.225 7.74 20.611 9.378 22.5 4.086 4.714 10.521 5.837 16.684 2.913 3.819-1.812 4.843-3.993 16.116-34.315 4.11-11.056 7.84-19.472 9.342-21.081 1.587-1.7 7.064-4.432 15-7.483 43.383-16.68 42.991-16.455 43.157-24.708.186-9.293-2.123-11.243-21.657-18.289-23.121-8.339-34.081-13.015-36.5-15.572-2.776-2.934-4.297-6.458-12.466-28.874-8.592-23.577-9.262-24.912-13.641-27.145-4.457-2.274-7.194-2.389-11.568-.487m3.685 57.015c-5.986 15.743-16.818 26.392-31.242 30.714-2.072.621-3.768 1.397-3.768 1.725s2.813 1.681 6.25 3.006c15.287 5.89 23.023 14.054 29.259 30.873 1.275 3.44 1.424 3.542 2.062 1.411 1.783-5.961 7.595-16.21 11.887-20.965 4.61-5.108 14.735-11.045 21.792-12.779 1.513-.372 2.75-.967 2.75-1.322s-2.812-1.728-6.25-3.048c-13.587-5.221-22.263-13.42-27.292-25.795-2.686-6.607-4.03-7.55-5.448-3.82M533.5 505.954c-2.857 1.182-5.878 4.914-7.726 9.546-1.877 4.706-7.209 18.884-9.777 26-7.031 19.48-8.702 22.415-13.846 24.322-1.458.541-8.501 3.218-15.651 5.949a20014 20014 0 0 1-22.803 8.696c-5.391 2.051-10.883 4.81-12.204 6.131-2.616 2.616-4.056 8.023-3.125 11.733.848 3.379 4.477 7.654 7.513 8.851 1.441.568 5.319 2.049 8.619 3.29 30.287 11.397 39.328 15.096 41.337 16.914 2.502 2.263 3.582 4.476 7.141 14.64 1.247 3.56 3.042 8.274 3.99 10.474s2.732 6.7 3.965 10c6.006 16.07 7.319 18.599 10.936 21.057 4.124 2.802 7.971 3.091 12.48.938 3.291-1.571 7.651-7.046 7.651-9.607 0-.818.374-1.916.832-2.438s4.17-9.87 8.25-20.771 8.543-21.157 9.918-22.79c1.993-2.366 6.96-4.655 24.5-11.287 27.979-10.58 28.804-10.939 31.29-13.607 2.859-3.068 3.693-8.904 1.89-13.219-1.79-4.283-5.249-6.742-13.68-9.723-16.835-5.954-41.55-16.221-43.536-18.087-2.109-1.981-3.382-4.523-6.741-13.466-.827-2.2-2.665-6.925-4.085-10.5-1.421-3.575-3.989-10.55-5.707-15.5-3.798-10.939-6.228-15.085-9.978-17.024-3.097-1.602-8.272-1.838-11.453-.522m1.715 61.354c-5.75 12.789-15.658 21.557-29.81 26.379-4.626 1.576-4.725 1.687-2.366 2.654 10.447 4.284 17.269 7.943 20.861 11.187 4.563 4.123 11.146 14.605 13.142 20.928l1.249 3.956 3.684-7.956c6.303-13.612 14.44-20.709 31.525-27.498l3-1.192-3.5-1.471c-18.361-7.717-26.936-15.88-32.085-30.545-.724-2.062-1.564-3.75-1.866-3.749s-2.027 3.289-3.834 7.307"/></svg>