<svg xmlns="http://www.w3.org/2000/svg" viewBox="0 0 392 474"><path style="fill:currentColor" fill-rule="evenodd" d="M52 1.276c-3.61 1.78-11.327 24.488-9.806 28.852.559 1.603 1.757 3.298 2.661 3.767C46.714 34.859 68.515 41 70.077 41c.558 0 2.118-1.105 3.468-2.455 3.285-3.284 3.262-7.892-.054-10.966l-2.509-2.325 4.759-2.041c10.817-4.638 16.954-5.641 34.759-5.678 14.809-.03 18.018.26 24.895 2.252 13.702 3.968 28.434 11.789 38.39 20.379C179.873 45.419 188 42.961 188 35.868c0-3.769-3.597-7.452-14.09-14.428C153.622 7.953 134.212 2 110.522 2c-16.326 0-31.048 2.987-46.768 9.489-1.494.618-1.661.297-1.158-2.22.445-2.226.018-3.572-1.754-5.525C57.871.468 55.169-.286 52 1.276m44.5 35.158c-15.46 3.074-28.415 9.619-38.423 19.411-15.114 14.789-23.117 35.269-21.738 55.63 1.597 23.595 12.756 45.19 33.34 64.525l9.05 8.5.827 13.5c1.691 27.603 3.018 22.45-14.289 55.5-8.918 17.031-15.453 30.699-15.833 33.115-.476 3.033-.119 5.309 1.359 8.649 2.432 5.499 7.713 8.914 18.398 11.897 4.02 1.123 7.715 2.424 8.211 2.892.529.499.013 3.285-1.25 6.751-3.021 8.285-2.831 12.913.705 17.218 2.108 2.566 2.651 4.002 2.07 5.478-.432 1.1-.818 3.939-.857 6.31-.063 3.869.467 4.878 5.18 9.863l5.25 5.553-.337 14.489-.337 14.49 3.137 6.371c5.02 10.197 13.722 16.104 27.157 18.435 4.905.851 10.867.87 23 .071 24.28-1.599 27.59-1.493 28.885.926.591 1.105 2.789 13.707 4.884 28.005 4.158 28.369 4.728 29.987 10.577 29.987 4.471 0 7.536-3.173 7.525-7.789-.012-4.958-6.574-48.087-8.083-53.122-1.549-5.171-5.905-10.385-10.496-12.564-3.312-1.571-6.176-1.669-30.285-1.032l-26.627.704-5.385-2.849c-8.357-4.42-9.206-6.743-8.902-24.365.247-14.315.211-14.583-2.559-19.311-1.546-2.637-3.463-5.045-4.26-5.351-3.152-1.21-3.504-4.036-.89-7.143 3.715-4.415 3.246-7.039-2.088-11.685l-4.601-4.008 2.192-6.492c2.822-8.36 2.367-15.073-1.266-18.707-1.578-1.578-6.636-3.905-13.389-6.161-10.7-3.574-10.85-3.667-10.674-6.625.097-1.65 3.628-9.525 7.845-17.5C96.263 227.002 96 227.574 96 221.084c0-3.303-.495-10.553-1.099-16.112-.605-5.559-.874-10.333-.597-10.609.276-.276 2.45.491 4.83 1.705 16.94 8.643 44.337 12.357 62.551 8.482 27.785-5.912 49.794-22.38 61.284-45.855 10.416-21.28 11.354-44.018 2.907-70.414-3.89-12.155-8.011-15.109-14.241-10.208-3.248 2.554-3.397 5.921-.579 13.069 5.504 13.963 6.743 33.742 3.016 48.158-5.288 20.458-20.779 38.032-40.636 46.101-21.882 8.891-50.581 6.862-72.686-5.14-4.127-2.241-4.75-2.995-4.75-5.753 0-2.733 1.93-14.503 2.504-15.277.11-.147 4.025 1.766 8.7 4.253 11.389 6.059 21.597 8.63 34.296 8.64 17.049.012 31.14-5.523 41.984-16.493 19.721-19.949 20.851-50.378 2.927-78.771l-2.344-3.715 6.716-1.523c10.106-2.291 32.442-3.909 43.717-3.166 45.223 2.978 78.129 16.273 104.064 42.044 26.345 26.178 38.662 59.047 37.1 99-1.268 32.451-9.508 56.226-31.883 92-12.242 19.572-16.864 30.12-20.374 46.5-2.415 11.269-2.459 34.835-.09 47.591 2.175 11.706 8.372 34.329 9.911 36.184 3.265 3.934 9.323 3.366 12.284-1.153 1.525-2.328 1.419-3.171-1.877-14.986-5.395-19.334-6.956-31.379-6.364-49.086.772-23.05 4.812-34.25 22.744-63.05 14.912-23.949 23.378-43.719 28.199-65.852 3.028-13.899 3.302-51.381.474-64.648-5.896-27.65-17.729-50.489-36.188-69.846-13.313-13.961-24.665-22.288-42.621-31.263-37.324-18.656-90.732-23.956-130.441-12.945l-6.403 1.776-3.768-3.18c-10.255-8.655-24.989-16.293-37.767-19.579-10.376-2.669-25.863-3.345-35-1.529m5.472 14.495c-24.119 3.316-44.136 20.963-49.005 43.205-1.961 8.959-.835 25.785 2.328 34.76 3.606 10.236 10.895 21.879 19.037 30.408l6.871 7.198 2.463-9.824 2.462-9.825-3.952-5.175C74.027 131.005 70 119.692 70 107.471c0-17.503 9.975-32.313 26-38.6 11.212-4.4 27.936-2.22 38.928 5.074 4.365 2.897 4.463 2.913 7 1.123 1.414-.998 5.431-3.252 8.926-5.008l6.354-3.194-3.354-2.514c-13.299-9.969-35.404-15.688-51.882-13.423M14 61.272C9.105 63.677 3.112 80.845.989 98.546c-3.654 30.473 7.67 63.361 29.853 86.704 2.572 2.707 3.106 3.75 1.917 3.75-.906 0-2.873 1.054-4.37 2.342-3.288 2.828-3.646 7.609-.806 10.756 1.821 2.017 2.518 2.091 13.917 1.466 19.65-1.078 20.108-1.574 18.008-19.492-1.566-13.365-2.435-15.765-6.037-16.669-4.457-1.118-7.47.375-9.385 4.654l-1.785 3.986-6.172-7.771C28.998 159.294 22.013 145.77 18.944 135c-2.69-9.44-3.736-30.6-2.008-40.616.653-3.786 2.553-10.934 4.222-15.884 3.557-10.547 3.754-13.06 1.217-15.493-2.676-2.567-5.494-3.15-8.375-1.735m146.588 20.717c-4.352 2.164-8.329 4.352-8.838 4.861-.568.568.059 2.419 1.623 4.788 6.127 9.282 7.814 22.676 3.95 31.362-2.484 5.582-8.542 11.154-14.672 13.495-8.301 3.171-21.747.591-26.783-5.139-3.035-3.453-3.118-5.906-.31-9.242 3.119-3.707 5.89-3.946 11.655-1.006 5.414 2.763 11.344 2.109 14.535-1.602 3.315-3.854 3.135-12.113-.407-18.621-1.462-2.687-2.971-4.885-3.353-4.885-1.461 0-18.783 18.797-22.862 24.809-6.492 9.568-11.695 21.065-10.437 23.062 1.514 2.403 10.945 7.809 17.811 10.21 7.385 2.581 22.086 3.602 29.373 2.04 23.498-5.04 36.753-27.097 30.737-51.152-1.851-7.401-7.409-18.956-11.397-23.692l-2.713-3.222zM100 83.541c-4.596 2.055-9.662 6.986-12.285 11.959-4.063 7.7-2.543 23.576 3.09 32.294 1.458 2.256 1.549 2.173 5.425-5 5.228-9.673 13.086-20.023 22.256-29.313l7.494-7.591-3.74-1.636c-5.261-2.302-17.788-2.703-22.24-.713"/></svg>