<?xml version="1.0" encoding="UTF-8" standalone="no"?>
<!-- Created with Inkscape (http://www.inkscape.org/) -->

<svg
   class="{{ class | default('') }}"
   version="1.1"
   id="svg1"
   viewBox="0 0 596.82336 434.16754"
   xmlns="http://www.w3.org/2000/svg"
   xmlns:svg="http://www.w3.org/2000/svg">
  <defs
     id="defs1" />
  <g
     id="g1"
     transform="translate(-168,-307.5)">
    <path
       style="fill:currentColor"
       d="m 168,741.58839 c 0,-0.19916 10.6875,-8.3984 23.75,-18.22054 46.84514,-35.22445 81.35786,-63.9549 127.75,-106.34669 21.16093,-19.33625 86.85153,-84.86401 98.5,-98.25584 4.125,-4.74236 7.725,-8.64134 8,-8.66439 0.275,-0.0231 19.16239,13.8948 41.97198,30.92858 C 490.78156,558.06328 509.96006,572 510.59087,572 c 1.47495,0 19.585,-22.6598 36.43551,-45.58912 12.89244,-17.54338 38.47085,-54.9371 39.61102,-57.90835 0.4701,-1.22505 -0.50508,-1.52094 -5.28041,-1.60221 -3.22135,-0.0548 -6.98199,-0.44168 -8.35699,-0.85968 l -2.5,-0.75999 3,-1.15728 c 8.06972,-3.11295 11.6242,-5.10885 19.36431,-10.87337 4.61559,-3.4375 9.02376,-6.25 9.79595,-6.25 0.77219,0 3.01948,0.675 4.99398,1.5 1.98109,0.82775 6.5604,1.49453 10.21788,1.48779 l 6.62788,-0.0122 -7.5,-3.35446 c -18.03528,-8.06648 -22.0032,-9.95126 -21.66397,-10.29049 0.19838,-0.19837 7.51643,1.74744 16.26233,4.32404 13.34052,3.93021 17.60375,4.75475 26.46982,5.11943 12.06122,0.49611 20.47972,-1.15787 27.90717,-5.48291 6.15341,-3.58318 16.68227,-13.83268 26.05415,-25.36287 12.60569,-15.50875 21.13971,-22.27944 32.7682,-25.99752 l 5.7023,-1.82325 -6,-0.053 c -8.0047,-0.0707 -16.60332,3.99469 -24.61771,11.63912 -5.87903,5.60764 -6.14461,5.73686 -13.19106,6.41794 -8.0819,0.78115 -20.86163,4.73382 -21.46312,6.63837 -0.28363,0.89807 1.24755,1.26623 5.43856,1.30763 7.57409,0.0748 13.57418,1.16492 14.03589,2.55004 0.20174,0.60524 -3.39905,4.92612 -8.00176,9.60195 -10.40606,10.57135 -17.3565,14.26808 -29.62383,15.75601 -4.63266,0.5619 -8.58701,0.85766 -8.78744,0.65723 -0.20043,-0.20042 0.17554,-1.54946 0.83547,-2.99786 0.65993,-1.4484 1.01428,-2.79955 0.78744,-3.00255 -0.22684,-0.203 -3.56244,0.0435 -7.41244,0.54767 -11.53431,1.51062 -22.31993,-0.85753 -26.77224,-5.87826 -1.74654,-1.96951 -1.68031,-2.00708 4.566,-2.59037 6.42863,-0.60031 17.70624,-4.18966 17.70624,-5.6354 0,-0.43462 -3.4875,-1.10278 -7.75,-1.48481 -14.38735,-1.28947 -19.76575,-3.25018 -26.86436,-9.79345 -5.76037,-5.30972 -5.79992,-6.92259 -0.13564,-5.53136 5.85879,1.43901 25.54643,1.29638 29.25,-0.2119 l 3,-1.22176 -9,-4.2453 c -6.34039,-2.99077 -10.23086,-5.59041 -13.16518,-8.79705 C 599.73402,386.84548 595.26391,380 596.29517,380 c 0.19059,0 5.26465,1.86096 11.27568,4.13547 7.45727,2.82175 12.644,4.17186 16.32735,4.25 6.5976,0.13998 7.46487,-1.30975 3.17874,-5.31359 -4.16645,-3.89206 -12.70839,-6.63284 -29.95603,-9.61175 -25.64769,-4.42971 -38.37739,-8.54089 -49.68435,-16.04602 -6.60707,-4.38552 -13.66064,-11.09294 -16.41329,-15.60782 C 527.75284,336.44216 528.64273,328 532.47859,328 c 0.59323,0 5.34073,3.59476 10.55,7.98835 5.3709,4.52991 12.9349,9.73646 17.47141,12.02614 7.60425,3.83803 18.75489,7.06395 20.02542,5.79342 0.32514,-0.32514 -0.54866,-3.29929 -1.9418,-6.60923 C 575.92434,340.88049 573.81359,333 574.78059,333 c 0.31239,0 3.81899,3.15232 7.79243,7.00515 7.73177,7.49708 15.29958,11.72322 25.88708,14.4563 7.37836,1.90466 15.98714,1.91664 34.0399,0.0474 25.48254,-2.63859 40.51249,-1.60408 50.4654,3.47352 6.96673,3.55416 8.98146,9.2729 5.0346,14.29052 -3.73837,4.75256 -2.13744,4.94165 6.1562,0.72713 5.79959,-2.94714 10.8438,-3.90776 10.8438,-2.0651 0,0.5142 -0.43886,2.0892 -0.97525,3.5 -1.52193,4.00299 1.34167,3.2771 4.67436,-1.1849 3.45939,-4.63163 5.1445,-6.05654 8.12411,-6.86961 3.34216,-0.91201 4.41155,0.64769 3.07429,4.48378 -1.92804,5.53076 -0.25953,4.60294 5.1858,-2.88372 2.88011,-3.95979 7.03211,-8.50031 9.22667,-10.09004 8.97412,-6.50084 17.69002,-1.90028 17.69002,9.3374 0,2.37994 0.72781,5.36625 1.61735,6.63624 1.22328,1.74649 1.45822,3.50863 0.96424,7.2324 -1.23,9.27217 -8.56634,27.47572 -9.23051,22.90353 -0.11985,-0.825 -0.4962,-3.20318 -0.83634,-5.28484 l -0.61844,-3.78485 -3.70582,2.08279 c -2.53685,1.42579 -4.26341,3.43093 -5.4735,6.35665 -1.77515,4.2919 -9.16934,12.51123 -10.2674,11.41316 -0.32292,-0.32292 -0.10738,-3.18237 0.47899,-6.35434 0.58637,-3.17196 0.86655,-5.96678 0.62263,-6.2107 -0.24392,-0.24392 -5.46133,-0.1157 -11.59424,0.28494 -13.3235,0.87038 -13.60224,1.05347 -25.94494,17.04202 -10.04535,13.0126 -17.12858,20.28065 -24.06361,24.69147 -6.13757,3.90362 -14.37478,7.17972 -20.69841,8.23216 L 649,453.1758 v 14.4121 c 0,7.92665 -0.29433,14.4121 -0.65407,14.4121 -0.35974,0 -2.212,-1.82008 -4.11612,-4.04463 -1.90413,-2.22454 -3.83767,-3.91204 -4.29676,-3.75 -0.45909,0.16205 -5.8074,7.62242 -11.88513,16.57862 -28.8956,42.58077 -59.02757,80.64423 -97.3429,122.96601 -7.09555,7.8375 -13.41941,14.23847 -14.05301,14.22437 C 516.0184,627.96028 503.575,619.14211 489,608.37845 c -32.3809,-23.91335 -56.40918,-41.2145 -58.18749,-41.8969 -0.76006,-0.29167 -7.95481,5.53571 -16.82035,13.62362 C 352.98229,635.76368 284.14237,683.69011 208.9529,722.85373 191.47376,731.95802 168,742.69652 168,741.58839 Z M 682.07692,384.07692 c 3.80484,-3.80483 3.87555,-7.45417 0.17308,-8.93173 -7.08795,-2.8286 -16.63222,-3.80381 -24.5,-2.50334 -4.93123,0.81508 -4.81438,2.35815 0.17857,2.35815 4.06593,0 7.07143,1.97564 7.07143,4.64835 0,0.82802 1.31538,2.82088 2.92308,4.42857 C 670.21557,386.36942 671.74224,387 675,387 c 3.25776,0 4.78443,-0.63058 7.07692,-2.92308 z M 748.76793,377 c -0.96784,-1.54976 -0.983,-2.42597 -0.0673,-3.89219 1.42778,-2.28624 0.84918,-3.06434 -1.76944,-2.37956 -2.09114,0.54685 -3.51712,4.30238 -2.57039,6.76951 0.31705,0.82623 1.7194,1.50224 3.11632,1.50224 2.28953,0 2.41676,-0.19712 1.29084,-2 z m -29.10275,89.77348 C 724.0974,461.93734 727.65992,456 726.12947,456 c -0.50704,0 -4.3432,1.62477 -8.5248,3.61061 -6.38232,3.03095 -9.00779,3.69393 -16.35379,4.12963 l -8.75088,0.51902 6.2325,-4.20069 C 704.99659,455.8366 709,451.4275 709,448.75062 c 0,-0.79236 -0.8495,-2.20944 -1.88779,-3.14907 C 704.53579,443.26992 695.65908,440 691.90594,440 c -1.68993,0 -2.92261,-0.3375 -2.73927,-0.75 0.18333,-0.4125 3.45271,-4.6822 7.26529,-9.48821 l 6.93196,-8.73822 9.56804,5.16769 c 15.42604,8.33158 14.29183,7.86738 15.92449,6.51743 0.804,-0.66478 2.49345,-3.43273 3.75432,-6.151 l 2.2925,-4.9423 1.04837,2.7574 c 0.5766,1.51658 1.0545,3.74061 1.06201,4.94231 0.0243,3.89246 1.18326,6.6849 2.7744,6.6849 0.85513,0 3.4661,-1.99476 5.80216,-4.43281 3.22842,-3.36937 4.38681,-4.06945 4.82858,-2.91821 1.78963,4.66369 -0.60834,16.58601 -4.76132,23.67253 -5.12784,8.75 -16.76486,16.8669 -26.37216,18.39475 L 715.5,471.31824 Z M 543.87109,451.6984 c -3.0959,-1.20912 -7.74971,-3.5484 -10.34179,-5.1984 l -4.71287,-3 10.84178,-0.61273 c 12.04077,-0.68049 13.69208,-1.19003 30.84179,-9.51675 10.51715,-5.1064 12.87848,-5.87262 19.10914,-6.20063 6.92266,-0.36445 7.16466,-0.2963 9.22553,2.59793 l 2.11639,2.97219 -10.22553,0.52609 c -6.17838,0.31786 -12.20447,1.25009 -15.22553,2.35536 l -5,1.82928 7.51628,0.70665 c 8.24799,0.77543 18.54058,3.76642 18.38504,5.34261 -0.0543,0.55 -3.42928,2.23174 -7.5,3.73719 -19.25574,7.12126 -34.38221,8.61986 -45.03023,4.46121 z M 526.2697,429.00662 c -5.36503,-1.13584 -12.68658,-4.35216 -17.54724,-7.70842 C 505.19425,418.86199 499,411.56095 499,409.83853 c 0,-0.4221 1.99631,0.0883 4.43625,1.13414 13.11339,5.62106 24.17455,5.18449 48.56375,-1.91675 9.625,-2.80244 20.05435,-5.37212 23.17633,-5.71039 l 5.67632,-0.61504 3.09769,5.03438 c 3.08448,5.01292 7.70905,9.27173 13.41648,12.35536 2.93707,1.58685 2.75302,1.63031 -8.93399,2.10967 -8.86717,0.36371 -15.27266,1.3236 -24.93283,3.73629 -13.90824,3.47368 -29.26149,4.72751 -37.2303,3.04043 z M 590.5,398.97059 c -9.82998,-2.21542 -18.79836,-2.34528 -32.5,-0.47059 -12.68998,1.73627 -26.02442,1.89306 -33.20078,0.39038 -8.58711,-1.79807 -18.08262,-7.36947 -24.80161,-14.55209 C 496.69892,380.81198 494,377.48763 494,376.95084 c 0,-0.53679 3.0375,0.55017 6.75,2.41546 3.7125,1.86529 9.29541,3.95814 12.40648,4.65077 8.59025,1.91249 22.95025,0.70028 39.84352,-3.36343 17.37175,-4.1788 24.16104,-5.09424 30.90364,-4.16689 5.02727,0.69142 5.087,0.74231 7.69645,6.55694 1.76723,3.9379 4.69587,7.84399 8.92833,11.90821 l 6.29847,6.0481 -4.16344,-0.11321 C 600.37355,400.82453 594.9,399.96224 590.5,398.97059 Z M 612,349.82646 c -7.93871,-2.25269 -19.76358,-13.92852 -24.63701,-24.32646 -3.78622,-8.07829 -2.60074,-16.95642 2.02704,-15.18057 0.77852,0.29874 4.14027,4.12259 7.47056,8.49743 10.3807,13.63666 19.91994,20.41163 39.13941,27.79764 l 7.5,2.88224 -6.5,0.63475 c -9.74118,0.95125 -21.0594,0.81316 -25,-0.30503 z m 134.34858,-1.76514 c -1.30364,-4.58583 -4.6053,-8.87752 -8.8943,-11.56132 -6.45875,-4.0415 -16.47666,-4.5426 -31.75504,-1.58841 -12.70842,2.45727 -22.41303,2.65954 -29.31142,0.61094 -9.68024,-2.87472 -17.45284,-12.38055 -18.85014,-23.05357 l -0.65053,-4.96896 2.5099,5.91019 c 3.0277,7.1295 8.51603,13.10677 14.60295,15.9039 6.18534,2.84235 15.57715,2.57053 30,-0.86826 16.23177,-3.87009 27.40411,-3.90701 35.20384,-0.11633 6.22494,3.02532 10.10669,6.97963 12.92882,13.1705 2.72674,5.98161 2.44905,7.21328 -1.73645,7.70191 -2.66089,0.31064 -3.71992,0.0122 -4.04763,-1.14059 z"
       id="path1" />
  </g>
</svg>
