<?xml version="1.0" encoding="UTF-8" standalone="no"?>
<!-- Created with Inkscape (http://www.inkscape.org/) -->

<svg
   class="{{ class | default('') }}"
   version="1.1"
   id="svg1"
   viewBox="0 0 852.3808 856.78546"
   xmlns="http://www.w3.org/2000/svg"
   xmlns:svg="http://www.w3.org/2000/svg">
  <defs
     id="defs1" />
  <g
     id="g1"
     transform="translate(-129.61923,-71)">
    <path
       style="fill:currentColor"
       d="m 529.41655,926.61939 c -5.51137,-1.51083 -12.03301,-5.97703 -13.84534,-9.48168 -2.78623,-5.38797 -3.5561,-15.63217 -3.56366,-47.41926 -0.007,-29.15463 -0.17334,-32.27368 -2.01334,-37.73563 -3.78701,-11.24157 -11.01005,-23.19088 -34.55296,-57.16204 -20.4585,-29.52052 -20.60432,-29.65982 -33.10268,-31.62169 -4.31121,-0.67673 -11.88857,-1.88542 -16.83857,-2.68597 -4.95,-0.80055 -12.6,-1.93992 -17,-2.53192 -8.06156,-1.08466 -31.58456,-5.28626 -39,-6.96605 -20.75027,-4.70048 -41.90033,-10.77736 -47.2832,-13.58552 -1.49424,-0.77952 -3.11158,-1.42008 -3.59409,-1.42347 -0.74918,-0.005 -10.64738,-4.42464 -15.73022,-7.02328 -6.96745,-3.56216 -18.17659,-9.54242 -21.89249,-11.67999 -2.475,-1.42374 -5.85,-3.32435 -7.5,-4.22357 -2.61428,-1.42473 -14.173,-9.07528 -17,-11.25205 C 226.75444,658.92342 209.76497,643.24433 190.32259,620.75411 182.9525,612.22866 157.67441,576.10076 156.21016,572 c -0.29459,-0.825 -1.29542,-2.625 -2.22407,-4 -1.95569,-2.89566 -9.12342,-16.00709 -13.12028,-24 -2.39472,-4.78897 -5.40618,-11.2845 -10.43143,-22.5 -1.04639,-2.33534 -1.07724,-3.24362 -0.13929,-4.0996 1.39142,-1.2698 21.70212,-3.12897 42.70491,-3.90904 14.93656,-0.55477 51.12078,0.82061 63.5,2.41366 8.50324,1.09426 19.27927,2.80826 22,3.49924 1.1,0.27937 7.76628,1.88431 14.81394,3.56654 35.53709,8.48244 70.83228,23.66402 101.18606,43.52333 20.82074,13.62221 33.03817,23.82106 51.51771,43.00587 17.63497,18.30801 36.67968,44.01231 56.27986,75.95993 4.15332,6.76977 26.10274,41.02172 29.31886,45.75194 3.90354,5.74124 6.36034,7.2888 6.41067,4.03813 0.0362,-2.33827 1.46618,-16.59466 3.38527,-33.75 2.96048,-26.46463 3.55704,-32.03893 5.08345,-47.5 0.84163,-8.525 1.98106,-19.775 2.53206,-25 1.67568,-15.88996 2.98883,-41.07603 3.64969,-70.00062 0.57191,-25.03123 0.4771,-27.62613 -1.05588,-28.89839 -0.97406,-0.8084 -5.78213,-1.77245 -11.40295,-2.28637 -23.09607,-2.11173 -45.10293,-5.93467 -59.71874,-10.37408 -2.75,-0.83528 -8.15,-2.4547 -12,-3.59869 -3.85,-1.144 -7.9,-2.46348 -9,-2.93217 -1.1,-0.46869 -4.925,-1.93238 -8.5,-3.25265 -12.09939,-4.46839 -30.89673,-13.64605 -40,-19.52972 -3.025,-1.95513 -6.47185,-4.08582 -7.65966,-4.73487 -3.7502,-2.04921 -16.82577,-11.99057 -23.96693,-18.22206 -21.29637,-18.58356 -39.30958,-38.9625 -52.06595,-58.90392 -4.18393,-6.54054 -16.68374,-30.58334 -17.81507,-34.26646 -0.42236,-1.375 -1.76615,-4.75 -2.9862,-7.5 -2.31027,-5.20733 -7.31947,-19.73028 -9.48519,-27.5 -0.68988,-2.475 -1.70156,-5.85 -2.24818,-7.5 -0.54663,-1.65 -1.35382,-4.575 -1.79378,-6.5 -0.43995,-1.925 -1.47237,-6.2 -2.29425,-9.5 -1.82704,-7.33586 -3.24228,-14.76631 -4.57116,-24 -0.55408,-3.85 -1.56935,-10.825 -2.25616,-15.5 -1.69328,-11.5259 -1.8229,-90.43457 -0.1513,-92.10617 1.59503,-1.59503 7.38923,-0.64357 43.29383,7.10925 12.86569,2.77807 35.54029,9.65896 52,15.78006 16.33021,6.07294 24.86758,9.74536 44.5,19.14205 15.93913,7.62897 18.70408,9.02182 27.69595,13.95185 8.21034,4.50155 7.25174,5.09932 11.83,-7.37704 1.21096,-3.3 2.85594,-7.575 3.65552,-9.5 0.79959,-1.925 1.82452,-4.4 2.27763,-5.5 0.45311,-1.1 2.22268,-5.05771 3.93237,-8.7949 1.70969,-3.7372 3.10853,-7.03382 3.10853,-7.32584 0,-0.67117 8.63805,-17.93589 12.94815,-25.87926 9.98412,-18.40038 25.09368,-40.15254 39.99333,-57.57555 C 517.43911,105.98769 552.0348,71 553.3626,71 c 0.50466,0 5.45648,4.3875 11.00405,9.75 34.93849,33.7729 53.83363,56.05684 69.31798,81.75 6.33854,10.51754 18.71171,35.2578 22.27217,44.53341 1.1541,3.00662 2.49219,6.36659 2.97354,7.46659 0.48135,1.1 2.08885,5.15 3.57222,9 1.48337,3.85 3.10213,7.78139 3.59724,8.73643 0.49511,0.95504 0.9002,2.36769 0.9002,3.13922 0,0.77153 0.80399,2.39567 1.78665,3.6092 l 1.78665,2.20642 5.96335,-2.94277 c 3.27984,-1.61852 11.58835,-5.74462 18.46335,-9.1691 6.875,-3.42448 13.4,-6.61761 14.5,-7.09586 1.1,-0.47824 4.7,-2.07507 8,-3.54851 3.3,-1.47343 8.02411,-3.55594 10.49803,-4.62778 2.47392,-1.07185 5.84892,-2.55024 7.5,-3.28532 3.51606,-1.56539 38.83856,-14.0217 42.50197,-14.98812 1.375,-0.36273 3.4,-1.02994 4.5,-1.48268 1.1,-0.45274 3.9125,-1.32446 6.25,-1.93715 2.3375,-0.61269 5.9375,-1.56094 8,-2.10722 19.9712,-5.28965 39.56111,-9.17106 44.48927,-8.81478 L 845.5,181.5 845.45866,225 c -0.0443,46.63235 -0.52497,53.1194 -5.9997,80.9736 -2.59291,13.19218 -3.02892,15.01647 -6.4594,27.0264 -18.06651,63.24988 -56.82595,115.36116 -113.2624,152.27895 -4.53044,2.96358 -9.58716,6.0792 -11.23716,6.9236 -1.65,0.8444 -6.825,3.5112 -11.5,5.92622 -4.675,2.41501 -11.65,5.66776 -15.5,7.22832 -3.85,1.56056 -7.9,3.2321 -9,3.71453 -3.02032,1.32462 -12.43003,4.5028 -17.5,5.9107 -2.475,0.6873 -5.625,1.60442 -7,2.03805 -7.06878,2.22927 -22.58682,5.4827 -33,6.91861 -4.675,0.64465 -10.67183,1.5971 -13.32629,2.11655 -2.65446,0.51946 -7.21186,0.94447 -10.12756,0.94447 -3.70718,0 -5.71395,0.49651 -6.67371,1.65119 -1.07508,1.29344 -1.51481,9.14742 -2.02956,36.25 -0.80386,42.32483 -1.35633,51.08935 -6.9086,109.59881 -2.83502,29.87528 -3.85489,42.78765 -5.91721,74.917 -1.49208,23.24535 -0.51561,27.59503 4.00335,17.833 5.24704,-11.33484 11.37237,-24.79864 13.98966,-30.75 4.19607,-9.54128 17.73455,-36.05266 23.49068,-46 26.2348,-45.33713 66.09288,-85.07252 110.99924,-110.65755 18.78348,-10.70173 46.60573,-23.57992 61.5,-28.46673 2.475,-0.81205 5.4,-1.86623 6.5,-2.34262 1.1,-0.47639 3.125,-1.15911 4.5,-1.51714 1.375,-0.35804 3.85,-1.03952 5.5,-1.5144 32.88055,-9.46323 66.37539,-14.57992 102.79994,-15.70375 20.05286,-0.61871 23.99696,-0.36696 59.34724,3.78811 17.62892,2.0721 19.35282,2.47063 19.35282,4.47402 0,3.45905 -13.70172,32.11987 -22.20134,46.44006 -1.14257,1.925 -3.21092,5.525 -4.59634,8 -1.38542,2.475 -4.6977,8.02314 -7.36063,12.32921 -2.66293,4.30606 -4.84169,8.03777 -4.84169,8.2927 0,0.25492 -1.8,2.90006 -4,5.87809 -2.2,2.97803 -4,5.6705 -4,5.98327 0,0.88717 -15.48334,21.9769 -23.87264,32.51673 -26.42896,33.20378 -56.612,61.03587 -88.59095,81.6906 -8.12081,5.24512 -26.0933,15.45655 -32.53641,18.48623 -5.5895,2.62829 -15.32318,6.96518 -17.5,7.79722 -1.1,0.42045 -4.25,1.70302 -7,2.85015 -20.3052,8.47007 -47.95259,15.42241 -76,19.1113 -25.1314,3.30536 -32.48178,4.15499 -52,6.01064 -29.18819,2.775 -31.95351,3.46168 -37.46332,9.30283 -3.97718,4.21636 -13.80169,17.60503 -17.02083,23.19569 -1.38372,2.40309 -4.73964,8.12362 -7.45761,12.7123 -6.49792,10.97027 -9.01259,16.23589 -11.64504,24.38419 -2.05163,6.35049 -2.14845,8.09029 -1.68897,30.34777 l 0.48743,23.61108 -3.9035,3.6404 c -6.30196,5.8772 -19.18099,8.27802 -29.39161,5.47899 z m 129.44012,-189.0594 c 4.75383,-0.79201 12.69333,-1.97078 17.64333,-2.6195 33.49676,-4.38989 56.59267,-10.43208 82,-21.45227 15.24084,-6.61057 33.43289,-16.81412 45.59155,-25.57137 C 826.4875,671.7862 859.0462,640.23102 874.16829,620 c 10.24326,-13.70389 23.23477,-34.53882 22.3894,-35.90665 -1.51397,-2.44967 -50.26594,3.60084 -64.05769,7.95007 -1.65,0.52033 -5.925,1.82216 -9.5,2.89296 -3.575,1.07081 -8.975,2.90688 -12,4.08018 -3.025,1.1733 -6.625,2.50145 -8,2.95145 -1.375,0.45 -6.1,2.37742 -10.5,4.28315 -21.37093,9.25619 -38.71293,17.9419 -45.65437,22.86592 -1.4599,1.03561 -2.91987,1.88292 -3.24437,1.88292 -0.32449,0 -6.00989,3.66522 -12.63422,8.14494 -21.9887,14.86992 -43.17541,34.68602 -56.79176,53.1178 C 664.13771,705.8501 648,733.70506 648,737.44335 c 0,1.90185 0.13278,1.90328 10.85667,0.11664 z M 418,684.89339 c 0,-1.39946 -10.44117,-15.21858 -18.41774,-24.37628 -11.88821,-13.64856 -32.57523,-33.28001 -39.96275,-37.92362 -1.58427,-0.99583 -4.16316,-2.95346 -5.73086,-4.35029 -1.5677,-1.39683 -3.72171,-3.03548 -4.78668,-3.64144 -1.06497,-0.60597 -5.01108,-3.18053 -8.76914,-5.72126 C 330.57552,602.28384 325.0114,598.8059 321,596.79622 c -1.925,-0.96441 -4.175,-2.1614 -5,-2.65996 -2.7688,-1.67326 -16.49149,-8.14528 -17.2609,-8.14074 -0.41849,0.002 -2.66849,-0.82101 -5,-1.82994 -4.83499,-2.09229 -10.31211,-4.09909 -13.2391,-4.85078 -1.1,-0.28249 -3.41801,-1.14389 -5.15113,-1.91421 C 273.61575,576.63027 271.6227,576 270.91987,576 c -0.70283,0 -2.65982,-0.4327 -4.34887,-0.96156 -5.78139,-1.81022 -20.06806,-5.30168 -25.071,-6.127 -2.75,-0.45366 -8.14983,-1.51932 -11.99963,-2.36814 C 221.14868,564.70189 215,564.53899 215,566.15913 c 0,3.1566 20.61726,27.5008 34.16493,40.34087 16.11079,15.26931 26.78273,23.7576 42.76012,34.01069 0.86622,0.55588 4.22725,2.72924 7.46894,4.82969 12.87211,8.34046 32.45014,17.64309 58.10601,27.60945 10.01349,3.88987 41.48608,11.317 52.5,12.38933 7.0823,0.68954 8,0.63841 8,-0.44577 z M 561,474.86514 c 8.69454,-5.28474 36.31346,-37.86914 44.38531,-52.36514 0.91877,-1.65 2.47929,-4.35 3.46782,-6 5.33341,-8.90226 10.35526,-19.19765 16.58439,-34 9.17676,-21.80682 13.32839,-50.92331 10.59407,-74.2991 -2.38732,-20.40928 -7.37265,-42.95179 -11.15435,-50.43733 C 624.39476,256.80853 624,255.33993 624,254.5 c 0,-0.83993 -0.41404,-2.30853 -0.92009,-3.26357 -0.50605,-0.95504 -1.92575,-4.43643 -3.15489,-7.73643 -1.22915,-3.3 -4.19011,-10.10859 -6.57992,-15.1302 C 610.9553,223.34819 609,218.97251 609,218.64606 609,217.52169 593.93352,191.8342 588.7812,184.17416 583.66201,176.56338 570.11924,157.96045 568.99865,157 c -0.32085,-0.275 -3.43303,-4.2125 -6.91596,-8.75 -3.48292,-4.5375 -6.8839,-8.25 -7.55772,-8.25 -1.89257,0 -22.07714,26.61616 -32.98857,43.5 -12.19143,18.86447 -18.92219,31.64784 -31.59145,60 -1.62366,3.63353 -4.8619,12.87325 -7.53509,21.5 -6.10236,19.69313 -8.9203,40.24022 -8.70874,63.5 0.20998,23.08659 5.53831,46.21033 16.20795,70.33883 3.70482,8.37816 5.38645,11.66158 12.37429,24.16117 9.71799,17.38319 34.63932,45.79579 46.21664,52.69119 3.13482,1.86709 8.67113,1.50123 12.5,-0.82605 z m 86,-10.26209 c 9.08467,-2.41475 16.29578,-4.69989 20,-6.33782 5.21471,-2.30584 13.23191,-6.23166 15.47735,-7.57887 14.99007,-8.99369 21.31126,-13.80067 36.90306,-28.0631 26.52404,-24.26257 50.48749,-59.37937 60.13468,-88.12326 1.47676,-4.4 3.08303,-8.9 3.56949,-10 1.19152,-2.6943 6.78013,-24.64331 8.02045,-31.5 C 793.75546,278.34809 798,248.80255 798,245.00531 c 0,-2.27463 -0.5447,-3.10392 -2.33367,-3.55292 -2.72494,-0.68392 -16.07538,3.50978 -29.39489,9.23367 -1.77572,0.76309 -6.163,2.49195 -9.74953,3.84191 -3.58652,1.34997 -7.30867,2.88653 -8.27143,3.41459 -0.96276,0.52806 -8.05048,4.0664 -15.75048,7.86298 -15.87161,7.82569 -21.18921,10.65775 -27.23013,14.50232 -2.32657,1.48068 -4.51571,2.69214 -4.86476,2.69214 -0.34906,0 -3.26929,1.9125 -6.48942,4.25 -7.94508,5.76736 -9.33384,8.88411 -8.53866,19.16305 0.56044,7.24447 -1.47028,40.27704 -2.9562,48.08695 -0.31393,1.65 -1.24495,6.6 -2.06893,11 -0.82398,4.4 -1.91524,9.4625 -2.42503,11.25 -0.50978,1.7875 -1.31604,4.7125 -1.79169,6.5 -4.73543,17.79572 -7.88701,26.27564 -15.70232,42.25 -6.71158,13.71838 -9.593,19.12073 -11.71134,21.9575 -9.54432,12.7813 -12.42904,17.43498 -11.42807,18.43595 0.61187,0.61187 1.80865,0.90077 2.65952,0.64201 0.85087,-0.25876 4.02203,-1.12835 7.04703,-1.93241 z m -178,0.85786 c 0,-0.29649 -3.29104,-5.35899 -7.31343,-11.25 -6.62274,-9.69937 -16.40213,-28.23775 -19.62955,-37.21091 -0.69237,-1.925 -1.60197,-4.4 -2.02132,-5.5 -3.77945,-9.91385 -10.26528,-34.82446 -12.88804,-49.5 -2.29888,-12.86334 -4.20957,-37.79296 -4.04458,-52.77136 0.19523,-17.72293 0.42386,-17.20204 -10.07721,-22.95924 C 409.43664,284.3016 404.025,281.22531 401,279.43319 392.07305,274.14454 357.20249,257.03842 355.22496,256.97776 354.82623,256.96553 353.375,256.07554 352,255 c -1.375,-1.07554 -3.4225,-1.96553 -4.55,-1.97776 -1.1275,-0.0122 -2.4775,-0.42113 -3,-0.90867 -1.06493,-0.99367 -15.42651,-6.73951 -25.6654,-10.26832 -4.72483,-1.62841 -7.02919,-2.00066 -7.77402,-1.25583 -1.54104,1.54104 0.44348,20.12636 4.58193,42.91058 0.8991,4.95 1.98368,11.025 2.41016,13.5 2.18601,12.68595 9.59294,36.30984 16.09105,51.32129 13.36163,30.86706 34.47501,58.5037 62.22707,81.45296 15.14282,12.52219 43.78315,27.93106 65.17921,35.06727 3.32769,1.10988 7.5,1.45445 7.5,0.61939 z"
       id="path1" />
  </g>
</svg>
