<svg xmlns="http://www.w3.org/2000/svg" viewBox="0 0 364 553"><path style="fill:currentColor" fill-rule="evenodd" d="M18.741 1.423C12.21 3.764 6.724 8.742 3.225 15.5c-3.887 7.509-3.778 17.079.285 25.026 1.869 3.655 4.636 7.127 7.295 9.155 8.8 6.713-1.872 6.324 172.127 6.275 130.012-.036 158.233-.281 161.37-1.4 9.033-3.222 17.09-11.899 18.346-19.758.334-2.089 1-3.798 1.48-3.798s.872-1.827.872-4.059c0-2.451-.396-3.814-1-3.441-.55.34-1-.323-1-1.474 0-5.77-7.548-15.541-15.263-19.757C344.684.6 335.364.488 183.5.288 50.59.112 21.844.31 18.741 1.423m3.457 15.25c-4.034 1.988-6.447 6.372-6.375 11.582.062 4.468 2.013 7.936 5.897 10.481 2.544 1.667 11.402 1.764 160.289 1.758 148.687-.005 157.748-.105 160.28-1.763 8.281-5.426 7.912-18.035-.646-22.096-3.144-1.492-17.128-1.633-159.794-1.612-142.364.021-156.644.168-159.651 1.65M.272 28c0 2.475.195 3.488.434 2.25.238-1.238.238-3.262 0-4.5C.467 24.512.272 25.525.272 28m178.789 39.718-139.44.289-2.31 2.171C35.078 72.275 35 72.904 35 88.796c0 59.876 22.735 103.693 76.029 146.533 31.204 25.083 38.169 35.522 31.9 47.81-3.143 6.161-8.788 11.769-27.865 27.678-28.996 24.183-40.784 36.54-53.8 56.399-18.155 27.698-26.206 56.865-26.246 95.079-.018 17.572.013 17.827 2.437 20.25L39.909 485h283.979l2.583-2.25c3.405-2.966 4.054-10.806 2.635-31.824-2.261-33.495-10.239-58.431-26.849-83.926-11.859-18.203-25.311-32.368-52.257-55.028-19.388-16.304-25.79-22.68-28.907-28.79-2.538-4.975-2.685-11.132-.382-15.986 2.675-5.636 13.344-16.271 30.78-30.68C307.149 190.518 329 148.983 329 89.181c0-16.267-.077-16.905-2.298-18.991-1.264-1.188-3.627-2.295-5.25-2.46s-65.7-.171-142.391-.012M50.289 96.75c1.318 30.976 8.89 55.182 24.737 79.081 10.12 15.262 24.006 29.769 45.921 47.976 22.941 19.058 31.086 27.457 35.722 36.838 7.206 14.58 4.225 27.08-10.046 42.126-3.918 4.131-11.848 11.364-17.623 16.075-28.264 23.055-41.955 36.899-53.33 53.927C58.93 397.833 50 428.082 50 459.724V470h19.271l8.478-7.75c28.079-25.668 75.85-66.205 86.251-73.189 7.739-5.197 11.615-6.554 18.522-6.483 4.804.049 7.258.72 12.131 3.318 8.872 4.729 66.27 52.873 90.434 75.854l8.674 8.25H314l-.018-11.25c-.034-20.485-4.099-41.159-11.78-59.909-10.844-26.469-29.08-48.659-62.202-75.691-20.765-16.946-28.094-24.538-32.715-33.887-6.728-13.614-4.668-24.738 7.287-39.35 5.436-6.646 9.897-10.676 33.965-30.685 35.392-29.425 54.51-59.118 62.487-97.051 1.181-5.619 2.296-15.862 2.657-24.427l.623-14.75H49.703zm61.785 72.416c-10.854 1.029-14.029 2.253-15.883 6.122-1.047 2.183-1.081 3.515-.164 6.295 1.963 5.948 12.012 17.42 24.453 27.917 28.797 24.297 32.97 28.057 38.337 34.536 3.126 3.774 8.39 12.164 11.699 18.644 6.536 12.802 8.657 14.7 14.234 12.74 2.18-.766 3.89-3.247 8.25-11.962 8.95-17.891 15.293-24.993 41.02-45.925 28.654-23.314 36.734-34.719 29.445-41.565l-2.534-2.382-13.716 1.829c-18.149 2.419-45.423 3.18-57.948 1.617-5.372-.67-16.155-2.507-23.962-4.082-23.433-4.729-34.774-5.535-53.231-3.784m8.639 14.759-4.787.575 7.287 7.108c4.008 3.91 13.65 12.338 21.427 18.73 16.275 13.374 28.291 25.774 33.47 34.535l3.61 6.107 4.793-7.24c6.658-10.056 18.188-21.638 37.237-37.404 8.938-7.398 16.25-13.537 16.25-13.643s-12.487-.211-27.75-.232c-26.108-.038-28.549-.2-41.25-2.752-27.36-5.497-40.297-6.985-50.287-5.784m58.752 112.036c-3.849 1.543-4.867 4.053-4.576 11.289.246 6.108 8.613 9.167 12.706 4.645 2.693-2.975 2.636-11.136-.095-13.763-2.53-2.432-5.428-3.216-8.035-2.171m-1.21 40.257c-3.017 1.456-4.52 7.083-3.201 11.983 2.315 8.596 13.169 7.529 14.605-1.434.751-4.695-1.045-9.166-4.274-10.637-2.97-1.354-4.172-1.339-7.13.088m.426 61.825c-3.556 1.036-10.283 6.07-29.181 21.837-23.314 19.452-35.144 29.678-56.474 48.817-1.224 1.098 13.808 1.312 88.5 1.256l89.974-.066-7-6.611c-14.384-13.584-68.825-59.391-75.353-63.403-3.585-2.203-7.086-2.815-10.466-1.83M16.5 499.353c-5.622 2.623-11.622 8.728-14.13 14.375-1.045 2.353-1.707 6.593-1.759 11.274-.075 6.616.28 8.15 3.004 13 1.699 3.024 4.986 6.957 7.304 8.739 8.68 6.677-1.856 6.311 173.129 6.021L342.5 552.5l4.656-2.152c6.164-2.85 12.333-9.355 14.372-15.156.907-2.581 2.059-5.473 2.561-6.428 1.113-2.122 1.212-8.764.129-8.764-.43 0-1.376-2.015-2.103-4.477-1.741-5.896-7.881-12.729-14.322-15.939L342.607 497l-160.553.01-160.554.01zm4.398 14.934c-8.621 5.801-6.344 19.733 3.692 22.589 2.307.657 202.479.82 297.26.242L341.2 537l3.321-3.321c6.081-6.081 5.27-15.397-1.711-19.653-3.283-2.002-4.601-2.019-160.912-2.022L24.296 512zM.272 525c0 2.475.195 3.487.434 2.25.238-1.237.238-3.263 0-4.5-.239-1.237-.434-.225-.434 2.25"/></svg>