<svg class="{{ class | default('') }}" xmlns="http://www.w3.org/2000/svg" viewBox="0 0 473 485"><path style="fill:currentColor" fill-rule="evenodd" d="M83.309 3.75c.31 2.063 1.319 10.275 2.243 18.25s2.069 14.986 2.545 15.581c.477.594 5.134 2.551 10.349 4.349 5.965 2.056 9.66 3.88 9.962 4.919.263.908 1.014 7.014 1.667 13.569 1.843 18.489.237 16.725 15.398 16.918l12.917.164 3.086 11.992c2.063 8.013 3.574 12.076 4.556 12.243.807.138 3.718-.347 6.468-1.078 5.892-1.566 5.866.356.287-20.878l-4.13-15.722-12.537-.278-12.538-.279-1.548-12.707c-.851-6.988-1.994-13.126-2.541-13.639s-5.268-2.119-10.493-3.569-10.41-3.018-11.521-3.485c-1.456-.611-3.546-4.943-7.467-15.474C84.685.315 82.181-3.747 83.309 3.75m298.375 11.119-5.812 14.869-11.967 3.33c-9.824 2.733-12.043 3.697-12.393 5.381-.235 1.128-.907 6.101-1.493 11.051s-1.328 10.288-1.647 11.862l-.58 2.862-12.133-.362-12.133-.362-4.86 17.381c-3.899 13.944-4.595 17.545-3.522 18.208 1.767 1.092 10.845 3.255 11.387 2.713.233-.233 1.896-5.972 3.696-12.754l3.273-12.331 12.793.611c9.622.459 12.898.309 13.217-.609.234-.67 1.248-7.933 2.254-16.139 1.291-10.529 2.257-15.16 3.283-15.734.799-.447 5.498-2.282 10.442-4.079l8.989-3.267 2.188-16.5c3.516-26.51 3.156-26.954-4.982-6.131M221.5 55.957c-15.452 1.824-30.784 7.785-42.117 16.376-16.093 12.199-25.46 31.461-27.798 57.167-1.317 14.482 3.178 53.986 8.529 74.95 4.181 16.38 11.549 31.497 20.378 41.811 3.299 3.854 3.507 4.521 3.492 11.169-.027 11.48-1.769 28.675-3.479 34.334-.875 2.895-2.949 6.811-4.608 8.701-3.551 4.044-6.147 5.096-49.397 20.009-17.05 5.879-34.724 12.506-39.274 14.725-14.21 6.93-28.008 21.619-33.979 36.171-5.677 13.837-5.574 12.757-5.987 62.362l-.386 46.233 2.518 2.517L51.909 485H419.73l2.635-2.073 2.635-2.072-.017-44.178c-.019-47.402-.349-51.352-5.313-63.642-4.03-9.976-8.729-17.037-16.713-25.113-10.149-10.265-18.095-14.049-59.457-28.318-44.435-15.328-43.972-15.14-47.352-19.24-4.677-5.674-6.199-12.147-7.392-31.426l-1.086-17.561 4.576-5.618c13.467-16.534 20.052-34.846 25.405-70.653 3.742-25.028 3.778-49.328.094-63.195-7.428-27.956-26.085-46.293-54.412-53.478-10.81-2.743-29.971-3.877-41.833-2.476M21.665 68.786c2.109 2.633 7.21 8.968 11.335 14.079l7.5 9.292 6-.556c3.3-.307 8.25-.841 11-1.187l5-.631 8.416 12.359c4.629 6.797 8.602 12.581 8.829 12.854s5.547-2.148 11.821-5.379l11.409-5.873 3.263 2.492c1.794 1.371 6.637 5.253 10.762 8.627s7.795 6.135 8.156 6.136c.361 0 2.237-2.2 4.17-4.889l3.513-4.89-2.67-2.451c-2.137-1.962-19.943-16.294-24.792-19.955-.686-.518-3.607.559-7.5 2.766-3.507 1.988-8.016 4.455-10.019 5.482l-3.641 1.868-7.359-10.926c-4.743-7.043-8.001-10.94-9.168-10.965-.995-.022-6.803 1.088-12.906 2.466L43.687 82.01l-11.896-9.005C25.248 68.052 19.43 64 18.862 64s.694 2.154 2.803 4.786m418.606 4.136-12.103 8.921-10.834-2.41c-5.959-1.325-11.628-2.599-12.598-2.831-1.317-.315-3.742 2.448-9.577 10.912l-7.813 11.335-10.225-5.428-10.224-5.428-13.949 11.154C345.277 105.282 339 110.562 339 110.88c0 1.132 6.515 10.116 7.337 10.118.461.001 5.614-3.898 11.453-8.665l10.615-8.667 11.649 6.156 11.649 6.156 8.741-13.122 8.741-13.122 5.658.621c3.111.342 7.95.906 10.753 1.254l5.097.633 10.323-12.371a5625 5625 0 0 1 11.809-14.121c3.173-3.739-.941-1.389-12.554 7.172M214.5 71.581c-23.501 5.169-40.591 21.466-46.164 44.019-4.637 18.766-.037 69.484 8.607 94.897 4.624 13.595 10.307 22.742 20.557 33.085 7.409 7.477 10.563 9.856 17.839 13.458 8.155 4.037 9.563 4.407 18.187 4.784 15.682.686 26.187-3.639 39.276-16.171 18.662-17.868 26.149-37.334 31.774-82.615 1.888-15.197 1.831-35.105-.129-44.83-4.52-22.43-20.496-39.433-42.947-45.708-8.705-2.432-37.554-2.997-47-.919m15.999 14.292c-4.224 7.716-7.589 14.388-7.478 14.828s2.852 1.859 6.091 3.155c3.238 1.296 5.884 2.646 5.879 3s-.837 5.482-1.849 11.394-1.541 10.75-1.176 10.75c.366 0 1.734-1.912 3.039-4.25s4.763-8.245 7.684-13.128c5.415-9.051 6.056-10.622 4.34-10.622-.535 0-3.393-1.071-6.352-2.379l-5.379-2.379 1.872-11.767c1.029-6.472 1.677-11.961 1.44-12.198s-3.887 5.881-8.111 13.596m-45.011 6.09c.343 1.08 1.683 6.964 2.977 13.076s2.528 11.287 2.741 11.5 2.711-.226 5.552-.975c5.938-1.567 5.332-2.002 10.68 7.677 4.052 7.335 6.261 9.682 5.224 5.55-.346-1.379-1.354-7.408-2.241-13.399-.886-5.991-1.777-11.062-1.978-11.27s-2.383.129-4.848.75c-2.464.62-4.943 1.128-5.508 1.128s-3.404-3.596-6.308-7.991c-5.106-7.729-7.579-10.106-6.291-6.046m89.683 4.692c-5.681 3.076-10.551 6.172-10.823 6.88-.271.708.712 3.109 2.185 5.335l2.679 4.048-6.185 7.629c-3.402 4.195-5.982 7.831-5.734 8.079s2.646-.863 5.329-2.469 7.916-4.57 11.628-6.587 6.75-3.991 6.75-4.387-1.125-2.374-2.5-4.398-2.5-4.226-2.5-4.896 2.734-4.293 6.076-8.053 5.479-6.822 4.75-6.804-5.974 2.548-11.655 5.623M84.466 137.662a366 366 0 0 1-6.154 10.052l-3.327 5.213-9.743-4.583c-5.358-2.521-11.416-5.268-13.461-6.104l-3.72-1.519-8.839 9.323-8.839 9.323-12.942-1.242c-7.117-.682-14.012-1.503-15.321-1.824-1.668-.409-2.253-.201-1.955.693.234.703 7.604 3.932 16.378 7.178 18.36 6.791 16.632 6.962 27.161-2.691l6.796-6.231 13.863 6.939c7.625 3.816 14.429 6.721 15.119 6.456s4.126-5.014 7.636-10.553c3.884-6.129 7.032-10.076 8.043-10.082.914-.006 6.423 1.115 12.242 2.49s11.211 2.5 11.982 2.5c1.717 0 2.356-1.566 3.182-7.797l.64-4.821-15.854-3.347a8541 8541 0 0 0-17.956-3.78c-1.656-.34-2.705.598-4.931 4.407m281.034-.966c-9.35 1.923-17.101 3.591-17.225 3.708s.293 2.999.927 6.404c.721 3.88 1.644 6.192 2.471 6.192.726 0 6.609-1.123 13.073-2.495s12.067-2.497 12.45-2.5 3.72 4.538 7.416 10.09c3.697 5.553 7.27 10.306 7.942 10.564.671.258 7.115-2.485 14.319-6.095S420.379 156 420.877 156s4.644 3.158 9.214 7.017c4.569 3.859 8.591 6.897 8.939 6.75.347-.147 8.13-2.967 17.295-6.267 22.292-8.027 22.196-8.679-.825-5.584l-13 1.748-9.699-9.513-9.7-9.512-12.3 5.78c-6.766 3.179-12.752 5.966-13.303 6.192-.551.227-3.701-4.078-7-9.567s-6.448-9.949-6.998-9.911c-.55.037-8.65 1.641-18 3.563m-260 37.764-16 5.252-.676 4.394c-.372 2.417-.709 7.846-.75 12.064L88 203.841l-6.25.625c-3.437.344-9.609.943-13.714 1.33l-7.465.704-2.202 7.5c-1.211 4.125-2.9 9.993-3.752 13.039l-1.55 5.539-13.527 6.461c-12.45 5.946-16.862 8.94-11.29 7.661 1.237-.284 9.289-2.164 17.893-4.179l15.643-3.664 3.655-10.256 3.654-10.257 15.076-1.129c8.292-.621 15.276-1.329 15.522-1.574.245-.246.852-6.177 1.348-13.182s1.028-12.847 1.181-12.982 5.678-1.913 12.278-3.952 12.357-4.045 12.794-4.46c1.1-1.044-3.162-12.089-4.616-11.961-.648.057-8.378 2.467-17.178 5.356m240.913-1.907c-3.75 8.976-4.098 8.535 10.249 12.996 14.885 4.628 14.022 3.431 14.22 19.726.143 11.857-.84 11.201 18.322 12.227l13.679.733 2.718 7.632c5.473 15.372 2.682 13.255 22.801 17.292 9.717 1.95 17.529 3.133 17.361 2.629s-6.091-3.555-13.163-6.781c-7.071-3.225-13.205-6.234-13.631-6.685-.426-.452-2.203-6.217-3.949-12.811-1.746-6.593-3.641-12.277-4.211-12.629s-5.598-.937-11.173-1.299c-16.502-1.073-15.619-.601-15.735-8.412-.054-3.669-.392-9.079-.75-12.021l-.651-5.351-16.5-5.383c-9.075-2.96-16.86-5.39-17.301-5.399s-1.469 1.582-2.286 3.536M198 269.905c0 8.526-2.35 22.283-5.031 29.447-2.401 6.419-8.506 13.711-14.318 17.102-2.283 1.332-18.551 7.441-36.151 13.576-40.313 14.053-48.848 17.345-54.707 21.104-6.875 4.41-16.151 14.806-19.677 22.052C62.24 385.26 62 387.54 62 431.21V471h51v-26.3c0-19.122.328-26.628 1.2-27.5 1.557-1.557 11.043-1.557 12.6 0 .872.872 1.2 8.378 1.2 27.5V471l105.75-.014c58.163-.007 106.762-.285 108-.616l2.25-.603v-25.684c0-18.642.329-26.012 1.2-26.883.66-.66 3.495-1.2 6.3-1.2s5.64.54 6.3 1.2c.872.872 1.2 8.378 1.2 27.5V471h51v-40.948c0-40.814-.008-40.974-2.478-48.75-4.582-14.428-13.925-25.607-27.201-32.544-3.751-1.96-23.921-9.486-44.821-16.725s-39.851-14.241-42.113-15.559c-11.541-6.727-17.568-20.134-19.022-42.313-.366-5.588-.814-10.161-.996-10.161s-2.779 1.566-5.772 3.481c-18.758 11.999-43.628 11.8-63.347-.508l-6.25-3.901z"/></svg>