<svg xmlns="http://www.w3.org/2000/svg" viewBox="0 0 371 578"><path style="fill:currentColor" fill-rule="evenodd" d="M307.5 1.995c-11.319 3.793-19.554 12.037-23.643 23.67-1.063 3.026-2.4 10.502-2.97 16.614-1.236 13.236-2.412 15.913-7.96 18.134-3.67 1.468-5.286 1.519-13.96.436-11.594-1.447-16.917-.705-33.529 4.672-8.338 2.699-14.503 3.907-25.938 5.084-22.007 2.266-56.817 11.46-68.223 18.019-5.197 2.989-8.018 7.69-12.652 21.089-6.069 17.55-12.693 48.489-16.118 75.287-.387 3.025-2.783 10.675-5.325 17-4.493 11.182-4.628 11.83-4.874 23.45-.14 6.572-.777 14.285-1.416 17.141-1.912 8.545-.716 19.783 2.961 27.812 5.482 11.973 6.181 15.713 7.21 38.561 1.047 23.272 1.946 32.719 4.97 52.219 1.082 6.976 1.967 15.543 1.967 19.038 0 5.904-.393 7.025-5.544 15.817-8.831 15.074-15.303 28.867-17.344 36.962-1.35 5.356-2.066 12.906-2.505 26.408-.968 29.747-5.375 53.013-13.656 72.092-2.626 6.05-5.075 12.616-5.444 14.591-1.477 7.915 3.377 16.643 11.173 20.092 3.624 1.603 6.413 1.845 19.033 1.651 14.08-.215 15.193-.085 23.287 2.72 8.022 2.78 9.344 2.94 23.515 2.843 19.82-.136 23.485-1.875 23.485-11.144 0-5.285-3.566-8.418-12.657-11.124-10.631-3.164-34.158-19.881-36.444-25.896-1.916-5.039.996-14.896 13.367-45.233 14.517-35.603 27.795-65.562 32.279-72.831 5.166-8.376 7.546-15.439 9.994-29.669.946-5.5 2.462-13.495 3.368-17.766l1.647-7.766 14.723 14.841c17.19 17.327 16.57 15.513 11.673 34.191-6.387 24.358-6.284 38.668.428 59.545 6.546 20.363 8.749 34.441 8.83 56.422.049 13.384-.194 15.394-3.077 25.426-3.598 12.517-3.819 16.495-1.235 22.186 4.006 8.82 10.052 10.931 28.604 9.988 9.609-.488 16.13-.235 25 .971 15.216 2.069 36.708 1.307 43.179-1.53 6.546-2.871 8.921-9.013 5.811-15.028-1.873-3.622-3.119-4.267-12.49-6.464-8.873-2.08-21.43-8.398-32.421-16.313-11.695-8.421-12.115-9.2-11.901-22.043.098-5.863 1.772-26.41 3.72-45.66s4.015-41.075 4.593-48.5 1.996-19.546 3.151-26.935c2.986-19.101 2.477-23.593-4.51-39.845-3.114-7.244-8.305-20.045-11.535-28.446-10.004-26.018-16.906-39.532-31.659-61.992-4.594-6.995-9.095-14.152-10.001-15.905-2.204-4.262-1.357-8.841 2.922-15.801 1.886-3.067 4.413-8.897 5.616-12.955 2.579-8.704 6.967-13.964 19.525-23.406 4.4-3.309 9.355-7.282 11.01-8.829 1.656-1.547 6.196-4.364 10.089-6.258 4.978-2.423 8.545-5.091 12.023-8.993 9.876-11.081 19.482-30.457 23.478-47.358 2.269-9.599 3.349-11.284 9.565-14.926 8.293-4.86 9.656-4.843 20.58.263 7.804 3.648 10.49 4.464 13.042 3.959 4.636-.918 5.73-2.02 12.53-12.626 5.921-9.233 6.235-9.539 9.415-9.168 2.303.269 4.131-.277 6.09-1.817l2.799-2.202-.292-11.63c-.275-11.006-.135-11.979 2.62-18.13 2.466-5.506 2.917-7.808 2.946-15.052.029-7.293-.361-9.354-2.645-14-3.8-7.729-7.783-12.151-15.66-17.388C341.909 3.791 333.327.836 322.5.371c-7.115-.306-10.257.034-15 1.624m1.534 9.739c-5.901 2.083-13.317 9.736-15.476 15.97-.913 2.638-2.277 10.263-3.031 16.944-.754 6.682-2.058 13.478-2.898 15.102-2.418 4.677-8.168 9.06-14.176 10.807-4.736 1.377-6.53 1.432-12.392.385-10.169-1.818-18.786-.785-33.061 3.962-10.249 3.409-14.751 4.341-25 5.179-6.875.562-17.675 2.171-24 3.574-13.252 2.941-40.467 11.551-43.68 13.82-3.803 2.684-11.948 26.777-16.235 48.023-1.11 5.5-3.421 18.55-5.135 29-3.071 18.714-4.119 22.621-9.529 35.5-4.687 11.16-4.378 24.535.827 35.75 1.085 2.338 2.598 4.25 3.362 4.25s1.39-.199 1.39-.442c0-1.463 7.361-24.37 8.659-26.944 4.561-9.05 10.678-11.095 16.222-5.424 1.716 1.754 3.119 2.671 3.119 2.037 0-2.427-4.295-11.98-7.97-17.727-2.11-3.3-4.146-7.484-4.523-9.297-1.418-6.809 2.12-17.352 12.948-38.584 5.643-11.065 11.5-23.412 13.016-27.437 1.897-5.038 3.421-7.565 4.892-8.112 1.176-.437 11.812-1.069 23.637-1.403s26.225-1.282 32-2.106c15.26-2.177 22.124-2.038 25.365.512 2.825 2.221 3.412 5.057 1.385 6.688-.687.553-6.425 1.239-12.75 1.525s-16.225 1.02-22 1.633-13.937 1.365-18.138 1.672l-7.638.559-8.767 17.175c-10.589 20.744-16.003 28.817-25.919 38.65-4.146 4.111-7.538 8.026-7.538 8.7s1.578 3.835 3.507 7.025c1.928 3.19 4.956 10.209 6.728 15.598 3 9.122 3.117 9.984 1.707 12.5-3.51 6.261-11.413 6.203-16.432-.12-3.504-4.415-3.363-4.685-10.555 20.242-2.706 9.379-6.045 13.08-11.801 13.08-3.1 0-4.667-.667-6.962-2.962l-2.962-2.962.899 4.003c3.088 13.743 11.899 22.928 32.401 33.775 5.194 2.748 7.686 5.232 17.975 17.918 6.599 8.136 23.016 25.932 36.681 39.762 15.737 15.927 25.295 26.374 26.275 28.718 2.27 5.434 1.931 9.318-2.143 24.514-3.43 12.792-3.684 14.729-3.712 28.234-.029 14.284.033 14.701 4.192 27.993 7.388 23.612 9.661 39.676 8.976 63.417-.336 11.636-.874 15.633-3.09 22.952-3.388 11.186-3.401 14.012-.082 17.331l2.601 2.601 12.649-.632c8.924-.445 16.934-.148 27.205 1.01 17.419 1.965 40.443 1.027 40.443-1.648 0-1.017-2.333-2.011-7.5-3.198-14.437-3.316-41.634-19.644-46.892-28.152-4.692-7.591-4.563-14.753 1.332-73.674 1.899-18.975 3.953-40.575 4.564-48s1.812-17.325 2.666-22c2.281-12.486 1.43-20.643-3.176-30.443-2.053-4.368-6.799-15.899-10.547-25.625-11.382-29.533-18.196-42.894-35.543-69.701-5.777-8.926-9.479-15.717-9.888-18.137-.859-5.086.801-11.018 5.484-19.594 2.102-3.85 4.36-9.025 5.016-11.5.657-2.475 1.87-5.808 2.696-7.407 2.105-4.074 9.424-11.695 16.121-16.785 3.116-2.37 8.987-6.919 13.047-10.109 4.059-3.191 9.909-7.089 13-8.663 8.402-4.277 15.19-12.209 21.854-25.536 4.183-8.364 8.999-21.873 10.34-29 .99-5.267 1.764-6.621 6.331-11.08 2.861-2.795 7.835-6.369 11.052-7.943 8.452-4.135 12.993-3.851 23.499 1.47 5.563 2.818 8.914 3.987 9.793 3.418.736-.476 4.149-5.365 7.585-10.865 6.068-9.713 6.361-10.008 10.207-10.294l3.959-.295-.342-9.309c-.28-7.652.013-10.093 1.647-13.706 6.142-13.579 5.519-23.839-1.965-32.341-11.087-12.595-31.678-18.808-45.806-13.821M158.52 134.25c-1.537 3.988-6.411 14.225-10.829 22.75-8.166 15.755-7.909 17.911.616 5.162 3.363-5.03 14.682-26.067 18.515-34.412.19-.412-.972-.75-2.581-.75-2.707 0-3.133.539-5.721 7.25M52.443 166.446c-.989 1.51-1.285 2.997-.773 3.886.457.791 6.648 8.016 13.759 16.054 13.82 15.62 15.97 16.987 19.134 12.158.906-1.383 1.273-3.021.84-3.75-.424-.712-6.601-7.931-13.728-16.044-13.869-15.788-16.039-17.176-19.232-12.304m-13.439 26.53c-.823.52-2.398 3.838-3.5 7.373l-2.004 6.427-13.38-5.388C12.761 198.425 5.75 196 4.539 196c-1.293 0-2.725.979-3.472 2.375-2.393 4.472-.321 5.961 18.899 13.584 19.433 7.708 21.13 7.883 22.474 2.317.369-1.527 1.1-4.413 1.623-6.413l.953-3.637 14.004 6.387C66.722 214.126 73.399 217 73.857 217c1.918 0 4.361-3.997 3.802-6.221-.462-1.842-4.127-3.947-18.368-10.55-9.785-4.536-18.016-8.237-18.291-8.223s-1.173.45-1.996.97M55 234.3c-15.49 8.143-17.536 9.509-17.81 11.887-.229 1.977.36 3.127 2.225 4.35 2.49 1.631 2.844 1.502 19.311-7.051C76.713 234.144 79 232.623 79 230c0-2.017-3.081-5.02-5.079-4.95-.781.027-9.296 4.189-18.921 9.25m70.63 6.817c-1.357 1.938-1.072 3.273 3.366 15.75 9.211 25.894 11.485 31.382 13.577 32.768 1.891 1.253 3.057.751 13.31-5.737 6.18-3.911 11.36-6.951 11.51-6.755.15.197 5.8 14.532 12.555 31.857s12.735 32.063 13.289 32.75c2.102 2.607 5.288 1.176 11.827-5.313l6.613-6.563 8.743 26.003 8.744 26.003-2.623 15.31a13281 13281 0 0 1-6.17 35.602C216.58 454.485 216.656 456 221.54 456c1.262 0 4.403-.904 6.979-2.008l4.686-2.009-.723 7.259c-.398 3.992-2.407 20.758-4.466 37.258-2.381 19.079-3.421 30.629-2.857 31.727 1.617 3.149 4.417 3.937 6.885 1.939 1.96-1.588 2.442-3.664 4.001-17.236.975-8.486 3.242-27.683 5.038-42.659 3.169-26.429 3.211-27.288 1.436-29.25-2.298-2.539-3.598-2.532-8.656.049-2.231 1.138-4.287 1.84-4.567 1.559s1.818-14.045 4.664-30.587 5.032-30.856 4.857-31.809-4.761-14.952-10.192-31.108C219.298 321.38 216.864 316 213.64 316c-.747 0-4.447 2.911-8.221 6.468l-6.861 6.468-3.906-9.718c-2.148-5.345-7.639-19.393-12.201-31.218-6.283-16.285-8.859-21.83-10.623-22.861-2.163-1.265-3.109-.864-13.328 5.642-7.143 4.548-11.225 6.603-11.641 5.862-.353-.629-3.432-8.793-6.841-18.143s-6.664-17.562-7.231-18.25c-1.607-1.946-5.518-1.472-7.157.867m-15.062 61.633c.927 22.476 2.493 39.916 4.985 55.527 2.815 17.636 3.087 27.257.916 32.452-.842 2.015-5.096 9.763-9.452 17.217-4.961 8.488-9.109 17.105-11.098 23.054-3.048 9.116-3.208 10.408-3.95 32-1.084 31.573-5.024 52.053-13.754 71.5-5.197 11.577-5.918 17.24-2.616 20.543 3.106 3.107 8.674 3.992 17.859 2.84 9.627-1.207 14.972-.569 26.968 3.217 7.6 2.399 10.699 2.851 19.074 2.783 5.5-.045 11.125-.424 12.5-.842l2.5-.76-2.815-1.141c-1.548-.627-3.348-1.14-4-1.141-4.831-.003-30.905-17.068-37.881-24.793-8.659-9.587-7.5-17.209 8.694-57.206 16.452-40.635 27.248-64.916 34.632-77.885 3.374-5.927 4.654-9.678 6.482-19 1.253-6.388 3.576-17.562 5.161-24.83l2.883-13.215-3.924-3.785c-4.775-4.606-20.297-22.434-26.614-30.569-3.229-4.157-6.258-6.769-10.114-8.719-3.027-1.531-7.912-4.407-10.854-6.39-2.943-1.984-5.521-3.607-5.73-3.607-.208 0-.142 5.738.148 12.75"/></svg>