<svg xmlns="http://www.w3.org/2000/svg" viewBox="0 0 311 438"><path style="fill:currentColor" fill-rule="evenodd" d="M109.157 4.75c-1.108 5.224-5.655 32.828-6.711 40.75-.367 2.75-2.741 10.175-5.276 16.5-4.478 11.172-4.616 11.841-4.862 23.45-.14 6.572-.777 14.285-1.416 17.141-1.912 8.545-.716 19.783 2.961 27.812 5.482 11.973 6.181 15.713 7.21 38.561 1.047 23.272 1.946 32.719 4.97 52.219 1.082 6.976 1.967 15.543 1.967 19.038 0 5.904-.393 7.025-5.544 15.817-8.831 15.074-15.303 28.867-17.344 36.962-1.35 5.356-2.066 12.906-2.505 26.408-.968 29.747-5.375 53.013-13.656 72.092-2.626 6.05-5.075 12.616-5.444 14.591-1.491 7.991 3.759 17.198 11.595 20.333 3.23 1.292 7.121 1.585 18.737 1.407 13.938-.212 15.08-.078 23.161 2.723 8.022 2.78 9.344 2.94 23.515 2.843 19.82-.136 23.485-1.875 23.485-11.144 0-5.285-3.566-8.418-12.657-11.124-10.631-3.164-34.158-19.881-36.444-25.896-1.916-5.039.996-14.896 13.367-45.233 14.517-35.603 27.795-65.562 32.279-72.831 5.166-8.376 7.546-15.439 9.994-29.669.946-5.5 2.462-13.495 3.368-17.766l1.647-7.766 14.723 14.841c17.19 17.327 16.57 15.513 11.673 34.191-6.387 24.358-6.284 38.668.428 59.545 6.546 20.363 8.749 34.441 8.83 56.422.049 13.384-.194 15.394-3.077 25.426-3.598 12.517-3.819 16.495-1.235 22.186 4.006 8.82 10.052 10.931 28.604 9.988 9.609-.488 16.13-.235 25 .971 15.216 2.069 36.708 1.307 43.179-1.53 6.546-2.871 8.921-9.013 5.811-15.028-1.873-3.622-3.119-4.267-12.49-6.464-8.873-2.08-21.43-8.398-32.421-16.313-11.695-8.421-12.115-9.2-11.901-22.043.098-5.863 1.772-26.41 3.72-45.66s4.015-41.075 4.593-48.5 1.996-19.546 3.151-26.935c2.986-19.101 2.477-23.593-4.51-39.845-3.114-7.244-8.305-20.045-11.535-28.446-10.004-26.018-16.906-39.532-31.659-61.992-4.594-6.995-9.095-14.152-10.001-15.905-2.204-4.262-1.357-8.841 2.922-15.801 1.886-3.067 4.413-8.897 5.616-12.955 2.579-8.704 6.967-13.964 19.525-23.406 4.4-3.309 9.355-7.282 11.01-8.829 1.656-1.547 6.196-4.364 10.089-6.258 4.978-2.423 8.545-5.091 12.023-8.993 5.181-5.813 12.69-17.811 16.2-25.885L285.888 0h-5.292c-5.255 0-5.306.03-7.194 4.227-2.778 6.172-9.059 15.706-13.25 20.111-2.009 2.11-6.181 5.125-9.272 6.698s-8.941 5.472-13 8.663c-4.06 3.19-9.931 7.739-13.047 10.109-6.697 5.09-14.016 12.711-16.121 16.785-.826 1.599-2.039 4.932-2.696 7.407-.656 2.475-2.914 7.65-5.016 11.5-4.683 8.576-6.343 14.508-5.484 19.594.409 2.42 4.111 9.211 9.888 18.137 17.347 26.807 24.161 40.168 35.543 69.701 3.748 9.726 8.494 21.257 10.547 25.625 4.606 9.8 5.457 17.957 3.176 30.443-.854 4.675-2.054 14.575-2.666 22-.611 7.425-2.665 29.025-4.564 48-5.895 58.921-6.024 66.083-1.332 73.674 5.258 8.508 32.455 24.836 46.892 28.152 5.167 1.187 7.5 2.181 7.5 3.198 0 2.675-23.024 3.613-40.443 1.648-10.271-1.158-18.281-1.455-27.205-1.01l-12.649.632-2.601-2.601c-3.319-3.319-3.306-6.145.082-17.331 2.216-7.319 2.754-11.316 3.09-22.952.685-23.741-1.588-39.805-8.976-63.417-4.159-13.292-4.221-13.709-4.192-27.993.028-13.505.282-15.442 3.712-28.234 4.074-15.196 4.413-19.08 2.143-24.514-.98-2.344-10.538-12.791-26.275-28.718-13.665-13.83-30.082-31.626-36.681-39.762-10.289-12.686-12.781-15.17-17.975-17.918-20.502-10.847-29.313-20.032-32.401-33.775l-.899-4.003 2.962 2.962c2.295 2.295 3.862 2.962 6.962 2.962 5.756 0 9.095-3.701 11.801-13.08 7.192-24.927 7.051-24.657 10.555-20.242 5.019 6.323 12.922 6.381 16.432.12 1.41-2.516 1.293-3.378-1.707-12.5-1.772-5.389-4.8-12.408-6.728-15.598-1.929-3.19-3.507-6.351-3.507-7.025s3.392-4.589 7.538-8.7c9.155-9.078 15.55-18.155 22.337-31.707C168.694 5.641 171 .803 171 .518S168.624 0 165.719 0h-5.28l-3.83 7.75c-4.336 8.774-11.722 20.167-14.855 22.912-1.236 1.083 1.258-4.592 6.074-13.822C152.323 8.226 156 .914 156 .59c0-.325-2.377-.59-5.281-.59h-5.282l-8.73 17.25c-9.198 18.176-12.407 28.116-11.206 34.713.354 1.945 2.381 6.237 4.505 9.537C133.694 67.231 138 76.78 138 79.227c0 .634-1.403-.283-3.119-2.037-5.544-5.671-11.661-3.626-16.222 5.424-1.298 2.574-8.659 25.481-8.659 26.944 0 .243-.625.442-1.39.442s-2.277-1.912-3.362-4.25c-5.205-11.215-5.514-24.59-.827-35.75 5.43-12.926 6.443-16.885 10.5-41 2.267-13.475 4.39-25.512 4.717-26.75.559-2.114.291-2.25-4.439-2.25h-5.033zM52.443 26.446c-.989 1.51-1.285 2.997-.773 3.886.457.791 6.648 8.016 13.759 16.054 13.82 15.62 15.97 16.987 19.134 12.158.906-1.383 1.273-3.021.84-3.75-.424-.712-6.601-7.932-13.728-16.044-13.869-15.788-16.039-17.176-19.232-12.304m-13.439 26.53c-.823.52-2.398 3.838-3.5 7.373L33.5 66.776l-13.38-5.388C12.761 58.425 5.75 56 4.539 56c-1.293 0-2.725.979-3.472 2.375-2.393 4.472-.321 5.961 18.899 13.584 19.433 7.708 21.13 7.883 22.474 2.317.369-1.527 1.1-4.413 1.623-6.413l.953-3.637 14.004 6.387C66.722 74.126 73.399 77 73.857 77c1.918 0 4.361-3.997 3.802-6.221-.462-1.842-4.127-3.947-18.368-10.55-9.785-4.536-18.016-8.237-18.291-8.223s-1.173.45-1.996.97M55 94.3c-15.49 8.143-17.536 9.509-17.81 11.887-.229 1.977.36 3.127 2.225 4.35 2.49 1.631 2.844 1.502 19.311-7.051C76.713 94.144 79 92.623 79 90c0-2.017-3.081-5.02-5.079-4.95-.781.027-9.296 4.189-18.921 9.25m70.63 6.817c-1.357 1.938-1.072 3.273 3.366 15.75 9.211 25.894 11.485 31.382 13.577 32.768 1.891 1.253 3.057.751 13.31-5.737 6.18-3.911 11.36-6.951 11.51-6.755.15.197 5.8 14.532 12.555 31.857s12.735 32.063 13.289 32.75c2.102 2.607 5.288 1.176 11.827-5.313l6.613-6.563 8.743 26.003 8.744 26.003-2.623 15.31a13281 13281 0 0 1-6.17 35.602C216.58 314.485 216.656 316 221.54 316c1.262 0 4.403-.904 6.979-2.008l4.686-2.009-.723 7.259c-.398 3.992-2.407 20.758-4.466 37.258-2.381 19.079-3.421 30.629-2.857 31.727 1.617 3.149 4.417 3.937 6.885 1.939 1.96-1.588 2.442-3.664 4.001-17.236.975-8.486 3.242-27.683 5.038-42.659 3.169-26.429 3.211-27.288 1.436-29.25-2.298-2.539-3.598-2.532-8.656.049-2.231 1.138-4.287 1.84-4.567 1.559s1.818-14.045 4.664-30.587 5.032-30.856 4.857-31.809-4.761-14.952-10.192-31.108C219.298 181.38 216.864 176 213.64 176c-.747 0-4.447 2.911-8.221 6.468l-6.861 6.468-3.906-9.718c-2.148-5.345-7.639-19.393-12.201-31.218-6.283-16.285-8.859-21.83-10.623-22.861-2.163-1.265-3.109-.864-13.328 5.642-7.143 4.548-11.225 6.603-11.641 5.862-.353-.629-3.432-8.793-6.841-18.143s-6.664-17.562-7.231-18.25c-1.607-1.946-5.518-1.472-7.157.867m-15.062 61.633c.927 22.476 2.493 39.916 4.985 55.527 2.815 17.636 3.087 27.257.916 32.452-.842 2.015-5.096 9.763-9.452 17.217-4.961 8.488-9.109 17.105-11.098 23.054-3.048 9.116-3.208 10.408-3.95 32-1.084 31.573-5.024 52.053-13.754 71.5-5.197 11.577-5.918 17.24-2.616 20.543 3.106 3.107 8.674 3.992 17.859 2.84 9.627-1.207 14.972-.569 26.968 3.217 7.6 2.399 10.699 2.851 19.074 2.783 5.5-.045 11.125-.424 12.5-.842l2.5-.76-2.815-1.141c-1.548-.627-3.348-1.14-4-1.141-4.831-.003-30.905-17.068-37.881-24.793-8.659-9.587-7.5-17.209 8.694-57.206 16.452-40.635 27.248-64.916 34.632-77.885 3.374-5.927 4.654-9.678 6.482-19 1.253-6.388 3.576-17.562 5.161-24.83l2.883-13.215-3.924-3.785c-4.775-4.606-20.297-22.434-26.614-30.569-3.229-4.157-6.258-6.769-10.114-8.719-3.027-1.531-7.912-4.407-10.854-6.39-2.943-1.984-5.521-3.607-5.73-3.607-.208 0-.142 5.738.148 12.75"/></svg>