<svg class="{{ class | default('') }}" xmlns="http://www.w3.org/2000/svg" viewBox="0 0 551 527"><path style="fill:currentColor" fill-rule="evenodd" d="M233.659 9.706c-.357 5.387-.659 37.469-.671 71.294-.019 50.087-.295 62.799-1.487 68.5-2.154 10.292-8.511 22.403-15.915 30.319-10.677 11.415-15.408 17.904-20.018 27.46-6.344 13.151-7.975 20.011-8.018 33.721-.04 12.596 1.176 17.702 6.74 28.303 8.026 15.294 27.999 25.593 44.171 22.777 13.416-2.336 23.388-8.693 30.231-19.27l4.405-6.81h4.796c5.339 0 6.124.62 10.514 8.308 4.931 8.636 18.059 16.266 31.093 18.07 6.302.872 16.293-1.001 23.031-4.318 12.002-5.909 20.821-17.298 24.484-31.617 6.362-24.877-1.991-50.622-24.009-73.997-9.218-9.786-12.941-15.773-16.758-26.946l-2.733-8-.508-73.5L322.5.5h-13v146l2.287 8c1.258 4.4 4.335 12.156 6.838 17.236 3.704 7.519 6.463 11.279 14.838 20.224 15.921 17.005 21.88 30.27 21.806 48.54-.056 13.787-2.777 21.194-10.699 29.115-5.092 5.092-7.299 6.541-12.081 7.931-13.936 4.052-29.244-2.502-35.897-15.367-4.87-9.418-18.688-12.742-29.672-7.138-2.667 1.36-5.32 4.149-8.41 8.838-5.215 7.917-9.644 11.296-17.897 13.658-14.529 4.158-29.649-3.313-36.186-17.88-3.64-8.109-4.437-21.02-1.98-32.063 2.795-12.562 8.055-21.663 20.532-35.526 12.402-13.779 17.47-22.607 21.281-37.068 2.222-8.431 2.24-9.091 2.24-81.5V.5l-6.096-.294-6.097-.293zm96.912 118.865c-3.346 3.347-.895 9.429 3.8 9.429 1.226 0 2.769-.54 3.429-1.2 1.989-1.989 1.426-6.528-1.023-8.243-2.806-1.966-4.228-1.963-6.206.014m-109.328.586c-1.69 1.69-1.57 6.327.202 7.797 3.893 3.232 9.942-2.218 7.154-6.445-1.566-2.372-5.595-3.113-7.356-1.352M55.615 134.25c.402.688 5.564 8.458 11.469 17.268l10.736 16.017 7.556 2.483 7.556 2.482-4.495 9.887c-2.473 5.438-4.37 10.011-4.216 10.162s5.229 2.146 11.279 4.435c12.703 4.805 12.642 4.77 22.341 12.879 11.242 9.399 11.225 8.633-.201-9.03-4.309-6.659-5.586-7.87-11.25-10.663-3.515-1.733-6.39-3.515-6.39-3.959 0-.445 1.793-4.836 3.985-9.76 2.191-4.923 3.991-9.498 4-10.166.008-.683-5.432-2.938-12.407-5.144l-12.421-3.928-13.328-12.107c-12.287-11.16-16.099-14.072-14.214-10.856m423.58 10.502-13.189 11.752-12.003 3.371C447.401 161.73 442 163.57 442 163.966c0 .395 1.8 5.026 4 10.292 2.2 5.265 4 9.964 4 10.443s-2.934 2.317-6.521 4.085c-5.688 2.805-7.073 4.078-10.848 9.965-7.077 11.038-9.886 16.249-8.76 16.249.584 0 4.789-3.312 9.345-7.36 7.491-6.656 9.385-7.773 19.784-11.676 6.325-2.374 11.82-4.579 12.21-4.9s-1.263-4.966-3.675-10.321l-4.386-9.736 7.535-2.19 7.535-2.189 10.891-16.292c5.989-8.961 10.89-16.527 10.89-16.814 0-1.582-2.86.588-14.805 11.23m-277.407-4.646c-5.477 3.581-6.596 6.012-4.348 9.443 2.199 3.356 5.164 3.059 10.81-1.084 5.206-3.819 6.127-6.909 2.921-9.81-2.546-2.304-3.981-2.082-9.383 1.451m145.783-1.535c-2.685 2.686-1.9 6.002 2.179 9.211 6.244 4.913 10.578 5.208 12.198.829 1.141-3.085-.511-5.824-5.365-8.895-4.925-3.116-6.802-3.354-9.012-1.145m-165.53 18.048c-2.983 2.51-6.041 7.198-6.041 9.26 0 1.865 3.155 4.121 5.763 4.121 3.307 0 10.237-7.127 10.237-10.527 0-2.312-3.261-5.473-5.646-5.473-.66 0-2.601 1.179-4.313 2.619m186.399-.168c-2.104 3.211-1.244 5.59 3.606 9.971 4.303 3.888 6.938 4.451 9.383 2.007 2.599-2.6 1.805-5.458-2.797-10.061-4.94-4.939-7.853-5.487-10.192-1.917m-96.42 28.554c-3.489 13.202-6.016 24.332-5.615 24.734.401.401 4.085.898 8.187 1.106l7.457.376-.512 3.14c-.994 6.09-2.677 30.832-2.134 31.375.302.303.768-.077 1.034-.843 2.418-6.952 9.237-24.431 12.946-33.183 3.151-7.436 4.191-10.911 3.345-11.18-.676-.215-4.716-.685-8.978-1.046l-7.75-.655v-18.914c0-10.403-.368-18.915-.818-18.915-.451 0-3.674 10.802-7.162 24.005m-105.201-8.078c-1.347 1.06-3.278 3.765-4.291 6.01-2.441 5.413-1.054 9.063 3.444 9.063 2.387 0 3.643-.866 6.022-4.15 3.611-4.985 3.897-9.112.783-11.293-2.809-1.968-3-1.956-5.958.37m218.836-.098c-2.255 2.492-2.125 3.369 1.44 9.686 2.558 4.532 3.566 5.485 5.8 5.485 5.378 0 6.697-4.813 3.014-11-3.671-6.168-7.162-7.588-10.254-4.171M224.349 198c1.188 3.627 14.512 35.092 15.168 35.819.158.175 2.559-1.314 5.336-3.309l5.049-3.627 2.981 4.114c1.64 2.264 5.114 7.237 7.722 11.053 2.607 3.816 4.946 6.732 5.198 6.48s-.917-4.862-2.599-10.244a1741 1741 0 0 1-5.663-18.536c-1.433-4.812-2.868-8.75-3.189-8.75s-2.842 1.658-5.602 3.683l-5.018 3.684-3.616-3.973a13425 13425 0 0 1-9.937-10.933c-3.477-3.829-6.1-6.286-5.83-5.461m94.104 9.585c-18.754 12.884-17.833 11.699-12.778 16.435l4.175 3.912-7.925 9.919c-4.359 5.455-7.925 10.239-7.925 10.632s1.462-.232 3.25-1.388c1.788-1.157 8.988-5.539 16-9.739s12.75-7.933 12.75-8.294-1.8-2.414-4-4.562-4-4.309-4-4.802 3.613-5.576 8.03-11.297c4.416-5.72 7.657-10.401 7.203-10.401-.455 0-7.105 4.313-14.78 9.585m-163.203-7.048c-1.223.857-2.87 3.812-3.721 6.678-1.367 4.602-1.367 5.383-.005 7.462 1.513 2.309 4.845 3.011 7.197 1.517 1.497-.952 4.279-8.598 4.279-11.763 0-1.275-1-3.018-2.223-3.874-2.734-1.915-2.82-1.916-5.527-.02m243.989-.871c-2.889 1.164-3.371 4.24-1.563 9.975 2.033 6.449 4.695 8.422 8.824 6.541 2.975-1.356 3.181-3.826.882-10.573-1.118-3.282-2.373-5.035-4.065-5.678-1.346-.512-2.53-.895-2.632-.852s-.753.308-1.446.587m-251.682 28.557c-2.247 3.208-2.078 11.995.272 14.122 4.105 3.715 7.598.832 8.665-7.154.58-4.335.388-5.664-1.047-7.25-2.342-2.588-5.971-2.458-7.89.282M404.2 227.2c-1.465 1.465-1.586 10.21-.177 12.843 3.198 5.976 9.977 3.871 9.977-3.098 0-2.205-.652-5.57-1.449-7.477-1.173-2.808-1.992-3.468-4.3-3.468-1.568 0-3.391.54-4.051 1.2M69.654 246.959C63.689 254.132 58.41 260 57.923 260s-3.968-2.908-7.736-6.463l-6.851-6.462-21.668 3.706C9.751 252.82 0 254.792 0 255.164c0 1.083 4.411 1.671 22.301 2.975l16.8 1.225 9.938 9.318C54.505 273.807 59.178 278 59.425 278s5.263-5.89 11.148-13.09l10.7-13.089 7.329 7.28 7.328 7.28 16.049-2.877c9.469-1.698 15.68-3.245 15.151-3.774-.493-.493-6.462-1.553-13.264-2.354l-12.366-1.457-10.5-11-10.5-11.001zm389.189-1.981L448.5 255.956l-13 1.628c-7.15.895-13.188 1.805-13.417 2.022-1.062 1.004 1.843 1.725 16.969 4.209l16.237 2.666 6.884-7.49 6.885-7.491 1.721 2.224c.947 1.223 5.771 7.162 10.721 13.199 8.294 10.114 10.782 12.317 11.667 10.327.183-.413 4.222-4.495 8.974-9.071l8.642-8.322 16.858-1.419c20.333-1.711 24.354-2.321 22.33-3.384-.809-.424-10.807-2.281-22.217-4.125l-20.746-3.353-4.254 3.978a563 563 0 0 1-7.296 6.7l-3.043 2.722-11.388-13.488C474.763 240.07 469.537 234 469.412 234c-.124 0-4.88 4.94-10.569 10.978m-310.62 8.579c-1.815 1.27-2.223 2.516-2.223 6.777 0 6.465 1.994 9.666 6.022 9.666 4.014 0 5.279-2.74 4.424-9.582-.489-3.915-1.281-5.89-2.787-6.944-2.608-1.827-2.713-1.825-5.436.083m258.009-.721c-.698.442-1.71 2.345-2.25 4.228-2.263 7.89-.453 12.936 4.64 12.936 5.015 0 7.576-13.347 3.155-16.443-2.487-1.743-3.69-1.899-5.545-.721m-253.009 26.721c-2.543 1.78-2.83 5.829-.813 11.443 2.117 5.892 8.199 7.349 10.411 2.494 1.777-3.9-3.303-15.494-6.79-15.494-.322 0-1.586.701-2.808 1.557m247.041.693c-.539.688-1.719 3.467-2.622 6.176-1.475 4.43-1.487 5.161-.118 7.25 1.038 1.585 2.485 2.324 4.55 2.324 2.546 0 3.274-.588 4.571-3.694 2.272-5.438 2.806-10.058 1.362-11.798-1.516-1.826-6.385-1.989-7.743-.258M271 291.627c-.825.258-5.703 2.579-10.84 5.158-9.137 4.587-9.572 4.696-20 5.014-8.576.261-12.127-.093-18.16-1.809-4.125-1.173-9.153-2.37-11.174-2.659-3.278-.47-3.827-.22-5.094 2.321-4.786 9.594-5.602 25.177-1.939 37.023 2.304 7.449 8.174 16.885 17.309 27.825 6.033 7.223 11.045 17.183 14.093 28 2.201 7.811 2.267 9.486 2.78 71l.525 63 6.805.297 6.805.297-.359-62.797-.358-62.797-2.675-10.224c-4.385-16.763-8.962-25.444-20.969-39.776-3.226-3.85-7.301-9.913-9.057-13.473-2.803-5.685-3.234-7.663-3.536-16.25-.189-5.377-.189-9.772 0-9.765s2.819.679 5.844 1.495c15.824 4.267 30.596 2.626 45.69-5.076 4.776-2.437 9.993-4.431 11.593-4.431s6.652 2.04 11.227 4.534c13.577 7.401 27.074 9.161 43.141 5.625l8.152-1.794.577 3.607c.74 4.629-.883 14.706-3.257 20.227-1.017 2.365-6.261 10.151-11.653 17.301-11.161 14.802-15.323 22.984-19.165 37.682l-2.698 10.318-.358 62.75-.359 62.75h14.158l-.069-59.75c-.059-51.049.166-60.975 1.545-68.16 3.056-15.922 8.002-26.005 19.846-40.454C349.671 346.07 355 333.319 355 321.237c0-7.309-2.699-18.585-5.215-21.783-2.3-2.924-1.408-2.955-16.285.575-11.9 2.823-26.971 2.51-33-.687-16.087-8.528-15.6-8.344-21.891-8.263-3.36.043-6.784.29-7.609.548m154 4.114c0 1.032 7.789 11.919 13.196 18.444 2.412 2.911 5.287 5.149 7.593 5.908 2.041.673 5.155 1.825 6.919 2.561l3.209 1.338-3.459 9.554C450.556 338.8 449 343.693 449 344.42c0 .89 3.83 2.061 11.75 3.593 6.462 1.25 12.592 2.704 13.621 3.23s8.198 5.63 15.932 11.341c7.733 5.712 14.25 10.196 14.481 9.966.416-.417-11.697-15.829-21.012-26.734-4.774-5.588-4.981-5.704-12.314-6.887-4.102-.662-7.458-1.478-7.458-1.814 0-.335 1.4-4.813 3.112-9.951 1.721-5.167 2.727-9.707 2.25-10.162-.474-.452-5.812-2.271-11.862-4.043-13.162-3.854-13.033-3.791-22.5-10.936-8.917-6.729-10-7.409-10-6.282m-309.763 6.143c-10.195 7.559-9.73 7.337-23.237 11.129-6.325 1.777-11.814 3.513-12.197 3.858s.571 4.229 2.12 8.629c4.775 13.566 5.149 12.034-3.291 13.477-4.076.698-7.839 1.55-8.363 1.896C68.678 341.921 45 371.308 45 372.235c0 1.16.55.799 16.578-10.875L75.5 351.221l11.557-2.183c6.357-1.2 12.095-2.514 12.751-2.92.883-.545.428-3.004-1.745-9.431-4.489-13.282-4.612-12.647 2.937-15.171 6.259-2.094 6.789-2.541 14.304-12.095 12.389-15.749 12.38-16.765-.067-7.537m47.986 2.673c-1.223.856-2.216 2.543-2.207 3.75.025 3.261 4.137 9.922 7.181 11.63 2.432 1.365 2.848 1.332 4.735-.375 1.137-1.03 2.068-2.775 2.068-3.879 0-2.7-4.596-10.397-6.966-11.665-2.396-1.282-2.177-1.306-4.811.539m227.434-.425c-2.903 1.688-6.758 10.811-5.534 13.097 2.552 4.77 7.511 3.391 11.127-3.093 3.284-5.888 3.338-6.548.75-9.136-2.241-2.241-3.649-2.434-6.343-.868M178.355 324.25c-13.037 13.483-20.307 30.635-20.34 47.989-.018 9.276 1.961 15.139 7.708 22.841 4.613 6.182 6.75 10.146 9.042 16.772 1.371 3.965 1.69 12.735 2.171 59.648l.564 55 6.827.297 6.827.298-.439-53.298c-.304-36.808-.813-54.844-1.647-58.297-2.735-11.322-5.594-18.149-10.756-25.686-7.169-10.469-8.347-15.667-5.999-26.486 1.492-6.872 7.767-22.328 9.067-22.328.263 0 1.228 2.58 2.145 5.733 2.288 7.87 6.225 16.286 12.055 25.767l4.92 8v146l6.75.296 6.75.295v-74.577c0-82.133.37-77.122-6.371-86.372-7.374-10.12-11.969-21.808-13.748-34.972-1.316-9.742-2.777-12.17-7.32-12.17-2.464 0-4.209 1.117-8.206 5.25m195.084 3.938c-4.784 4.2-5.972 7.349-3.943 10.447 2.252 3.436 5.516 2.961 9.801-1.427 4.129-4.229 4.784-7.919 1.874-10.553-2.553-2.31-3.589-2.105-7.732 1.533m-20.336 17.852c-4.762 3.45-5.58 4.922-4.696 8.447.835 3.327 4.58 4.195 8.249 1.913 7.391-4.598 9.187-8.422 5.515-11.745-2.585-2.34-4.283-2.081-9.068 1.385"/></svg>