<svg xmlns="http://www.w3.org/2000/svg" viewBox="0 0 315 415"><path style="fill:currentColor" fill-rule="evenodd" d="M182.925.922c-7.363 1.026-19.149 4.652-25.4 7.813-12.174 6.157-26.485 18.421-34.467 29.535-3.072 4.278-3.517 4.523-9.392 5.171-26.798 2.957-54.482 14.039-73.48 29.413-5.969 4.831-7.533 8.199-6.75 14.535.626 5.06.57 5.196-5.652 13.67-7.92 10.788-13.847 21.212-18.374 32.317-4.3 10.547-8.372 26.173-8.682 33.315-.195 4.507.147 5.637 2.386 7.877 2.807 2.807 7.899 3.624 13.271 2.129l2.885-.803-.713 6.303c-.683 6.036-1.909 9.622-9.899 28.929-6.016 14.538-9.472 36.616-6.578 42.024 1.301 2.43 6.722 4.85 10.865 4.85s5.613 2.671 7.499 13.615c1.969 11.426 3.741 16.569 11.967 34.726C43.292 330.359 45.232 337.137 45.764 353c.521 15.541-1.003 26.478-5.759 41.327-3.382 10.556-3.643 13.317-1.545 16.313 2.626 3.748 6.783 4.769 13.804 3.39 25.795-5.066 47.659-17.16 69.608-38.5 31.075-30.214 48.441-63.089 46.766-88.53-.512-7.779-1.028-9.433-6.083-19.5-6.498-12.94-8.555-20.221-8.555-30.278v-7.358l3.25 2.224c1.787 1.224 10.45 9.284 19.25 17.913 16.832 16.504 22.703 21.128 30.667 24.154 6.688 2.542 10.402 2.367 13.398-.629 2.421-2.421 2.46-2.704 1.815-13.315-.629-10.361-.487-11.525 3.205-26.276 3.672-14.669 3.865-16.229 3.885-31.435.024-17.969-.925-22.933-7.598-39.77-5.046-12.733-5.021-13.301.631-14.075 6.613-.907 12.29-4.153 14.175-8.106 1.488-3.121 1.48-3.77-.111-8.635-2.074-6.341-9.266-20.842-14.033-28.293-13.587-21.24-35.252-40.56-57.284-51.086-4.537-2.167-8.25-4.262-8.25-4.654 0-1.395 7.92-6.955 13.634-9.571 7.758-3.552 22.981-4.43 31.937-1.843 20.676 5.972 36.466 21.517 50.337 49.558 5.801 11.727 13.345 31.81 15.534 41.351.621 2.709.5 2.846-2.091 2.351-8.504-1.626-16.448 8.451-12.997 16.486.777 1.808 4.156 6.662 7.509 10.787 7.286 8.963 13.495 20.411 15.804 29.137 2.427 9.172 2.396 56.264-.051 77.363-4.896 42.22-15.198 81.814-29.523 113.463-3.351 7.404-6.093 14.422-6.093 15.595 0 2.791 2.653 5.044 7 5.944 5.138 1.064 13.141 5.039 18.128 9.003 2.405 1.912 5.134 3.48 6.066 3.485 4.841.028 9.848-9.964 19.304-38.521 17.118-51.696 24.429-103.056 23.2-162.969-.647-31.559-2.231-47.334-7.243-72.135-14.56-72.051-50.09-123.402-92.969-134.369C205.95.813 190.829-.181 182.925.922m-3.409 14.671c-8.018 1.794-19.188 6.709-26.178 11.519C148.117 30.704 136 42.553 136 44.067c0 .513.95.933 2.11.933 1.245 0 5.279-2.98 9.835-7.267C160.392 26.024 172.734 21 189.05 21c11.037 0 21.588 2.678 32.237 8.182 6.444 3.332 10.386 6.407 18.303 14.282 5.55 5.52 12.448 13.636 15.33 18.036 11.396 17.401 21.27 41.197 28.079 67.669 3.545 13.786 3.461 17.208-.466 18.998-2.028.924-3.369.601-8.431-2.034-3.311-1.723-6.267-3.133-6.568-3.133s2.274 3.712 5.723 8.25c7.555 9.939 12.75 19.66 15.901 29.75 2.264 7.25 2.342 8.632 2.332 41.5-.012 38.565-.945 48.661-7.528 81.5-5.746 28.664-13.858 55.509-22.624 74.875-1.836 4.056-3.338 7.51-3.338 7.675s2.503 1.655 5.562 3.312l5.563 3.013 2.051-4.687c7.48-17.091 18.931-58.568 23.243-84.188 5.452-32.394 6.064-40.81 6.073-83.5.007-33.182-.303-42.301-1.819-53.5-6.201-45.806-18.998-83.672-37.734-111.65-7.188-10.733-22.645-26-31.54-31.152-15.536-8.998-33.941-12.173-49.883-8.605M103 59.133c-18.935 3.968-39.02 12.502-50.226 21.342-5.187 4.092-5.67 4.796-5.132 7.485 1.079 5.395-.608 9.731-7.469 19.198-9.171 12.654-13.347 19.775-17.5 29.842C19.855 143.828 15 159.882 15 162.369c0 .295 2.182.278 4.848-.037 4.37-.518 5.177-.282 8.172 2.394 3.174 2.836 3.342 3.346 3.748 11.372.531 10.495-1.302 18.738-7.186 32.315-5.596 12.912-7.28 17.993-8.544 25.781-1.505 9.279-1.549 9.155 3.935 11.103 8.148 2.894 10.404 7.003 13.934 25.38 1.982 10.315 3.054 13.191 13.917 37.323 8.773 19.489 11.281 28.76 11.909 44.02.654 15.881-1.989 35.458-6.234 46.178-.613 1.547-.025 1.517 6.664-.345 27.257-7.584 57.509-31.957 78.024-62.859 12.162-18.32 16.315-29.395 16.308-43.494l-.005-10-5.179-10.1c-8.421-16.424-11.217-32.465-7.905-45.357 2.17-8.449 3.687-10.043 9.553-10.043 8.281 0 13.882 3.793 32.21 21.815C197.803 252.205 205.59 259 207.447 259c.304 0 .553-2.337.553-5.193s1.879-12.868 4.176-22.25c3.664-14.969 4.176-18.465 4.183-28.557.008-13.744-1.174-19.682-7.043-35.38-8.285-22.157-6.015-29.726 9.669-32.234 2.208-.353 4.015-1.042 4.015-1.532 0-2.479-10.614-21.542-15.844-28.456-7.454-9.854-21.45-23.77-30.656-30.481-8.647-6.304-25.009-14.44-32.34-16.08l-5.483-1.228-3.362 3.889c-4.549 5.263-14.171 19.548-18.524 27.502-3.655 6.679-11.668 26.179-13.877 33.77l-1.243 4.271 8.998 9.229c13.168 13.508 21.243 26.488 26.827 43.124 3.941 11.741 3.069 14.281-1.878 5.472-7.261-12.927-25.049-33.34-35.599-40.853l-2.743-1.952-1.647 7.719c-4.756 22.288-6.446 42.316-7.614 90.22-1.146 46.964-3.033 68.179-5.369 60.351-.939-3.148-3.717-45.729-4.45-68.207l-.696-21.356-6.5 4.715c-3.575 2.594-11.547 9.707-17.716 15.807s-11.51 10.798-11.868 10.44c-.887-.887 4.63-12.472 9.284-19.495 5.024-7.582 14.739-17.793 21.65-22.755 6.293-4.518 5.73-2.682 7.658-25 1.26-14.584 4-31.716 6.999-43.767 1.103-4.43 1.888-8.171 1.746-8.314-.143-.142-5.208 2.105-11.256 4.993-11.901 5.683-19.36 10.193-29.477 17.823-3.563 2.688-6.646 4.387-6.85 3.776-.994-2.984 13.89-19.924 24.83-28.258 3.575-2.724 11.468-7.367 17.54-10.318l11.04-5.366 1.839-5.284c2.686-7.721 13.642-30.413 17.891-37.055l3.665-5.73-2.737.071c-1.506.039-7.013.967-12.238 2.062"/></svg>