<svg class="{{ class | default('') }}" xmlns="http://www.w3.org/2000/svg" viewBox="0 0 372 407"><path style="fill:currentColor" fill-rule="evenodd" d="M174 2.543c-33.804 5.099-66.816 19.182-94.5 40.311C70.541 49.692 52.699 67.363 45.023 77 13.076 117.111-2.464 166.258 1.071 216c2.069 29.105 8.407 52.854 20.685 77.5 9.873 19.818 20.055 34.18 35.714 50.371 30.845 31.895 67.226 51.206 112.539 59.736 13.267 2.498 46.73 3.027 60.991.964 36.187-5.234 71.297-20.284 99-42.436 14.776-11.815 38.618-37.873 41.058-44.872 2.089-5.992-3.495-13.596-9.983-13.596-1.731 0-6.265 2.339-12.107 6.247C323.982 326.626 296.613 335 266.973 335c-21.254 0-38.241-3.309-57.819-11.262-66.85-27.155-105.617-98.834-92.072-170.238C128.171 95.038 173.193 48.162 231 34.889c5.089-1.169 14.117-2.171 22.5-2.498 7.7-.3 15.259-1.024 16.797-1.609 5.904-2.245 7.504-10.784 2.953-15.753-2.212-2.416-5.097-3.669-14.75-6.409-20.035-5.685-28.645-6.855-53-7.199-15.459-.219-24.824.115-31.5 1.122m6.853 19.964c-58.617 7.1-111.244 43.597-139.228 96.554-14.88 28.161-21.506 57.53-20.355 90.22.601 17.031 2.31 28.062 6.841 44.147C46.14 317.421 98.675 366.85 164.079 381.356c39.49 8.759 79.243 4.662 115.618-11.914 8.337-3.8 26.054-14.138 30.757-17.949l2.954-2.393-7.454 1.885c-23.839 6.03-51.074 6.169-76.875.394-63.502-14.213-113.874-63.493-130.018-127.199-7.739-30.538-6.467-65.509 3.487-95.898 14.775-45.102 50.789-84.774 94.295-103.869l7.657-3.361-6.5.083c-3.575.045-11.291.662-17.147 1.372M51 116.372c0 .205 3.609 7.793 8.019 16.862l8.019 16.489-5.019 13.724C59.259 170.996 57 177.622 57 178.174s3.842 5.125 8.537 10.164l8.537 9.162-3.787 3.332c-2.083 1.833-7.724 6.288-12.537 9.901s-8.744 7.063-8.737 7.667c.008.605 5.39 7.625 11.961 15.6 8.063 9.784 11.96 15.313 11.984 17 .021 1.375-.855 10.825-1.945 21-2.004 18.717-2.431 25.751-1.504 24.825.497-.497 14.487-47.736 14.49-48.926 0-.33-2.174-3.48-4.833-7a724 724 0 0 1-9.932-13.557l-5.097-7.157 13.431-10.164C84.956 204.432 91 199.56 91 199.195s-4.933-5.621-10.963-11.679L69.074 176.5l3.514-13.897c1.932-7.643 3.314-14.415 3.071-15.049C75.1 146.097 51.975 116 51.415 116c-.228 0-.415.168-.415.372"/></svg>