<svg class="{{ class | default('') }}" xmlns="http://www.w3.org/2000/svg" viewBox="20 30 582 669" ><path fill="currentColor" fill-rule="evenodd" d="M280 46.882c0 .55.45 1.278 1 1.618s1 .168 1-.382-.45-1.278-1-1.618-1-.168-1 .382m8.763 107.632c-5.834 2.142-12.422 7.131-15.687 11.876-5.46 7.935-6.579 12.055-6.548 24.11.033 12.754 1.934 18.921 8.54 27.714 3.164 4.21 3.932 6.078 3.932 9.559 0 9.897-5.467 13.556-18 12.048-9.415-1.133-20.182-.308-30.5 2.337-7.352 1.884-9.054 1.963-21 .965-21-1.753-50.939-2.268-66-1.135-7.7.579-15.126 1.113-16.502 1.188s-8.529-2.409-15.894-5.52S96.684 232 95.427 232c-4.621 0-7.319 6.185-3.927 9 2.577 2.139 1.667 3-3.168 3-9.036 0-17.184 1.996-19.341 4.739-2.053 2.61-2.538 5.853-1.191 7.972 1.551 2.441 8.244 4.249 17.853 4.825 14.813.887 14.531.778 12.794 4.938-1.946 4.657-1.822 7.877.382 9.871 3.364 3.045 7.289 2.041 14.447-3.695 2.994-2.4 4.99-3.114 9.648-3.451l5.872-.425.737 9.825c.678 9.047.967 10.055 3.652 12.739l2.915 2.916 48.2-.377 48.2-.377 5 2.5c8.227 4.113 9.598 8.404 14.046 43.936.797 6.36 1.737 16.524 2.09 22.586l.643 11.022-6.39 3.881c-14.795 8.986-60.607 43-72.099 53.531-8.495 7.784-12.791 15.829-12.789 23.954.001 5.531 4.368 20.804 20.328 71.09 3.055 9.625 6.729 21.427 8.166 26.226 2.579 8.617 2.661 8.741 6.631 9.93l4.019 1.204-15.148 7.674c-8.332 4.22-16.084 8.608-17.227 9.752-2.959 2.959-2.62 8.086.726 10.964 2.587 2.225 2.937 2.249 31.81 2.194 32.471-.063 34.927-.436 38.035-5.776 1.87-3.213 1.88-3.631.304-11.657-.9-4.578-1.911-9.041-2.247-9.917-.529-1.378.486-1.594 7.472-1.594 7.476 0 8.205-.184 9.69-2.451 1.968-3.003 2.103-2.554-7.404-24.549l-7.564-17.5.202-8.5c.295-12.393-2.435-20.708-10.912-33.239-2.135-3.156-3.882-6.358-3.882-7.116 0-.874 3.744-2.535 10.25-4.546 19.943-6.166 39.42-13.375 53.173-19.681l13.922-6.383 5.595 1.449c14.612 3.787 95.884 32.145 98.346 34.316 1.53 1.349 1.757 3.089 1.582 12.138l-.205 10.562 12.044 28.071c6.624 15.438 12.337 28.991 12.694 30.118s1.524 2.838 2.593 3.805c1.748 1.582 2.715 1.644 9.654.612 5.147-.766 8.044-.814 8.712-.146s.549 4.25-.358 10.771c-.748 5.373-1.284 10.791-1.191 12.04.215 2.878 2.799 6.864 4.999 7.714.929.358 16.07.607 33.646.552 27.992-.087 32.178-.301 33.75-1.723 2.546-2.305 2.31-7.496-.456-10.012-1.237-1.126-10.873-6.404-21.413-11.728s-19.409-10.319-19.708-11.1c-.38-.988.622-1.734 3.298-2.454 2.289-.617 4.035-1.768 4.317-2.847.469-1.79-14.328-66.906-20.262-89.173-4.018-15.078-9.609-26.624-15.324-31.646-4.171-3.665-13.867-9.393-39.658-23.431-6.325-3.443-23.118-11.712-37.318-18.375l-25.819-12.115.102-24.465c.1-24.038.885-36.626 3.145-50.419.897-5.476 1.761-7.574 4.073-9.886l2.935-2.935 51.484.74c55.11.791 56.079.723 58.268-4.083.622-1.363 1.13-6.499 1.13-11.413 0-8.467.118-8.957 2.25-9.376 15.404-3.023 20.323-4.269 26.521-6.718 11.561-4.57 20.848-9.578 23.125-12.473 4.113-5.229 1.399-12.452-4.646-12.366-1.513.022-6.715.869-11.561 1.881-8.012 1.675-8.748 1.694-8.115.211 3.726-8.728 3.361-13.607-1.102-14.727-3.785-.95-6.31.427-14.215 7.757-4.121 3.821-8.505 7.611-9.743 8.422-1.848 1.211-8.758 1.547-38.632 1.882-20.01.224-39.532.824-43.382 1.333-5.652.748-8.926.552-17-1.014-11.519-2.235-26.2-2.596-35.316-.869-4.712.893-7.174.913-9.7.08-4.884-1.612-9.21-6.985-10.031-12.458-.626-4.174-.348-5.059 3.391-10.797 6.255-9.601 7.453-13.708 7.511-25.74.042-8.755-.342-11.497-2.312-16.5-3.148-7.997-11.662-16.466-19.503-19.399-6.54-2.447-16.981-2.716-22.777-.587m2.828 6.998c-13.297 5.079-20.351 19.143-17.642 35.174 1.128 6.673 3.527 11.795 9.551 20.394 5.915 8.443 3.153 21.824-5.712 27.669-4.166 2.746-4.2 2.75-19.625 2.425-13.232-.28-16.887-.001-25.446 1.939-9.626 2.183-10.627 2.222-27.106 1.07-9.411-.658-29.148-1.193-43.861-1.189L135 249l.001 3.75c.001 4.35 1.724 24.002 2.586 29.5l.589 3.75h46.73c38.31 0 47.627.266 51.706 1.477 5.458 1.621 12.633 7.162 14.866 11.481 3.176 6.141 8.083 39.488 10.039 68.219l.659 9.676-16.503 11.031c-9.076 6.067-16.768 11.461-17.093 11.986-.745 1.206 4.741 5.567 15.04 11.954 40.569 25.162 73.468 28.391 108.88 10.687 10.174-5.086 28.301-18.19 29.226-21.126.193-.613-7.32-4.631-16.694-8.929-9.375-4.297-17.782-8.627-18.682-9.621-1.463-1.617-1.573-4.74-1.042-29.572.814-38.025 2.902-56.075 7.256-62.72.881-1.345 3.702-3.479 6.269-4.744l4.667-2.299 51.094.376 51.093.377.649-6.877c.358-3.782.653-11.938.657-18.126L467 248l-29.25-.001c-16.087-.001-34.005.513-39.816 1.143-9.657 1.046-11.594.95-22.5-1.116-11.971-2.266-19.683-2.363-37.434-.468-4.746.507-6.253.2-10.994-2.235-7.937-4.079-11.329-9.341-11.839-18.373-.38-6.732-.259-7.17 3.661-13.207 4.806-7.402 6.032-10.402 7.248-17.743 1.009-6.091-.252-15.505-2.714-20.267-2.373-4.588-8.408-10.716-12.721-12.916-5.185-2.645-13.967-3.246-19.05-1.305m199.367 74.112c-2.452 2.544-7.101 6.598-10.331 9.009-5.758 4.3-5.875 4.484-6 9.453l-.127 5.068 4.5-.637c10.784-1.524 32.39-9.175 39.014-13.814 2.198-1.54 2.242-1.703.459-1.702-1.085 0-5.347.704-9.47 1.565-12.608 2.63-17.393.271-14.934-7.365.655-2.036 1.638-4.263 2.184-4.951.554-.698.588-1.25.078-1.25-.503 0-2.921 2.081-5.373 4.624m-387.297 9.431c.53 2.648.229 3.093-3.004 4.444-1.976.826-6.645 1.527-10.375 1.559-5.831.049-15.769 1.364-14.282 1.889.275.097 6.663.748 14.195 1.447 7.901.732 14.353 1.816 15.25 2.56 2.081 1.728 1.988 7.978-.165 11.073l-1.719 2.473 2.469-1.742c8.04-5.672 11.362-7.109 16.6-7.183l5.358-.075.006-5.179.006-5.179-5.37-1.115c-2.953-.613-8.562-2.645-12.463-4.514l-7.094-3.4zm202.839 4.349c-18.566 5.897-34.633 21.375-41.125 39.618-3.667 10.303-3.904 25.639-.529 34.166 4.936 12.472 16.944 20.798 31.134 21.589 10.688.595 17.173-1.979 24.13-9.579l5.216-5.698-.687 4.326c-1.056 6.652-6.304 16.021-12.196 21.773-9.185 8.967-21.451 13.211-34.693 12.003-3.924-.358-6.75-.228-6.75.311 0 1.623 12.17 2.325 19 1.097 14.287-2.57 26.924-12.017 33.241-24.849 2.978-6.049 3.234-7.338 3.197-16.118-.033-7.689-.447-10.32-2.133-13.543-2.508-4.795-5.77-7.948-7.267-7.024-.598.37-.964.116-.813-.565.501-2.256-7.321-5.877-12.725-5.891-10.952-.028-17.168 8.659-13.123 18.34 3.449 8.254 17.623 6.758 17.623-1.86 0-1.82-.785-3.901-1.829-4.845-2.122-1.92-5.729-2.179-6.776-.485-.492.796-.169.957 1.013.504 4.095-1.572 7.525 3.993 4.392 7.126-2.411 2.411-5.743 1.387-7.505-2.308-1.602-3.36-1.587-3.625.365-6.25 5.686-7.651 16.36.071 13.463 9.74-2.231 7.448-12.24 10.467-19.124 5.768-5.191-3.543-7.226-8.167-6.653-15.111.584-7.061 3.957-11.93 10.712-15.46 3.787-1.98 5.548-2.262 11.942-1.916 8.737.473 13.511 2.579 19.583 8.642 8.378 8.364 12.359 21.014 10.462 33.241-2.206 14.219-8.188 25.018-20.03 36.157-12.928 12.162-28.356 18.623-45.527 19.064-4.623.119-8.761.588-9.196 1.043s4.383.623 10.708.375c9.435-.37 13.048-.99 20.118-3.453 20.971-7.306 38.529-25.385 44.403-45.719 1.247-4.318 1.597-8.47 1.311-15.579-.339-8.444-.802-10.532-3.602-16.218-6.404-13.009-18.296-20.459-31.23-19.565-13.715.948-22.031 9.18-21.972 21.749.023 4.976 3.187 11.305 7.014 14.03 4.576 3.258 12.376 3.761 16.654 1.073 4.331-2.721 6.371-6.117 6.562-10.927.281-7.025-4.282-12.176-10.785-12.176-3.351 0-8.473 5.01-8.473 8.288 0 3.876 3.623 7.707 7.323 7.742 2.597.025 2.865.213 1.465 1.029-4.096 2.388-11.792-3.415-11.784-8.886.004-3.339 3.178-8.665 6.093-10.225 2.611-1.397 8.424-1.462 11.914-.132 9.852 3.755 12.072 17.884 4.145 26.382-7.466 8.004-19.469 8.031-28.288.064-6.417-5.797-8.351-10.391-8.322-19.762.03-9.962 2.983-17.007 10.427-24.878 14.595-15.432 37.24-19.267 59.943-10.151 4.688 1.882 8.73 3.217 8.981 2.965 1.784-1.783-14.781-7.861-25.607-9.395-12.257-1.736-26.207 1.478-36.731 8.464-7.211 4.786-12.057 10.415-15.862 18.425-2.557 5.384-3.058 7.66-3.079 14-.04 12.402 4.931 20.982 14.882 25.687 12.047 5.695 25.657.526 29.533-11.217 1.353-4.098.651-11.866-1.284-14.212-1.025-1.242-.98-1.426.251-1.027 2.368.767 6.273 8.696 6.273 12.736 0 4.712-2.356 9.215-7.362 14.074-10.497 10.187-29.941 9.363-41.792-1.77-12.741-11.969-14.481-32.215-4.486-52.194 6.498-12.989 20.823-25.333 34.791-29.982 3.617-1.203 6.576-2.601 6.576-3.107 0-1.141-.52-1.095-5.5.486m75.245 162.026c-15.872 13.635-29.41 21.296-45.609 25.808-4.466 1.244-8.121 2.487-8.122 2.762s11.583 4.468 25.742 9.319C419.262 471.759 416 469.807 416 486.565v10.296l7.549 17.819c4.152 9.801 9.625 22.77 12.161 28.82 2.537 6.05 4.748 11.171 4.913 11.379s9.769-.902 21.339-2.469c15.115-2.046 21.038-3.213 21.038-4.145 0-1.319-10.124-45.042-16.964-73.265-4.979-20.546-9.294-31.325-14.61-36.5-2.261-2.2-10.594-7.568-18.518-11.928C417.834 418.277 391.11 404 390.658 404c-.145 0-4.156 3.344-8.913 7.43M205.5 416.691c-39.381 30.105-39.44 30.227-29.575 61.309 2.88 9.075 9.442 29.93 14.583 46.344 5.14 16.414 9.553 30.05 9.805 30.302.639.64 33.814 3.308 41.437 3.333 3.438.012 6.25-.363 6.25-.831 0-.973-7.418-18.674-11.587-27.648-2.505-5.392-2.8-7.165-2.911-17.5-.143-13.268-1.483-17.171-10.381-30.227-5.542-8.134-6.387-12.048-3.371-15.63 1.176-1.396 9.624-4.675 25.75-9.993 13.2-4.354 28.187-9.844 33.304-12.2l9.305-4.285-10.305-3.34c-13.963-4.527-32.45-13.849-45.285-22.835-5.841-4.088-10.934-7.621-11.319-7.85s-7.45 4.744-15.7 11.051M472 558.552c-.825.177-3.525.585-6 .908l-4.5.588-.031 6.226c-.018 3.424-.243 9.151-.5 12.726l-.469 6.5 29 .237 29 .238-19.198-10.014C481.298 566.571 476 562.797 476 559.365c0-1.32-.834-1.489-4-.813m-261.5 7.84c-1.65 1.351-10.2 6.203-19 10.782l-16 8.326 28.379.266c18.675.175 28.809-.092 29.639-.781 1.007-.836.86-2.903-.729-10.266-1.094-5.07-2.085-9.322-2.202-9.449-.117-.126-4.01-.478-8.65-.781-7.895-.517-8.63-.394-11.437 1.903"/></svg>