<?xml version="1.0" encoding="UTF-8" standalone="no"?>
<!-- Created with Inkscape (http://www.inkscape.org/) -->

<svg
   class="{{ class | default('') }}"
   version="1.1"
   id="svg1"
   viewBox="0 0 363.89706 532.08972"
   xmlns="http://www.w3.org/2000/svg"
   xmlns:svg="http://www.w3.org/2000/svg">
  <defs
     id="defs1" />
  <g
     id="g1"
     transform="translate(-221.08781,-367.5)">
    <path
       style="fill:currentColor"
       d="m 227.09604,898.71727 c -5.34246,-1.47667 -6.8876,-3.53806 -5.55764,-7.4145 0.70855,-2.0652 4.50833,-5.14472 14.43923,-11.70223 l 13.47763,-8.89945 -4.19256,-2.03058 c -5.65772,-2.74018 -6.36262,-5.17117 -4.71233,-16.25138 0.73063,-4.90552 2.1028,-17.40637 3.04927,-27.77967 1.61405,-17.69018 1.61725,-19.58282 0.0516,-30.5 -4.25738,-29.68547 -4.64265,-42.79418 -1.67144,-56.86967 2.49566,-11.82265 3.32396,-13.31487 12.16952,-21.92419 15.38681,-14.97585 29.83125,-26.70871 46.5436,-37.80619 6.27849,-4.1691 11.15364,-8.22018 12.69467,-10.54884 1.42131,-2.14774 4.91525,-5.16131 8.08992,-6.97768 10.04523,-5.74729 13.98459,-10.31255 15.95737,-18.4927 0.70629,-2.92863 0.78171,-2.85994 4.3919,4 4.42169,8.40192 17.8843,22.34365 26.39507,27.33442 6.88586,4.03792 16.40544,7.97857 20.95587,8.67474 l 3.32233,0.50827 -3.67634,-1.44096 c -6.04664,-2.37002 -14.18438,-8.03668 -18.2511,-12.70903 -14.23222,-16.35176 -11.53729,-42.00715 6.2818,-59.80187 7.43995,-7.42977 18.57301,-13.75312 33.34603,-18.93984 4.78521,-1.68006 10.41021,-3.92778 12.5,-4.99494 6.53365,-3.33644 16.13814,-10.9454 19.26568,-15.26284 l 2.99937,-4.1405 -2.48272,-2.95055 C 441.11722,560.17429 440,558.46653 440,558.00206 c 0,-0.46448 -2.925,-4.03182 -6.5,-7.92743 -6.28144,-6.84477 -7.94207,-10.58402 -5.17245,-11.64683 2.19312,-0.84158 6.14159,1.18165 9.72943,4.98545 1.86071,1.97271 3.79677,3.58675 4.30236,3.58675 1.77266,0 -0.29013,-10.01504 -4.83873,-23.49248 -2.52142,-7.47093 -4.45754,-14.80391 -4.3025,-16.29552 0.25247,-2.42897 -0.39647,-3.05053 -6.21811,-5.95581 -19.17598,-9.56972 -43.95612,-5.25959 -63.81808,11.10018 -6.50092,5.35464 -14.55351,15.04286 -18.26315,21.97274 l -3.12039,5.82912 -2.35318,-5.07912 C 338.15094,532.2856 336.60241,530 336.004,530 c -0.5984,0 -4.3316,2.82443 -8.296,6.2765 -3.9644,3.45208 -8.333,7.06476 -9.708,8.02819 -1.97446,1.38346 -2.20945,1.93301 -1.11785,2.61419 2.20777,1.37771 20.78022,5.08112 25.48159,5.08112 5.35351,0 6.0695,-0.75605 16.09935,-17 4.24497,-6.875 9.25284,-14.37633 11.1286,-16.66962 1.87576,-2.29328 4.27274,-6.18121 5.32663,-8.63983 2.2019,-5.13681 3.60262,-6.33302 5.53646,-4.72808 0.93983,0.77999 1.56972,0.8069 2.01521,0.0861 1.34076,-2.1694 3.45621,-0.95888 4.07337,2.3309 0.48931,2.60823 -0.27374,5.63204 -3.34358,13.25 C 378.18373,533.07705 376,540.41365 376,544.81834 v 3.45534 l 4.95716,-4.63684 c 2.72644,-2.55026 5.87644,-4.63684 7,-4.63684 1.12356,0 2.38034,-0.0135 2.79284,-0.03 0.4125,-0.0165 1.74473,-2.28394 2.96051,-5.03876 1.85591,-4.20529 2.96102,-5.34076 6.88901,-7.0783 13.21217,-5.84437 25.04653,7.11972 18.39721,20.15345 -4.55513,8.9288 -16.45436,9.94213 -23.2802,1.98254 l -3.21653,-3.7508 -4.59611,4.13093 c -2.52785,2.27201 -6.5,6.74611 -8.82699,9.94245 -6.96446,9.56634 -7.86417,9.87729 -41.0042,14.17127 -22.12289,2.86648 -34.34977,3.13379 -49.78832,1.0885 -5.93141,-0.78579 -13.38656,-1.72 -16.56701,-2.07603 -7.89606,-0.88391 -10.81655,-3.47206 -11.45867,-10.15472 -0.6216,-6.46908 1.44725,-11.2164 9.58183,-21.9871 7.0765,-9.36973 14.09254,-16.05256 25.20778,-24.0106 5.64981,-4.04502 9.50542,-7.87336 13.82397,-13.7262 12.71495,-17.23233 20.39403,-22.02658 37.65226,-23.50729 8.3205,-0.71387 10.08767,-1.28551 22.65196,-7.32737 15.93125,-7.66095 17.0959,-8.91102 17.66367,-18.95924 0.36887,-6.52802 0.13608,-7.38636 -5.17437,-19.07914 -4.26453,-9.38983 -5.80573,-14.10826 -6.61225,-20.2436 -1.27055,-9.6653 -0.0245,-22.51651 2.80287,-28.90832 2.49294,-5.63571 8.47134,-11.59304 14.72067,-14.66877 C 396.83878,367.82543 398.9103,367.5 408,367.5 c 9.47952,0 10.99793,0.26267 15.62335,2.70267 6.44024,3.39735 12.80857,10.55212 14.79923,16.62681 1.92213,5.86557 2.38295,27.91171 0.70798,33.87024 -0.64932,2.30985 -3.41932,8.99407 -6.15556,14.85383 -5.78734,12.39376 -6.33601,17.32369 -2.725,24.48456 2.1242,4.21242 3.09565,4.88638 17.37497,12.05403 14.02505,7.04002 15.70735,7.63705 23.13319,8.20969 14.70599,1.13405 25.14032,7.17142 34.67368,20.06245 5.96987,8.07246 8.53662,10.46318 20.53648,19.12812 9.72889,7.0251 18.42912,16.13007 25.09988,26.26753 5.39463,8.19816 6.41656,11.52182 5.47439,17.80466 -1.04003,6.93536 -2.82425,7.75698 -22.62106,10.41687 -18.56351,2.49418 -34.12738,2.39395 -53.20008,-0.3426 -10.17512,-1.45993 -8.75054,-3.11267 -11.18848,12.98047 -2.38363,15.73465 -2.01873,24.87589 1.59196,39.88067 5.4763,22.7576 6.09957,23.89137 17.282,31.4372 3.95985,2.67208 8.42022,6.45847 9.91192,8.41419 1.53014,2.00612 5.64728,5.09963 9.44667,7.09799 11.15928,5.86944 23.85806,16.11102 40.93554,33.01457 20.75949,20.54805 22.28231,23.34542 23.04787,42.33796 0.57625,14.29581 -0.66346,25.92991 -4.29936,40.34746 -1.95434,7.74966 -2.63367,14.04966 -3.45052,32 -1.50198,33.00594 -2.52404,41.53445 -5.52009,46.06178 -1.36343,2.06028 -2.47896,3.95599 -2.47896,4.21268 0,0.2567 5.39241,3.67986 11.98313,7.60704 11.23866,6.69672 17.0371,11.57237 17.00156,14.29586 -0.0523,4.00574 -4.71577,5.67327 -15.86613,5.67327 -10.0728,0 -17.14485,-1.1021 -29.11856,-4.53778 -4.675,-1.34143 -13.35776,-2.85571 -19.29502,-3.36508 -15.87236,-1.36171 -18.07416,-3.54255 -15.83666,-15.68586 1.12669,-6.11477 1.08841,-6.36364 -1.35443,-8.80648 -2.96377,-2.96377 -2.99377,-3.59171 -0.91453,-19.14281 0.87965,-6.57909 1.94458,-16.23699 2.36652,-21.46199 0.42193,-5.225 1.50222,-11.46908 2.40064,-13.87573 2.22092,-5.94935 2.14512,-6.42869 -1.96046,-12.39716 -3.45158,-5.01771 -3.58032,-5.51748 -3.25,-12.61631 l 0.34394,-7.39163 -5.10187,-1.67049 c -6.51972,-2.13473 -7.93815,-3.30237 -19.94631,-16.41982 -11.48521,-12.54617 -24.17674,-23.51369 -36.81126,-31.81083 -9.60199,-6.30567 -10.78257,-6.55761 -20.14056,-4.29803 -8.32491,2.01013 -19.56546,1.81079 -28.77648,-0.51033 l -7.77647,-1.95961 -5.21887,2.05708 c -10.76698,4.24395 -24.74673,12.16425 -31.86568,18.05366 -10.13516,8.38469 -24.13112,22.18348 -29.50523,29.0896 -3.66305,4.70727 -5.27493,5.95187 -8.88578,6.8611 -6.54941,1.64916 -7.10225,2.82803 -4.39233,9.3662 l 2.28826,5.52083 -4.68371,8.96211 c -2.57604,4.92915 -4.68274,9.99198 -4.68157,11.25073 10e-4,1.25875 1.37114,4.88576 3.04436,8.06003 l 3.04221,5.77141 -1.73912,5.5171 c -1.52653,4.84273 -1.59307,6.52719 -0.54435,13.7805 1.6362,11.31655 1.53992,19.62072 -0.25044,21.59904 -1.12282,1.2407 -1.26904,2.8951 -0.65546,7.41656 1.60414,11.82097 -0.0719,13.40515 -15.60432,14.74894 -5.93726,0.51367 -14.39502,2.01222 -18.79502,3.33012 -15.50953,4.64546 -30.8865,6.36005 -38.40396,4.2822 z m 187.00608,-244.9872 c 3.91799,-2.6174 6.89477,-7.89765 6.89477,-12.23007 0,-7.11278 -6.96787,-14.5 -13.67689,-14.5 -8.70752,0 -14.74857,5.93924 -14.74857,14.5 0,11.53614 12.19779,18.46485 21.53069,12.23007 z m 79.34651,-104.95675 8.94863,-2.03322 -2.44863,-1.92269 c -1.34675,-1.05747 -5.664,-4.599 -9.59389,-7.87005 C 486.42484,533.67631 482.5391,531 481.71975,531 c -0.81935,0 -2.176,1.04738 -3.01478,2.32752 C 476.72957,536.34235 474,545.55997 474,549.21594 v 2.85295 l 5.25,-0.63118 c 2.8875,-0.34714 9.27688,-1.54612 14.19863,-2.66439 z"
       id="path1" />
  </g>
</svg>
