<svg class="{{ class | default('') }}" xmlns="http://www.w3.org/2000/svg" viewBox="0 0 395 541"><path style="fill:currentColor" fill-rule="evenodd" d="M39.556.91c-1.095 1.77.551 3.636 6.697 7.59 10.005 6.437 21.806 15.43 28.037 21.365 9.195 8.759 15.877 18.294 28.462 40.613 11.652 20.663 14.442 24.405 16.155 21.659.685-1.097 1.769-.825 5.545 1.388 7.08 4.149 22.94 15.833 33.048 24.346 10.773 9.073 36.932 35.016 44.552 44.184 5.967 7.178 23.621 28.274 30.869 36.886 11.926 14.17 22.449 25.604 34.106 37.059 16.729 16.438 18.502 19.859 18.404 35.5-.062 9.855-.456 12.197-3.783 22.5-5.078 15.722-9.017 31.597-8.302 33.459 1.072 2.795 3.41 1.608 5.087-2.584.908-2.268 1.778-3.956 1.934-3.75.418.553-2.024 32.223-4.385 56.875-3.526 36.824-7.065 58.149-16.012 96.5-10.228 43.84-13.147 66.5-8.565 66.5 2.151 0 4.569-6.208 8.141-20.906 16.527-68 18.032-74.949 22.438-103.594 4.737-30.806 8.295-78.236 7.92-105.584-.135-9.822.148-12.083 2.027-16.189 4.82-10.538 6.251-24.769 3.538-35.185-2.766-10.618-6.96-16.905-18.27-27.383-10.582-9.805-17.945-18.125-49.2-55.59-22.989-27.558-33.262-38.846-47.073-51.724-21.547-20.091-37.081-32.005-53.534-41.056l-7.892-4.342-5.81-10.973c-8.044-15.193-15.919-27.724-22.562-35.902-6.661-8.2-20.23-19.761-30.018-25.576C51.429 1.245 41.144-1.66 39.556.91m228.95 118.34c-.238.688-2.76 7.55-5.606 15.25s-5.379 15.637-5.631 17.637c-.426 3.384-.142 3.854 4.086 6.763 2.498 1.719 4.785 3.517 5.08 3.996.296.478-.29 3.285-1.303 6.237-3.571 10.411-3.566 19.967.009 20.656 1.055.203 1.834-1.171 2.636-4.645.627-2.713 3.006-8.807 5.288-13.543 4.925-10.219 4.764-11.949-1.536-16.473-2.491-1.789-4.529-3.347-4.529-3.463s1.125-4.646 2.5-10.066c3.175-12.515 3.345-23.599.362-23.599-.509 0-1.119.563-1.356 1.25m63.994 18.107c-1.65 1.3-7.967 5.768-14.037 9.929-6.07 4.16-12.976 9.285-15.347 11.389l-4.31 3.825 2.2 6c3.562 9.716 3.567 10.147.154 13.019-7.694 6.474-15.758 20.283-13.287 22.754.785.785 2.698-.578 6.858-4.89 3.173-3.288 9.136-8.933 13.252-12.544l7.483-6.567-2.243-6.386c-1.234-3.512-2.239-7.122-2.233-8.023s3.121-4.181 6.923-7.292c8.868-7.255 21.326-20.355 20.815-21.888-.68-2.043-3.116-1.779-6.228.674m44 43.153c-4.95 1.328-15.075 3.811-22.5 5.519-7.425 1.707-14.166 3.756-14.979 4.552-.813.797-2.41 4.907-3.549 9.135l-2.07 7.686-8.951 2.592c-9.417 2.727-16.288 6.581-18.937 10.624-1.36 2.076-1.38 2.496-.139 2.972.794.305 2.723-.106 4.285-.913 4.184-2.162 10.389-3.656 19.49-4.694 11.913-1.359 11.395-.97 13.889-10.412 1.213-4.591 2.488-8.773 2.833-9.294.345-.52 5.578-2.17 11.628-3.666 10.038-2.481 24.202-8.391 28.875-12.048 1.759-1.375 1.691-4.624-.094-4.515-.429.026-4.831 1.134-9.781 2.462m-373 6.349c-4.75 1.046-3.602 3.274 2.783 5.402l5.784 1.928-4.534 3.99C3.404 201.814 1.688 205 3.859 205c.473 0 3.51-1.344 6.75-2.987 8.908-4.518 10.149-4.219 17.599 4.237 3.513 3.988 9.494 11.075 13.29 15.75 11.117 13.69 19.37 22.488 28.848 30.755 4.883 4.26 9.308 8.015 9.832 8.345 1.772 1.114-4.288 39.978-9.262 59.4-4.44 17.335-19.755 55.214-34.537 85.421-6.304 12.882-11.232 24.02-10.952 24.75 1.043 2.716 3.622 1.162 7.723-4.653 2.32-3.291 4.396-5.805 4.613-5.588s-.384 7.971-1.335 17.232c-2.036 19.831-2.314 50.327-.568 62.338 2.933 20.183 8.6 36.5 12.676 36.5 2.852 0 3.015-5.384.556-18.306-4.899-25.742-5.227-43.598-1.596-86.914l2.496-29.78 5.444-11.5c7.17-15.147 19.712-46.315 22.936-57 5.746-19.046 10.291-43.836 10.757-58.678l.194-6.177 5.588 3.748c10.356 6.944 17.522 10.841 32.589 17.723 19.549 8.93 25.245 12.065 27.124 14.933 2.754 4.204 1.904 10.234-3.095 21.936-12.316 28.835-16.742 59.011-13.164 89.745.879 7.552 3.405 22.87 5.613 34.04 5.986 30.276 7.022 39.992 7.022 65.857 0 22.809.4 25.446 3.475 22.894 2.017-1.674 3.479-9.647 4.65-25.354 1.289-17.289-.003-35.373-4.139-57.902-5.219-28.432-6.986-43.643-6.986-60.126 0-23.633 3.26-39.588 13.055-63.89 4.236-10.511 5.945-16.063 5.945-19.314v-4.563l5.793 4.064c3.187 2.235 6.337 4.064 7 4.064 4.497 0-5.366-11.75-15.293-18.218-3.3-2.151-16.702-9.268-29.781-15.818-13.08-6.549-27.03-14.003-31-16.564-18.283-11.792-37.203-29.151-53.274-48.88-14.196-17.426-20.089-23.23-26.882-26.475-6.294-3.007-14.77-4.353-20.063-3.186m62.07 3.027c-1.268 2.052 14.369 20.704 26.213 31.267 14.6 13.021 35.624 22.888 54.909 25.772 10.156 1.518 14.308 1.404 14.308-.396 0-.998-3.296-2.464-10.25-4.56-32.788-9.883-46.354-17.758-71.423-41.46C72.631 194.179 66.92 189 66.636 189s-.764.399-1.066.886m285.959 56.236-6.545 6.122-8.366-4.242c-7.909-4.01-8.748-4.22-15.369-3.846-7.593.429-11.08 2.137-9.139 4.477.669.805 3.088 1.367 5.89 1.367 6.079 0 9.839 1.609 18.479 7.91 3.838 2.8 7.888 5.083 9 5.074 1.111-.009 4.937-2.647 8.501-5.86l6.48-5.844 9.559 4.778c5.258 2.628 12.421 5.52 15.919 6.426 5.589 1.448 6.537 1.47 7.826.181 1.289-1.29 1.181-1.65-.898-2.978-6.434-4.107-33.365-19.687-34.03-19.687-.42 0-3.708 2.755-7.307 6.122M230 255.415c0 .779 2.882 3.946 6.404 7.038 7.716 6.775 9.596 10.377 9.596 18.389 0 3.322.43 6.306.956 6.631 1.736 1.073 4.218-4.305 4.764-10.322.448-4.943.16-6.591-1.741-9.974-4.084-7.266-19.979-16.624-19.979-11.762m-23.49 86.724c-.351.901-.157 4.293.432 7.539 4.624 25.5 2.395 50.777-7.639 86.622-2.53 9.04-3.274 13.129-2.526 13.877 1.649 1.649 9.584-15.703 13.626-29.798 4.017-14.004 6.597-29.894 6.597-40.626 0-12.966-4.149-32.263-7.935-36.904-1.656-2.03-2.003-2.126-2.555-.71"/></svg>