<svg xmlns="http://www.w3.org/2000/svg" viewBox="0 0 664 695"><path style="fill:currentColor" fill-rule="evenodd" d="M416.062 1.613C369.737 10.012 330.928 40.318 307.996 86c-14.476 28.838-24.765 64.941-27.928 98-.605 6.325-1.353 13.463-1.662 15.862l-.562 4.363-2.672-2.479c-3.428-3.179-16.543-12.177-26.172-17.957-21.884-13.136-42.191-21.378-61.134-24.813-8.974-1.628-33.888-1.368-42.394.441-28.746 6.115-53.949 24.598-65.847 48.289-1.438 2.863-3.629 6.168-4.87 7.344-1.24 1.176-8.555 5.295-16.255 9.153-17.657 8.848-24.225 13.261-33.008 22.181-8.421 8.551-10.089 10.871-15.37 21.374-6.443 12.814-8.303 21.151-8.877 39.786-.87 28.281 4.703 52.424 18.445 79.905 17.764 35.526 44.365 60.981 76.81 73.502 1.1.424 3.575 1.436 5.5 2.247s6.758 2.309 10.74 3.329c6.787 1.737 7.456 1.75 10.701.203 5.114-2.439 6.698-5.633 7.683-15.497 1.917-19.192 5.681-32.297 16.492-57.423 3.623-8.42 7.859-19.135 9.414-23.81 10.477-31.499 8.759-64.696-4.735-91.5-7.148-14.197-13.708-22.829-29.502-38.819-9.383-9.499-15.104-16.094-15.806-18.219-2.418-7.327 3.561-17.773 13.031-22.768 5.439-2.868 5.589-2.887 18.982-2.393 13.337.491 23.61 2.517 31.651 6.24 1.733.802 3.546 1.459 4.028 1.459 1.273 0 21.98 10.656 23.321 12.002.275.275 1.643 1.088 3.039 1.806 2.323 1.193 8.585 5.698 17.864 12.849 6.827 5.261 25.288 23.87 32.584 32.843 38.062 46.817 59.276 104.676 65.082 177.5l.677 8.5-2.873-2.607c-8.718-7.91-24.485-17.225-35.352-20.886-13.079-4.406-30.462-7.212-56.837-9.176-15.404-1.147-16.512-1.109-19.827.676-6.846 3.687-7.477 7.632-4.398 27.493 5.776 37.262 17.198 64.002 35.397 82.87 7.16 7.424 20.133 17.409 26.031 20.038 14.68 6.542 24.495 9.084 41.791 10.821l7.677.771-3.49 13.479c-1.919 7.414-3.623 13.612-3.785 13.774-.162.163-3.622 1.216-7.688 2.342-9.951 2.755-18.311 6.175-26.545 10.862-3.766 2.143-10.573 5.784-15.127 8.09-13.288 6.728-20.161 11.658-29.22 20.96-11.362 11.666-23.487 28.743-27.126 38.205l-1.043 2.713-33.999.287-33.998.288-2.896 3.242c-1.593 1.784-3.2 4.455-3.572 5.936-.945 3.764 1.57 10.224 4.957 12.731l2.823 2.091 212.307.264c168.943.209 213.089.005 216.14-1 7.216-2.379 10.566-11.3 6.701-17.844-3.208-5.429-5.785-5.92-31.104-5.92h-23.009l-4.697-8.75c-14.828-27.616-38.618-47.763-64.098-54.279-13.03-3.333-34.975-2.203-48.26 2.484-2.17.766-4.123 1.215-4.34.998s1.059-8.621 2.836-18.674S394.369 567.875 395 561s1.519-16.1 1.973-20.5c1.273-12.343.96-58.227-.515-75.381-3.472-40.384-8.501-67.331-19.522-104.619-5.757-19.475-7.789-25.355-19.179-55.5-7.048-18.653-10.438-33.058-12.275-52.159-1.717-17.842-1.927-49.069-.453-67.218 1.352-16.649 6.148-42.738 10.042-54.623 11.425-34.872 33.765-60.676 61.958-71.564 9.621-3.716 29.608-8.173 32.196-7.18 3.084 1.183 5.911 13.065 6.503 27.33l.543 13.085-10.914 10.915c-6.002 6.003-11.801 12.065-12.885 13.473-6.708 8.703-10.541 15.867-14.148 26.441-8.041 23.569-7.122 58.459 2.279 86.5 4.055 12.093 7.683 19.001 14.502 27.607 8.298 10.471 16.2 15.961 29.476 20.476 15.31 5.208 17.346 4.248 26.697-12.583 11.225-20.207 24.672-57.019 27.578-75.5 2.168-13.786 2.293-19.471.668-30.303-3.731-24.855-11.336-39.569-30.121-58.281l-8.115-8.083-.72-13.578c-.396-7.467-1.313-16.43-2.038-19.916s-1.175-6.492-1.001-6.678c.669-.717 15.773 2.91 20.746 4.982 12.5 5.209 34.884 23.021 47.846 38.074 18.099 21.02 35.253 57.068 40.955 86.068 3.084 15.684 2.984 16.21-4.44 23.357-19.097 18.387-30.862 40.483-36.664 68.858-1.814 8.869-2.257 14.391-2.288 28.5-.022 9.625.521 20.875 1.205 25 8.207 49.472 21.148 76.494 45.428 94.856 7.653 5.788 11.985 7.957 23.195 11.616 9.509 3.104 11.293 3.134 15.564.255 4.508-3.037 5.412-5.198 7.931-18.95 1.18-6.448 2.551-12.973 3.046-14.5 6.009-18.542 8.445-25.564 12.412-35.777 9.726-25.036 12.682-44.13 10.605-68.498-3.085-36.19-15.631-64.055-41.138-91.368l-7.163-7.67-2.8-14.959C601.355 126.298 568.326 71.128 523 34.394c-24.153-19.575-43.767-29.687-64-32.996-10.469-1.712-32.93-1.6-42.938.215m1.438 24.346c-46.808 9.849-81.429 44.21-100.296 99.541-6.611 19.387-9.656 33.214-12.664 57.5-1.367 11.037-3.527 39.843-3.536 47.173-.009 6.386-9.703 12.437-15.847 9.892-1.621-.671-3.782-1.977-4.802-2.901-1.02-.925-4.78-4.152-8.355-7.173s-6.725-5.716-7-5.991c-2.693-2.693-26.319-19-27.528-19-.333 0-2.038-1.058-3.789-2.351-3.511-2.594-17.107-9.314-25.683-12.694-11.855-4.673-21.194-6.562-11.76-2.379 2.343 1.039 7.595 3.845 11.671 6.235 31.062 18.213 55.662 42.593 79.869 79.153 19.717 29.779 32.085 58.281 41.193 94.933 5.125 20.622 8.579 39.001 9.981 53.103a4785 4785 0 0 0 1.665 16.5c.286 2.75.523 18.5.525 35 .005 38.538-2.063 60.815-8.31 89.5-1.137 5.225-2.448 11.3-2.911 13.5s-1.311 5.572-1.883 7.493-1.04 3.567-1.04 3.657 2.363.468 5.25.842c7.524.975 20.2 4.268 26.886 6.985l5.746 2.335.613-3.156c.337-1.736 1.019-5.181 1.515-7.656 8.32-41.481 8.77-107.532 1.051-154.5l-2.462-15c-4.511-27.505-13.584-58.733-27.6-95-9.609-24.863-10.481-27.563-13.016-40.284-3.876-19.451-4.945-33.328-4.909-63.716.018-15.95.423-32.375.899-36.5 2.762-23.928 5.174-36.975 9.613-52 10.864-36.766 32.063-66.643 58.771-82.828C409.05 34.238 426.416 29.231 452 28.111c14.414-.631 14.47-.642 9.5-1.97-2.75-.735-11.75-1.502-20-1.705-11.957-.295-16.826.014-24 1.523m37.925 101.205c-7.964 8.965-13.736 20.291-16.055 31.502-2.294 11.095-1.433 43.634 1.439 54.334 3.747 13.962 9.115 25.272 15.054 31.717 2.81 3.05 11.705 9.283 13.247 9.283 2.961 0 20.17-43.586 24.479-62 4.615-19.718 1.775-42.175-7.093-56.093l-3.445-5.407-.025 6.199c-.056 13.345-4.194 37.56-7.686 44.974-2.617 5.555-10.47 7.863-16.373 4.81-5.758-2.978-7.293-9.91-4.511-20.365 2.221-8.345 3.71-22.724 3.361-32.454l-.317-8.835zM190 184.5c0 .275.225.5.5.5s.5-.225.5-.5-.225-.5-.5-.5-.5.225-.5.5m399.31 49.631c-8.179 10.669-14.612 24.503-18.54 39.869-1.872 7.325-2.174 11.265-2.182 28.5-.011 22.593 1.214 31.753 6.826 51.065 6.525 22.453 12.757 34.389 23.283 44.59 5.224 5.064 11.898 9.845 13.742 9.845.639 0 1.72-2.706 2.403-6.013 2.107-10.203 6.834-24.41 15.489-46.555 6.979-17.857 8.17-24.632 8.163-46.432-.007-24.662-2.341-35.913-11.489-55.394-6.795-14.468-6.505-15.364-6.505 20.126 0 34.639-.183 35.865-5.914 39.62-5.703 3.737-15.034 1.015-17.4-5.076-.666-1.715-1.246-16.346-1.516-38.276-.24-19.525-.843-36.791-1.34-38.369l-.904-2.868zM61.036 250.599c-15.627 8.272-22.506 14.76-28.481 26.859-5.695 11.534-7.892 22.776-7.237 37.042 1.025 22.316 5.477 39.724 15.627 61.109 12.906 27.194 31.736 47.201 55.265 58.723 5.242 2.568 10.02 4.668 10.616 4.668s1.375-1.687 1.732-3.75c2.621-15.166 9.136-34.663 18.06-54.05 9.342-20.293 12.538-33.397 12.611-51.7.115-28.991-8.042-47.047-32.675-72.333l-11.04-11.334-.715 3.334c-.947 4.414-2.777 34.022-2.789 45.132-.009 7.939.482 10.255 5.023 23.703 5.489 16.254 7.145 26.429 4.964 30.504-.715 1.336-2.976 3.538-5.023 4.893-2.736 1.81-4.221 3.845-5.596 7.67-2.424 6.742-6.457 9.943-12.472 9.899-4.791-.034-7.25-1.428-10.069-5.702-2.559-3.882-2.316-6.765 1.563-18.489 4.993-15.088 4.976-14.887 1.955-23.55-1.482-4.25-2.85-7.921-3.04-8.159-.854-1.068-7.384 6.689-11.608 13.791-4.019 6.756-5.166 7.962-8.532 8.97-5.294 1.587-10.885-.347-13.925-4.817-2.808-4.128-2.826-6.76-.089-13.327 3.523-8.453 10.116-16.496 24.605-30.011 3.435-3.204 6.704-6.684 7.265-7.731.829-1.549 3.296-34.949 2.631-35.614-.107-.107-3.989 1.815-8.626 4.27m161.372 195.417c1.898 14.309 10.162 38.628 17.324 50.984 5.801 10.006 19.982 23.658 29.892 28.775 9.204 4.753 22.099 8.208 30.671 8.218 4.826.006 6.207-.404 8.25-2.448 1.35-1.35 2.455-3.286 2.455-4.303 0-2.771-5.869-7.889-22.944-20.007-10.306-7.314-24.699-19.243-26.212-21.724-4.767-7.816 1.321-17.511 10.996-17.511 2.183 0 5.345 1.757 11.246 6.25 12.188 9.279 31.977 23.75 32.477 23.75.24 0 .437-2.61.437-5.8 0-5.319-.387-6.334-4.674-12.25-13.38-18.462-30.73-29.625-53.614-34.494-6.742-1.435-30.038-4.43-34.591-4.447-2.278-.009-2.35.203-1.713 5.007m85.613 165.109c-4.113.477-9.738 1.603-12.5 2.504-6.327 2.063-19.371 8.488-24.845 12.237-5.144 3.523-12.156 7.131-13.886 7.144-2.32.017-14.363 9.782-19.987 16.206-3.025 3.456-7.651 9.434-10.28 13.284l-4.779 7 129.291.254c71.11.139 129.504.04 129.765-.22.808-.809-7.468-12.771-12.509-18.08-2.635-2.776-6.591-6.373-8.791-7.995s-4.225-3.175-4.5-3.453c-.481-.487-1.59-1.139-8.387-4.931-13.576-7.574-31.976-7.759-53.999-.544-7.366 2.414-11.507 3.283-13.389 2.811-1.499-.376-5.924-3.869-9.834-7.763-10.499-10.454-21.566-15.373-40.712-18.095-5.598-.796-10.854-1.397-11.679-1.336s-4.865.501-8.979.977"/></svg>