<svg class="{{ class | default('') }}" xmlns="http://www.w3.org/2000/svg" viewBox="0 0 352 470"><path style="fill:currentColor" fill-rule="evenodd" d="M201.075 1.087c-21.275 4.174-41.6 17.441-56.499 36.878l-7.377 9.624-9.32 1.319c-13.834 1.958-30.495 5.579-39.454 8.575C71.919 63.002 53.98 72.835 43.661 82.02c-5.087 4.528-5.045 4.361-3.109 12.212 1.095 4.436-.062 6.843-9.061 18.852-9.319 12.439-19.609 31.848-24.075 45.416-3.228 9.805-7.528 28.51-6.818 29.659.861 1.392 8.382.95 14.012-.825 6.526-2.057 7.993-1.161 8.993 5.498 1.368 9.113-1.627 20.8-11.52 44.94-5.712 13.94-9.128 27.824-9.378 38.129l-.205 8.4 5.545.1c5.961.106 9.838 1.965 12.465 5.974.846 1.291 2.923 8.822 4.614 16.736 2.121 9.921 4.788 18.581 8.588 27.889 20.076 49.178 20.5 50.729 20.547 75 .038 19.123-1.759 30.95-6.84 45.037-1.403 3.888-2.408 7.494-2.235 8.014.455 1.361 12.418-4.519 18.448-9.067 3.413-2.574 6.01-5.632 7.75-9.124 2.447-4.909 2.618-6.163 2.618-19.17v-13.917l3.25.549c18.093 3.056 19.626 3.134 25.095 1.275 5.249-1.784 5.374-1.779 9.736.341 6.255 3.04 11.694 3.601 16.292 1.68l3.814-1.594-2.96-3.762c-7.137-9.069-10.794-20.785-9.913-31.762.619-7.716 3.262-16.5 4.964-16.5.6 0 3.75.746 7 1.658 6.567 1.843 7.677 1.303 7.707-3.748.02-3.448 5.691-14.666 8.051-15.93 1.03-.55 4.574-1.284 7.878-1.629 7.426-.776 9.215-2.329 13.49-11.71 1.79-3.927 4.499-9.112 6.02-11.521l2.765-4.38-5.019-10.62c-6.235-13.193-8.088-19.954-8.853-32.309-.604-9.735.781-20.986 2.899-23.561 2.567-3.12 12.324.311 21.408 7.527 2.818 2.239 9.543 9.055 14.943 15.147S212.67 282 213.016 282s.613-4.387.592-9.75c-.042-11.081.743-13.485 8.19-25.054 4.662-7.241 4.734-7.299 8.384-6.749 4.19.631 3.662 1.547 6.737-11.667 2.505-10.765 4.124-14.71 8.589-20.925 1.921-2.673 3.492-5.729 3.492-6.792s-2.058-7.699-4.572-14.748c-3.057-8.567-4.754-15.136-5.12-19.815-.704-9.021.254-9.966 11.461-11.306 9.637-1.152 13.641-3.199 12.714-6.5-1.656-5.899-11.061-23.51-18.527-34.694-10.18-15.249-27.826-33.4-41.456-42.643-10.766-7.302-24.063-14.1-35-17.896-4.4-1.527-8.363-3.091-8.807-3.476-1.379-1.194 9.115-11.712 16.841-16.88 8.893-5.947 16.212-8.834 27.362-10.789 13.344-2.341 25.716-.106 40.552 7.324 9.119 4.567 14.501 8.617 23.291 17.524 17.378 17.611 30.272 40.644 41.396 73.947 4.349 13.021 10.821 37.955 10.853 41.812.007.783-3.536-2.029-7.873-6.25-8.357-8.132-11.309-9.326-14.46-5.844-2.556 2.824-2.04 4.603 3.154 10.869 11.378 13.725 20.944 31.322 23.815 43.802 2.216 9.637 2.724 60.665.826 82.923-4.909 57.567-18.55 110.563-40.424 157.052-4.106 8.725-5.041 11.633-4.561 14.189 1.767 9.418 19.967 13.824 26.671 6.457 4.094-4.5 15.208-33.749 22.844-60.121 10.475-36.179 17.325-75.842 20.111-116.457 1.525-22.224.646-78.243-1.514-96.543C336.106 87.345 291.836 13.581 233.691 1.571c-8.149-1.683-25.213-1.936-32.616-.484m-60.62 46.284c-3.684 1.646-8.891 9.41-19.345 28.848l-7.61 14.15-10.5 3.6c-12.691 4.35-25.098 10.816-35.65 18.58-8.252 6.07-19.158 16.553-23.34 22.432-2.262 3.181-1.873 3 4.507-2.098 15.407-12.31 32.857-21.805 47.463-25.824 12.8-3.523 12.465-3.917 7.828 9.191-5.292 14.957-11.13 38.136-13.787 54.735-1.187 7.417-2.24 13.525-2.34 13.574s-3.331 2.166-7.181 4.704c-15.468 10.197-31.092 29.277-37.426 45.702-1.691 4.384-3.074 8.279-3.074 8.657 0 .377 3.101-3.995 6.892-9.718 9.448-14.263 24.054-28.028 36.984-34.855l2.376-1.254-.747 12.852c-.922 15.84-.918 62.711.005 69.423.665 4.834.587 5.027-4.074 10.179-7.948 8.783-16.06 22.388-18.932 31.751-.422 1.375 1.537-.931 4.353-5.124 5.528-8.233 17.862-20.557 19.217-19.202s2.916 25.134 3.066 46.721c.128 18.389.209 19.251.945 10.105.443-5.5 1.032-12.475 1.307-15.5.276-3.025.526-18.437.555-34.25.037-20.058.383-28.75 1.144-28.75 3.363 0 18.106 15.636 26.399 28 4.018 5.99 3.912 4.41-.404-6.019-3.606-8.714-9.836-17.695-18.741-27.015L93 263.278v-10.56c0-18.745 3.335-53.235 7.635-78.968.397-2.376 1.173-3.75 2.117-3.75.82 0 4.975 3.487 9.234 7.75 10.383 10.393 19.872 25.091 26.629 41.25 2.939 7.027 3.12 3.71.382-7.011-4.612-18.062-13.718-34.564-26.327-47.707l-7.885-8.219 1.261-5.281c1.465-6.14 6.798-22.665 10.417-32.281C119.938 109.27 128.141 92 129.052 92c1.436 0 12.494 8.905 19.472 15.68 17.678 17.164 30.251 34.725 45.692 63.82 7.328 13.807 7.604 13.609 2.094-1.5-5.185-14.218-14.509-32.441-23.649-46.219-4.481-6.755-8.318-12.669-8.525-13.143-.633-1.447 11.883.437 20.364 3.065 4.4 1.364 12.237 4.693 17.415 7.399 10.361 5.414 10.13 3.911-.575-3.744-9.072-6.488-20.119-11.203-33.269-14.2l-11.662-2.658-10.343-10.762-10.343-10.762 9.139-13.487C149.888 58.071 154 51.621 154 51.156c0-3.481-8.75-5.926-13.545-3.785M201 185.5c0 .275.225.5.5.5s.5-.225.5-.5-.225-.5-.5-.5-.5.225-.5.5m46.556 33.554c-1.494 3.33-3.584 10.418-4.644 15.75-2.199 11.068-3.902 13.393-9.19 12.544-3.026-.486-3.426-.179-6.582 5.048-5.11 8.462-6.402 13.081-5.905 21.109.585 9.452 4.475 18.015 10.927 24.05 4.537 4.244 13.39 9.227 14.471 8.146.256-.257-.065-3.517-.714-7.246-1.609-9.239-.691-20.312 3.064-36.955 2.206-9.779 3.329-17.796 3.725-26.592.567-12.604-.126-21.908-1.633-21.908-.441 0-2.025 2.724-3.519 6.054M177.915 327.75c-2.421 6.424-7.929 16.953-9.716 18.57-1.062.961-4.804 2.2-8.315 2.752s-7.148 1.235-8.081 1.517c-2.785.841-6.125 11.828-6.779 22.3-.029.471-10.46-.614-14.209-1.478-2.463-.568-2.742-.314-3.376 3.065-.381 2.027-.483 6.936-.228 10.909.529 8.24 4.006 15.901 10.718 23.615 4.5 5.171 3.028 6 12.441-7 19.171-26.476 30.63-53.244 30.63-71.549 0-5.9-1.414-7.137-3.085-2.701m-89.72 41.75c.02 1.65.244 2.204.498 1.231s.237-2.323-.037-3-.481.119-.461 1.769m-7.41 60.489c.316 6.546.034 11.584-.815 14.619-1.725 6.161-9.751 14.759-18.586 19.91l-6.831 3.982 3.42.328c10.133.972 32.226-7.438 47.027-17.901 7.781-5.501 22.784-19.878 26.986-25.86 2.174-3.096 2.219-3.357.463-2.657-4.969 1.978-13.412 1.871-19.21-.243-5.427-1.978-6.091-2.016-10.761-.606-5.029 1.518-12.225 1.246-17.211-.65-4.875-1.853-4.996-1.608-4.482 9.078"/></svg>