<svg xmlns="http://www.w3.org/2000/svg" viewBox="0 0 752 696"><path style="fill:currentColor" fill-rule="evenodd" d="M436.314 1.95C432.509 4.27 431 6.809 431 10.887c0 7.5 3.984 10.572 15 11.568 28.801 2.603 62.484 11.105 91.5 23.094 11.022 4.554 33.823 16.201 39.894 20.378 2.456 1.69 4.747 3.073 5.091 3.073.694 0 12.724 7.988 13.515 8.973.275.343 2.075 1.705 4 3.027 16.628 11.42 46.332 39.587 60.109 57 7.459 9.427 19.891 26.602 19.891 27.48 0 .252 2.056 3.636 4.569 7.52 4.183 6.467 19.431 35.901 19.431 37.509 0 .379.649 2.107 1.442 3.84 2.322 5.077 7.148 18.41 10.369 28.651 17.457 55.493 18.833 126.299 3.557 183-7.559 28.058-21.076 59.844-34.871 82-20.775 33.369-43.966 59.63-72.497 82.093-20.324 16.003-31.269 23.155-50.552 33.036-57.53 29.477-120.019 39.15-186.757 28.907-61.212-9.394-126.351-43.962-164.952-87.536-16.399-18.511-26.701-33.948-37.215-55.763-6.357-13.189-6.732-13.719-10.506-14.85-6.984-2.092-14.018 2.81-14.018 9.771 0 9.099 18.124 42.551 32.769 60.483 14.133 17.305 27.992 31.374 42.096 42.734 3.099 2.497 5.86 4.805 6.135 5.13s2.075 1.673 4 2.995 3.725 2.705 4 3.073 5.675 4.045 12 8.171c42.089 27.458 88.147 44.072 138.5 49.96 14.939 1.746 63.188 1.716 75-.048 50.763-7.579 88.632-20.632 127.43-43.924 30.403-18.253 61.643-44.732 81.676-69.232 1.574-1.925 3.129-3.725 3.456-4s4.64-5.9 9.585-12.5c30.579-40.817 52.021-89.513 61.251-139.11 4.82-25.897 5.528-34.547 5.561-67.89.032-32.845-.27-36.635-5.057-63.5-9.742-54.67-33.781-106.984-69.78-151.854-10.746-13.394-28.7-32.08-40.598-42.254-4.112-3.515-8.104-6.978-8.873-7.694-1.978-1.843-15.534-11.875-22.651-16.764-14.097-9.682-36.27-22.018-53.5-29.764-23.105-10.388-60.292-21.114-85.5-24.663-4.4-.619-10.737-1.549-14.082-2.066-8.778-1.358-11.523-1.175-15.104 1.009m-45.723 41.623c-4.652 1.705-8.083 4.24-17.876 13.208C359.027 69.317 350.611 75.76 333 87.186c-42.473 27.556-92.031 43.477-150.285 48.281-18.63 1.536-22.23 2.8-28.58 10.032-3.931 4.477-5.584 8.419-8.578 20.455-6.741 27.096-10.39 53.383-12.105 87.201-.912 17.968-2.677 16.845 26.475 16.845h22.928l1.914-2.433c1.599-2.034 2.018-4.787 2.55-16.75.732-16.455 2.791-34.403 5.804-50.576 1.837-9.862 2.362-11.311 4.237-11.682 1.177-.233 6.415-.935 11.64-1.559 47.573-5.685 94.234-20.797 136-44.047 14.015-7.802 34.785-22.174 53.674-37.142.772-.611 1.971-.253 3.5 1.045 1.279 1.087 4.351 3.616 6.826 5.621s5.269 4.273 6.208 5.039c3.548 2.893 28.636 19.349 36.792 24.132 41.341 24.248 89.329 39.526 147.2 46.864 5.107.647 4.975.46 6.734 9.488 5.273 27.062 6.911 46.679 6.64 79.5-.219 26.483-1.337 43.708-3.571 55-5.635 28.489-10.523 46.037-17.689 63.5-3.998 9.743-18.237 38.535-21.119 42.704-1.063 1.538-4.092 6.171-6.731 10.296-13.687 21.398-36.819 47.624-57.464 65.151-25.281 21.463-61.09 42.457-93.162 54.621l-13.663 5.182-14.837-6.049c-27.051-11.029-47.464-22.126-70.119-38.121-14.836-10.474-23.18-17.612-38.243-32.718-28.211-28.291-48.317-57.634-62.446-91.136-5.433-12.881-2.99-11.93-30.646-11.93-23.39 0-23.843.039-25.936 2.25-1.756 1.855-2.037 3.071-1.595 6.924.294 2.57.988 5.495 1.542 6.5s2.86 6.281 5.125 11.726c12.271 29.511 32.18 62.831 52.2 87.36 16.217 19.87 44.252 46.947 61.601 59.493 8.061 5.83 33.136 22.747 33.716 22.747.36 0 1.849.847 3.309 1.883 6.606 4.687 28.33 15.658 43.654 22.047 5.5 2.294 10.9 4.569 12 5.057 7.959 3.532 27.069 9.013 31.425 9.013 11.619 0 52.086-16.294 82.075-33.049 16.341-9.129 44.276-28.814 59-41.574 8.109-7.027 33.915-32.796 38.256-38.2 2.066-2.573 5.353-6.477 7.304-8.677 6.107-6.885 29.44-40.212 29.44-42.049 0-.268 1.764-3.39 3.919-6.939 3.222-5.302 13.621-25.981 17.106-34.012 3.109-7.167 10.158-26.357 12.305-33.5 14.054-46.759 18.789-86.178 16.637-138.5-.862-20.944-2.25-33.906-6.051-56.5-5.606-33.327-9.407-45.246-16.623-52.127-5.469-5.216-10.686-6.685-29.793-8.386-75.6-6.73-135.339-31.994-188.918-79.893-12.542-11.212-17.145-13.652-25.51-13.524-2.515.039-6.331.715-8.481 1.503M459.5 188.118c-23.613 2.395-44.104 19.438-52.702 43.834-2.749 7.799-3.583 24.272-1.483 29.276 2.985 7.113 12.55 9.981 19.386 5.812 4.583-2.794 5.97-6.321 6.532-16.613.868-15.897 7.997-26.895 21.549-33.247 4.947-2.319 7.002-2.68 15.239-2.68 8.686 0 10.089.28 16 3.191 7.474 3.682 11.453 7.481 16.302 15.564 6.571 10.953 6.954 24.178 1.049 36.238-3.657 7.468-13.128 16.311-20.933 19.546L474.5 291.5l-233 .5c-226.756.487-233.075.551-235.801 2.398-8.129 5.51-7.17 17.778 1.718 21.996C10.496 317.855 31.94 318 244.296 318h233.493l6.856-2.113c14.01-4.317 23.993-11.215 33.85-23.387 14.199-17.534 18.097-42.587 9.853-63.333-11.316-28.476-37.703-44.208-68.848-41.049m-389 158.836c-7.213 2.984-9.861 13.905-4.777 19.705C70.212 371.78 58.052 371.464 271 372l198.5.5 5.5 2.608c9.459 4.484 18.288 15.06 20.781 24.892 2.064 8.136 2.242 10.433 1.267 16.315-2.027 12.225-9.999 23.058-20.912 28.417-5.071 2.49-6.689 2.768-16.136 2.768-9.476 0-11.056-.273-16.202-2.8-6.567-3.224-13.777-10.698-16.942-17.56-1.543-3.347-2.265-7.288-2.592-14.14-.36-7.547-.896-10.168-2.609-12.752-4.02-6.065-13.983-7.864-19.186-3.465-4.616 3.903-5.469 6.303-5.469 15.39 0 11.54 1.356 17.601 6.212 27.771 5.171 10.828 16.82 22.891 26.788 27.741 12.242 5.956 16.228 6.823 31 6.735 14.991-.088 19.776-1.287 31.4-7.87 13.311-7.539 25.73-23.179 29.489-37.14 3.17-11.77 3.029-27.597-.338-37.91-6.485-19.864-23.227-36.99-42.509-43.486-5.916-1.993-8.07-2.013-206.26-1.951-110.155.035-201.182.436-202.282.891m-2.202 77.745c-1.211.235-3.604 2.024-5.318 3.976-3.012 3.431-3.094 3.768-2.459 10.187 1.075 10.875 6.419 35.628 11.076 51.296 17.147 57.7 52.262 113.05 97.111 153.068C180.169 653.453 205.25 673 206.911 673c.507 0 1.072.401 1.256.891.444 1.186 21.465 13.893 30.558 18.471 8.927 4.495 11.313 4.554 15.824.388 6.195-5.719 5.198-13.991-2.136-17.738-48.669-24.866-92.843-64.539-121.936-109.512-6.408-9.906-16.961-28.464-20.187-35.5-14.24-31.061-21.497-54.672-26.894-87.5-.904-5.5-2.293-11.273-3.086-12.829-1.269-2.488-6.855-5.913-9.028-5.535-.43.075-1.773.329-2.984.563"/></svg>