<svg xmlns="http://www.w3.org/2000/svg" viewBox="0 0 594 724"><path style="fill:currentColor" fill-rule="evenodd" d="M320.3 4.5a848 848 0 0 0-2.853 12.5c-.909 4.125-2.025 8.85-2.48 10.5-2.377 8.61-2.189 12.804.83 18.5 8.972 16.925 22.224 43.312 21.911 43.625-.2.2-3.703-.07-7.786-.6-4.082-.53-18.447-.974-31.922-.986-29.284-.027-45.553 1.724-70 7.534-10.875 2.585-32.51 9.405-39.5 12.452-19.963 8.701-41.585 19.542-42.333 21.225-.184.412-.859.763-1.5.78-1.009.025-14.34 8.325-17.167 10.688-.55.46-2.575 1.936-4.5 3.281-17.79 12.425-42.073 35.702-57.378 55.001-3.707 4.675-7.419 9.327-8.248 10.339-5.056 6.17-16.221 24.283-22.805 36.995C16.311 281.589 6.338 314.679 1.968 354.5c-1.41 12.848-.815 56.336.95 69.5 5.835 43.516 20.44 83.36 44.353 121 5.298 8.34 15.353 22.45 18.229 25.582.55.599 2.575 3.057 4.5 5.462 3.809 4.758 29.043 30.304 35.519 35.956 4.393 3.835 17.867 14.047 23.748 18 2.046 1.375 3.722 2.837 3.726 3.25s.488.75 1.077.75c.588 0 3.032 1.35 5.43 3s4.626 3 4.952 3 2.269 1.097 4.319 2.438c2.051 1.34 7.554 4.425 12.229 6.854 8.335 4.331 8.499 4.488 8.45 8.062-.027 2.005-.14 9.946-.25 17.645l-.2 14-8.75 9.251c-12.159 12.856-21.692 23.694-22.06 25.081-.171.643 7.365-6.706 16.746-16.331l17.056-17.5.009-7c.015-11.703 1.246-26.5 2.205-26.5.497 0 3.017.933 5.599 2.072s6.045 2.666 7.695 3.391c12.06 5.3 40.737 13.666 55 16.044 4.4.734 11.15 1.866 15 2.517s18.975 1.412 33.611 1.693c30.398.583 42.447-.442 69.389-5.907 8.307-1.685 32.547-8.781 37-10.832 1.1-.506 5.052-2.044 8.782-3.416 16.138-5.94 44.202-21.21 63.107-34.338 30.665-21.294 63.022-56.161 82.339-88.724 23.306-39.288 34.62-72.105 40.337-117 2.182-17.136 2.656-54.245.876-68.5-7.764-62.149-29.693-113.798-67.296-158.5-9.299-11.054-29.563-31.181-39.645-39.375-3.575-2.906-7.4-6.031-8.5-6.944s-8.3-5.867-16-11.007c-15.012-10.022-45.16-25.442-61.59-31.5-12.409-4.576-35.225-11.127-45.41-13.039-11.819-2.219-10.335-.994-17.724-14.635a425 425 0 0 0-6.221-11c-1.782-3.025-6.002-10.473-9.378-16.552l-6.137-11.051.909-5.449c.499-2.996 2.091-11.003 3.537-17.793 2.582-12.127 3.26-21.846.814-11.655M274 98.062c-25.609 1.883-65.267 11.411-86 20.662-38.166 17.029-62.818 33.057-88.657 57.64C24.553 247.517-6.049 352.679 18.551 454c16.708 68.815 59.468 130.046 118.538 169.744 8.707 5.851 21.242 13.364 28.161 16.877l4.75 2.413V621.6c0-14.345.354-21.551 1.071-21.79.638-.213-.324-3.376-2.382-7.834-14.21-30.767-17.24-63.02-9.044-96.275 6.624-26.877 20.408-49.882 42.362-70.701 6.468-6.134 6.878-6.787 7.262-11.592.445-5.57.109-5.969-9.519-11.323-8.803-4.895-11.306-6.343-12.25-7.085-.55-.433-2.626-1.693-4.613-2.799-1.987-1.107-4.504-2.57-5.594-3.25-1.647-1.028-3.229-.807-9.387 1.316-7.848 2.704-24.26 8.821-37.207 13.866l-7.802 3.04-9.698-4.244c-29.541-12.927-41.105-18.335-41.154-19.246-.053-.973 2.906-.139 8.659 2.44 3.901 1.749 11.076 4.731 27.296 11.344 3.575 1.457 8.015 3.344 9.866 4.193 1.89.867 4.584 1.3 6.146.988 2.857-.572 22.488-9.272 24.755-10.971.979-.734.431-2.45-2.418-7.563-5.541-9.945-10.879-19.738-15.416-28.284-2.24-4.218-4.73-7.922-5.534-8.231-2.292-.879-21.234-13.695-22.505-15.226-2.108-2.541.771-1.438 7.51 2.877 19.941 12.768 18.625 11.608 25.237 22.25 3.417 5.5 8.158 13.059 10.536 16.797 4.163 6.545 5.057 7.996 7.442 12.071 1.035 1.77 1.572 1.652 10.238-2.25 5.03-2.265 9.828-4.118 10.662-4.118s11.39 4.995 23.458 11.101l21.94 11.1 17.292-10.463c9.51-5.755 22.916-13.75 29.791-17.768 6.875-4.017 26.675-15.712 44-25.989 17.325-10.276 32.962-19.523 34.75-20.548s3.25-2.247 3.25-2.715-1.346-10.961-2.992-23.318l-2.991-22.467 2.649-4.216c1.457-2.319 5.882-9.167 9.834-15.217s8.771-13.501 10.708-16.559l3.523-5.559-6.616-5.668c-12.88-11.035-10.291-8.863-31.256-26.236-8.447-7-15.756-13.091-16.242-13.536-.503-.46.013-3.954 1.201-8.125 1.146-4.024 4.303-15.192 7.016-24.817s7.289-25.825 10.17-36c6.79-23.987 6.55-22.695 4.344-23.363-7.162-2.168-44.015-3.071-64.348-1.575m70.704 3.647c-.255.435-2.602 9.791-5.214 20.791s-7.332 30.71-10.487 43.801l-5.737 23.8 3.117 2.275c3.379 2.466 11.655 8.541 29.617 21.742 6.325 4.649 14.875 10.881 19 13.848s8.472 6.255 9.661 7.306c2.392 2.114 2.382 2.162-3.168 14.228-1.265 2.75-3.755 8.375-5.534 12.5s-4.231 9.75-5.45 12.5-2.519 5.852-2.887 6.894c-.369 1.042 1.027 10.139 3.102 20.216l3.771 18.323 7.003-.467c3.851-.256 13.91-.938 22.353-1.515 13.462-.919 15.647-.855 17.755.527 2.354 1.542 2.468 1.475 5.454-3.202 11.642-18.232 19.458-44.58 20.609-69.475 1.348-29.125-4.777-54.994-18.987-80.206-2.141-3.797-4.3-7.397-4.798-8s-3.54-4.47-6.76-8.595c-9.76-12.507-24.545-25.692-37.624-33.555-8.272-4.973-22.952-11.715-28-12.86-1.65-.374-3.75-.902-4.666-1.173s-1.875-.138-2.13.297m-59.565 99.386c-7.114 2.159-15.287 8.424-20.092 15.405-4.577 6.648-6.289 13.432-5.895 23.358.303 7.608.798 9.639 3.782 15.516 3.445 6.783 12.708 16.626 15.647 16.626.78 0 1.419.388 1.419.863 0 2.055 11.094 4.338 19.277 3.968 14.503-.656 26.081-8.248 32.82-21.52 3.232-6.365 3.403-7.231 3.403-17.256 0-9.359-.304-11.203-2.68-16.273-3.54-7.554-10.41-14.742-17.533-18.345-5.158-2.61-6.895-2.945-16.281-3.142-5.778-.121-12.018.239-13.867.8m90.286 39.725c-1.059 1.826-7.001 11.276-13.205 21l-11.279 17.68.6 7.5c.329 4.125 1.693 14.925 3.029 24s2.43 16.809 2.43 17.186-6.637 4.609-14.75 9.403a13263 13263 0 0 0-35.75 21.237c-21.809 13.001-40.468 24.009-46.5 27.43-1.925 1.091-11.269 6.656-20.765 12.364S220.891 409 219.573 409c-2.867 0-2.338-2.765-7.079 37-1.935 16.225-3.688 30.58-3.896 31.901-.385 2.44 7.8 17.099 9.547 17.099.47 0 .855.681.855 1.514 0 .832.562 2.453 1.25 3.601 1.152 1.925.314 2.981-10.75 13.542-6.6 6.3-14.602 13.567-17.782 16.149-3.593 2.917-5.611 5.262-5.331 6.194 1.773 5.893 5.914 20.033 6.588 22.5 1.723 6.301.895-.49-1.402-11.5l-2.399-11.5 4.693-4.5c4.846-4.647 6.808-6.349 16.143-14 3.019-2.475 6.363-5.288 7.43-6.251s3.39-2.745 5.163-3.96l3.224-2.209-5.95-11.661-5.95-11.661 4.919-17.379c2.706-9.558 6.147-22.104 7.646-27.879 1.5-5.775 3.411-12.975 4.246-16s1.637-5.95 1.781-6.5c.145-.55 10.775-7.348 23.622-15.107 12.848-7.759 36.409-22.175 52.359-32.036s35.83-22.094 44.179-27.184l15.179-9.256 20.321-1.444c29.677-2.109 26.836-2.475 39.276 5.068 13.59 8.242 18.545 10.774 18.545 9.479 0-.561-.355-1.02-.789-1.02s-7.019-4.043-14.633-8.986c-9.589-6.223-14.496-8.842-15.962-8.519-3.823.842-44.834 2.621-45.482 1.972-.596-.594-1.69-5.599-7.26-33.198l-2.267-11.232 6.368-14.768c3.503-8.123 7.667-17.395 9.254-20.604 3.266-6.605 3.428-11.418.196-5.845M513 324.5c0 .275.225.5.5.5s.5-.225.5-.5-.225-.5-.5-.5-.5.225-.5.5m-6 3c0 .275.225.5.5.5s.5-.225.5-.5-.225-.5-.5-.5-.5.225-.5.5m-3 2c0 .275.225.5.5.5s.5-.225.5-.5-.225-.5-.5-.5-.5.225-.5.5m-2 1c0 .275.225.5.5.5s.5-.225.5-.5-.225-.5-.5-.5-.5.225-.5.5m-3 1.559c0 .582.45.781 1 .441s1-.816 1-1.059-.45-.441-1-.441-1 .477-1 1.059m-3.25.698c-.962.214-1.75.807-1.75 1.316 0 1.172 1.084 1.159 2.971-.034 1.796-1.136 1.154-1.81-1.221-1.282m-108.012 2.883-17.762 1.377-10.738 6.614c-5.906 3.637-12.538 7.641-14.738 8.897-3.532 2.017-53.644 32.843-57.5 35.371-2.235 1.465 5.834 1.331 24-.398 17.258-1.643 23.344-2.902 36.5-7.551 14.988-5.297 34.756-16.196 44.685-24.637 6.14-5.22 20.815-19.668 20.815-20.494 0-1.01-2.861-.917-25.262.821m92.059 4.758c-6.987 3.437-14.862 6.717-17.5 7.288l-4.797 1.039 4.211.137c4.136.136 4.237.225 5.645 4.966.789 2.656 2.446 9.068 3.683 14.25 2.342 9.81 3.609 12.894 6.851 16.672 3.262 3.802 3.467 2.489.246-1.578-2.596-3.278-3.409-5.875-5.648-18.048-1.439-7.821-2.475-14.916-2.302-15.766s5.248-4.155 11.277-7.343c6.03-3.188 11.13-6.295 11.334-6.905.478-1.436 1.567-1.879-13 5.288m-32.464 4.269a.95.95 0 0 0 1.334 0c.366-.367.066-.667-.667-.667s-1.033.3-.667.667m3 2a.95.95 0 0 0 1.334 0c.366-.367.066-.667-.667-.667s-1.033.3-.667.667m4 2a.95.95 0 0 0 1.334 0c.366-.367.066-.667-.667-.667s-1.033.3-.667.667M481 388.5c0 .275.225.5.5.5s.5-.225.5-.5-.225-.5-.5-.5-.5.225-.5.5m2 2c0 .275.225.5.5.5s.5-.225.5-.5-.225-.5-.5-.5-.5.225-.5.5M288.76 495.558c-7.972 1.932-12.497 4.487-17.907 10.111-10.287 10.695-13.233 24.454-8.315 38.831 8.216 24.018 38.129 32.5 58.214 16.508 17.949-14.291 18.959-41.294 2.11-56.442-6.576-5.913-9.375-7.355-17.698-9.119-7.969-1.689-9.007-1.682-16.404.111M194 564.5c0 .275.225.5.5.5s.5-.225.5-.5-.225-.5-.5-.5-.5.225-.5.5m1 3c0 .275.225.5.5.5s.5-.225.5-.5-.225-.5-.5-.5-.5.225-.5.5m-19.378 49.25a2418 2418 0 0 1-1.261 19.444l-.61 8.695 7.874 3.642c9.085 4.201 29.584 11.374 42.781 14.968 10.661 2.904 37.135 7.536 42.423 7.422 4.251-.091 4.811.147-11.329-4.821-5.5-1.693-12.214-4.208-14.919-5.589s-5.519-2.511-6.25-2.511c-.732 0-1.331-.34-1.331-.756s-1.463-1.389-3.25-2.164c-6.44-2.789-22.405-14.183-29.856-21.308-8.744-8.36-19.117-20.369-21.389-24.762-.856-1.655-1.708-3.01-1.894-3.01s-.631 4.837-.989 10.75m96.191 54.933c.721.289 1.584.253 1.916-.079s-.258-.568-1.312-.525c-1.165.048-1.402.285-.604.604"/></svg>