<?xml version="1.0" encoding="UTF-8" standalone="no"?>
<!-- Created with Inkscape (http://www.inkscape.org/) -->

<svg
   class="{{ class | default('') }}"
   version="1.1"
   id="svg1"
   viewBox="0 0 816.44568 710.11194"
   xmlns="http://www.w3.org/2000/svg"
   xmlns:svg="http://www.w3.org/2000/svg">
  <defs
     id="defs1" />
  <g
     id="g1"
     transform="translate(-319.91406,-125.91772)">
    <path
       style="fill:currentColor"
       d="m 712.90756,835.15305 c -6.62349,-1.764 -13.33009,-6.88265 -50.09998,-38.23762 l -17.72862,-15.1178 -5.30509,1.43642 c -23.90207,6.47177 -51.9662,-13.94846 -53.57268,-38.98096 l -0.46335,-7.21985 h -10.63453 c -9.90011,0 -11.1033,-0.22204 -17.42214,-3.21506 -14.29383,-6.7705 -24.49843,-20.5622 -25.49234,-34.45335 l -0.48879,-6.83159 h -5.65554 c -12.34073,0 -24.00022,-4.96305 -33.36022,-14.20033 -7.95534,-7.85104 -10.98159,-14.68559 -11.53446,-26.04967 l -0.42569,-8.75 -4.62768,-0.0245 c -20.46597,-0.10811 -39.197,-16.40388 -43.7046,-38.02248 -1.57291,-7.54371 -1.23539,-13.78642 1.22159,-22.59464 l 1.43421,-5.14157 -5.78944,-5.42749 c -3.18419,-2.98512 -8.22136,-7.64641 -11.19371,-10.35843 -2.97235,-2.71202 -10.64006,-10.78494 -17.03936,-17.93982 -49.41222,-55.2465 -71.16997,-100.38379 -79.51142,-164.94958 -3.95407,-30.6059 -0.55688,-64.37878 9.95913,-99.00784 11.43981,-37.67115 25.92942,-62.40996 52.96502,-90.42976 34.17248,-35.41649 68.7948,-53.508 118.20352,-61.76595 15.58458,-2.60473 57.24009,-2.60459 72.82738,2.6e-4 26.01216,4.34697 48.33913,11.5021 69.76477,22.35753 30.20598,15.30403 59.28356,38.97544 78.90193,64.23228 l 2.66276,3.42807 2.83527,-3.42807 c 9.87032,-11.93398 26.2345,-27.80695 40.83527,-39.6095 22.70052,-18.34996 52.08962,-33.40041 79.77762,-40.85494 47.4715,-12.78088 105.8284,-9.98878 149.5799,7.15667 27.73831,10.87015 48.73161,24.81316 71.22031,47.30187 35.7027,35.70264 54.4178,73.70212 63.6774,129.29133 1.3256,7.95811 1.6942,16.05855 1.6285,35.78651 -0.076,22.85467 -0.3549,27.00421 -2.6866,40 -11.5858,64.57235 -40.5395,115.5566 -96.8465,170.53582 -16.0511,15.67264 -26.2767,24.68511 -39.75021,35.03443 -9.9653,7.65453 -10.1004,7.81449 -10.1004,11.95754 0,2.30958 -0.4563,6.62315 -1.014,9.58572 -3.1452,16.70811 -18.211,31.78296 -35.8759,35.89764 -5.1458,1.19859 -16.5949,0.91644 -20.2374,-0.49873 -1.3449,-0.52252 -1.7525,0.36976 -2.3487,5.14201 -1.1247,9.00145 -4.1733,17.59242 -8.5898,24.20624 -4.851,7.26441 -9.4359,11.06226 -18.587,15.3964 -6.4411,3.0506 -7.5049,3.24293 -17.9357,3.24293 h -11.0884 l -1.5124,8 c -3.6979,19.56047 -15.1185,32.21952 -33.3523,36.96881 -7.4405,1.93801 -15.4343,1.94895 -22.7971,0.0312 -3.1674,-0.825 -5.904,-1.5 -6.0813,-1.5 -0.1773,0 -0.606,2.1375 -0.9527,4.75 -0.7464,5.62458 -5.4477,15.97277 -9.6902,21.32935 -3.2388,4.0894 -38.2442,36.42689 -53.93409,49.82363 -13.50716,11.53302 -20.50869,14.26171 -30.06424,11.71683 z m 17.89759,-36.08444 11.07555,-9.96462 -6.93859,-3.65113 c -8.17543,-4.30197 -17.88684,-11.4777 -34.76969,-25.69122 l -12.29635,-10.35219 -6.70365,5.96766 c -3.68701,3.28221 -7.96006,7.29193 -9.49568,8.91048 l -2.79202,2.94282 24.78649,21.15326 c 13.63257,11.63429 25.07267,21.03993 25.42244,20.90142 0.34977,-0.13852 5.61995,-4.73593 11.7115,-10.21648 z m 35.75939,-34.00797 c 8.78814,-2.60979 14.38815,-10.57082 15.17545,-21.57338 0.3772,-5.27308 0.07,-7.33697 -1.5632,-10.50797 -2.62642,-5.09851 -4.24984,-6.55737 -32.20802,-28.94338 -12.925,-10.349 -24.175,-19.3892 -25,-20.08935 -1.31972,-1.12 -1.45838,-0.21019 -1.15375,7.56984 0.50458,12.88639 -2.97285,23.47914 -11.28089,34.36328 -1.96095,2.56897 -3.56536,4.88204 -3.56536,5.14014 0,0.70745 26.7537,23.46982 32.62332,27.7563 10.45791,7.63724 17.15943,9.19868 26.97245,6.28452 z m -127.02046,-6.99442 c 2.04407,-0.85406 13.69958,-11.31447 27.89588,-25.03555 27.0274,-26.12265 28.72569,-28.41024 29.32263,-39.49743 0.31391,-5.83043 0.0415,-6.98027 -2.64434,-11.16237 -6.29315,-9.79899 -18.18967,-12.94453 -28.64948,-7.57517 -3.53738,1.81586 -11.90478,9.53909 -28.60421,26.4021 -20.44761,20.64792 -23.8243,24.49448 -25.25,28.76358 -0.90518,2.71048 -1.64139,6.53548 -1.63602,8.5 0.0118,4.30376 3.81706,12.73688 7.11502,15.76802 5.52914,5.08179 15.42376,6.77279 22.45052,3.83682 z m 193.20681,-34.08603 c 8.5958,-3.59068 13.161,-11.04561 13.1959,-21.54907 0.036,-10.90577 6.8948,-4.40244 -75.88111,-71.95165 -31.89634,-26.02898 -55.15628,-45.71019 -55.94224,-47.33506 -1.95586,-4.04346 -0.63279,-9.33305 3.3242,-13.29004 2.91895,-2.91895 3.95758,-3.32113 8.57674,-3.32113 4.17762,0 5.98649,0.55747 8.81892,2.71787 4.39237,3.35023 34.71132,28.0962 88.86769,72.53273 22.6831,18.61209 43.1581,34.70986 45.5,35.77282 5.0914,2.31104 15.2852,2.61872 20.1006,0.6067 4.4738,-1.86926 10.2465,-8.87749 12.229,-14.84644 2.1808,-6.56565 1.6328,-18.13681 -1.0494,-22.15973 -2.0456,-3.06806 -48.3698,-42.79061 -101.2418,-86.8139 -17.7207,-14.75492 -32.73426,-27.78917 -33.36355,-28.96501 C 764.18424,522.19881 765.35022,514.82056 768,512 c 2.91168,-3.09934 8.21187,-4.83134 12.38749,-4.04799 2.3425,0.43946 10.7372,6.84695 29.1848,22.27601 25.5236,21.34727 78.1468,65.9105 102.2343,86.57577 14.0325,12.03879 17.3391,13.92805 25.4467,14.53896 14.3778,1.08337 24.6422,-8.21235 24.6935,-22.36317 0.047,-13.04122 -1.0692,-14.24216 -66.478,-71.50215 -61.576,-53.90471 -80.9256,-70.34372 -113.0248,-96.02378 -40.98704,-32.79056 -45.81275,-36.13106 -59.79045,-41.38878 -6.40839,-2.41052 -7.00536,-2.47135 -10,-1.01901 -3.71844,1.80335 -13.78202,9.11979 -41.82498,30.40767 -31.48398,23.90002 -45.93557,32.52531 -62.44607,37.27038 -6.70724,1.92763 -10.27676,2.27437 -23.41372,2.27437 -17.32435,0 -25.48982,-1.66484 -37.29918,-7.60487 -8.95837,-4.506 -23.29484,-14.5462 -26.76844,-18.74663 -4.73815,-5.72958 -7.93238,-12.97552 -7.93238,-17.99416 0,-10.449 6.35169,-17.59384 42,-47.24465 75.00431,-62.38552 105.45929,-84.00671 126,-89.45237 9.49511,-2.5173 25.77004,-2.18481 48,0.98063 10.175,1.44888 26.27583,3.31894 35.77963,4.15571 25.22169,2.22065 37.92199,5.86133 69.98899,20.06307 20.9307,9.26973 41.2298,19.60643 79.9421,40.70808 18.5841,10.13001 37.1643,19.71239 41.2893,21.29417 l 7.5,2.87598 73.14821,0.28087 73.1483,0.28086 0.7201,-6.20453 c 1.3188,-11.36306 0.7695,-40.74601 -0.9789,-52.3572 -4.4533,-29.57564 -13.9926,-56.14523 -28.6329,-79.75017 -6.9841,-11.26077 -13.0132,-18.86403 -23.8782,-30.11292 -32.3755,-33.51917 -65.91361,-50.11811 -115.52661,-57.1774 -13.5099,-1.92228 -43.8781,-1.88495 -57.0449,0.0701 -12.5678,1.86614 -35.8108,7.49137 -44.5333,10.77784 -8.6251,3.24979 -27.4466,12.75583 -37.0542,18.71463 -19.9952,12.40141 -42.74716,33.5448 -57.8507,53.76062 -5.30806,7.10475 -9.29595,11.50019 -10.76939,11.87 -3.82185,0.95922 -12.87324,-0.17746 -15.59049,-1.95787 -1.38995,-0.91073 -6.22595,-6.27714 -10.74665,-11.92536 -11.30696,-14.12702 -31.37309,-33.76983 -43.69121,-42.76947 -13.63873,-9.96448 -33.17742,-21.05478 -45.62139,-25.89503 -19.7358,-7.67649 -44.83901,-12.78245 -68.99668,-14.03384 -47.81879,-2.47705 -89.38492,9.16175 -123.5175,34.58574 -10.22659,7.61738 -32.23756,29.83034 -40.20572,40.57469 -23.58938,31.80813 -36.58057,67.6291 -40.06296,110.4667 -3.22275,39.64373 6.7313,86.61043 26.32767,124.22322 15.39293,29.54482 42.82115,64.01457 70.98734,89.21162 l 7.37006,6.59315 16.5,-15.42133 c 26.41043,-24.68388 35.78147,-29.80436 53.34784,-29.15006 8.31896,0.30986 10.03725,0.72654 16.81092,4.07652 12.06642,5.96757 23.04465,18.79243 25.32868,29.58917 0.50761,2.39946 1.12002,3.16032 2.20775,2.74292 0.8279,-0.31769 4.64405,-1.09598 8.48032,-1.72953 25.89009,-4.27566 51.82449,18.11885 51.82449,44.75076 v 5.1645 l 8.29539,0.43539 c 10.53966,0.55319 18.7705,4.20449 27.31926,12.11913 8.81736,8.16332 13.41217,17.57862 14.12066,28.9349 l 0.53056,8.50426 5.65526,0.59109 c 3.1104,0.3251 7.32558,1.28899 9.36707,2.14198 3.24295,1.35499 3.7118,1.36412 3.7118,0.0723 0,-0.81325 1.38438,-3.05534 3.07639,-4.98244 3.42269,-3.89823 8.66429,-5.48282 12.86465,-3.88911 2.11478,0.80239 51.48243,40.58951 89.90508,72.45767 5.1404,4.26347 11.2154,8.67704 13.5,9.80793 5.0603,2.50483 14.0867,2.73921 19.436,0.50468 z M 587.40928,710.42065 c 5.42143,-2.82581 6.70899,-3.94858 32.73191,-28.54283 12.46983,-11.78523 24.10985,-23.66774 25.86671,-26.40556 6.11694,-9.53242 5.03713,-20.79497 -2.69755,-28.13597 -6.24405,-5.92624 -16.68081,-7.53406 -24.63506,-3.79512 -6.20727,2.91776 -56.87254,53.89133 -59.62922,59.99207 -8.49188,18.79312 10.09258,36.41059 28.36321,26.88741 z m -51.94051,-45.25816 c 5.7974,-2.72618 9.79081,-6.44882 38.39386,-35.79057 22.62828,-23.21268 26.07682,-28.05199 26.09637,-36.6208 0.0254,-11.14793 -9.6511,-21.15311 -20.49023,-21.18615 -8.39162,-0.0256 -12.34733,3.06565 -41.07957,32.10204 -14.89376,15.05143 -28.02231,28.94123 -29.17456,30.86623 -5.73781,9.58585 -4.7384,20.72633 2.42348,27.01455 7.39844,6.49591 15.19022,7.67779 23.83065,3.6147 z m -48.95983,-48.1616 c 5.58007,-2.5722 47.82372,-44.52217 50.59163,-50.23992 3.01383,-6.22574 2.31011,-14.69385 -1.70217,-20.48291 -4.16367,-6.00748 -12.31225,-10.08723 -18.42963,-9.22716 -7.48329,1.0521 -12.95113,5.10992 -34.97059,25.95255 -23.93549,22.65624 -26.77616,26.57685 -25.71964,35.4975 1.89078,15.9647 16.42926,24.86174 30.2304,18.49994 z m 507.95985,-48.5683 c 13.34061,-11.0518 50.18451,-48.02398 59.69161,-59.89935 11.8393,-14.78869 24.301,-34.17222 31.8236,-49.5 6.6357,-13.52053 17.1852,-42.64716 18.5595,-51.24185 l 0.6689,-4.18321 -72.3718,-0.31399 c -81.50701,-0.35363 -75.23961,0.20896 -94.76521,-8.50652 -5.7209,-2.5536 -21.4962,-10.79092 -35.0561,-18.30515 -56.858,-31.50773 -94.9649,-49.56566 -115.8485,-54.89769 -4.391,-1.12113 -13.99526,-2.75529 -21.34282,-3.63149 -7.34756,-0.87619 -23.39968,-2.90416 -35.67138,-4.50659 -40.13875,-5.24129 -45.80897,-4.16594 -70.60232,13.38968 -19.43754,13.76329 -62.91358,48.47626 -105.98726,84.62438 l -14.90176,12.50579 5.71922,5.1975 c 6.57014,5.97081 17.19638,11.54991 26.55851,13.94404 4.86974,1.24532 9.33058,1.54294 18,1.20093 19.36403,-0.76391 24.39384,-3.52049 73.52579,-40.29582 19.25,-14.40865 37.66121,-27.9486 40.91381,-30.08878 7.3208,-4.81702 10.66447,-4.88497 22.70816,-0.46148 26.36135,9.68219 60.15595,35.43794 159.37805,121.46615 58.9614,51.12114 77.4046,67.59635 86.5,77.27005 l 7.5,7.97687 2.5,-1.72956 c 1.375,-0.95126 7,-5.45752 12.5,-10.01391 z"
       id="path1" />
  </g>
</svg>
