<?xml version="1.0" encoding="UTF-8" standalone="no"?>
<!-- Created with Inkscape (http://www.inkscape.org/) -->

<svg
   class="{{ class | default('') }}"
   version="1.1"
   id="svg1"
   viewBox="0 0 547.46967 934.44385"
   xmlns="http://www.w3.org/2000/svg"
   xmlns:svg="http://www.w3.org/2000/svg">
  <defs
     id="defs1" />
  <g
     id="g1"
     transform="translate(-142.04517,-171.53259)">
    <path
       style="fill:currentColor"
       d="m 340,1105.3637 c -6.36238,-1.1048 -10.81003,-3.4909 -12.03935,-6.4587 -2.18887,-5.2844 0.0341,-9.7194 10.46362,-20.8757 15.49684,-16.5768 20.61475,-30.1235 19.17945,-50.7663 -0.63287,-9.102 -1.43205,-12.2862 -11.6112,-46.263 -7.0271,-23.45563 -13.95413,-52.99851 -15.18523,-64.76303 -1.33636,-12.7704 -0.24892,-32.9849 3.26735,-60.73697 2.90249,-22.90782 2.75408,-40.63671 -0.47296,-56.5 -1.39857,-6.875 -3.92815,-17.675 -5.62128,-24 -6.02751,-22.51677 -9.63922,-50.32196 -10.63302,-81.85967 -0.99497,-31.57464 1.73707,-58.99904 9.12928,-91.64033 4.47354,-19.75356 8.20174,-41.27992 9.61216,-55.5 2.22605,-22.44339 -1.04155,-52.78881 -9.07077,-84.23818 -2.20993,-8.656 -4.01805,-16.6435 -4.01805,-17.75 0,-3.91056 -1.78262,-1.94709 -2.48507,2.73719 -1.06437,7.09771 -7.36437,23.06717 -17.37088,44.0323 -4.91386,10.29528 -9.72214,21.19369 -10.68507,24.21869 -3.12352,9.81248 -10.94737,27.36866 -15.92856,35.74262 -5.49339,9.23503 -23.08276,33.43405 -40.52798,55.75738 -6.4472,8.25 -12.21779,15.9503 -12.82352,17.11178 -0.60574,1.16148 -1.99205,6.19288 -3.08071,11.18091 -2.53115,11.59734 -5.31522,18.55712 -16.28383,40.70731 -9.61159,19.40979 -12.25943,23.1283 -15.69301,22.03852 -2.88623,-0.91605 -2.71449,-3.53052 0.87863,-13.37591 4.21478,-11.54878 3.67312,-12.14111 -1.60161,-1.75141 -2.48827,4.90116 -5.86484,10.85986 -7.50348,13.24155 -4.0093,5.82731 -9.89491,7.24018 -9.89491,2.37532 0,-1.01964 2.9241,-8.02244 6.498,-15.56176 6.24899,-13.1826 6.88136,-17.1393 0.99624,-6.23355 -6.35726,11.78069 -13.52373,22.45965 -15.75434,23.47598 -2.93281,1.33628 -5.7399,-0.0218 -5.7399,-2.77688 0,-1.08282 3.60972,-8.77574 8.0216,-17.09538 4.41187,-8.31964 7.82809,-15.32012 7.59159,-15.55662 -0.2365,-0.2365 -4.18372,5.11628 -8.7716,11.89507 -7.44548,11.00103 -8.65216,12.32507 -11.2326,12.32507 -3.41984,0 -5.14446,-2.2511 -4.28663,-5.59522 0.6268,-2.4435 5.24462,-10.64801 14.52935,-25.81439 2.83156,-4.62529 5.14829,-9.464 5.14829,-10.75269 0,-2.32057 -0.0745,-2.30528 -7.75,1.59115 -10.0233,5.08826 -12.41658,5.574 -15.39747,3.1251 -2.22603,-1.82876 -2.27002,-2.08381 -0.81805,-4.74332 0.84396,-1.54584 6.52665,-6.63563 12.6282,-11.31063 6.10155,-4.675 13.49016,-10.45298 16.41914,-12.83997 2.92897,-2.38698 8.32403,-5.85005 11.98902,-7.6957 12.40993,-6.24954 15.41888,-11.21325 33.92503,-55.96433 14.93409,-36.11321 16.81547,-39.99736 25.36615,-52.36918 4.04107,-5.84695 8.34692,-12.5923 9.56855,-14.98968 1.22163,-2.39737 6.06488,-16.12237 10.76278,-30.5 9.09812,-27.84421 8.94753,-27.064 11.2221,-58.14114 1.50221,-20.52457 6.24092,-31.82075 18.49907,-44.09823 9.80643,-9.82189 13.95716,-11.93303 40.08548,-20.38827 46.80353,-15.14581 50.5,-17.99767 50.5,-38.96114 0,-6.35812 -0.53019,-11.38781 -1.4528,-13.78212 -0.79904,-2.07363 -1.92106,-6.47024 -2.49338,-9.77024 -0.76165,-4.39169 -1.64494,-6.40208 -3.29524,-7.5 -6.52033,-4.33791 -10.65459,-13.06335 -11.51433,-24.30121 -0.49206,-6.43186 -0.36713,-6.9611 2.30048,-9.74548 2.71225,-2.83098 2.84749,-3.45431 3.51441,-16.19879 0.7575,-14.47521 1.85507,-18.55931 7.473,-27.80744 4.44112,-7.31086 8.00155,-10.34011 17.46786,-14.86182 7.43279,-3.55036 7.6165,-3.58215 20.5,-3.54735 11.22321,0.0303 13.6558,0.33561 17.79821,2.23373 8.61069,3.94556 13.71973,8.19373 18.21932,15.14939 6.34673,9.81103 8.6235,17.42508 9.24625,30.92163 0.48257,10.45848 0.71724,11.52243 3.0105,13.64886 2.35428,2.18301 2.46338,2.75894 2.0423,10.7815 -0.54297,10.34496 -4.24909,18.85723 -9.81591,22.54535 -3.33486,2.2094 -3.62722,2.89091 -6.22028,14.5 -2.80873,12.57464 -3.58881,25.42513 -1.82502,30.06425 1.83323,4.82175 7.97073,10.32717 15.7318,14.11163 4.22491,2.06016 18.85635,7.46647 32.51432,12.01403 14.4829,4.82223 27.15727,9.66939 30.41021,11.63001 8.55134,5.15408 18.9959,16.73074 23.09084,25.59371 4.56131,9.87235 6.0928,17.78958 7.29369,37.70548 1.12788,18.70512 1.53574,20.96842 6.51843,36.17193 1.96307,5.98982 5.17899,16.06559 7.14649,22.39059 4.92777,15.84147 8.27489,22.83716 15.73156,32.87995 8.86493,11.93947 12.15359,18.33366 22.43469,43.62005 17.2089,42.32535 23.84353,56.14101 29.3446,61.10592 1.2804,1.15561 5.6434,3.85452 9.69555,5.99759 4.05215,2.14307 10.80215,6.82571 15,10.40588 4.19785,3.58016 11.11332,9.09838 15.36772,12.2627 9.2124,6.85198 11.39822,9.67571 9.80062,12.66085 -1.93956,3.6241 -6.16591,3.09389 -16.03589,-2.01173 -4.125,-2.13382 -7.64293,-3.46021 -7.81763,-2.94754 -0.5349,1.56972 3.18794,8.899 11.6917,23.01782 4.53508,7.52961 8.12593,14.6221 8.12593,16.05 0,3.17184 -1.692,4.95851 -4.69577,4.95851 -1.83259,0 -4.04383,-2.62413 -10.96008,-13.00658 -4.76538,-7.15362 -8.83197,-12.83893 -9.03688,-12.63402 -0.20491,0.2049 3.24213,7.38456 7.66008,15.95478 4.41796,8.57022 8.03265,16.4897 8.03265,17.59884 0,2.71405 -2.97658,4.23567 -5.52582,2.82478 -2.8123,-1.55647 -3.61133,-2.71209 -12.11454,-17.52072 -4.19492,-7.3056 -7.78424,-13.12581 -7.97625,-12.9338 -0.19202,0.19202 2.34699,6.39433 5.64224,13.78292 6.28873,14.10055 6.88005,17.23327 3.34796,17.73715 -3.10022,0.44229 -8.66739,-6.51729 -14.07777,-17.59875 -2.4961,-5.11247 -4.70781,-9.12594 -4.91493,-8.91883 -0.20711,0.20711 1.23416,5.01228 3.20282,10.67814 3.22761,9.28917 3.42758,10.45337 2.03477,11.84618 -2.51985,2.51985 -5.94236,0.0981 -9.86272,-6.9787 -1.92907,-3.48226 -7.21556,-14.14208 -11.74775,-23.68848 -6.41742,-13.51737 -8.90418,-20.07482 -11.24115,-29.64227 -2.88106,-11.79492 -3.25665,-12.61869 -9.41204,-20.6429 C 555.27864,553.18522 553.05512,549.67759 540.68795,517 c -3.01822,-7.975 -8.85839,-21.475 -12.97815,-30 -8.38247,-17.34577 -14.30468,-32.51752 -16.19932,-41.5 -1.1667,-5.53134 -1.32111,-5.76567 -1.97676,-3 -0.39117,1.65 -1.3348,5.025 -2.09696,7.5 -0.76216,2.475 -2.7318,10.575 -4.37698,18 -10.43757,47.10659 -10.51564,68.65755 -0.42386,117 10.636,50.94937 12.57605,67.22481 12.21994,102.51522 -0.38592,38.24367 -2.70042,56.37984 -11.95524,93.67984 -7.88199,31.76704 -8.42819,41.03343 -4.43877,75.30494 3.37575,28.99974 4.23259,49.94484 2.58021,63.07244 -1.62576,12.91611 -7.20487,35.36845 -17.0874,68.76584 -5.4076,18.27462 -8.31239,29.94862 -9.01108,36.21462 -2.3923,21.4543 3.53392,38.7809 18.10952,52.9471 8.96696,8.7151 11.9469,13.0899 11.9469,17.5393 0,8.7509 -6.68342,10.9706 -32.9315,10.9368 -10.21268,-0.013 -20.33367,-0.4332 -22.49111,-0.9336 -11.63977,-2.6996 -16.1111,-14.6403 -13.07991,-34.93 1.11705,-7.4772 1.39104,-13.5669 0.92741,-20.6125 -0.54141,-8.2275 -0.26491,-11.9393 1.55993,-20.9411 2.06322,-10.1777 2.18356,-12.8642 1.72459,-38.50001 -0.42252,-23.60044 -0.8696,-29.78525 -3.11258,-43.05889 -3.95638,-23.41321 -4.17111,-30.51548 -1.60245,-53 2.60823,-22.83091 2.34377,-32.45166 -1.33319,-48.5 -1.38616,-6.05 -3.00585,-16.175 -3.59932,-22.5 -2.1542,-22.95874 -11.08425,-82.92486 -14.2713,-95.83308 -1.23971,-5.02109 -1.95967,-4.39065 -4.37737,3.83308 -4.09973,13.94505 -8.44291,45.27146 -11.85396,85.5 -0.83944,9.9 -2.48481,23.625 -3.65639,30.5 -2.64593,15.52677 -2.79008,26.31038 -0.6066,45.37929 2.44094,21.31736 2.18132,30.92033 -1.48944,55.09297 -2.92429,19.25695 -3.19782,23.13305 -3.2481,46.02774 -0.0447,20.3306 0.29757,26.9465 1.83226,35.4216 1.45239,8.0206 1.73716,12.7108 1.23603,20.3577 -0.47895,7.3083 -0.22046,12.2215 0.97742,18.5783 3.39192,18 0.34045,31.42 -8.10442,35.6424 -3.57451,1.7873 -6.18061,2.0158 -24.5,2.1489 -11.275,0.082 -21.625,-0.046 -23,-0.2852 z m 25.94237,-169.51054 c 0.0921,-5.82527 5.87016,-36.17502 9.58644,-50.35316 7.22082,-27.54846 11.63476,-50.58323 12.93441,-67.5 0.31691,-4.125 1.02197,-18.525 1.56679,-32 1.56439,-38.69134 4.65591,-55.27458 13.92338,-74.6865 5.96817,-12.5011 8.51994,-16.28734 22.23849,-32.99672 22.6123,-27.5421 29.20198,-43.27287 28.40873,-67.81678 -0.6328,-19.57914 -4.89452,-29.1059 -24.95814,-55.79202 -7.34958,-9.77548 -14.18694,-19.3038 -15.19412,-21.17403 l -1.83125,-3.40042 18.03723,-17.81677 c 19.21686,-18.98198 32.37572,-33.83481 41.47729,-46.81676 5.79606,-8.26716 12.44754,-19.5 11.54684,-19.5 -0.28185,0 -3.43054,3.7125 -6.9971,8.25 -7.25256,9.22699 -26.83287,28.67405 -51.85284,51.49997 l -16.67148,15.20953 -1.07852,-5.02897 c -2.20141,-10.26484 -0.64732,-26.1713 3.66402,-37.50211 3.12105,-8.20256 10.14142,-18.06171 22.73512,-31.92842 13.4632,-14.82409 23.46401,-26.66567 28.86126,-34.17352 5.1795,-7.20497 11.14839,-20.47446 13.05554,-29.02389 2.14876,-9.63257 2.11688,-23.22939 -0.0658,-28.08471 l -1.6714,-3.71788 -0.74639,7.5 c -2.73597,27.49188 -13.04538,46.1654 -42.59484,77.15241 -20.47704,21.47322 -26.71209,30.89453 -31.30942,47.30927 -1.93622,6.91324 -2.16499,9.61278 -1.7373,20.5 0.27522,7.0059 1.21754,15.13762 2.13563,18.4292 l 1.64308,5.89087 -10.8158,11.10913 c -24.49712,25.16149 -38.28735,47.22501 -42.78764,68.4576 -2.10068,9.91111 -1.82973,23.7324 0.6638,33.86149 3.19422,12.97535 6.87861,20.79487 4.84844,10.29003 -0.47832,-2.475 -0.88927,-8.82855 -0.91322,-14.11901 -0.14376,-31.75295 12.46891,-57.93512 43.90936,-91.14979 4.54564,-4.80216 8.62306,-8.7312 9.06093,-8.7312 0.43786,0 1.9475,1.96469 3.35475,4.36597 1.40724,2.40128 8.27546,11.96347 15.2627,21.2493 6.98724,9.28583 14.21024,20.0549 16.05112,23.93126 4.35163,9.16329 6.72863,22.36775 5.81091,32.28012 -1.53545,16.58448 -6.86955,28.05614 -21.00475,45.17335 -22.12779,26.79595 -27.41949,35.18194 -33.7981,53.56145 -6.74613,19.43846 -7.59309,26.14563 -10.72568,84.93855 -1.07282,20.13473 -4.74302,52.01996 -7.48192,65 -4.42885,20.98886 -6.59473,36.45654 -7.49142,53.5 -0.53533,10.175 -0.92565,20.075 -0.86739,22 l 0.10594,3.5 0.82737,-4 c 0.45505,-2.2 0.8533,-5.64108 0.885,-7.64684 z m 77.91835,-125.03077 c -0.76086,-5.34179 -1.33341,-18.28926 -1.34088,-30.32239 -0.0197,-31.75968 2.15698,-39.7219 22.00713,-80.5 17.37865,-35.70091 21.12913,-47.90334 22.16181,-72.10485 1.24337,-29.13928 -5.87602,-51.06562 -24.724,-76.14515 -4.44342,-5.9125 -8.26305,-10.75 -8.48807,-10.75 -0.22503,0 1.41194,3.2625 3.63771,7.25 8.06734,14.45279 15.17207,30.44918 17.65481,39.75 2.2791,8.53794 2.54577,11.47475 2.63334,29 0.14753,29.52712 -2.78502,40.48521 -20.87398,78 -12.38464,25.6846 -15.25164,33.23146 -18.57491,48.8952 -1.9342,9.11659 -2.13889,12.3761 -1.66418,26.5 0.50537,15.036 3.16672,33.44422 6.76955,46.82411 1.7992,6.68171 2.2042,3.44996 0.80167,-6.39692 z m -85.78238,-30.17146 c -2.40226,-32.35939 -0.78995,-64.89481 4.02147,-81.15093 2.97504,-10.05164 10.03565,-22.89032 18.51001,-33.65773 16.87147,-21.43668 22.59659,-29.30821 25.5006,-35.06102 6.35818,-12.59548 9.49728,-26.94237 8.50316,-38.86271 -0.91173,-10.93252 -2.46399,-14.52516 -2.5572,-5.91854 -0.20157,18.61298 -9.52807,38.72392 -28.05703,60.5 -21.24948,24.97336 -29.78663,40.74886 -33.54436,61.98544 -1.86548,10.54268 -1.84794,37.3627 0.032,49.01456 1.86716,11.57229 7.73487,38.61142 8.26414,38.08215 0.22303,-0.22303 -0.0797,-6.94208 -0.67284,-14.93122 z M 237.70741,580.28413 c 8.83097,-6.093 10.79021,-7.77646 13.53939,-11.63353 1.93216,-2.7108 1.79797,-2.67157 -2.7586,0.80654 -2.63425,2.01077 -6.54202,4.54999 -8.68393,5.64272 -5.42725,2.76877 -11.59104,8.56184 -13.87669,13.04209 -2.73386,5.35881 -2.3962,5.72572 1.14628,1.24555 1.69062,-2.13812 6.47572,-6.23464 10.63355,-9.10337 z m 369.00925,7.51104 c -3.21707,-5.46952 -5.57677,-7.59278 -14.21666,-12.79215 -3.85,-2.31687 -8.2375,-5.37456 -9.75,-6.79485 -1.5125,-1.42029 -2.75,-2.11719 -2.75,-1.54866 0,1.85378 7.1423,8.44377 13.89439,12.81994 7.26472,4.70842 10.28357,7.33633 12.74741,11.09662 2.71762,4.14761 2.78031,1.8188 0.0749,-2.7809 z M 230.87855,570.34741 c 3.6418,-3.01648 11.67491,-8.62854 17.85135,-12.47124 23.51025,-14.62701 30.79593,-25.24584 32.76758,-47.75855 l 0.73412,-8.38238 7.6416,-7.61762 c 7.01831,-6.99627 10.71788,-12.65148 14.10571,-21.56214 1.36978,-3.60279 0.39211,-3.17768 -1.59725,0.69452 -2.8751,5.59627 -10.1037,14.12705 -15.38046,18.15116 -2.78755,2.12581 -5.21137,3.6927 -5.38629,3.48197 C 281.44,494.67241 280.75022,487.975 280.08207,480 c -2.16572,-25.84987 2.26059,-43.57799 14.82772,-59.3875 4.92364,-6.19398 3.5051,-5.65437 -2.70407,1.02861 -6.9968,7.53071 -11.50914,14.89516 -15.02651,24.52429 -2.62847,7.19569 -2.67753,7.77108 -2.59045,30.38152 l 0.0888,23.04693 -11.56702,5.95307 c -8.24542,4.24359 -13.15598,7.53247 -17.10036,11.45308 -5.21309,5.18167 -11.83492,15.50856 -10.68304,16.66044 0.28898,0.28898 1.21124,-0.8008 2.04946,-2.42175 2.88836,-5.58547 12.23493,-12.88185 24.53357,-19.15207 C 268.47632,508.73898 274.10771,506 274.42433,506 c 1.14913,0 0.53823,9.72359 -0.97633,15.5399 -3.22527,12.3859 -8.8968,18.92763 -27.115,31.27533 -13.74087,9.31311 -23.28707,18.76759 -27.96956,27.70085 -5.22799,9.97397 -4.93289,11.44072 0.63373,3.14988 3.17532,-4.72926 7.88413,-10.00765 11.88138,-13.31855 z M 616.68064,584.8743 C 611.12959,572.46499 602.14967,563.23696 584.5,551.80456 566.03294,539.8427 559.44046,529.73939 557.67849,510.69923 c -0.3029,-3.27322 -0.0838,-4.7028 0.68862,-4.49287 0.62309,0.16934 5.63289,2.61562 11.13289,5.43618 11.84501,6.07446 19.37349,11.52816 23.71919,17.18243 1.74222,2.26682 3.35025,3.93893 3.5734,3.71578 0.22315,-0.22315 -0.85488,-2.72187 -2.39562,-5.55271 -4.14964,-7.62426 -12.42036,-14.6605 -25.258,-21.48804 l -11.28164,-6 0.62626,-16.5 c 0.68149,-17.95522 -0.56719,-28.80294 -4.53678,-39.41263 C 551.34214,436.62578 543.41817,424.56214 538.4535,420 l -3.80882,-3.5 3.55604,5 c 4.88397,6.86715 9.16814,15.65935 11.95527,24.53524 2.1317,6.78865 2.32856,9.09508 2.1734,25.46476 -0.0938,9.9 -0.5583,19.28305 -1.03215,20.85122 l -0.86155,2.85121 -5.18104,-4.09538 c -5.27624,-4.17062 -11.70314,-11.997 -14.66394,-17.85705 -2.04499,-4.04745 -2.71521,-4.17088 -1.60372,-0.29535 2.01779,7.03561 7.58733,15.38414 14.68559,22.01313 l 7.32742,6.843 0.0174,5.84461 c 0.01,3.21454 0.65287,8.843 1.42959,12.50769 3.44697,16.26335 11.37168,25.8137 31.43717,37.88605 14.03363,8.44329 25.01555,18.04709 30.73152,26.87503 2.11695,3.26949 3.98852,5.80501 4.15905,5.63449 0.17052,-0.17052 -0.7718,-2.72848 -2.09405,-5.68435 z M 250.83532,538.63001 c 3.76336,-3.53171 6.13553,-7.60034 7.21801,-12.38001 0.97552,-4.30736 0.42036,-4.09884 -2.06676,0.77632 -1.12974,2.21448 -4.55954,6.97975 -7.62177,10.58948 -5.74087,6.76729 -4.29321,7.36158 2.47052,1.01421 z m 332.73811,-1.45306 c -3.03202,-3.75267 -6.41653,-8.81517 -7.52114,-11.25 -1.32646,-2.92385 -2.01582,-3.71367 -2.03033,-2.32617 -0.0311,2.97528 1.94169,8.40811 4.2624,11.73814 1.68107,2.41219 9.19091,8.66108 10.40878,8.66108 0.21619,0 -2.08768,-3.07037 -5.11971,-6.82305 z M 380.52176,493.24578 c -1.45218,-16.40506 2.55198,-36.69125 10.47504,-53.0695 6.33757,-13.10077 9.24026,-17.43358 23.58461,-35.20444 24.58833,-30.46186 32.94947,-46.69417 34.94989,-67.85164 0.50341,-5.32429 0.38732,-7.18794 -0.41677,-6.69098 -0.61299,0.37885 -1.11453,1.94181 -1.11453,3.47325 0,3.63081 -2.90052,11.97092 -6.99107,20.10201 -5.16534,10.26754 -13.98621,22.47481 -26.01006,35.99552 -18.85598,21.20337 -27.59274,34.1307 -34.03265,50.35629 -4.92255,12.40256 -6.24231,20.35174 -5.66871,34.14371 0.50085,12.04279 3.21242,26.5 4.97031,26.5 0.56529,0 0.66657,-3.09272 0.25394,-7.75422 z m -25.90428,-15.80022 c -1.4792,-3.85474 -2.76135,-15.83933 -2.72224,-25.44556 0.0314,-7.71344 0.6852,-13.02117 2.4636,-20 5.81356,-22.81377 13.81042,-34.18504 44.65911,-63.50371 15.56954,-14.79733 22.13811,-25.72508 27.4949,-45.74167 1.88655,-7.04943 2.16734,-9.3389 1.21911,-9.94049 -2.20681,-1.40011 -3.08015,-0.29591 -5.7346,7.2504 -7.05922,20.06865 -13.88845,30.13911 -29.36408,43.3006 -25.99069,22.1042 -40.0488,40.72515 -45.44374,60.19345 -2.82899,10.20876 -2.89801,26.60932 -0.15336,36.44142 2.05173,7.3499 6.77761,19 7.70737,19 0.25874,0 0.202,-0.6995 -0.12607,-1.55444 z"
       id="path1" />
  </g>
</svg>
