<svg class="{{ class | default('') }}" xmlns="http://www.w3.org/2000/svg" viewBox="0 0 235 506"><path style="fill:currentColor" fill-rule="evenodd" d="M68.347 1.25C74.035 13.933 86.961 47.82 93.044 66c16.99 50.777 22.761 83.678 21.662 123.5-.98 35.506-5.62 56.869-22.916 105.5-14.436 40.593-17.213 54.605-17.24 87-.017 20.625.251 24.723 2.194 33.5 6.927 31.29 21.473 58.397 44.537 83 4.125 4.4 7.757 7.754 8.072 7.454s-.755-4.8-2.377-10c-4.289-13.753-8.662-33.636-10.546-47.954-2.21-16.801-1.507-46.687 1.475-62.65 2.914-15.595 7.886-32.275 15.653-52.512 14.574-37.972 16.313-42.79 19.788-54.838 8.262-28.636 11.191-51.472 10.381-80.93-.58-21.115-2.52-34.947-7.66-54.625-11.096-42.476-38.386-89.092-77.324-132.083C70.245.98 66.917-1.937 68.347 1.25M7 151.684c0 .511 1.734 5.404 3.854 10.873 22.871 59.005 26.925 98.456 14.519 141.29-1.379 4.759-5.584 16.528-9.345 26.153C2.778 363.906.533 374.254 1.274 398c.579 18.538 2.483 26.676 9.739 41.642 5.059 10.435 13.978 23.192 20.526 29.358 4.35 4.096 4.345 4.576.109-11-9.844-36.189-7.167-63.568 10.071-103 9.649-22.074 13.392-32.212 16.803-45.519 11.327-44.186 3.94-83.383-23.39-124.117C24.761 169.906 7 148.643 7 151.684m171.048-.533c-.027.358 1.921 5.758 4.328 12 14.903 38.652 20.929 65.287 20.895 92.349-.033 26.037-3.561 41.562-17.271 76-15.085 37.891-18.332 55.57-14.523 79.055 2.643 16.295 8.195 30.114 17.859 44.445 4.891 7.253 13.256 17 14.589 17 .359 0-.783-5.738-2.538-12.75-6.755-26.998-7.125-48.356-1.244-71.75 2.258-8.985 8.129-24.368 15.837-41.5 7.103-15.788 13.553-34.987 16.237-48.33 2.965-14.739 3.185-39.839.462-52.67-5.304-24.991-16.071-47.348-34.103-70.811-7.439-9.68-20.439-24.268-20.528-23.038"/></svg>