<svg class="{{ class | default('') }}" xmlns="http://www.w3.org/2000/svg" viewBox="0 0 467 429"><path style="fill:currentColor" fill-rule="evenodd" d="M212.881 1.497c-21.267 4.022-39.515 15.239-50.066 30.775-14.014 20.636-16.765 46.523-9.695 91.228 5.057 31.974 12.01 50.405 24.845 65.859 3.938 4.742 4.035 5.043 4.034 12.5-.001 12.486-1.905 28.816-4.019 34.465-3.879 10.368-2.27 9.578-59.48 29.215-13.75 4.719-28.6 10.327-33 12.461-17.857 8.662-30.826 24-37.624 44.5-2.274 6.856-2.329 7.964-2.654 53.842-.293 41.348-.146 47.124 1.246 49.25L48.046 428h370.809l2.127-2.704c2.111-2.684 2.124-3.041 1.776-48.75-.392-51.442-.352-51.097-7.722-66.046-7.299-14.804-18.304-25.622-33.536-32.967-4.95-2.387-25.354-9.896-45.343-16.686-40.984-13.923-42.465-14.709-46.111-24.453-2.371-6.337-4.003-19.696-4.029-32.964-.017-8.826.072-9.176 3.302-13 14.126-16.729 21-35.283 26.092-70.43 5.745-39.66 3.994-61.193-6.589-81-9.709-18.17-25.3-30.029-47.322-35.994-10.53-2.852-37.146-3.678-48.619-1.509M220 15.008c-22.304 3.07-40.407 14.801-48.531 31.447-4.762 9.756-6.493 17.142-7.166 30.573-.932 18.613 3.72 55.423 9.223 72.972 5.836 18.616 17.705 35.949 31.283 45.686 20.488 14.692 42.044 13.665 62.199-2.962 18.5-15.262 27.995-36.067 34.146-74.818 3.043-19.172 3.293-48.914.495-58.906-6.066-21.669-21.249-36.105-44.207-42.035-9.146-2.362-27.521-3.323-37.442-1.957M66.581 131.75c.333 2.063 1.81 10.712 3.282 19.22l2.676 15.47 10.389 3.272c5.714 1.799 10.515 3.397 10.668 3.551.153.153 1.433 6.983 2.843 15.176 1.411 8.194 2.769 15.102 3.019 15.352s5.761.081 12.248-.376c6.487-.456 12.228-.849 12.757-.872.53-.024 2.645 5.297 4.7 11.824 2.056 6.526 3.944 12.073 4.197 12.327.632.631 12.64-2.798 12.64-3.61 0-1.414-11.031-33.512-11.742-34.165-.417-.383-5.831-.232-12.032.335s-11.54.766-11.865.441c-.324-.325-1.615-6.056-2.869-12.736-1.253-6.68-2.664-12.525-3.135-12.989-.598-.589-21.945-5.958-23.741-5.971-.064 0-3.041-6.74-6.616-14.978s-6.843-14.987-7.262-14.999-.489 1.666-.157 3.728m327.426 11.155-6.251 14.905-9.128 2.089c-5.02 1.15-10.59 2.374-12.378 2.72s-3.25.74-3.25.872c0 .883-5.064 26.886-5.258 26.999-.133.077-5.417-.398-11.742-1.057s-11.824-.904-12.22-.545c-1.402 1.27-11.843 33.447-11.067 34.107.433.369 3.336 1.616 6.452 2.771l5.666 2.101 4.055-12.745 4.055-12.746 6.838.731c9.683 1.034 18.097 1.351 18.742.705.304-.303 1.774-7.446 3.267-15.874l2.716-15.322 10.498-3.063 10.498-3.064 2.586-15.494a5632 5632 0 0 0 3.187-19.245c1.13-7.045-1.013-3.754-7.266 11.155M5 195.624c0 .383 2.362 3.218 5.25 6.303l12.511 13.355 7.261 7.748 9.648-2.015C44.977 219.907 49.683 219 50.128 219c.614 0 9.977 11.961 19.403 24.788.116.158 5.091-2.643 11.054-6.225 12.489-7.501 9.741-7.845 24.53 3.075 4.738 3.499 9.079 6.362 9.646 6.362.948 0 7.239-8.919 7.239-10.264 0-.324-5.287-4.3-11.75-8.837-6.463-4.536-13.123-9.279-14.801-10.54l-3.051-2.293-7.691 4.927c-4.229 2.71-8.57 5.398-9.645 5.974-1.729.925-2.911-.172-10.198-9.46-4.533-5.779-8.944-10.504-9.803-10.5-.858.003-6.468 1.376-12.466 3.051l-10.905 3.044-11.095-7.385C8.23 196.485 5 194.603 5 195.624m443.788 8.073-12.712 8.564-10.929-3.13c-6.011-1.722-11.624-3.131-12.473-3.131-.848 0-5.202 4.725-9.674 10.5s-8.321 10.5-8.554 10.5c-.232 0-4.481-2.522-9.44-5.605-4.96-3.082-9.619-5.374-10.354-5.092s-7.466 4.899-14.959 10.26l-13.623 9.746 1.69 2.861c.929 1.573 2.625 4.034 3.768 5.467l2.078 2.607 11.231-8.039 11.231-8.04 11.074 6.552c6.191 3.662 11.357 6.126 11.716 5.586.353-.531 4.628-6.195 9.501-12.588 9.966-13.074 7.753-12.134 21.453-9.109 3.472.767 6.855 1.394 7.519 1.394 1.095 0 23.075-23.462 24.969-26.653 1.459-2.458-.687-1.29-13.512 7.35M195.67 217.882c-1.048 17.914-4.528 27.915-12.733 36.592-5.973 6.314-4.177 5.541-46.437 20.004-48.201 16.496-50.773 17.714-61.416 29.091-6.586 7.041-12.19 17.55-13.987 26.23-.688 3.323-1.097 20.012-1.097 44.75V414h51v-26.3c0-19.122.328-26.628 1.2-27.5 1.447-1.447 7.691-1.572 11.235-.225l2.565.975V414h216l.015-25.75c.009-14.163.371-26.309.805-26.992 1.142-1.799 9.444-2.722 12.03-1.338 2.117 1.133 2.15 1.559 2.15 27.615V414h51v-40.29c0-44.927-.186-46.563-6.721-58.999-4.349-8.275-10.731-15.108-19.265-20.624-7.485-4.838-8.33-5.164-52.422-20.253-19.2-6.57-36.211-12.62-37.803-13.443-11.914-6.161-19.658-24.115-19.754-45.796-.033-7.447-.136-7.816-1.785-6.367-.962.846-4.225 2.903-7.25 4.57-19.177 10.572-44.459 9.483-62.498-2.692l-4.212-2.842zm7.335 15.606c-1.225 3.019-1.977 6.142-1.671 6.94.695 1.81 14.374 6.198 23.959 7.685 4.12.64 10.413.828 14.705.441 8.337-.753 25.905-6.136 26.688-8.179.598-1.557-2.445-9.93-4.11-11.312-.772-.641-3.427-.143-7.905 1.483-14.623 5.307-27.961 5.266-42.299-.13-3.53-1.329-6.58-2.416-6.779-2.416s-1.363 2.47-2.588 5.488M22.572 257.25a864 864 0 0 0-1.296 8.534l-.776 5.283-6.8-5.65c-3.74-3.108-7.065-5.385-7.39-5.06-.325.324 1.766 3.639 4.646 7.367l5.235 6.776-2.845.632c-1.565.347-4.497.685-6.514.75-9.403.303-8.946 2.749.682 3.652 4.133.387 7.728 1.049 7.989 1.471s-1.77 3.576-4.514 7.009C8.245 291.446 6 294.673 6 295.185c0 .511 3.261-1.622 7.246-4.74l7.245-5.669.683 3.862c.376 2.124.969 6.008 1.319 8.631.865 6.494 2.161 5.154 2.989-3.092.378-3.757 1.011-7.357 1.408-7.999.486-.786 2.751.466 6.921 3.827 3.41 2.747 6.654 4.995 7.211 4.995.556 0-1.279-2.915-4.078-6.477s-4.834-6.892-4.521-7.398c.313-.507 3.723-1.238 7.577-1.625 8.073-.811 9.792-2.061 4.004-2.911L36 275.412c-2.2-.323-3.991-.886-3.98-1.25s2.27-3.54 5.021-7.057 4.786-6.611 4.523-6.875c-.264-.263-3.461 1.864-7.106 4.728s-6.853 4.98-7.132 4.702-.984-3.916-1.569-8.083c-1.128-8.041-2.331-9.675-3.185-4.327m420.06-.5c-.289 1.512-.817 5.113-1.173 8s-.942 5.241-1.303 5.23-3.534-2.27-7.051-5.021-6.624-4.773-6.903-4.494c-.28.28 1.834 3.552 4.698 7.272l5.206 6.763-5.303.809a3606 3606 0 0 1-8.553 1.296c-5.296.792-3.723 2.111 3.43 2.877 11 1.178 10.941 1.085 5.267 8.388-2.721 3.501-4.947 6.778-4.947 7.281s2.992-1.349 6.649-4.117c7.201-5.452 8.351-5.915 8.351-3.366 0 3.759 2.259 14.29 2.971 13.85.421-.26 1.067-3.521 1.434-7.246s.997-7.305 1.399-7.955c.497-.804 2.922.583 7.557 4.323 3.753 3.03 7.017 5.315 7.253 5.079s-1.8-3.297-4.525-6.803c-3.394-4.368-4.651-6.739-3.993-7.532.528-.636 3.873-1.469 7.432-1.85s6.472-1.056 6.472-1.5-2.137-1.106-4.75-1.471a315 315 0 0 1-7.987-1.222l-3.238-.559 5.486-7.06c3.017-3.882 5.28-7.264 5.029-7.515-.25-.251-3.413 1.868-7.028 4.709s-6.955 4.928-7.423 4.639-1.168-3.908-1.555-8.041c-.719-7.666-1.957-9.699-2.902-4.764m-247.527 3.39c-1.614 2.826-2.719 5.702-2.455 6.39.778 2.029 15.203 8.103 23.85 10.043 11.018 2.472 25.504 2.293 36.885-.455 9.513-2.296 21.415-7.433 22.247-9.602.572-1.49-2.761-8.548-4.858-10.289-1.053-.874-2.638-.547-6.823 1.406-18.22 8.504-42.962 8.476-59.822-.068-2.784-1.411-5.293-2.565-5.576-2.565s-1.833 2.313-3.448 5.14m-40.944 21.407c-2.787 6.115-.007 12.453 5.461 12.453 11.73 0 40.62 6.537 51.05 11.552 3.944 1.896 7.617 3.448 8.161 3.448 1.357 0 5.872-5.496 6.726-8.186.991-3.121-2.658-5.934-12.757-9.836-11.324-4.376-24.357-7.571-40.631-9.96-17.1-2.511-16.619-2.525-18.01.529m144.614-1.015c-21.195 2.89-35.963 6.648-47.385 12.059-8.103 3.837-9.827 5.458-8.904 8.366.865 2.724 5.391 8.043 6.844 8.043.634 0 4.306-1.554 8.161-3.454C267.76 300.485 296.581 294 308.807 294c4.587 0 6.51-2.493 5.926-7.681-.544-4.826-2.168-7.37-4.605-7.216-.896.057-6.004.7-11.353 1.429M123.5 297.006c-.39 4.403-1.012 8.192-1.382 8.421-.371.229-3.724-.927-7.452-2.57s-7.297-2.813-7.93-2.602c-.634.211 1.924 2.801 5.683 5.756l6.836 5.372-2.898 2.558c-1.594 1.408-4.689 3.983-6.877 5.723-2.189 1.74-3.75 3.395-3.468 3.678.282.284 3.882-.972 8-2.791 4.822-2.129 7.725-2.932 8.154-2.256.366.578.974 4.125 1.352 7.882 1.068 10.634 2.238 10.003 4.041-2.177 1.078-7.282 1.128-7.3 9.711-3.569 4.251 1.848 7.73 3.012 7.73 2.586 0-.425-2.448-2.662-5.44-4.971-8.403-6.483-8.372-6.037-.85-12.064 3.674-2.944 6.247-5.496 5.718-5.673s-4.101 1.005-7.939 2.624c-7.84 3.308-7.86 3.298-8.936-4.433-1.69-12.133-3.067-12.641-4.053-1.494m218.265-7.427c-.311.507-.896 3.621-1.301 6.921-1.227 9.997-.938 9.786-8.813 6.424-3.767-1.608-7.254-2.924-7.75-2.924-1.79 0-.823 1.545 2.356 3.761 1.784 1.244 4.751 3.519 6.593 5.056l3.351 2.795-7.169 5.793c-3.943 3.185-6.971 5.99-6.728 6.232.242.242 3.985-1.124 8.318-3.035 9.041-3.987 8.647-4.233 9.85 6.15.399 3.438 1.085 6.474 1.524 6.746.787.486 3.004-10.091 3.004-14.33 0-1.192.254-2.168.566-2.168s3.911 1.546 8 3.435c4.088 1.889 7.437 3.127 7.441 2.75s-2.765-3.179-6.154-6.227l-6.16-5.541 6.798-5.41c3.74-2.976 6.358-5.557 5.819-5.737s-4.084.998-7.878 2.616-7.2 2.758-7.567 2.531c-.368-.228-.994-3.227-1.393-6.665-.811-6.999-1.86-10.555-2.707-9.173"/></svg>