<svg class="{{ class | default('') }}" xmlns="http://www.w3.org/2000/svg" viewBox="0 0 399 524"><path style="fill:currentColor" fill-rule="evenodd" d="M229 .695c-23.577 2.525-48.092 11.453-65.598 23.891-9.024 6.411-22.075 18.947-29.906 28.726-11.729 14.647-22.437 39.029-25.992 59.188-2.167 12.29-3.108 31.503-1.673 34.184 1.521 2.842 5.796 3.79 8.652 1.919 1.998-1.309 2.356-2.634 2.987-11.045l.717-9.558h5.938c6.483 0 7.603-.963 6.453-5.546-.594-2.368-.995-2.521-5.858-2.248l-5.22.294.195-4.307c.307-6.78 4.992-21.751 10.308-32.936 15.178-31.94 42.144-55.349 74.597-64.759 16.183-4.693 25.218-5.765 43.9-5.207 13.87.414 18.933.993 27.5 3.143 28.905 7.255 48.904 18.343 68.553 38.005 11.463 11.471 17.316 19.404 24.854 33.685 11.83 22.413 18.689 55.766 17.147 83.376-2.743 49.093-17.24 86.95-61.08 159.5-33.39 55.255-43.996 75.655-56.154 108-14.553 38.717-35.404 61.266-63.347 68.507-16.036 4.155-31.635 3.816-46.691-1.017-17.824-5.721-31.424-18.687-38.802-36.99-2.406-5.97-2.884-8.766-3.249-19-.501-14.078-1.489-16.5-6.731-16.5-5.769 0-6.917 2.927-6.193 15.799.95 16.893 4.993 28.733 14.286 41.843C132.601 511.403 157.016 523 184.608 523c26.39 0 47.756-9.299 67.001-29.162 12.036-12.422 19.36-25.311 30.878-54.338 12.244-30.859 20.531-46.956 45.282-87.962 40.765-67.537 56.056-99.519 65.207-136.387 4.636-18.677 5.524-26.821 5.524-50.651 0-23.009-.635-28.786-5.169-47-5.032-20.215-11.15-34.124-22.485-51.12-19.944-29.905-54.227-53.166-91.139-61.841C263.246.671 243.327-.839 229 .695m4.393 51.322c-25.944 4.702-50.196 19.854-65.033 40.631-4.094 5.733-13.36 23.83-13.36 26.093 0 1.111-4.637 2.259-9.125 2.259-2.619 0-2.875.312-2.875 3.5 0 3.494.009 3.5 4.607 3.5 3.678 0 4.491.302 4.033 1.496-3.645 9.498-5.216 39.428-2.756 52.504 1.885 10.021 5.919 22.747 9.77 30.824 4.602 9.652 14.497 20.08 25.152 26.508 8.891 5.363 11.417 5.614 14.517 1.447 2.941-3.954 1.229-6.838-6.494-10.936-9.066-4.812-17.708-13.713-22.177-22.843-14.473-29.564-12.111-73.339 5.502-101.959C197.447 68.817 242.895 54.215 284 70.069c11.233 4.333 19.547 9.592 28.345 17.931 16.596 15.731 26.883 37.103 30.71 63.803 1.779 12.406.728 41.052-1.987 54.197-4.144 20.059-12.865 43.255-26.131 69.5-9.905 19.596-13.959 26.488-29.585 50.299-6.243 9.514-11.352 18.14-11.352 19.168 0 4.871 3.921 7.774 8.266 6.122 2.737-1.041 25.135-35.447 37.194-57.134 16.06-28.883 28.76-61.674 34.176-88.242 2.365-11.605 2.703-15.646 2.778-33.213.075-17.486-.206-21.305-2.238-30.381-10.607-47.375-36.774-76.728-78.676-88.256-8.112-2.231-33.773-3.357-42.107-1.846M19.101 103.083c-11.712 2.299-19.846 14.594-17.639 26.66 3.777 20.651 31.604 25.612 42.233 7.529 5.695-9.688 2.54-24.393-6.581-30.679-2.962-2.041-11.088-4.804-13.114-4.459-.275.047-2.48.474-4.899.949m251.095.814c-9.87 3.409-15.142 10.92-15.165 21.603-.043 20.505 25.268 30.759 39.105 15.842 4.424-4.77 6.211-9.33 6.207-15.842-.005-10.373-6.31-19.172-15.775-22.018-6.25-1.879-7.866-1.832-14.372.415M58.25 120.662c-.687.278-1.25 2.042-1.25 3.921V128h16v-3.393c0-2.172-.569-3.612-1.582-4-1.86-.714-11.36-.674-13.168.055m28.458-.036c-.39.389-.708 2.207-.708 4.041V128h15.121l-.311-3.75-.31-3.75-6.542-.291c-3.599-.16-6.861.028-7.25.417m86.959.041c-.367.366-.667 2.166-.667 4V128h7.531c8.173 0 9.254-.738 8.058-5.502-.592-2.358-1.008-2.498-7.441-2.498-3.748 0-7.115.3-7.481.667m33.583.073-6.25.355V128h16v-3.393c0-2.172-.569-3.612-1.582-4-.87-.334-1.657-.52-1.75-.414s-2.98.352-6.418.547m22.94 3.01.31 3.75 6.91.299c7.582.329 8.475-.224 7.8-4.822l-.437-2.977h-14.894zm-50.535 36.079c-2.158 2.385-2.112 6.459.095 8.4.963.847 5.575 2.296 10.25 3.221 22.055 4.365 46.89 18.01 58.154 31.952 10.579 13.095 14.927 25.984 15.042 44.598.087 13.908-1.838 23.12-7.281 34.844-7.283 15.689-18.652 28.538-35.915 40.591-10.63 7.421-18.663 15.017-25.183 23.811-6.047 8.158-11.917 12.445-18.831 13.757-12.751 2.418-25.745-3.873-27.518-13.322-1.142-6.088.975-10.629 9.139-19.605 10.381-11.412 12.839-16.871 12.87-28.576.046-17.706-6.602-28.303-14.35-22.876-2.581 1.808-2.523 3.644.362 11.376 2.094 5.612 2.232 16.354.27 21.042-.816 1.948-4.732 7.046-8.704 11.329-8.921 9.622-12.032 15.877-12.045 24.219-.013 8.224 4.299 17.027 10.755 21.957 10.731 8.193 28.016 9.79 40.332 3.726 6.561-3.23 8.313-4.867 23.877-22.316 3.56-3.991 11.597-11.049 17.859-15.682 24.654-18.242 37.989-36.363 44.359-60.275 2.938-11.031 3.182-33.578.481-44.5-5.322-21.525-20.761-41.283-41.173-52.694-11.327-6.332-23.013-11.073-34.356-13.938-13.279-3.353-16.244-3.52-18.489-1.039M18.5 240.951C8.182 243.409 0 253.465 0 263.688c0 9.396 7.456 18.885 17.087 21.745 6.461 1.919 6.366 1.919 12.684.042 6.653-1.975 10.946-5.671 13.862-11.934 3.839-8.245 2.738-17.432-2.989-24.941-4.361-5.717-14.93-9.368-22.144-7.649m196 1.704c-4.91 2.577-10.372 8.444-12.118 13.014-3.775 9.885.592 21.947 10.066 27.805 4.165 2.575 5.888 3.026 11.552 3.026s7.387-.451 11.552-3.026c9.476-5.859 13.687-17.322 9.954-27.097-2.268-5.94-6.96-11.224-11.997-13.512-5.025-2.282-14.854-2.391-19.009-.21M57 264.5v3.5h16v-7H57zm28.384-2.058c-.304.792-.398 2.255-.208 3.25.292 1.527 1.548 1.853 8.085 2.1l7.739.292V261h-7.531c-5.637 0-7.671.363-8.085 1.442m28.616 2.1v3.542l7.75-.292 7.75-.292.313-3.25.314-3.25H114zm28.187-.292.313 3.25h15l.313-3.25.314-3.25h-16.254zm28.813.292v3.542l7.75-.292 7.75-.292.313-3.25.314-3.25H171zm71.627 103.866c-8.93 3.321-14.647 10.787-15.423 20.14-.553 6.67.926 11.076 5.52 16.442 4.633 5.414 10.169 7.966 17.276 7.966 7.069 0 12.639-2.548 17.188-7.862 5.985-6.993 7.364-17.258 3.358-25.005-1.931-3.734-6.962-8.736-10.765-10.702-4.301-2.225-12.539-2.694-17.154-.979m-57.633 53.471c-12.662 4.133-19.476 15.11-16.884 27.199 3.199 14.916 19.277 22.333 32.888 15.172 7.654-4.027 11.132-9.338 11.747-17.934.548-7.655-.702-11.752-5.219-17.11-5.072-6.015-15.832-9.514-22.532-7.327"/></svg>