<svg class="{{ class | default('') }}" xmlns="http://www.w3.org/2000/svg" viewBox="0 0 406 528"><path style="fill:currentColor" fill-rule="evenodd" d="M228.5 1.068c-48.414 6.597-90.687 38.903-110.099 84.142-6.89 16.058-11.39 37.325-11.397 53.866-.004 8.719.203 9.77 2.31 11.75 3.071 2.884 7.179 2.771 10.231-.281 2.142-2.141 2.455-3.353 2.455-9.5V134h13v-14h-10.823l1.417-6.25c5.275-23.265 15.683-42.752 31.801-59.542 19.338-20.142 42.067-32.152 69.545-36.747 13.495-2.256 39.327-1.561 52.06 1.402 58.18 13.536 97.571 55.32 108.573 115.166 2.198 11.958 2.94 36.335 1.523 50.051-4.879 47.225-18.732 79.793-69.094 162.431-27.76 45.55-35.776 61.07-46.997 90.989-9.782 26.082-19.289 42.15-31.617 53.439C225.974 505.052 208.028 512 186.99 512c-19.369 0-35.577-6.367-48.093-18.892-13.185-13.193-17.682-26.36-17.883-52.358-.041-5.249-9.034-7.73-13.138-3.626-2.013 2.013-2.098 2.84-1.621 15.75.562 15.191 2.421 22.798 8.344 34.141 18.259 34.97 63.882 50.076 105.624 34.972 12.463-4.51 22.904-11.078 32.851-20.667 13.748-13.253 23.727-29.525 32.394-52.82 11.162-30.003 19.998-48.21 36.846-75.924 6.044-9.942 16.038-26.401 22.21-36.576 42.555-70.154 57.027-107.98 60.562-158.296C408.674 126.62 392.203 78.52 360 46.045 338.475 24.337 309.604 8.93 279.265 2.96 266.888.524 239.879-.483 228.5 1.068m11.75 50.998c-23.502 3.056-47.768 16.096-62.95 33.83-7.261 8.481-14.189 19.669-17.559 28.354L157.51 120h-12.27l-.482 6.25c-.266 3.438-.293 6.588-.061 7s2.251.75 4.487.75c4.058 0 4.065.006 3.395 3.25-5.513 26.693-1.614 59.655 9.579 80.995 5.556 10.592 20.381 23.735 31.512 27.936 4.373 1.651 8.213.327 9.766-3.367 2.165-5.148.705-7.838-6.504-11.983-10.893-6.265-17.405-12.859-21.932-22.214-6.32-13.057-8.142-21.536-8.725-40.617-.544-17.822.626-27.371 4.993-40.748l2.205-6.752.514 6.5.513 6.5 10.25.285 10.25.285V120h-21.174l4.086-7.574C187 95.576 198.748 84.205 215.5 76.041c14.682-7.155 21.039-8.544 39-8.525 11.096.013 16.692.472 21.5 1.766 41.231 11.095 65.748 43.305 70.05 92.029 4.1 46.442-15.228 100.048-60.797 168.617C279.614 338.413 275 345.93 275 346.631c0 5.397 5.928 9.47 10.829 7.44 5.245-2.173 34.126-48.06 48.194-76.571 29.777-60.351 35.792-113.257 18.086-159.078-6.929-17.93-21.792-37.386-36.673-48.005-20.92-14.928-48.93-21.764-75.186-18.351M18.994 103.881c-15.099 4.912-22.173 20.602-15.627 34.66 8.813 18.926 36.193 18.116 44.311-1.312 3.446-8.249.977-20.42-5.446-26.843-5.805-5.805-16.331-8.751-23.238-6.505m256 .053c-11.117 3.382-18.259 12.808-18.305 24.156-.038 9.542 6.141 18.852 14.956 22.535 5.424 2.266 14.659 1.762 20.326-1.11 11.173-5.662 16.353-20.599 11.132-32.096-4.807-10.584-17.55-16.697-28.109-13.485M56 127v7h20v-14H56zm29.204-.25.296 6.75 9.75.286 9.75.286V120H84.909zM204 127v7h20v-14h-20zm29.412-5.631c-.289.753-.388 3.791-.219 6.75l.307 5.381 8.407.293c4.624.161 8.729-.064 9.121-.5s.494-3.605.223-7.043l-.491-6.25h-8.412c-6.197 0-8.549.36-8.936 1.369m-49.957 39.086c-1.491 1.49-2.455 3.606-2.455 5.389 0 4.918 2.657 6.93 11.5 8.711 37.271 7.506 64.43 29.653 71.059 57.945 2.363 10.085 1.552 32.287-1.534 42-6.229 19.602-18.251 34.661-39.525 49.506-11.083 7.734-16.994 13.286-24.481 22.994-7.144 9.264-9.467 11.441-14.533 13.618-5.33 2.29-15.888 2.246-20.503-.086-5.28-2.669-8.889-6.512-9.582-10.207-1.218-6.496.3-9.947 8.189-18.606 11.984-13.153 15.816-23.822 13.447-37.43-1.413-8.112-4.656-16.015-7.112-17.329-4.901-2.623-11.925.401-11.925 5.135 0 1.152.958 5.249 2.129 9.104 2.36 7.771 2.182 15.364-.481 20.514-.835 1.616-4.641 6.375-8.456 10.576-9.29 10.227-11.563 15.085-11.563 24.711 0 12.68 5.945 21.564 18.303 27.351 8.908 4.171 21.715 4.914 30.117 1.747 8.691-3.276 14.487-7.488 19.669-14.295 8.077-10.609 15.363-17.745 25.39-24.867 19.299-13.709 32.409-28.134 40.384-44.436 6.226-12.729 8.558-22.373 9.189-38 .431-10.682.159-14.759-1.522-22.865-7.428-35.81-36.798-61.671-81.398-71.675-11.034-2.475-11.348-2.464-14.306.495M16.591 242.512C3.918 247.353-2.52 261.338 1.92 274.381c3.965 11.646 17.502 18.686 29.293 15.235 21.322-6.24 24.121-35.658 4.359-45.819-5.109-2.626-13.909-3.222-18.981-1.285m201.157-.085c-6.002 2.142-10.39 6.142-13.331 12.153-8.338 17.043 3.02 35.467 21.822 35.397 11.535-.043 21.391-8.063 23.725-19.304 1.341-6.46.363-11.734-3.355-18.076-5.623-9.596-18.125-14.001-28.861-10.17m-93.498 16.361-9.25.287V273h20v-6.941c0-3.818-.338-7.08-.75-7.25s-4.912-.18-10-.021M56 266.036v7.036l9.75-.286 9.75-.286.296-6.75.295-6.75H56zm29.204-.286.296 6.75 9.75.286 9.75.286V259H84.909zm59.796.286v7.036l9.75-.286 9.75-.286.296-6.75.295-6.75H145zm29.204-.286.296 6.75 9.75.286 9.75.286V259h-20.091zm70.867 103.356C234.627 372.286 228 381.448 228 392.707c0 14.233 10.053 24.493 24 24.493 9.512 0 17.744-4.985 22.061-13.358 7.954-15.43-2.596-34.285-19.811-35.406-3.162-.206-7.293.095-9.179.67m-60.829 54.388c-9.646 4.193-15.257 12.654-15.22 22.952.05 13.904 10.759 24.554 24.688 24.554 11.596 0 21.665-9.205 23.751-21.713 1.571-9.424-4.661-20.785-13.84-25.229-5.039-2.439-14.436-2.712-19.379-.564"/></svg>