<svg class="{{ class | default('') }}" xmlns="http://www.w3.org/2000/svg" viewBox="0 0 349 605"><path style="fill:currentColor" fill-rule="evenodd" d="M277.977 2.276c-13.022 4.44-21.738 11.991-28.251 24.474-4.498 8.622-6.208 13.798-9.154 27.704-2.835 13.386-4.838 17.632-11.582 24.556-3.998 4.105-5.534 5.076-7.279 4.602-5.399-1.468-15.901-1.784-22.308-.672-3.797.659-13.203 3.6-20.903 6.535-63.46 24.194-95.602 36.963-98.987 39.323-5.022 3.5-9.413 11.834-10.187 19.33-.753 7.294.606 13.693 12.598 59.333l9.931 37.798-4.342 10.62c-6.649 16.262-7.856 21.909-7.083 33.121.36 5.225.775 15.35.923 22.5s1.459 24.025 2.914 37.5 4.065 39.8 5.8 58.5l3.155 34-1.626 38.5c-.894 21.175-2.287 54.25-3.096 73.5s-1.698 37.612-1.976 40.805c-.451 5.184-.243 6.067 1.94 8.25 2.438 2.438 2.508 2.445 23.38 2.445 18.484 0 21.176-.205 22.999-1.75 1.559-1.321 2.582-4.572 4.17-13.25 1.157-6.325 7.44-39.625 13.96-74 13.448-70.892 13.997-74.009 14.107-80.082l.079-4.418 3.54 7.278c2.855 5.87 3.809 9.451 4.926 18.5 1.289 10.438 12.189 113.491 14.244 134.676C191.185 605.51 190.162 605 216 605c27.02 0 25.144 1.336 26.149-18.621.412-8.184 2.122-41.288 3.8-73.567S249 448.891 249 442.494c0-14.109.224-13.179-20.005-82.994-8.287-28.6-15.553-55.544-16.146-59.875-2.009-14.669 1.906-32.373 10.726-48.494 4.66-8.518 11.535-18.654 22.689-33.456 11.241-14.917 15.06-21.337 18.221-30.63 6.156-18.101 7.752-41.522 3.795-55.689l-1.996-7.145 2.324-2.969 2.324-2.97 5.248 2.597c12.179 6.028 24.354 2.026 40.674-13.37 12.545-11.834 25.981-31.483 30.202-44.167 3.172-9.531 2.482-20.383-1.872-29.473-5.47-11.416-14.74-20.178-28.828-27.249-13.544-6.797-26.774-8.291-38.379-4.334m4.309 11.175c-16.569 5.178-24.637 17.181-30.28 45.049-2.288 11.302-6.14 19.93-11.803 26.438l-3.862 4.437 7.08 5.65c3.893 3.107 9.097 8.194 11.563 11.305l4.484 5.657 3.651-3.994c4.506-4.929 7.244-5.105 13.277-.853 6.519 4.595 12.738 4.984 19.753 1.235 11.396-6.089 28.707-26.284 37.125-43.309 6.81-13.772 4.242-26.744-7.435-37.555-13.582-12.574-30.663-18.089-43.553-14.06M198.5 95.495c-3.3.734-16.575 5.471-29.5 10.526-12.925 5.056-35.65 13.824-50.5 19.485-33.191 12.653-32.144 12.169-34.417 15.916-4.646 7.658-4.078 11.756 7.91 57.078 4.801 18.15 9.535 36.15 10.52 40l1.79 7-5.8 15c-4.764 12.319-5.874 16.341-6.209 22.5l-.409 7.5 2.001-2.5c1.101-1.375 6.439-8.125 11.862-15 12.072-15.305 13.338-15.806 21.244-8.41 2.772 2.592 5.294 4.457 5.606 4.145s-2.821-7.243-6.962-15.401l-7.531-14.834-2.569-37.785c-1.83-26.924-2.27-38.344-1.529-39.729.613-1.144 3.192-2.542 6.267-3.397 2.874-.799 19.747-5.354 37.495-10.123 30.869-8.295 32.377-8.6 34.75-7.045 2.972 1.947 3.348 6.493.731 8.835-.963.861-8.448 3.391-16.635 5.623-8.186 2.231-14.976 4.184-15.087 4.339s-1.352 3.432-2.757 7.282c-3.476 9.52-13.059 31.789-21.659 50.332-3.912 8.433-7.117 16.083-7.123 17s3.206 8.038 7.137 15.823c8.274 16.381 9.558 22.171 6.02 27.14-4.508 6.33-11.985 6.603-18.895.688l-4.075-3.488-4.913 6.252c-2.702 3.439-7.68 9.924-11.062 14.41s-7.286 9.051-8.675 10.144C93.335 306.524 93 307.57 93 312.684c0 3.243.671 10.828 1.492 16.856C97.196 349.413 105 435.131 105 444.969c0 5.305-1.114 34.145-2.475 64.088-1.361 29.944-2.774 61.081-3.139 69.193L98.721 593h13.572c12.062 0 13.63-.195 14.089-1.75.284-.962 2.782-13.9 5.551-28.75a38405 38405 0 0 1 13.062-69.5c7.69-40.721 8.662-47.04 10.95-71.201l1.014-10.7-14.23-27.447-14.229-27.446-7.374-4.353c-7.298-4.308-11.126-7.898-11.126-10.432 0-.72 1.08-2.565 2.399-4.099 2.385-2.772 2.419-2.779 5.75-1.084 1.843.937 7.104 4.079 11.692 6.983l8.341 5.279 23.965 46.897 23.965 46.897 2.428 21.603c3.859 34.34 13.46 125.047 13.46 127.171 0 1.814.825 1.932 13.481 1.932 13.177 0 13.491-.051 13.943-2.25.546-2.658 2.681-42.298 5.741-106.605 1.763-37.056 1.977-47.689 1.066-53-1.028-5.993-18.692-68.839-30.818-109.645-4.616-15.534-4.754-16.378-4.739-29 .032-26.31 7.724-44.35 33.553-78.69 13.877-18.451 16.903-23.697 20.142-34.918 7.476-25.903 5.057-46.459-7.423-63.088-8.525-11.361-18.054-17.871-29.802-20.361-8.008-1.697-10.823-1.689-18.644.052m-62.884 70.311-9.884 2.636.664 12.529c.365 6.891.944 15.403 1.286 18.917l.622 6.387 2.947-6.387c3.716-8.056 15.749-35.925 15.749-36.476 0-.608-.595-.482-11.384 2.394m31.234 20.944c-3.998 4.357-23.429 29.507-24.774 32.067-.999 1.9-.931 2.755.376 4.75.877 1.338 1.696 2.456 1.821 2.483s4.486.833 9.692 1.789l9.465 1.739-4.037 4.461c-13.107 14.482-12.438 17.702 4.357 20.996 3.438.674 6.25 1.515 6.25 1.869s-3.518 4.682-7.818 9.62-8.066 9.651-8.369 10.476c-1.411 3.847 3.776 8.862 7.635 7.382 2.249-.864 26.009-28.296 26.369-30.445.551-3.299-3.822-6.33-12.067-8.362-4.262-1.05-7.75-2.291-7.75-2.758 0-.466 2.7-4.138 6-8.159 6.132-7.471 7.408-11.245 4.591-13.582-.775-.643-5.517-1.936-10.538-2.873l-9.13-1.703 9.539-12.823c5.246-7.052 9.538-13.365 9.538-14.027 0-.663-.701-2.205-1.557-3.427-2.196-3.136-6.445-2.903-9.593.527m-146.293 6.473c-.856 1.222-1.557 2.654-1.557 3.182 0 .527 3.13 6.615 6.956 13.527 3.825 6.912 8.663 15.897 10.75 19.967s4.558 7.877 5.491 8.461c2.755 1.726 6.136-.301 12.708-7.616l6.07-6.757 5.121 10.257c2.817 5.641 5.817 11.043 6.668 12.006C75.831 249.721 83 247.293 83 242.782c0-1.949-14.613-31.651-16.744-34.032-2.94-3.286-5.456-2.137-12.817 5.852l-7.062 7.663-6.837-12.382C30.392 193.318 28.608 191 25.006 191c-1.855 0-3.451.797-4.449 2.223M36.4 252.765c-3.025 2.02-3.264 4.785-1.219 14.092 1.119 5.093 1.838 9.457 1.599 9.697s-6.696-.932-14.347-2.605c-7.651-1.672-15.256-2.907-16.899-2.745-5.661.56-6.66 7.89-1.429 10.484 1.317.653 11.52 3.075 22.672 5.38 19.541 4.04 20.349 4.128 22.25 2.407 2.421-2.19 2.437-4.65.099-15.274-1.182-5.376-1.438-8.154-.726-7.887.605.227 5.92 1.662 11.811 3.19 10.157 2.634 10.842 2.691 13.25 1.114 3.335-2.186 3.489-6.966.289-9.007-2.158-1.376-32.188-9.627-34.925-9.596-.729.009-1.82.346-2.425.75"/></svg>