<svg class="{{ class | default('') }}" xmlns="http://www.w3.org/2000/svg" viewBox="0 0 668 578"><path style="fill:currentColor" fill-rule="evenodd" d="M244.623 4.25c-1.69 11.88-3.618 36.141-2.92 36.745.438.379 5.349 4.375 10.912 8.878l10.116 8.189-2.413 11.219c-1.327 6.171-3.036 13.919-3.798 17.219s-1.078 6.311-.703 6.69 6.308 2.698 13.183 5.152 13.208 4.749 14.074 5.099c1.415.573 1.342 2.227-.722 16.348a9682 9682 0 0 1-2.324 15.858c-.06.315 13.222 2.435 13.482 2.153.603-.655 5.642-39.766 5.327-41.348-.233-1.173-4.423-3.157-13.637-6.456-7.315-2.62-13.535-4.998-13.823-5.285-.287-.288.788-7.337 2.388-15.664l2.911-15.142-2.643-2.202c-1.454-1.212-7.186-5.295-12.738-9.074L251.2 35.758l-.649-5.629C248.477 12.145 246.633 0 245.977 0c-.412 0-1.022 1.912-1.354 4.25m176.07-2c-.288 1.238-1.334 9.2-2.325 17.695-1.274 10.928-2.25 15.821-3.334 16.729-.844.706-6.371 4.682-12.284 8.836-8.219 5.775-10.744 8.075-10.727 9.771.013 1.221 1.137 7.844 2.497 14.719s2.474 13.012 2.476 13.637c.002.626-5.97 3.237-13.271 5.802-7.301 2.566-13.755 4.979-14.343 5.363-.74.483-.201 7.121 1.752 21.591 1.551 11.492 3.002 21.077 3.226 21.3.223.223 3.349-.106 6.946-.733l6.539-1.138-.488-3.161c-.268-1.739-1.279-8.94-2.246-16.003l-1.758-12.842 2.574-.984c1.415-.542 7.67-2.745 13.899-4.896s11.69-4.137 12.135-4.412-.706-7.818-2.558-16.762c-1.853-8.944-3.34-16.937-3.305-17.762s4.67-5.38 10.301-10.123l10.237-8.623-1.773-18.377c-.975-10.107-1.793-19.165-1.818-20.127-.065-2.514-1.733-2.159-2.352.5m-92.712 24.5c-.011.413 1.198 6.328 2.685 13.145 3.05 13.98 3.594 11.271-5.068 25.228l-4.731 7.623 6.411 9.911 6.411 9.912-7.821 8.465c-4.302 4.656-7.832 9.048-7.845 9.76s2.961 6.449 6.609 12.75L331.264 135h5.746c8.948 0 9.135-1.116 2.023-12.113-3.318-5.131-6.033-9.707-6.033-10.168s2.347-3.399 5.216-6.529c2.868-3.129 6.478-7.072 8.022-8.76l2.806-3.07-8.011-11.19-8.01-11.19 4.692-9.446 4.693-9.446-6.686-13.544c-6.08-12.316-7.686-14.971-7.741-12.794M207.443 71.943l8.902 8.943.771 10.307c.425 5.669.797 11.252.828 12.406.044 1.661 2.151 3.085 10.1 6.824 7.78 3.659 9.938 5.102 9.574 6.401-.484 1.726-3.818 21.657-4.01 23.976-.067.806 6.539 3.734 17.363 7.696 9.609 3.517 17.536 6.307 17.615 6.2.881-1.195 3.429-10.863 3.032-11.504-.29-.47-5.722-2.779-12.073-5.132-13.211-4.896-12.285-3.187-10.057-18.56.797-5.5 1.463-10.283 1.48-10.63.018-.346-5.185-2.79-11.561-5.43-12.929-5.354-12.182-4.471-14.889-17.58l-1.785-8.641-11.4-7.109c-6.27-3.911-11.713-7.11-12.096-7.11-.382 0 3.31 4.024 8.206 8.943m249.009-1.963-11.048 6.912-1.85 9.304c-1.017 5.117-2.205 10.011-2.641 10.875s-5.791 3.53-11.901 5.924-11.29 4.647-11.512 5.004c-.221.358.248 5.567 1.041 11.576s1.446 11.62 1.451 12.47c.005 1.07-3.684 2.877-11.992 5.873-6.6 2.379-12 4.795-12 5.366 0 .572.766 3.471 1.703 6.442 1.267 4.019 2.098 5.272 3.25 4.896 10.682-3.484 32.612-12.769 32.845-13.906.164-.799-.614-6.786-1.73-13.305-1.115-6.519-1.699-12.169-1.297-12.557.401-.388 4.554-2.364 9.229-4.392 4.675-2.027 8.808-3.973 9.183-4.324.376-.351 1.189-6.263 1.807-13.138l1.123-12.5 8.673-8.75c4.77-4.812 8.232-8.735 7.693-8.717-.538.019-5.951 3.145-12.027 6.947M94.02 82.75c.01.412 5.833 4.575 12.939 9.25l12.92 8.5 3.177 13.5c1.748 7.425 3.278 13.615 3.4 13.756s5.132 1.145 11.133 2.233c6.001 1.087 11.878 2.207 13.06 2.487 2.013.479 2.192 1.316 2.826 13.268.373 7.016.872 13.46 1.109 14.32.329 1.189 4.899 2.333 19.094 4.78 10.264 1.769 18.996 2.866 19.406 2.436.41-.429 1.054-3.313 1.431-6.41l.685-5.63-6.35-1.056c-3.492-.581-9.795-1.59-14.005-2.242l-7.654-1.186-.568-4.128c-.312-2.27-.869-8.554-1.238-13.964-.502-7.349-1.049-9.982-2.164-10.41-.821-.315-7.394-1.513-14.607-2.663L135.5 117.5l-3.779-10.979c-2.079-6.039-4.146-11.346-4.593-11.793C126.464 94.064 95.36 82 94.313 82c-.172 0-.304.338-.293.75m463.433 5.132c-8.277 3.162-15.538 6.053-16.138 6.423-.599.371-2.739 5.303-4.755 10.96s-3.978 10.767-4.362 11.355-6.719 2.008-14.077 3.154c-7.359 1.146-13.735 2.454-14.17 2.905-.435.452-1.338 6.957-2.006 14.456l-1.214 13.634-7.616 1.179c-4.188.649-10.485 1.657-13.993 2.241l-6.377 1.061.54 5.954c.297 3.275.766 6.18 1.042 6.456.687.687 36.882-5.45 37.74-6.4.378-.418 1.195-6.815 1.816-14.216s1.464-13.739 1.873-14.085 6.046-1.435 12.525-2.419c8.56-1.3 12.014-2.234 12.632-3.415.467-.894 2.309-7.318 4.093-14.277l3.242-12.652 12.874-8.348c11.395-7.389 14.636-10.003 12.128-9.782-.413.036-7.521 2.654-15.797 5.816M165.96 90.925c.567 1.059 4.316 4.877 8.331 8.485l7.301 6.56 2.316 12.765c1.274 7.021 2.734 13.283 3.245 13.917.511.633 2.148 1.45 3.638 1.815 1.49.364 5.684 1.558 9.321 2.653l6.612 1.991 1.766 15.444L210.257 170l13.122.001H236.5l2.408 10.5c1.324 5.774 2.787 10.499 3.25 10.499s.842-.651.842-1.446c0-.796 1.756-4.84 3.903-8.988l3.903-7.542-2.256-8.262-2.256-8.262-12.082.353-12.083.354-.568-3.354c-.312-1.844-1.199-7.773-1.97-13.175s-1.657-10.077-1.969-10.389c-.312-.313-5.642-1.753-11.845-3.201l-11.277-2.633-3.5-10.749-3.5-10.749-10.809-6.978C170.747 92.14 165.668 89 165.406 89s-.013.866.554 1.925m334.004-.585c-.805.737-5.532 3.867-10.503 6.956l-9.039 5.617-3.41 10.551c-3.858 11.934-2.323 10.729-17.993 14.139-4.136.9-7.929 2.015-8.431 2.479-.725.669-4.456 22.274-4.562 26.418-.016.646-4.187.773-11.776.358-6.462-.353-11.906-.498-12.096-.321s-1.419 4.014-2.731 8.527l-2.386 8.206 4.157 8.389c2.286 4.615 4.466 8.041 4.844 7.615s1.761-4.999 3.074-10.163l2.388-9.389 12.694.604c11.444.544 12.741.435 13.171-1.111.263-.943 1.269-8.133 2.236-15.976l1.758-14.261 6.571-1.932c3.613-1.062 7.789-2.226 9.279-2.587 1.49-.36 3.123-1.174 3.628-1.807.506-.634 1.945-6.777 3.199-13.652l2.281-12.5 8.341-7.881c4.588-4.335 8.342-8.272 8.342-8.75 0-1.272-1.361-1.061-3.036.471m-181.492 58.702c-20.709 2.708-41.004 13.048-51.509 26.242-18.199 22.857-21.554 49.568-12.84 102.216 4.689 28.326 11.763 46.464 23.811 61.042 3.969 4.804 4.065 5.101 4.032 12.44-.051 11.423-1.723 27.669-3.463 33.655-.856 2.945-2.921 6.909-4.59 8.809-3.568 4.064-6.089 5.086-49.413 20.036-38.838 13.402-45.26 16.405-55.217 25.823-9.819 9.288-16.07 18.903-20.356 31.313l-3.413 9.882-.32 46.232-.32 46.233 2.518 2.517 2.517 2.518h368.742l2.23-2.373 2.23-2.374-.352-46.376c-.388-51.194-.382-51.133-7.147-65.377-4.548-9.578-11.601-18.603-19.495-24.946-10.766-8.651-14.248-10.118-65.617-27.649-29.819-10.176-33.574-11.815-36.757-16.038-4.427-5.874-5.857-12.187-7-30.909l-1.071-17.541 5.243-6.459c6.798-8.373 15.374-25.937 18.536-37.958 3.176-12.074 7.149-36.724 8.624-53.5 3.957-44.999-10-74.77-42.164-89.941-15.598-7.357-37.122-10.174-57.439-7.517m-216.637 14.835c.734.465 6.074 1.921 11.867 3.234l10.533 2.389 8.082 9.5c4.446 5.225 8.181 9.651 8.301 9.835s4.818-.604 10.439-1.75c5.622-1.147 10.344-2.085 10.495-2.085s3.651 4.613 7.78 10.25 8.125 11.072 8.879 12.076c1.294 1.721 1.99 1.475 12.167-4.303l10.795-6.128 3.164 2.417c1.739 1.329 6.538 5.177 10.663 8.551s7.884 6.007 8.353 5.851 2.396-2.366 4.282-4.913l3.43-4.63-13.144-10.66c-7.23-5.863-13.772-10.9-14.539-11.195s-5.438 1.765-10.38 4.575S183.653 192 183.21 192c-.444 0-4.071-4.5-8.062-10s-7.794-9.992-8.452-9.983S161 173.369 155.5 175s-10.664 2.973-11.475 2.983c-.811.009-4.454-2.94-8.096-6.554-4.786-4.748-7.704-6.821-10.525-7.476-4.98-1.155-25.375-1.221-23.569-.076m209.557 1.018c-12.228 3.007-21.72 8.207-29.872 16.363-3.981 3.983-8.456 9.648-9.944 12.588-8.314 16.421-9.45 41.914-3.528 79.154 5.213 32.78 11.808 47.925 27.904 64.079 6.832 6.857 10.28 9.437 17.176 12.853 7.497 3.714 9.726 4.342 17 4.795 15.781.982 26.831-3.209 39.394-14.941 12.622-11.787 20.28-24.184 25.013-40.489 2.998-10.328 6.765-31.18 8.494-47.021 1.528-14.01.789-37.594-1.43-45.605-6.174-22.289-23.384-37.665-47.272-42.236-10.632-2.034-33.803-1.786-42.935.46m231.108-1.174c-1.1.269-4.925 3.033-8.5 6.143s-7.276 6.258-8.225 6.997c-1.473 1.147-3.228.899-12-1.691-5.651-1.669-10.96-3.298-11.797-3.621-1.079-.417-3.794 2.467-9.346 9.932-4.303 5.785-8.166 10.519-8.585 10.519-.418 0-4.67-2.25-9.449-5s-9.161-5-9.736-5c-.87 0-22.26 16.438-26.702 20.52-1.107 1.017-.759 2.12 2 6.338 1.837 2.808 3.695 5.114 4.129 5.124s5.555-3.817 11.381-8.503l10.593-8.522 5.368 3.022 10.823 6.091 5.455 3.069 8.695-11.819c4.782-6.501 8.841-11.996 9.02-12.212.3-.36 14.064 2.168 18.992 3.488 1.725.462 3.711-1.261 10.746-9.325l8.63-9.892 10.754-2.336c5.915-1.285 11.182-2.72 11.704-3.19.985-.884-20.39-1.002-23.95-.132M50.529 176.12c1.137 1.946 5.486 7.638 15.757 20.63L75.181 208l13.159.043 13.16.043 7.899 13.546c4.344 7.45 8.478 13.767 9.187 14.039s7.924-1.335 16.036-3.57c8.111-2.236 14.801-3.961 14.867-3.833s2.842 6.982 6.17 15.232c5.556 13.779 6.244 14.981 8.445 14.772 1.318-.125 9.723-1.884 18.677-3.907l16.281-3.679 2.822 2.703 2.821 2.703 4.795-4.341 4.795-4.341-5.508-5.918-5.508-5.917-15.89 3.726c-8.739 2.05-16.171 3.72-16.515 3.713s-3.432-6.877-6.862-15.264c-3.429-8.387-6.313-15.34-6.407-15.45-.167-.194-27.326 6.842-31.392 8.132-1.731.55-3.123-1.195-9.864-12.363-9.064-15.016-6.514-13.887-26.349-11.663l-11.5 1.29-13.282-11.098c-13.113-10.956-16.298-13.229-14.689-10.478m561.915 2.128c-2.169 1.757-8.285 6.904-13.59 11.438l-9.646 8.245-12.354-1.457c-18.907-2.229-16.41-3.318-25.292 11.022-4.258 6.873-8.038 12.666-8.401 12.873-.364.208-7.819-1.574-16.567-3.959s-16.238-4.13-16.644-3.879-3.297 6.871-6.425 14.712c-3.127 7.842-6.023 14.607-6.434 15.036-.412.428-7.832-.876-16.489-2.898l-15.741-3.675-5.431 5.363c-2.986 2.949-5.388 5.828-5.336 6.397s2.091 2.793 4.531 4.942l4.436 3.908 2.842-2.724 2.843-2.723 18.204 4.065c10.012 2.237 18.343 4.066 18.513 4.066s3.159-6.985 6.642-15.523c3.724-9.126 6.797-15.345 7.457-15.092 3.414 1.31 28.754 7.676 29.528 7.418.505-.168 4.662-6.542 9.238-14.164l8.32-13.859 13.004.157 13.005.157 8.006-10.297c12.439-15.999 16.656-21.812 16.171-22.296-.245-.245-2.22.991-4.39 2.747m-602.277 79.62c.286.747 30.051 23.335 33.597 25.497.699.426 6.826-.825 13.704-2.797 6.843-1.963 13.075-3.568 13.85-3.568.774 0 3.574 2.363 6.221 5.25 2.646 2.887 7.992 8.577 11.879 12.643l7.067 7.394 14.842-7.759c8.163-4.268 15.184-7.37 15.602-6.894s4.182 6.491 8.364 13.366 8.194 13.301 8.914 14.281c1.23 1.67 2.415 1.377 19.171-4.75 9.823-3.592 18.345-6.531 18.937-6.531.591 0 2.325 1.197 3.852 2.66l2.777 2.66 3.987-4.41c2.193-2.425 4.005-4.887 4.028-5.469.036-.938-8.643-8.98-11.583-10.733-.618-.369-8.491 2.032-17.495 5.336-15.361 5.635-16.453 5.896-17.694 4.231-.727-.976-4.91-7.722-9.296-14.992-4.386-7.269-8.412-13.487-8.948-13.818-.536-.332-8.203 3.141-17.037 7.716L98.843 285.5 87.57 273.534l-11.274-11.967-15.441 5.753-15.44 5.752-17.399-8.036c-9.569-4.42-17.575-8.036-17.79-8.036-.216 0-.243.391-.059.868m628.568 7.768-16.765 7.619-15.11-5.842-15.11-5.842-11.713 12.019-11.714 12.019-15.411-8.31c-8.477-4.57-16.045-8.195-16.819-8.054-.774.14-5.519 7.005-10.545 15.255s-9.567 15-10.092 15-8.025-2.653-16.665-5.896l-15.709-5.896-6.482 5.396c-3.565 2.968-6.497 5.846-6.516 6.396s1.795 2.938 4.03 5.307l4.064 4.306 2.551-1.806c1.403-.994 3.061-2.19 3.684-2.658.685-.516 8.391 1.774 19.52 5.799 14.313 5.177 18.575 6.363 19.235 5.352.467-.715 4.557-7.472 9.09-15.016s8.539-13.731 8.901-13.75 6.924 3.341 14.581 7.466 14.376 7.5 14.93 7.5 6.458-5.785 13.117-12.855l12.108-12.855 13.573 3.952 13.572 3.951 16.98-12.708c9.339-6.989 16.98-12.882 16.98-13.096 0-.917-2.376.026-18.265 7.247M77.5 331.51c-6.6 1.258-12.225 2.397-12.5 2.53-1.128.546 11.05 1.769 18.531 1.861l8.032.099 5.968 6.077c3.283 3.343 7.611 7.394 9.617 9.004l3.648 2.926 10.352-4.454L131.5 345.1l10.421 10.377 10.421 10.377 9.777-7.494 9.776-7.494 10.944 7.567c6.019 4.162 11.396 7.567 11.948 7.567 1.046 0 7.756-9.835 7.092-10.396-2.371-2.001-28.669-18.998-29.889-19.317-.955-.25-5.126 2.321-10.015 6.173l-8.378 6.601-9.549-9.475-9.548-9.475-11.483 5.9c-11.176 5.741-11.538 5.851-13.5 4.098-5.317-4.748-15.504-11.098-17.644-10.998-1.305.061-7.773 1.141-14.373 2.399m486.664 4.003-8.336 6.39-11.414-5.681L533 330.54l-9.401 9.362-9.401 9.361-8.493-6.631c-4.671-3.648-8.993-6.632-9.604-6.632-1.614 0-30.101 19.143-30.101 20.227 0 1.042 5.856 9.773 6.555 9.773.253 0 5.597-3.422 11.877-7.604l11.418-7.604 9.694 7.718 9.695 7.718 10.63-10.511 10.631-10.511 10.311 4.448 10.312 4.447 7.688-6.938c4.229-3.815 8.546-7.888 9.594-9.05 1.474-1.635 3.08-2.113 7.099-2.113 7.784 0 20.496-1.204 20.496-1.941 0-.588-26.144-5.183-28.5-5.009-.55.04-4.751 2.949-9.336 6.463M296 362.81c0 8.611-2.339 22.35-5.031 29.542-2.406 6.431-8.52 13.726-14.318 17.083-2.283 1.322-20.576 8.11-40.651 15.085s-39.875 14.277-44 16.227c-9.833 4.65-21.256 15.824-25.814 25.253-5.958 12.324-6.186 14.467-6.186 58.227v39.807l25.597-.267 25.597-.267-.142-25.843c-.102-18.422.193-26.247 1.025-27.25 1.453-1.75 11.024-1.906 12.723-.207.873.873 1.2 8.381 1.2 27.513v26.313l108-.039 108-.039v-26.274c0-19.102.328-26.602 1.2-27.474.66-.66 3.495-1.2 6.3-1.2s5.64.54 6.3 1.2c.872.872 1.2 8.378 1.2 27.5V564h50.682l.583-22.75c.801-31.27.338-56.776-1.14-62.75-3.26-13.18-12.597-26.636-23.51-33.88-6.852-4.548-9.416-5.547-50.615-19.721-18.975-6.529-36.858-13.054-39.739-14.501-12.888-6.474-19.222-19.598-20.822-43.148-.383-5.637-.809-10.25-.947-10.25s-2.865 1.575-6.061 3.499c-19.694 11.86-43.196 11.877-61.931.045a607 607 0 0 0-6.25-3.91c-.952-.573-1.25.899-1.25 6.176m-296-.957c0 .469 7.634 5.925 16.965 12.124l16.964 11.27 13.786-4.478 13.785-4.478 12.615 12.455 12.615 12.456 14.095-8.101c7.752-4.456 14.497-8.101 14.99-8.101s4.844 6.413 9.668 14.25c4.825 7.837 8.91 14.408 9.079 14.601.168.193 8.672-2.919 18.896-6.915l18.589-7.265 2.846 2.726 2.846 2.727 4.124-4.812c2.268-2.647 4.127-5.082 4.131-5.412.003-.33-2.708-2.96-6.024-5.845l-6.031-5.245-15.219 6.056c-8.371 3.331-15.823 6.186-16.559 6.345-1.049.226-13.981-18.511-20.16-29.211-.753-1.304-1.299-1.245-4.184.458-1.824 1.077-9.154 5.229-16.288 9.228l-12.971 7.271-11.568-11.425-11.567-11.425-14.961 6.445c-9.86 4.247-15.752 6.263-17.278 5.911-1.274-.294-9.084-3.218-17.356-6.499C-.643 360.432 0 360.64 0 361.853m599.942 1.73c-1.343 1.441-6.717 6.564-11.942 11.382l-9.5 8.762-15.5-8.841c-8.525-4.863-15.792-8.851-16.149-8.864s-5.037 6.841-10.399 15.228a18831 18831 0 0 1-9.883 15.448c-.072.109-7.449-2.744-16.391-6.34l-16.26-6.538-5.399 4.165c-8.316 6.416-8.262 6.253-3.898 11.731 2.095 2.631 3.908 4.942 4.028 5.135.121.193 1.819-.869 3.775-2.361l3.555-2.711 18.111 7.257c10.823 4.337 18.372 6.858 18.76 6.265.358-.545 4.658-7.364 9.556-15.153l8.906-14.161 3.594 2.125c1.977 1.169 8.7 5.06 14.941 8.646l11.346 6.52 12.654-12.562 12.653-12.561 13.52 4.599 13.52 4.6 16.98-11.291c15.456-10.278 20.975-14.67 15.866-12.627-1.037.414-8.973 3.467-17.635 6.782l-15.75 6.028-14.681-6.373c-8.074-3.505-14.962-6.494-15.308-6.642-.345-.148-1.726.91-3.07 2.352M204 401.154c0 1.745.248 1.885 1.5.846.825-.685 1.5-1.367 1.5-1.515 0-.149-.675-.53-1.5-.847-1.039-.398-1.5.068-1.5 1.516m-63.835 31.372c-5.05 4.111-9.541 7.474-9.979 7.474s-5.241-3.124-10.674-6.941l-9.878-6.942-8.567 7.712c-4.712 4.242-9.282 8.26-10.155 8.93-1.289.988-3.546.558-11.957-2.274l-10.368-3.492-12.543 8.216a5557 5557 0 0 0-12.961 8.504c-.229.158-.183.521.103.806.285.285 5.78-1.515 12.211-4C61.827 448.034 67.683 446 68.41 446c.726 0 6.349 2.29 12.495 5.089 7.332 3.339 11.591 4.777 12.385 4.181.666-.499 4.75-3.735 9.076-7.191l7.866-6.283 2.634 1.941c1.449 1.068 5.896 4.318 9.882 7.224l7.248 5.282 5.463-4.124c3.005-2.269 7.168-5.826 9.252-7.906 4.654-4.644 12.633-14.235 12.146-14.599-.196-.147-1.966-1.233-3.933-2.415l-3.577-2.147zm374.434-4.899-3.675 2.497 2.089 2.688a607 607 0 0 1 5.578 7.362C521.775 444.442 535.54 456 537.437 456c.44 0 5.044-3.038 10.231-6.75s9.746-6.636 10.131-6.497c.386.139 4.634 3.233 9.442 6.875l8.741 6.621 11.589-5.239 11.59-5.238 11.169 4.002c6.144 2.202 11.958 4.326 12.92 4.721s1.746.333 1.741-.138c-.012-1.219-24.849-16.357-26.837-16.357-.907 0-5.793 1.381-10.858 3.068l-9.208 3.068-9.294-8.158c-5.112-4.487-9.832-8.382-10.49-8.655s-5.448 2.468-10.643 6.091c-5.196 3.622-9.731 6.586-10.077 6.586s-4.834-3.346-9.971-7.435l-9.339-7.436zM97.06 486.224c-2.337 6.304-4.573 11.988-4.969 12.629-.644 1.042-14.713-1.21-27.305-4.371-2.436-.611-3.025.073-9.799 11.403-3.964 6.629-7.72 12.461-8.347 12.959s-7.89 2.364-16.14 4.146-15.428 3.639-15.95 4.125c-.553.515 7.285.885 18.76.885h19.711l5.942-8.113c3.269-4.463 6.53-8.997 7.247-10.077 1.281-1.93 1.567-1.9 16.584 1.706 8.405 2.018 15.876 3.441 16.602 3.162s3.228-5.65 5.557-11.936 4.578-11.983 4.996-12.659c.599-.97 2.923-.979 10.96-.045 5.61.652 10.338 1.023 10.506.824s.58-3.114.916-6.478l.61-6.116-10.72-1.181a9329 9329 0 0 1-15.817-1.753l-5.097-.573zm451.112-9.702c-6.78.715-12.518 1.491-12.752 1.724-.233.234-.129 3.242.231 6.685l.654 6.261 5.598-.627c3.078-.345 7.847-.858 10.597-1.14l5-.512 4.917 12.639c2.705 6.952 5.5 12.863 6.213 13.136.712.274 8.132-1.145 16.489-3.151 9.484-2.278 15.425-3.275 15.809-2.654.338.547 3.53 5.065 7.093 10.04l6.479 9.045 19.25.016c11.199.009 19.25-.373 19.25-.913 0-.511-2.587-1.459-5.75-2.107-12.981-2.659-26.315-5.701-26.611-6.07-.174-.217-3.302-5.344-6.952-11.394s-7.04-11.609-7.534-12.353c-.739-1.112-3.427-.784-15.101 1.841-7.811 1.757-14.458 2.939-14.771 2.626-.313-.312-2.653-5.866-5.2-12.341-5.405-13.737-3.418-12.805-22.909-10.751m-418.359 56.161c.721.289 1.584.253 1.916-.079s-.258-.568-1.312-.525c-1.165.048-1.402.285-.604.604"/></svg>