<svg class="{{ class | default('') }}" xmlns="http://www.w3.org/2000/svg" viewBox="0 0 582 669"><path style="fill:currentColor" fill-rule="evenodd" d="M296.75.566c-1.567 1.604-.582 2.172 4.718 2.719 8.717.899 16.563 5.694 23.332 14.259 8.125 10.28 9.766 11.176 26.536 14.49 18.227 3.602 24.468 5.181 38.164 9.651 43.312 14.138 81.482 37.986 113.551 70.944 31.311 32.179 54.568 74.235 66.288 119.871 7.001 27.259 8.123 36.641 8.134 68 .011 30.576-.937 39.694-6.472 62.297-6.663 27.212-15.938 49.128-30.571 72.241-11.802 18.641-17.281 23.782-27.088 25.415-8.188 1.363-17.742-3.516-21.307-10.88-6.026-12.449 2.262-27.002 15.379-27.002 9.749 0 15.68 5.577 16.391 15.413.427 5.905.365 6.082-3.567 10.014-3.451 3.45-4.605 4.001-8.37 3.998-8.807-.007-15.24-7.31-12.841-14.579 1.436-4.351 4.411-6.417 9.241-6.417 5.398 0 8.965 3.657 8.542 8.757-.241 2.892-.907 4.013-2.968 4.996-4.948 2.36-10.118-1.5-7.803-5.825 1.345-2.514 4.006-2.472 4.671.072.619 2.367 2.116 2.616 2.933.487 1.672-4.357-7.222-6.354-10.086-2.264-2.161 3.084-1.951 5.208.837 8.449 3.412 3.966 9.8 3.966 13.212 0 3.436-3.995 3.265-9.665-.415-13.785-2.283-2.555-3.781-3.237-7.99-3.642-4.495-.432-5.642-.146-8.66 2.156-10.118 7.717-3.819 23.272 9.867 24.369 4.127.331 5.738-.035 8.5-1.931 4.91-3.37 7.241-6.979 7.819-12.106 1.071-9.502-4.333-17.691-13.417-20.331-6.661-1.937-10.433-1.344-16.684 2.62-5.694 3.611-9.601 10.937-9.616 18.032-.028 12.736 12.924 24.052 25.796 22.539 10.676-1.255 17.342-7.026 29.257-25.331 19.811-30.434 32.445-66.218 37.477-106.152 2.111-16.748 1.589-53.855-.986-70.11-9.944-62.77-36.719-115.704-79.697-157.561-13.392-13.043-22.369-20.414-37.357-30.674-32.87-22.502-70.256-37.618-111.948-45.263-12.527-2.297-14.448-3.328-21.532-11.558-7.734-8.987-10.597-11.427-16.439-14.011C306.58.721 297.945-.657 296.75.566m-6.231 8.032c-5.095 1.865-10.05 6.635-13.108 12.619-3.857 7.546-2.988 18.675 2.061 26.381 2.611 3.984 4.111 1.507 1.636-2.701-5.656-9.618-4.375-20.893 3.239-28.507 10.705-10.705 26.628-7.554 32.915 6.514C322.371 34.337 313.896 47 301.135 47c-8.328 0-14.152-5.123-14.921-13.125-.905-9.414 5.197-15.754 14.024-14.57 12.68 1.701 12.836 19.695.169 19.695-3.037 0-7.407-4.129-7.407-7 0-2.337 4.172-7 6.263-7 2.385 0 4.966 2.57 4.586 4.566C303.39 31.97 299 32.878 299 30.57c0-2.005-1.88-2.046-2.643-.057-1.529 3.984 5.821 6.158 8.988 2.658 2.495-2.756 2.07-6.699-.98-9.098-4.586-3.608-10.215-2.016-12.904 3.65-1.946 4.101-1.318 7.511 1.994 10.822 3.155 3.156 6.881 3.97 11.64 2.545 5.171-1.55 7.405-5.084 7.405-11.715 0-4.181-.495-5.744-2.5-7.889-7.615-8.15-18.302-7.097-24.726 2.436-3.764 5.585-2.831 14.686 2.043 19.925 6.323 6.798 17.643 8.092 25.471 2.912 7.526-4.98 10.722-16.919 6.921-25.848-4.561-10.716-18.03-16.398-29.19-12.313M361 60.169c-22.227 1.294-47.978 10.375-60.163 21.216C293.113 88.257 287 100.867 287 109.927c0 7.741 4.91 18.242 10.536 22.533 18.528 14.131 45.521-.385 40.036-21.53-3.941-15.193-22.942-20.109-31.133-8.055-4.281 6.3-2.923 14.189 3.128 18.179 4.101 2.703 7.11 2.423 10.51-.977 3.169-3.169 3.807-7.099 1.467-9.041-1.977-1.64-4.052-.353-2.481 1.54 1.557 1.876.457 4.424-1.909 4.424-4.798 0-5.447-6.434-.904-8.967 2.471-1.378 3.029-1.377 5.5.001 5.9 3.29 5.839 11.944-.115 16.389-3.795 2.834-11.453 2.836-15.312.006-11.564-8.483-6.09-29.449 10.179-38.983 6.82-3.997 19.37-8.17 31.635-10.518 9.712-1.86 13.542-2.096 26.363-1.619 16.416.61 24.373 2.045 40.935 7.385 39.855 12.85 72.226 41.775 91.552 81.806 6.758 13.998 11.42 27.465 13.762 39.75 1.156 6.062 2.101 8.75 3.075 8.75 2.075 0 .718-9.059-3.39-22.631-8.764-28.958-23.572-53.738-44.441-74.369-11.855-11.72-22.651-19.517-37.267-26.917-20.711-10.485-40.819-15.814-63.226-16.756-42.376-1.782-75.771 14.523-78.214 38.187-1.07 10.375 4.899 19.173 14.194 20.916 7.676 1.44 15.923-3.574 17.381-10.568 1.052-5.046.337-7.51-3.299-11.365-4.291-4.55-8.473-4.74-12.639-.574-4.14 4.14-4.013 8.442.327 11.088 2.822 1.721 2.961 1.982 1.056 1.985-1.207.002-3.435-1.063-4.952-2.368-2.121-1.824-2.734-3.206-2.655-5.988.344-12.123 14.381-16.795 23.392-7.785 8.985 8.986 6.206 23.434-5.608 29.153-6.681 3.235-16.387 2.576-23.087-1.567-7.064-4.367-10.911-12.153-10.857-21.973.118-21.448 20.622-37.568 56.67-44.556 11.261-2.183 32.737-2.582 45.469-.845 23.31 3.181 47.974 12.758 68.875 26.744 10.743 7.189 28.619 22.342 37.105 31.454 23.518 25.251 43.181 60.832 54.801 99.168 16.882 55.695 14.862 123.215-5.102 170.567-8.842 20.973-14.144 25.073-28.857 22.315-9.782-1.834-17.5-1.753-17.5.185 0 1.143 1.251 1.5 5.25 1.501 2.887.001 8.522.625 12.522 1.388 8.77 1.673 13.344.788 18.682-3.611 4.735-3.903 7.407-8.203 12.426-19.997 6.643-15.607 12.018-36.412 15.315-59.281 1.704-11.823 1.703-52.789-.002-66.5-6.076-48.866-23.726-93.485-52.045-131.566-17.798-23.933-44.224-46.127-70.883-59.532C416.691 63.54 391.416 58.399 361 60.169m-6.241 30.254c-9.562 3.413-11.755 7.274-11.769 20.728-.008 7.851-.409 10.206-2.5 14.698-2.862 6.148-3.018 7.151-1.113 7.151.757 0 2.439-2.363 3.737-5.25 2.239-4.978 2.633-8.357 2.855-24.465.048-3.442 5.654-9.106 10.232-10.339 10.894-2.934 31.491-.183 48.872 6.528 19.94 7.698 35.534 18.087 50.466 33.622 15.021 15.627 20.435 25.092 20.451 35.754.009 5.894-.234 6.594-3.39 9.75-3.233 3.233-3.752 3.4-10.55 3.4-4.453 0-8.262.575-10.1 1.526-3.505 1.812-4.022 4.038-.7 3.013 5.146-1.588 10.415-2.343 12.91-1.85 3.77.744 9.452-1.381 11.853-4.433 1.125-1.429 2.551-4.611 3.171-7.071l1.126-4.472 1.824 3.556c3.583 6.986 6.866 20.623 6.866 28.527 0 9.248-2.224 14.471-8.525 20.017-14.055 12.372-35.955 5.489-35.882-11.278.044-10.028 6.584-17.404 16.182-18.25 9.693-.853 18.171 6.813 18.209 16.465.012 3.104.421 4.25 1.516 4.25 2.082 0 1.991-7.162-.147-11.669-5.571-11.739-19.488-15.768-29.798-8.627-5.793 4.012-9.881 12.236-9.186 18.478 1.104 9.926 7.736 17.444 17.444 19.773 11.93 2.862 26.902-5.788 31.682-18.302 2.618-6.857 1.669-20.399-2.232-31.833-3.388-9.931-12.464-26.794-19.708-36.615-10.661-14.453-28.32-29.612-45.247-38.838-9.88-5.386-26.616-11.523-37.619-13.796-9.231-1.907-25.78-1.986-30.93-.148m-63.678 63.165c-7.061 1.899-10.991 4.406-16.484 10.515-7.563 8.412-10.661 20.476-8.589 33.445 1.349 8.444 3.814 14.209 9.026 21.114 4.181 5.538 4.603 7.505 2.911 13.597-1.829 6.587-3.937 7.24-23.401 7.248-13.245.006-18.432.401-23.27 1.772-8.108 2.297-10.553 2.364-30.774.844-17.529-1.317-66.179-1.095-72.183.329-2.612.62-5.34-.17-15.214-4.408-14.948-6.415-17.82-7.266-20.208-5.988-3.258 1.744-4.182 4.662-2.527 7.981.814 1.63 1.176 2.966.805 2.971s-4.365.432-8.878.951c-9.446 1.086-14.013 3.07-14.863 6.457-1.967 7.836 1.953 10.287 18.73 11.715 6.786.577 12.43 1.139 12.543 1.248s-.393 1.936-1.123 4.061c-1.695 4.928-.695 8.699 2.749 10.372 3.412 1.658 5.356 1.024 11.874-3.873 4.526-3.401 5.947-3.939 10.411-3.939 5.895 0 6.371.582 6.408 7.832.035 6.879 1.591 12.436 4.037 14.418 1.991 1.612 5.986 1.752 50.8 1.772 45.185.02 48.929.153 52.718 1.874 4.807 2.184 8.04 5.968 9.384 10.985 3.388 12.646 9.234 67.119 7.204 67.119-2.934 0-49.34 33.322-71.33 51.219C167.1 437.212 162.632 444.148 162.65 455c.01 5.508 1.882 12.451 12.27 45.5 6.742 21.45 13.605 43.499 15.252 48.997 1.647 5.499 3.438 10.533 3.98 11.186s2.365 1.491 4.05 1.861c2.861.629 2.111 1.164-11.319 8.078-19.394 9.985-23.472 14.88-17.428 20.923l2.454 2.455h30.998c20.159 0 31.832-.379 33.381-1.085 5.469-2.492 6.795-8.635 4.192-19.415-.797-3.3-1.456-6.337-1.464-6.75S242.15 566 246 566c5.791 0 7.365-.365 9.113-2.113 2.973-2.973 2.347-5.505-6.411-25.919l-7.495-17.468-.37-11.5c-.336-10.399-.672-12.139-3.518-18.178-1.73-3.672-5.031-9.453-7.336-12.847-2.304-3.393-3.805-6.532-3.336-6.976s6.928-2.699 14.353-5.012c18.387-5.728 37.346-12.865 50.291-18.931 5.936-2.781 11.933-5.056 13.327-5.056 5.337 0 101.325 33.251 103.194 35.747.982 1.312 1.144 4.035.645 10.824l-.668 9.071 6.052 14.429c17.558 41.865 20.891 49.357 22.37 50.29 1.084.684 4.319.699 9.835.046l8.221-.974-.801 8.533c-1.523 16.241-1.346 17.858 2.31 21.125l3.256 2.909h31.55c18.285 0 32.305-.404 33.347-.962.988-.529 2.349-2.295 3.024-3.925 2.456-5.928.589-7.558-21.896-19.113-11.237-5.775-20.578-10.968-20.757-11.539-.179-.572 1.104-1.472 2.852-2 5.361-1.621 5.489-2.829 1.913-18.077-1.791-7.636-6.335-27.159-10.098-43.384-3.762-16.225-8.04-33.325-9.505-38-3.558-11.349-8.921-21.381-13.549-25.342-3.255-2.787-22.22-13.655-47.413-27.172-3.85-2.065-17.8-8.792-31-14.947l-24-11.192-.306-17.924c-.168-9.857.19-24.673.796-32.923 1.961-26.727 3.531-33.049 8.805-35.452 1.785-.814 16.607-.931 53.767-.426 46.72.634 51.528.549 53.821-.953 3.162-2.072 4.604-7.141 4.611-16.205l.006-7.035 9.25-1.863c11.967-2.409 17.957-4.493 30.536-10.624 7.674-3.74 10.784-5.829 12.247-8.227 2.489-4.084 2.469-5.806-.106-9.08-1.715-2.181-2.877-2.632-6.75-2.619-2.572.008-7.377.667-10.677 1.464-8.483 2.048-8.543 2.028-6.392-2.191 2.535-4.972 2.383-7.889-.563-10.834-3.956-3.957-5.458-3.352-17.045 6.868-4.4 3.88-8.749 7.68-9.664 8.443-1.35 1.126-7.793 1.367-34.214 1.275-18.495-.063-37.323.388-43.6 1.045-9.781 1.024-12.108.944-20.285-.703-9.913-1.995-25.293-2.394-37.288-.966-8.299.988-12.303-.489-15.489-5.716-3.178-5.211-2.626-11.271 1.565-17.166 6.977-9.813 9.486-26.205 5.907-38.603-3.404-11.799-14.33-22.458-25.466-24.846-6.452-1.384-9.192-1.297-15.885.502m-.726 8.859c-4.574 1.99-11.18 8.297-13.6 12.985-2.866 5.55-3.566 18.273-1.412 25.659.867 2.975 3.057 7.62 4.867 10.322a3345 3345 0 0 0 5.035 7.5c2.209 3.276 2.312 11.815.204 16.869-1.999 4.793-6.971 9.907-10.877 11.187-1.69.554-10.047.9-18.572.769-13.451-.206-16.796.077-25.302 2.147-9.184 2.235-10.445 2.312-20 1.225-12.257-1.394-68.136-2.719-72.154-1.71l-2.843.713.73 13.194c.402 7.256 1.032 15.218 1.4 17.693l.669 4.5h96l5.73 2.814c6.864 3.37 11.29 8.409 13.34 15.186 3.153 10.425 8.46 53.281 8.409 67.911l-.021 6.089-14.729 9.766c-8.101 5.371-15.804 10.595-17.119 11.61l-2.39 1.843 11.39 7.559c25.751 17.089 47.173 24.737 69.205 24.709 23.891-.031 45.884-8.515 66.907-25.81 3.728-3.067 6.778-5.85 6.778-6.185s-7.435-3.922-16.523-7.972-17.413-7.987-18.5-8.749c-1.883-1.319-1.976-2.607-1.957-27.078.019-24.917 1.564-47.586 4.02-58.972 1.389-6.441 4.955-10.889 10.805-13.477 4.262-1.885 6.142-1.926 55.283-1.213l50.872.738V248l-21.75-.012c-11.962-.007-30.378.516-40.922 1.161-16.91 1.035-20.097.981-27-.463-12.205-2.551-19.129-2.965-28.328-1.695-11.892 1.643-16.165 1.476-20.64-.807-8.688-4.432-12.581-10.625-12.746-20.274-.105-6.137.178-7.088 3.584-12.037 5.195-7.548 6.903-12.172 7.522-20.359 1.397-18.47-9.971-32.58-26.166-32.475-3.33.022-7.469.655-9.199 1.408M479 167.5c0 .275.225.5.5.5s.5-.225.5-.5-.225-.5-.5-.5-.5.225-.5.5m-22.5 30.342c-4.133 2.527-5.503 4.404-6.158 8.437-2.121 13.072 17.14 20.358 23.141 8.754 5.964-11.534-6.161-23.808-16.983-17.191m-.577 4.081c-4.108 4.108-3.952 8.248.477 12.677 6.544 6.544 15.634 3.156 15.568-5.802-.034-4.625-1.205-6.799-4.652-8.635-3.898-2.076-8.225-1.407-11.393 1.76m1.634 2.3c-.856 1.222-1.557 3.177-1.557 4.345 0 5.249 8.712 7.74 12.164 3.478 2.448-3.024 2.315-4.658-.619-7.591-3.171-3.172-7.853-3.281-9.988-.232m1.928 2.825c-1.292 4.069 4.321 6.908 6.381 3.228 1.369-2.447-.419-5.276-3.334-5.276-1.538 0-2.63.734-3.047 2.048m-436.007 4.747C12.413 217.132 5 228.274 5 239.566c0 2.386 1.743 9.871 3.873 16.636 5.712 18.14 5.684 17.336 1.202 34.864C2.032 322.528-.541 343.53.297 370.904 2.036 427.76 20.787 480.651 55.813 527.5c9.549 12.772 37.756 40.929 50.557 50.467 30.432 22.674 69.304 42.108 106.13 53.059 7.7 2.29 17.009 5.056 20.688 6.147s11.553 4.881 17.5 8.422c17.099 10.181 26.235 12.822 36.14 10.446 7.634-1.831 13.59-6.093 17.096-12.232 5.39-9.437 4.881-18.131-1.553-26.567-3.739-4.901-12.262-8.675-17.648-7.814-11.992 1.918-19.102 13.138-14.259 22.503 4.563 8.823 14.16 10.62 19.764 3.702 3.865-4.772.389-14.084-5.017-13.438-2.708.323-4.404 2.805-1.917 2.805.804 0 1.965.607 2.58 1.348.855 1.03.634 1.788-.936 3.208-2.595 2.349-5.293.959-5.76-2.967-.962-8.088 11.25-9.463 15.256-1.717 3.608 6.977 1.039 15.102-5.75 18.185-14.874 6.753-29.833-7.434-24.239-22.988 3.871-10.761 10.76-15.509 22.555-15.546 6.563-.02 8.187.364 13 3.079 6.6 3.723 11.403 9.649 13.474 16.624 6.804 22.91-12.12 43.443-38.224 41.475-7.519-.567-9.475.484-4.5 2.417 4.073 1.583 16.894.476 23.403-2.021 19.661-7.541 28.871-28.26 20.596-46.334-4.93-10.769-13.923-17.515-24.642-18.487-16.239-1.472-29.44 9.837-29.445 25.224-.002 6.283 2.326 12.373 6 15.695 3.133 2.833 10.608 5.76 14.772 5.783 12.719.071 21.214-12.906 15.624-23.865-3.313-6.494-8.987-8.925-15.11-6.475-5.053 2.021-7.69 7.157-5.897 11.484 2.099 5.069 7.372 6.455 10.949 2.878 2.519-2.519 2.947-2.513 2.282.031-1.223 4.674-8.782 6.545-12.915 3.197-3.082-2.497-4.367-5.521-4.367-10.28 0-3.51.611-4.794 3.799-7.983 6.726-6.725 16.301-6.31 23.284 1.011 9.521 9.983 6.574 25.539-6.156 32.486-10.088 5.506-22.611 3.682-37.427-5.45-13.076-8.06-14.993-8.896-31-13.529-28.331-8.201-46.02-14.966-67.747-25.911-28.035-14.124-51.383-30.491-72.061-50.516C41.76 513.478 15.977 462.932 5.344 399.5c-1.456-8.684-1.834-16.157-1.795-35.5.055-27.42 1.836-42.679 7.467-64 1.671-6.325 3.756-14.947 4.635-19.161 1.541-7.39 1.523-7.908-.527-14.655-1.168-3.847-2.124-7.269-2.124-7.603 0-.335 1.687.5 3.75 1.856 9.077 5.969 20.339 4.924 27.462-2.548 6.205-6.509 7.151-15.126 2.422-22.071-6.704-9.845-18.939-10.097-23.923-.492-1.841 3.546-1.842 3.742-.051 7.408 2.283 4.674 6.522 6.96 9.981 5.384 2.462-1.122 4.089-3.721 3.007-4.804-.33-.329-1.28-.035-2.111.655-2.517 2.089-4.706.473-4.351-3.212.431-4.475 4.602-5.113 7.698-1.177 2.914 3.705 2.659 7.031-.807 10.497-7.67 7.67-20.161-.764-18.815-12.705C18.191 229.129 25.542 223 34.5 223c13.127 0 23.888 14.458 20.57 27.636-.613 2.436-6.032 13.976-12.042 25.646-15.206 29.528-19.17 40.406-24.13 66.218-3.665 19.079-4.449 35.901-2.572 55.264 3.206 33.089 9.408 54.696 24.266 84.539 22.093 44.377 63.017 85.22 93.408 93.225 26.483 6.975 54.151-11.611 51.402-34.528-1.151-9.593-6.538-16.896-15.189-20.589-7.851-3.352-21.166.41-25.995 7.343-8.706 12.502-3.268 28.429 11.032 32.306 7.883 2.138 17.326-2.764 20.293-10.534 5.292-13.856-8.749-27.124-20.814-19.668-4.048 2.502-5.729 5.814-5.729 11.289 0 5.742 5.07 10.853 10.765 10.853 5.03 0 8.952-2.974 9.786-7.422.701-3.734-1.44-8.938-4.096-9.957-7.503-2.879-15.087 4.782-9.626 9.724 3.122 2.826 9.551 1.696 7.669-1.348-.373-.604-1.29-.658-2.309-.135-2.293 1.178-4.189.353-4.189-1.823 0-4.669 6.463-5.273 8.946-.835 1.396 2.496 1.353 2.92-.565 5.5-2.292 3.083-6.935 4.14-10.291 2.344-1.101-.589-2.453-2.702-3.003-4.695-1.447-5.241.735-9.963 5.53-11.966 3.347-1.399 4.085-1.391 7.955.087 5.021 1.918 7.537 5.313 8.183 11.044.927 8.222-5.707 14.867-14.842 14.867-12.231 0-19.525-13.292-13.792-25.135 5.771-11.922 22.835-13.683 32.195-3.322 4.519 5.002 6.065 9.929 5.404 17.218-1.724 19.021-25.295 32.178-47.47 26.497-20.691-5.301-47.481-26.72-69.833-55.832-23.556-30.679-39.364-68.394-45.042-107.458-2.556-17.582-2.346-45.186.464-61.196 4.983-28.395 9.971-42.554 24.88-70.627 4.67-8.793 9.391-18.248 10.492-21.009 7.38-18.518-5.556-38.107-23.915-36.212C22.447 221.325 14 229.766 14 238.59c0 6.395 5.105 14.359 10.527 16.42 12.683 4.822 23.413-9.992 13.362-18.45-3.516-2.959-6.476-3.238-9.78-.924-1.991 1.395-2.255 2.236-1.791 5.698.357 2.659.228 3.562-.371 2.614-1.204-1.902-1.196-6.615.015-8.877.529-.988 2.321-2.36 3.983-3.048 9.117-3.777 18.905 6.278 16.55 17.001-1.718 7.821-12.688 14.066-21.308 12.129C14.486 258.749 8.42 250.635 8.624 239c.134-7.646 2.039-12.515 7.081-18.095 5.68-6.288 10.292-8.205 20.945-8.705 11.051-.519 19.074 1.738 27.728 7.8 3.65 2.556 5.804 3.515 6.256 2.784.995-1.611-4.01-5.418-12.634-9.611-6.941-3.375-8.283-3.67-18-3.965-9.874-.3-10.859-.146-16.522 2.587m467.959 24.301c-1.615 1.702-5.975 5.364-9.687 8.137-6.665 4.978-6.75 5.102-6.75 9.753v4.711l5.75-.896c10.619-1.656 39.712-12.673 37.996-14.389-.251-.251-3.334.222-6.851 1.051-15.348 3.618-21.514.556-17.92-8.898 1.244-3.27 1.025-3.225-2.538.531M104 245.457c0 3.894-3.382 5.278-14.805 6.061-5.668.388-10.104.906-9.858 1.152s5.639.838 11.987 1.317c6.347.478 12.466 1.365 13.596 1.97 2.597 1.39 3.69 5.589 2.367 9.095l-1.019 2.699 4.933-3.067c3.639-2.262 6.488-3.179 10.866-3.495l5.933-.429v-4.88c0-4.452-.206-4.88-2.343-4.88-2.882 0-11.805-3.015-17.455-5.897L104 242.959zm201.73 3.546c-18.889 5.869-36.498 23.747-42.07 42.713-6.955 23.674 2.373 45.384 22.406 52.149 12.75 4.306 23.863 2.15 32.614-6.325l5.503-5.331-.675 3.599c-1.608 8.572-8.849 18.517-17.602 24.174-8.041 5.198-16.256 7.308-26.746 6.871-5.943-.248-8.597.003-8.882.84-1.099 3.225 18.118 3.532 26.971.43 12.303-4.311 21.192-12.43 26.853-24.528 2.7-5.77 3.031-7.492 2.993-15.588-.052-10.842-1.881-15.856-7.627-20.901-5.808-5.099-11.805-7.424-17.692-6.859-11.773 1.132-17.412 13.09-10.209 21.65 3.131 3.722 7.159 4.662 11.749 2.744 3.867-1.616 5.684-4.173 5.684-8.003 0-3.153-4.596-6.948-7.697-6.356-1.234.236-2.005.044-1.714-.426.617-.998 4.529-1.132 6.866-.235 1.969.756 4.545 5.505 4.545 8.379 0 3.551-2.749 7.653-6.043 9.018-9.77 4.047-18.945-2.391-18.953-13.3-.005-6.252 1.864-10.517 6.326-14.434 4.21-3.697 8.273-4.679 16.941-4.094 11.186.755 19.526 6.862 24.797 18.159 5.586 11.974 4.854 24.833-2.26 39.651-5.754 11.986-17.695 23.939-29.808 29.84-10.803 5.262-18.25 7.223-29.308 7.719-4.844.217-9.239.661-9.766.987-4.396 2.716 10.698 3.333 22.866.934 22.594-4.454 44.966-23.776 52.379-45.237 1.863-5.393 2.329-8.845 2.329-17.243 0-9.714-.237-11-3.165-17.18-7.662-16.173-22.363-24.412-37.206-20.851-16.598 3.982-23.691 23.402-12.598 34.495 6.616 6.616 15.708 7.093 22.178 1.164 6.718-6.157 5.391-18.017-2.379-21.263-4.371-1.827-8.331-1.058-11.404 2.214-2.916 3.103-3.09 8.461-.376 11.517 1.945 2.19 1.945 2.192-.182 1.077-2.529-1.325-3.368-3.202-3.368-7.532 0-6.371 6.328-11.358 12.871-10.146 8.935 1.656 12.745 7.067 11.926 16.937-.496 5.988-2.747 9.565-7.797 12.392-8.839 4.947-16.708 3.579-24.555-4.269-6.092-6.091-7.962-11.528-7.206-20.949.977-12.166 10.703-25.122 23.35-31.105 6.106-2.888 16.738-5.456 22.703-5.484 6.167-.028 18.643 2.934 25.551 6.066 7.362 3.338 8.157 3.478 8.157 1.434 0-2.056-8.235-6.027-17.563-8.47-30.342-7.948-60.518 8.283-65.482 35.219-3.559 19.313 13.572 37.445 31.02 32.832 9.837-2.6 15.4-9.822 15.4-19.989v-6.564l1.786 3.977c2.352 5.237 2.276 6.997-.563 13.095-4.14 8.892-12.645 13.682-24.216 13.64-12.846-.047-23.005-6.428-29.065-18.257-2.621-5.117-2.813-6.302-2.764-17 .06-13.065 1.681-18.614 8.688-29.744 7.136-11.335 21.761-22.214 34.009-25.298 2.669-.671 4.75-1.775 4.75-2.518 0-2.225-1.271-2.301-7.27-.437M66 275.935c-10.974 3.35-18.519 10.698-25.038 24.382-9.998 20.987-13.488 39.395-13.404 70.683.05 18.307.39 23.059 2.294 32 6.483 30.455 17.005 55.815 33.031 79.616 15.255 22.656 36.488 43.365 51.936 50.655 10.491 4.951 17.641 2.875 25.659-7.45 4.801-6.182 7.631-8.064 14.871-9.887 2.725-.686 4.651-1.744 4.651-2.553 0-1.905-1.964-1.735-8.712.752-4.633 1.708-7.284 3.686-13.288 9.914-5.739 5.953-8.343 7.937-11.091 8.448-5.028.935-10.349-.762-17.899-5.711-7.85-5.146-25.962-22.452-34.295-32.769C55.17 469.817 40.61 438.413 33.443 405c-3.263-15.215-4.327-38.847-2.525-56.062 1.626-15.524 7.133-36.364 12.566-47.55 7.269-14.965 16.053-22.216 27.987-23.101 5.176-.384 6.807-.047 11.523 2.383 6.943 3.577 11.101 9.265 11.756 16.083 1.165 12.122-10.106 21.056-21.212 16.815-8.618-3.291-11.144-13.281-4.625-18.286 2.526-1.939 3.336-1.476 1.644.941-4.06 5.795-.035 13.777 6.947 13.777 13.318 0 15.912-16.666 3.575-22.96-2.2-1.122-4.908-2.04-6.019-2.04-3.806 0-9.663 3.059-11.362 5.934-2.622 4.439-1.958 5.929 1.079 2.417 3.24-3.747 6.149-5.351 9.707-5.351 3.398 0 7.985 2.404 9.955 5.217 1.875 2.676 2.045 8.745.311 11.096-2.759 3.74-10.99 3.83-12.408.136-.337-.88-.084-3.365.562-5.524 1.335-4.454 4.27-5.337 6.138-1.847 1.661 3.104.503 5.097-2.52 4.338-1.879-.471-2.522-.24-2.522.908 0 2.045 3.428 3.053 5.895 1.732 6.817-3.648.06-14.303-7.955-12.543-8.19 1.799-11.694 9.232-7.974 16.916 8.249 17.04 34.162 8.625 34.012-11.045-.027-3.542-3.339-11.054-6.29-14.265-5.51-5.998-18.069-9.51-25.688-7.184m-10.52 22.157c-1.69 7.693 2.296 17.399 9.113 22.189C69.365 323.635 77 325.16 77 322.759c0-.97-1.359-1.721-3.829-2.116-9.414-1.505-15.669-9.891-14.838-19.893.361-4.349.154-5.75-.848-5.75-.73 0-1.632 1.392-2.005 3.092m243.27 15.597c-3.377.883-1.011 6.311 2.75 6.311 3.287 0 5.062-3.295 2.927-5.431-1.581-1.58-2.469-1.718-5.677-.88m85.75 95.867c-15.308 13.715-27.77 21.249-44.32 26.793-5.676 1.902-10.489 3.626-10.695 3.832s14.469 5.451 32.611 11.656c34.492 11.796 45.239 15.842 49.511 18.641 4.227 2.77 5.732 7.848 4.986 16.828-.742 8.927-1.149 7.701 15.333 46.194l8.992 21 3.291-.293c3.347-.299 29.574-3.828 35.591-4.789 2.516-.402 3.18-.93 2.797-2.223-.277-.932-3.47-14.52-7.097-30.195-11.205-48.439-13.456-57.153-17.022-65.898-3.616-8.87-6.586-12.798-12.58-16.635-9.377-6.002-53.338-29.481-55.102-29.429-.713.022-3.546 2.055-6.296 4.518m-177.645 6.596c-24.724 18.796-30.981 24.337-33.938 30.058-3.521 6.813-2.722 11.339 8.225 46.612 14.168 45.65 16.502 53.119 18.026 57.678l1.337 4 13.498 1.154c12.175 1.04 33.997 2.156 33.997 1.738 0-.092-2.292-5.505-5.094-12.029-10.519-24.492-9.904-22.413-9.93-33.593-.027-11.768-1.698-17.054-8.621-27.27-4.913-7.25-7.355-11.877-7.355-13.935 0-.843 1.238-2.858 2.75-4.476 2.174-2.326 6.104-4.021 18.75-8.084 20.852-6.699 31.25-10.468 40.726-14.761l7.726-3.5-10.185-3.418c-14.709-4.934-29.081-12.182-43.342-21.857-6.866-4.658-12.648-8.469-12.849-8.469s-6.376 4.569-13.721 10.152m258.933 143.574-3.713.39-.005 6.192c-.002 3.406-.429 8.667-.948 11.692s-.616 5.845-.216 6.267c.4.421 12.847.646 27.661.5l26.933-.267-16.848-8.5c-15.306-7.722-19.587-10.531-23.441-15.378-1.27-1.597-2.046-1.671-9.423-.896m-255.459 7.104c-1.745 1.476-9.724 6.056-17.732 10.177s-14.568 7.83-14.578 8.243c-.011.413 12.37.75 27.512.75 23.227 0 27.619-.228 28.093-1.461.561-1.463-2.306-16.456-3.494-18.272-.346-.53-4.23-1.224-8.63-1.543-7.629-.552-8.147-.455-11.171 2.106M288 628.5c0 .275.225.5.5.5s.5-.225.5-.5-.225-.5-.5-.5-.5.225-.5.5"/></svg>