<?xml version="1.0" encoding="UTF-8" standalone="no"?>
<!-- Created with Inkscape (http://www.inkscape.org/) -->

<svg
   class="{{ class | default('') }}"
   version="1.1"
   id="svg1"
   viewBox="0 0 572.61084 661.69244"
   xmlns="http://www.w3.org/2000/svg"
   xmlns:svg="http://www.w3.org/2000/svg">
  <defs
     id="defs1" />
  <g
     id="g1"
     transform="translate(-120,-279.10431)">
    <path
       style="fill:currentColor"
       d="M 133.7175,939.96255 C 124.64674,937.69683 120,933.1902 120,926.65868 c 0,-6.26973 9.26511,-21.14427 19.26276,-30.92513 6.07348,-5.94178 7.76262,-8.17374 7.18957,-9.5 -0.41196,-0.95345 -1.20665,-3.80033 -1.76596,-6.32639 -1.63898,-7.40218 1.05839,-11.52982 20.76766,-31.77956 9.43641,-9.69518 22.37114,-24.1526 28.74385,-32.1276 17.72976,-22.18757 27.23374,-30.81067 45.35024,-41.14694 5.08779,-2.90281 7.8277,-5.25351 9.851,-8.45167 1.83727,-2.90409 4.74902,-5.55476 8.45188,-7.69405 4.21058,-2.43262 6.62515,-4.78428 9.48257,-9.23549 C 284.83308,722.21155 296,704.36618 296,703.66128 c 0,-0.46238 -0.9696,-1.62583 -2.15467,-2.58544 l -2.15468,-1.74475 5.03242,-6.5658 C 308.93455,676.83293 320.79164,655.22317 324.5644,642.02394 327.48805,631.79536 333.76175,616 334.90075,616 c 0.3854,0 1.73558,2.1375 3.00041,4.75 7.98444,16.49179 26.9723,35.11857 45.10639,44.24865 6.71585,3.38127 17.90087,7.42626 18.60041,6.72672 0.14731,-0.14731 -2.66958,-1.79081 -6.25975,-3.65222 -33.39181,-17.31283 -36.49239,-60.48383 -6.3462,-88.36124 8.8698,-8.20226 18.80427,-13.73612 35.1878,-19.60087 19.68936,-7.04813 26.8607,-11.11164 36.33117,-20.58642 12.02853,-12.03398 17.72744,-25.4063 17.73748,-41.62043 0.008,-13.44666 -5.03956,-24.90231 -15.64951,-35.51494 -12.53302,-12.53621 -24.44621,-16.89871 -44.10895,-16.15233 -10.41869,0.39549 -13.35234,0.9199 -22.26248,3.97959 -17.71386,6.08284 -34.85061,18.04478 -45.68125,31.88681 L 345,489.20447 l 2e-4,-9.35223 c 3.2e-4,-15.39139 5.59429,-45.21672 10.15888,-54.16405 3.02793,-5.93524 10.33401,-12.37116 22.80196,-20.08622 17.8591,-11.05106 18.7277,-11.82033 22.45689,-19.88864 1.83371,-3.96733 4.25296,-7.96485 5.3761,-8.88338 1.41138,-1.15425 2.2655,-3.45823 2.76546,-7.4598 0.83066,-6.64837 -0.48458,-12.86211 -5.68749,-26.87015 -2.96072,-7.97125 -3.34449,-10.14305 -3.35741,-19 -0.025,-17.12293 6.15258,-30.06078 18.22752,-38.17439 7.72065,-5.18779 14.59001,-6.74697 26.75789,-6.07336 21.32353,1.18045 43.92042,14.33077 43.81434,25.49788 -0.0196,2.06243 0.60365,8.7774 1.38498,14.92217 1.38041,10.85618 1.36076,11.2896 -0.69443,15.31811 -2.41751,4.73872 -2.01467,6.94362 3.15702,17.27958 3.32357,6.64237 2.79752,9.14074 -2.15359,10.22818 -2.7836,0.61138 -3.00832,0.98654 -3.00832,5.02227 0,2.39884 -0.38965,4.60234 -0.86589,4.89668 -0.47624,0.29433 -0.66788,1.57095 -0.42587,2.83694 0.28219,1.47622 -0.30391,2.97504 -1.63411,4.17886 -1.47674,1.33642 -2.07413,3.09661 -2.07413,6.11128 0,2.68369 -0.70145,5.09873 -1.91553,6.59502 -1.75056,2.15747 -2.71942,2.37071 -11.25,2.47609 -12.19491,0.15065 -11.3629,-0.0732 -13.10618,3.52628 -1.47756,3.05082 -1.42101,3.28149 1.95707,7.98353 3.92001,5.45637 5.8811,6.25589 19.49176,7.94656 13.11669,1.62932 27.10313,9.22375 38.32288,20.80874 6.44266,6.65239 19.93323,16.11958 22.97011,16.11958 1.01979,0 3.84154,1.16467 6.27054,2.58816 2.429,1.42349 4.56442,2.43599 4.74537,2.25 0.18096,-0.18599 1.49622,-2.98297 2.92279,-6.21552 l 2.59378,-5.87737 -3.44472,-3.8129 c -4.64742,-5.14414 -6.44489,-8.8745 -8.09919,-16.80855 -0.76765,-3.68167 -2.05169,-8.55315 -2.85343,-10.82551 -2.48374,-7.03966 -2.9876,-12.73609 -1.25382,-14.17501 1.06742,-0.88588 2.07323,-0.9664 3.37423,-0.27012 2.1514,1.15139 3.41633,3.43566 6.34032,11.44962 1.19083,3.26377 2.62409,5.63712 3.27562,5.42415 1.97289,-0.64488 3.46534,-9.59275 4.18682,-25.10163 l 0.69196,-14.87468 3.42818,-3.32921 C 564.20809,367.96466 567,367.79049 567,371.0252 c 0,3.12161 1.14429,4.9748 3.07181,4.9748 2.18853,0 3.48555,2.12361 4.4558,7.29551 0.39124,2.08546 1.52854,4.19936 2.5548,4.74859 2.20346,1.17926 3.22526,4.80826 5.47812,19.4559 1.80676,11.74717 1.53346,21.67126 -0.9173,33.30894 -1.21297,5.75989 -1.16792,6.58664 0.51764,9.5 1.01543,1.75508 3.06338,5.55356 4.551,8.44106 1.48762,2.8875 3.30837,5.25 4.04611,5.25 2.90577,0 7.03848,-3.18039 13.57718,-10.44855 3.75934,-4.17873 8.48434,-8.42779 10.5,-9.44235 3.62999,-1.82711 21.71523,-9.1091 22.62298,-9.1091 0.25932,0 0.93571,0.8674 1.50308,1.92754 1.4214,2.6559 -2.64919,7.37391 -9.2463,10.71692 -3.76204,1.90637 -4.67157,2.76961 -3.61974,3.43553 0.77265,0.48916 9.8168,0.89628 20.09812,0.9047 17.40009,0.0143 18.78792,0.15042 20.06121,1.96828 0.75235,1.07414 2.57787,2.413 4.0567,2.97525 1.47884,0.56225 2.68879,1.76931 2.68879,2.68236 0,2.51949 -4.52946,6.18563 -9.1941,7.44168 -2.29135,0.617 -5.32255,2.35924 -6.736,3.87164 -3.15112,3.37175 -25.0172,10.78226 -41.5699,14.08823 -9.23683,1.84482 -26.23942,6.50686 -27.30792,7.48772 -0.16936,0.15546 -0.94361,5.12558 -1.72055,11.0447 -1.78786,13.62073 -3.68147,19.29988 -7.74396,23.22511 -4.29592,4.15076 -9.52828,5.17375 -23.06543,4.50957 -10.54379,-0.51731 -11.54772,-0.39326 -18.12233,2.23928 -10.04238,4.02106 -13.15331,4.51085 -21.38941,3.36757 -4.04227,-0.56112 -7.49923,-0.87059 -7.68212,-0.6877 -0.18288,0.18289 -1.05144,9.77557 -1.93011,21.31707 -0.87868,11.5415 -2.90751,32.90955 -4.50852,47.48455 -3.73312,33.98505 -3.83925,36 -1.89621,36 0.6234,0 4.22762,1.57687 8.00938,3.50417 3.78177,1.92729 12.83422,5.29536 20.11656,7.4846 8.7376,2.62673 13.82571,4.6911 14.96103,6.07007 0.94622,1.1493 7.9374,4.89829 15.53596,8.3311 16.0316,7.2426 27.85435,14.01843 48.74363,27.93584 22.73599,15.14777 26.38601,18.17284 29.05488,24.08018 2.48439,5.499 4.37904,18.26764 6.91376,46.59404 2.92039,32.63637 3.64164,44.02347 4.99998,78.93967 1.26329,32.473 1.24345,35.55038 -0.23618,36.63232 -0.88843,0.64963 -6.06674,2.91544 -11.50734,5.03511 -5.44061,2.11968 -10.11825,4.22001 -10.39475,4.66741 -1.10144,1.78216 3.03674,5.88172 8.94,8.85659 3.42631,1.72664 8.58556,4.6437 11.46502,6.48234 7.86792,5.02399 16.41854,9.22893 30.16079,14.83217 13.72835,5.59758 17.26684,8.51279 15.14505,12.47738 -0.63955,1.19501 -2.28975,2.6012 -3.66711,3.12488 -3.30464,1.25642 -29.36452,1.17098 -41.3741,-0.13565 -5.225,-0.56848 -22.02705,-1.34378 -37.3379,-1.72291 L 581.8242,933.5 l -2.54089,-2.9555 c -2.34349,-2.72587 -2.49947,-3.50282 -2.00757,-10 0.29333,-3.87447 1.41958,-9.7445 2.50277,-13.0445 1.08319,-3.3 2.22709,-7.39848 2.54201,-9.10773 0.53707,-2.91502 0.32887,-3.18074 -3.35766,-4.28525 -2.16162,-0.64764 -4.34587,-1.95416 -4.85388,-2.90339 -0.50801,-0.94923 -1.69539,-9.00586 -2.63862,-17.90363 -1.61221,-15.20842 -1.61376,-16.61583 -0.0259,-23.48888 5.14569,-22.27289 5.09862,-23.9317 -0.94709,-33.38267 -7.80088,-12.19473 -9.70931,-17.22327 -10.37484,-27.33663 L 559.5,779.63158 552.82511,778.00723 C 546.25387,776.40811 544.07894,775.22277 521.5,760.93511 516,757.45478 503.33762,750.4124 493.36138,745.28537 l -18.13863,-9.32188 -8.86137,2.89815 c -13.91906,4.55229 -27.30141,4.29871 -51.07382,-0.96779 l -9.21244,-2.04091 -8.28756,6.30556 c -36.00381,27.3934 -98.38863,84.41365 -157.70415,144.14292 l -30.58806,30.80143 -4.49767,-0.65084 c -8.0375,-1.16305 -22.38544,-4.6893 -26.82703,-6.59319 C 175.7856,908.83647 173.42797,908 172.93149,908 c -0.49648,0 -2.32574,2.8125 -4.06501,6.25 -3.00412,5.93737 -3.10702,6.51498 -2.05722,11.54754 1.5096,7.23668 0.37369,9.78259 -5.55521,12.45091 -5.36993,2.41675 -20.8626,3.38114 -27.53655,1.7141 z M 427.49309,640.89742 c 2.67284,-0.67303 5.75414,-2.47798 7.90917,-4.63301 10.51904,-10.51905 5.2679,-27.13678 -9.68973,-30.664 -6.65936,-1.57037 -15.50359,3.52883 -18.83287,10.85822 -2.32543,5.11943 -2.32257,8.98654 0.0104,14.04137 2.31225,5.00996 5.81357,8.27587 10.76515,10.04135 4.76505,1.69897 4.53747,1.69074 9.8379,0.35607 z M 417.24704,515.66788 c -4.21295,-1.52818 -9.17185,-6.24368 -10.88977,-10.35524 -3.5572,-8.51358 0.26894,-18.42258 8.84307,-22.90192 4.31486,-2.25419 12.90403,-1.81497 16.87798,0.86308 10.08507,6.79632 11.48133,18.67345 3.26446,27.76855 -4.97152,5.50287 -11.25159,7.10815 -18.09574,4.62553 z"
       id="path1" />
  </g>
</svg>
