<?xml version="1.0" encoding="UTF-8" standalone="no"?>
<svg
   version="1.1"
   style="display: block;"
   viewBox="0 0 2048 2048"
   width="1024"
   height="1024"
   preserveAspectRatio="none"
   id="svg30"
   sodipodi:docname="da-vinci3_semitransp.svg"
   inkscape:version="1.4.2 (f4327f4, 2025-05-13)"
   xmlns:inkscape="http://www.inkscape.org/namespaces/inkscape"
   xmlns:sodipodi="http://sodipodi.sourceforge.net/DTD/sodipodi-0.dtd"
   xmlns="http://www.w3.org/2000/svg"
   xmlns:svg="http://www.w3.org/2000/svg">
  <sodipodi:namedview
     id="namedview30"
     pagecolor="#ffffff"
     bordercolor="#000000"
     borderopacity="0.25"
     inkscape:showpageshadow="2"
     inkscape:pageopacity="0.0"
     inkscape:pagecheckerboard="0"
     inkscape:deskcolor="#d1d1d1"
     inkscape:zoom="0.75488281"
     inkscape:cx="343.09961"
     inkscape:cy="406.02329"
     inkscape:window-width="1920"
     inkscape:window-height="991"
     inkscape:window-x="-9"
     inkscape:window-y="-9"
     inkscape:window-maximized="1"
     inkscape:current-layer="svg30" />
  <defs
     id="defs2">
    <linearGradient
       id="Gradient1"
       gradientUnits="userSpaceOnUse"
       x1="1124.8"
       y1="1215.6"
       x2="642.713"
       y2="857.561">
      <stop
         class="stop0"
         offset="0"
         stop-opacity="1"
         stop-color="rgb(153,196,122)"
         id="stop1" />
      <stop
         class="stop1"
         offset="1"
         stop-opacity="1"
         stop-color="rgb(208,227,181)"
         id="stop2" />
    </linearGradient>
  </defs>
  <path
     transform="translate(0,0)"
     fill="rgb(85,147,70)"
     d="M 993.434 196.413 C 994.316 196.354 995.199 196.303 996.082 196.26 C 1019.89 195.056 1049.6 196.018 1073.36 197.427 C 1257.45 208.493 1432.46 281.198 1570.2 403.834 C 1735.05 553.276 1835.03 748.938 1845.61 972.59 C 1855.07 1183.9 1780.51 1390.36 1638.21 1546.85 C 1484.14 1715.39 1285.83 1809.74 1057.25 1819.99 C 1007.4 1820.41 966.138 1819.9 916.553 1813.75 C 757.012 1793.25 607.086 1726.06 485.601 1620.64 C 320.159 1476.69 217.435 1281.41 202.788 1061.52 C 189.629 850.721 260.016 643.221 398.713 483.936 C 524.392 338.415 696.563 240.877 885.99 207.883 C 922.4 201.568 956.713 198.799 993.434 196.413 z"
     id="path3" />
  <path
     transform="translate(0,0)"
     fill="rgb(0,1,0)"
     d="M 988.708 290.583 C 1128.23 283.341 1266.83 316.892 1387.59 387.135 C 1732.66 589.158 1857.68 1020.34 1653.06 1368.37 C 1554.57 1534.61 1394.75 1655.56 1208 1705.18 C 1205.68 1708.6 1204.15 1710.34 1201.53 1713.39 C 1192.03 1724.48 1174.18 1719.04 1161.5 1721.4 C 1153.72 1722.85 1145.58 1726.49 1137.16 1727.24 C 1131.91 1727.71 1121.21 1723.66 1117.25 1723.97 C 1096.29 1725.61 1075.56 1727.66 1054.5 1728.06 C 1038.42 1728.8 1022.39 1728.37 1006.25 1730.07 C 1002.38 1730.48 994.794 1728.52 989.681 1728.58 C 988.301 1729.49 984.829 1731.92 983.237 1731.85 C 973.804 1730.75 961.249 1730.98 952.143 1728.97 C 914.091 1720.6 873.226 1714.67 835.788 1704.58 C 722.057 1673.5 617.514 1615.42 531.048 1535.27 C 235.048 1261.77 215.798 815.451 491.755 521.833 C 619.146 386.288 802.129 297.748 988.708 290.583 z"
     id="path4" />
  <path
     transform="translate(0,0)"
     fill="rgb(255,255,255)"
     d="M 1009.33 296.455 C 1145.2 296.669 1261.77 323.246 1380.76 391.362 C 1518.92 470.044 1627.36 591.98 1689.38 738.376 C 1700.71 765.114 1711.54 793.383 1719.13 821.46 C 1769.01 1002.09 1744.51 1195.18 1651.08 1357.63 C 1553.52 1525.96 1393.2 1648.74 1205.26 1699.05 C 1194.98 1693.73 1193.84 1695.8 1183.39 1694.21 C 1175.72 1693.04 1165.44 1688.87 1157.63 1687.29 C 1085.46 1672.74 1082.54 1606.91 1087.12 1546.17 C 1088.93 1522.08 1082.63 1489.2 1086.55 1463.97 C 1090.28 1440.04 1108.68 1418.81 1107.11 1393.98 C 1106.7 1386.05 1104.22 1370.67 1105.81 1363.61 C 1109.78 1345.94 1117.82 1329.7 1121.34 1311.75 C 1130.41 1265.52 1137.76 1218.7 1138.02 1171.5 C 1138.13 1151.35 1135.3 1131.15 1134.28 1111.05 C 1133.05 1071.52 1136.28 1062.2 1120.25 1025.36 C 1130.02 1009.27 1119.37 978.115 1114.39 961.185 C 1124.32 942.904 1125.13 934.91 1131.69 915.431 C 1136.54 902.608 1143.3 890.452 1146.13 876.933 C 1149.07 862.894 1148.2 847.983 1151.58 834.051 C 1155.94 828.941 1157.94 827.498 1163.62 823.971 C 1189.13 823.762 1210.88 828.342 1237.6 823.354 C 1261.7 818.858 1284.64 808.534 1308.58 806.051 C 1318.7 805.001 1332.37 806.809 1342.71 806.814 C 1366.06 806.824 1399.74 808.921 1422.52 805.071 C 1452.87 799.942 1485.47 786.986 1516.12 780.869 C 1530.33 778.031 1537.8 783.063 1550.09 782.696 C 1560.13 782.397 1575.78 773.393 1586.83 771.371 C 1598.98 769.149 1603.02 773.072 1614.48 772.256 C 1619.57 771.893 1624.88 771.15 1628.35 767.146 C 1629.29 756.713 1608.65 754.244 1600.86 751.778 C 1611.51 750.475 1641.37 753.063 1647.15 746.222 C 1649.82 732.272 1659.3 736.72 1658.07 726.998 C 1652.71 719.6 1635.47 718.359 1626.15 716.85 C 1629.49 716.357 1632.82 715.758 1636.12 715.056 C 1641.48 713.898 1651.44 711.247 1648.87 704.325 C 1641.15 697.392 1630.63 698.281 1620.46 697.4 C 1594.19 695.124 1562.63 701.897 1539.49 714.434 C 1536.49 716.062 1524.82 726.743 1521.86 729.396 C 1505.98 730.023 1481.94 735.694 1468.23 734.879 C 1410.94 731.477 1374.97 729.186 1319.62 750.708 C 1288.02 742.541 1255.99 745.63 1224.92 754.244 C 1188.92 739.285 1156.6 736.515 1118.71 745.903 C 1084.33 731.94 1066.19 743.398 1063.76 702.001 C 1071.98 692.077 1076.69 674.313 1081.74 662.067 C 1085.5 649.144 1086.49 632.642 1086.71 619.279 C 1087.44 575.04 1058.26 554.85 1018.47 554.919 C 967.478 558.886 954.888 594.515 961.35 637.744 C 963.761 653.879 964.285 661.932 971.752 677.637 C 976.62 687.874 974.66 691.196 983.118 700.777 C 983.165 718.023 983.668 731.247 963.18 735.225 C 951.725 737.449 940.393 741.014 929.883 746.061 C 888.219 736.687 862.529 740.285 823.007 755.554 C 788.418 745.252 764.99 744.661 729.786 751.461 C 675.091 728.119 634.906 732.054 578.32 734.159 C 564.48 734.674 541.283 728.907 525.226 728.377 C 522.173 725.721 519.085 723.105 515.962 720.531 C 488.561 698.148 448.363 694.098 414.718 698.678 C 408.438 699.533 403.639 700.197 399.509 705.32 C 397.729 714.765 411.848 715.897 418.488 716.913 C 409.638 718.409 393.693 719.02 389.776 727.538 C 390.907 736.593 396.857 733.749 400.044 739.672 C 400.124 742.83 399.901 744.012 401.399 746.826 C 409.036 752.953 434.605 750.83 446.618 751.636 C 439.026 753.518 418.901 757.859 420.659 768.33 C 429.495 776.158 447.649 768.289 459.674 770.432 C 471.974 772.623 480.193 777.822 491.971 780.727 C 504.204 783.744 516.394 777.328 529.262 779.757 C 562.758 786.078 597.535 801.432 630.955 805.591 C 654.74 807.774 679.584 807.707 703.391 807.25 C 724.704 806.84 741.434 804.768 762.12 811.236 C 778.048 816.216 795.597 820.906 811.989 824.198 C 835.247 828.868 859.672 824.175 882.989 824.915 L 884.469 824.969 C 890.525 828.453 892.169 830.038 896.435 835.577 C 899.254 849.085 898.935 863.346 902.037 877.951 C 905.188 892.785 912.859 902.448 916.581 914.367 C 922.585 933.594 924.811 944.327 933.225 963.328 C 926.024 985.669 918.084 1004.81 927.055 1027.47 C 913.725 1046.64 913.295 1068.81 909.905 1090.57 C 904.295 1126.59 900.245 1161.96 900.02 1198.52 C 899.819 1231.25 903.451 1264.29 905.948 1296.86 C 907.514 1317.28 913.309 1334.87 914.612 1354.03 C 915.105 1364.16 910.985 1378.83 911.475 1388.53 C 913.773 1433.98 886.663 1474.98 889.331 1520.55 C 889.942 1530.98 898.909 1549.6 901.185 1560.74 C 904.134 1575.18 906.036 1589.81 910.358 1603.81 C 915.913 1617.32 927.136 1634.41 931.889 1648.26 C 937.354 1664.19 927.586 1667.61 940.221 1683.26 C 934.57 1696.42 929.207 1703.31 921.864 1715.45 C 897.018 1711.26 879.048 1708.52 854.314 1702.33 C 736.979 1672.95 628.775 1614.89 539.413 1533.38 C 373.293 1379.56 286.166 1174.47 306.365 947.091 C 320.626 790.337 387.17 642.928 495.305 528.55 C 631.501 381.932 810.239 303.686 1009.33 296.455 z"
     id="path5"
     style="fill:#ffffff;fill-opacity:1" />
  <path
     fill="rgb(85,147,70)"
     d="M 988.259 704.822 C 1001.48 715.518 1006.77 720.654 1024.04 720.734 C 1040.1 719.793 1045.48 717.321 1057.75 706.206 C 1058.73 717.623 1058.83 723.685 1064.79 733.876 C 1080.78 742.663 1099.58 743.87 1117.13 752.206 C 1156.38 743.138 1179.26 745.053 1217.96 757.171 C 1213.06 759.573 1204.51 762.927 1202.61 767.921 L 1203.6 769.715 C 1205.19 769.646 1224.68 761.034 1229.61 759.342 C 1254.83 750.693 1325 745.986 1342.49 770.813 C 1339.94 779.103 1341.15 798.561 1338.32 800.295 C 1327.53 799.686 1312.7 798.342 1302.62 800.398 C 1267.08 807.646 1236.38 822.243 1199.02 819.218 C 1180.65 817.731 1150.97 812.841 1144.85 835.736 C 1141.32 847.75 1142.95 862.688 1140.27 875.04 C 1137.19 889.252 1130.02 902.233 1124.92 915.681 C 1119.08 931.076 1117.5 947.196 1107.13 960.525 C 1114.75 984.231 1122.41 1002.7 1114.82 1027.22 C 1131.18 1061.93 1127 1077.73 1128.23 1115.61 C 1128.79 1132.75 1131.87 1151.75 1131.98 1169.67 C 1132.4 1219.09 1123.77 1267.74 1114.15 1316.02 C 1111.66 1328.53 1101.9 1350.39 1101.01 1360.67 C 1098.26 1392.54 1104.66 1399.67 1090.73 1430.45 C 1083.85 1429.46 1063.48 1425.12 1058.9 1428.15 C 1061.72 1435.23 1082.34 1435.17 1089.55 1433.57 C 1088.93 1436.58 1088.92 1436.89 1087.66 1439.65 C 1077.11 1438.37 1029.39 1436.58 1023.47 1430.21 C 1031.36 1378.88 1032.59 1333.63 1023.79 1282.65 C 1020.23 1262.02 1030.25 1191.83 1023.22 1178.64 C 1016.66 1186.1 1014.59 1208.71 1012.79 1219.19 C 1009.49 1238.29 1005.33 1257.11 1001.29 1275.94 C 997.508 1293.55 985.583 1316.45 987.924 1333.54 C 993.169 1371.83 989.337 1388.37 974.4 1423.14 C 966.042 1424.92 958.167 1426.39 949.633 1424.78 L 945.595 1421.49 L 943.335 1422.03 C 942.654 1424.83 942.592 1423.47 943.597 1426.23 L 944.889 1427.21 L 945.257 1428.28 C 939.921 1431.65 920.777 1426.34 915.668 1422.72 C 917.218 1416.63 916.993 1396.53 917.396 1388.85 C 917.893 1379.37 921.607 1355.32 920.378 1347.19 C 917.859 1332.89 914.771 1319.01 913.126 1304.57 C 905.403 1236.73 901.937 1171.58 913.881 1103.98 C 919.432 1072.57 917.703 1058.3 933.052 1028.12 C 925.89 1004.11 932.86 986.692 938.884 963.015 C 936.704 955.99 933.283 948.146 930.861 940.536 C 928.264 932.376 925.29 918.747 922.196 911.278 C 916.39 897.263 911.399 891.589 907.732 875.944 C 904.094 860.422 906.531 841.368 898.837 828.142 C 896.5 824.922 888.999 819.736 885.157 819.437 C 860.28 817.499 837.178 822.805 812.067 818.05 C 786.664 813.239 762.753 803.965 737.361 799.35 C 725.295 790.891 714.221 788.022 702.073 776.624 C 721.69 740.696 812.314 752.366 841.708 769.516 C 843.089 770.322 843.321 769.7 844.774 768.844 L 844.6 767.158 C 841.222 763.378 835.586 760.946 830.951 758.483 C 867.827 745.613 895.069 743.143 932.401 753.252 C 956.838 732.439 990.426 754.496 988.259 704.822 z"
     id="path6"
     transform="translate(0,0)" />
  <path
     fill="url(#Gradient1)"
     d="M 830.951 758.483 C 867.827 745.613 895.069 743.143 932.401 753.252 C 936.749 754.944 939.895 756.202 944.04 758.349 C 949.01 760.924 962.149 772.596 966.066 772.848 C 975.335 775.034 991.278 770.806 1001.29 769.381 C 1011.52 775.329 1012.89 778.329 1024.26 777.919 L 1023.75 923.138 C 1023.7 945.553 1022.6 981.463 1024.06 1003.26 C 1020.63 1004.27 1018.3 1007.43 1018.35 1011 C 1018.4 1014.57 1020.83 1017.67 1024.28 1018.57 C 1023.07 1027.44 1023.72 1052.86 1023.75 1063.22 L 1023.92 1149.07 C 1023.92 1153.88 1024.33 1175.4 1023.22 1178.64 C 1016.66 1186.1 1014.59 1208.71 1012.79 1219.19 C 1009.49 1238.29 1005.33 1257.11 1001.29 1275.94 C 997.508 1293.55 985.583 1316.45 987.924 1333.54 C 993.169 1371.83 989.337 1388.37 974.4 1423.14 C 966.042 1424.92 958.167 1426.39 949.633 1424.78 L 945.595 1421.49 L 943.335 1422.03 C 942.654 1424.83 942.592 1423.47 943.597 1426.23 L 944.889 1427.21 L 945.257 1428.28 C 939.921 1431.65 920.777 1426.34 915.668 1422.72 C 917.218 1416.63 916.993 1396.53 917.396 1388.85 C 917.893 1379.37 921.607 1355.32 920.378 1347.19 C 917.859 1332.89 914.771 1319.01 913.126 1304.57 C 905.403 1236.73 901.937 1171.58 913.881 1103.98 C 919.432 1072.57 917.703 1058.3 933.052 1028.12 C 925.89 1004.11 932.86 986.692 938.884 963.015 C 936.704 955.99 933.283 948.146 930.861 940.536 C 928.264 932.376 925.29 918.747 922.196 911.278 C 916.39 897.263 911.399 891.589 907.732 875.944 C 904.094 860.422 906.531 841.368 898.837 828.142 C 896.5 824.922 888.999 819.736 885.157 819.437 C 860.28 817.499 837.178 822.805 812.067 818.05 C 786.664 813.239 762.753 803.965 737.361 799.35 C 725.295 790.891 714.221 788.022 702.073 776.624 C 721.69 740.696 812.314 752.366 841.708 769.516 C 843.089 770.322 843.321 769.7 844.774 768.844 L 844.6 767.158 C 841.222 763.378 835.586 760.946 830.951 758.483 z"
     id="path7"
     transform="translate(0,0)" />
  <path
     transform="translate(0,0)"
     fill="rgb(0,1,0)"
     d="M 865.263 790.897 C 874.332 793.563 893.973 807.037 901.044 814.448 C 907.475 821.19 923.405 846.081 923.111 854.865 C 913.999 851.259 905.042 825.56 896.354 817.607 C 886.96 809.009 875.591 804.281 866.318 795.8 C 864.537 794.171 865.119 793.206 865.263 790.897 z"
     id="path8" />
  <path
     transform="translate(0,0)"
     fill="rgb(0,1,0)"
     d="M 935.477 1391.25 C 943.014 1393.38 940.122 1405.38 946.098 1411.22 C 948.045 1413.12 947.328 1412.24 947.849 1415.12 C 935.772 1414.23 935.262 1400.51 935.477 1391.25 z"
     id="path9" />
  <path
     transform="translate(0,0)"
     fill="rgb(178,207,150)"
     d="M 988.259 704.822 C 1001.48 715.518 1006.77 720.654 1024.04 720.734 C 1024.01 728.096 1024.48 767.887 1022.77 771.743 C 1019.36 758.157 1013.97 738.838 1003.67 728.911 L 1002.63 729.301 C 1003.22 735.703 1015.88 763.309 1019.29 773.396 C 1016.97 772.163 1005.62 765.687 1004.73 765.526 C 996.217 763.969 970.697 765.642 966.066 772.848 C 962.149 772.596 949.01 760.924 944.04 758.349 C 939.895 756.202 936.749 754.944 932.401 753.252 C 956.838 732.439 990.426 754.496 988.259 704.822 z"
     id="path11" />
  <path
     transform="translate(0,0)"
     fill="rgb(0,1,0)"
     d="M 1019.29 773.396 C 1015.88 763.309 1003.22 735.703 1002.63 729.301 L 1003.67 728.911 C 1013.97 738.838 1019.36 758.157 1022.77 771.743 C 1024.44 771.884 1025.57 772.386 1026.14 771.336 C 1030.65 763.122 1035.97 732.404 1044.33 728.968 C 1046.55 733.798 1031.89 767.288 1029.3 775.073 L 1041.15 765.313 C 1052.89 763.573 1065.32 766.549 1077.19 768.626 C 1079.61 770.533 1079.05 769.327 1079.43 772.046 C 1073.81 775.711 1053.64 770.133 1045.9 769.561 C 1035.41 775.892 1036.98 778.951 1024.26 777.919 C 1012.89 778.329 1011.52 775.329 1001.29 769.381 C 991.278 770.806 975.335 775.034 966.066 772.848 C 970.697 765.642 996.217 763.969 1004.73 765.526 C 1005.62 765.687 1016.97 772.163 1019.29 773.396 z"
     id="path12" />
  <path
     transform="translate(0,0)"
     fill="rgb(0,1,0)"
     d="M 1180.54 790.847 C 1182.74 791.208 1181.72 790.726 1183.48 792.522 C 1181.91 798.481 1160.02 808.505 1152.3 817.494 C 1141.27 830.333 1137.28 840.475 1128.58 854.607 C 1127.7 854.793 1126.62 854.618 1125.64 854.553 L 1125.08 852.619 C 1136.81 818.524 1150.84 807.643 1180.54 790.847 z"
     id="path14" />
  <path
     transform="translate(0,0)"
     fill="rgb(0,1,0)"
     d="M 1074.15 1387.76 L 1075.78 1388.6 C 1076.53 1395.79 1063.06 1401.33 1057.39 1402.67 C 1055.67 1400.93 1056.27 1401.94 1055.55 1399.65 C 1056.77 1398.3 1068.33 1392.31 1072.92 1388.73 L 1074.15 1387.76 z"
     id="path15" />
  <path
     transform="translate(0,0)"
     fill="rgb(45,101,45)"
     d="M 1161.64 1712.54 C 1130.18 1725.56 1135.36 1719.5 1103.78 1715.46 C 1088.58 1715.72 1062.1 1722.75 1047.78 1720.92 C 1027.28 1718.29 1046.19 1674.95 1044.73 1662.33 C 1042.17 1640.13 1030.54 1618.28 1023.96 1596.82 C 1019.74 1590.72 1020.3 1563.29 1017.93 1559.6 C 999.227 1530.58 1007.65 1505.51 1014.5 1473.64 C 1017.2 1461.09 1020.59 1444.95 1023.47 1430.21 C 1029.39 1436.58 1077.11 1438.37 1087.66 1439.65 C 1084.93 1449.82 1080.11 1460.78 1079.31 1471.39 C 1077.26 1489.52 1081.77 1509.59 1081.44 1527.43 C 1080.61 1566.87 1075.52 1595.81 1087.81 1635.12 C 1102.52 1682.17 1137.96 1688.82 1180.07 1699.92 C 1183.57 1700.84 1208.21 1697.16 1195.59 1711.13 C 1190.18 1717.11 1169.04 1713.86 1161.64 1712.54 z"
     id="path17" />
  <path
     transform="translate(0,0)"
     fill="rgb(0,1,0)"
     d="M 1056.15 1651.11 L 1058.23 1651.68 C 1061.59 1655.55 1059.64 1670.42 1062.04 1676.02 C 1063.03 1678.33 1063.03 1680.38 1063.07 1682.84 C 1051.67 1678.88 1054.7 1660.55 1056.15 1651.11 z"
     id="path18" />
  <path
     transform="translate(0,0)"
     fill="rgb(85,147,70)"
     d="M 915.668 1422.72 C 920.777 1426.34 939.921 1431.65 945.257 1428.28 L 944.889 1427.21 C 948.821 1427.14 948.442 1428.78 952.337 1429.76 C 960.084 1431.73 965.572 1430.85 973.275 1429.89 C 957.957 1463.12 962.843 1481.44 965.315 1516.34 C 966.07 1527 963.979 1544.39 963.398 1555.51 C 962.451 1575.4 964.027 1595.32 968.087 1614.81 C 971.897 1632.86 976.676 1642.66 985.106 1658.85 C 985.831 1660.24 987.28 1675.02 988.673 1679.5 C 992.275 1691.11 1018.21 1711.51 1020.22 1717.64 C 1015.94 1727.41 1001.03 1723.89 993.075 1721.19 C 992.772 1716.72 993.112 1711.42 990.017 1708.64 L 987.558 1709.26 C 985.324 1712.3 986.257 1717.13 984.782 1722.48 C 978.94 1727.93 937.063 1722.07 931.005 1716.64 C 930.165 1708.69 942.637 1697.15 945.352 1687.52 C 949.327 1673.42 941.59 1678.85 940.107 1671.87 C 939.234 1667.75 939.706 1654.41 938.651 1649.86 C 935.969 1638.31 927.149 1624.44 921.611 1613.74 C 911.5 1594.22 910.691 1578.23 906.938 1557.06 C 905.51 1549 898.409 1537.86 897.206 1529.6 C 892.187 1495.12 905.003 1455.09 915.668 1422.72 z"
     id="path19" />
  <path
     transform="translate(0,0)"
     fill="rgb(255,255,255)"
     d="M 1017.38 1230.73 C 1018.92 1239.04 1015.86 1266.72 1017 1279.65 C 1018.06 1302.13 1023.97 1325.16 1024.93 1347.52 C 1025.78 1367.48 1020.98 1390.15 1019.8 1410.3 C 1017.59 1448.05 1001.67 1484.04 999.856 1521.51 C 999.128 1536.51 1005.6 1549.58 1013.21 1561.9 C 1011.97 1601.63 1032.03 1624.49 1037.81 1659.53 C 1041.13 1679.68 1025.64 1689.14 1034.16 1720.53 L 1032.49 1721.92 C 1028.81 1721.81 1030.33 1722.43 1027.66 1720.35 C 1027.02 1716.44 1026.32 1713.56 1025.36 1709.7 C 1023.11 1707.82 1018.85 1705.52 1016.15 1703.36 C 1005.17 1694.59 999.537 1686.23 992.709 1674.29 C 993.799 1652.76 986.072 1650.69 979.323 1632.61 C 964.751 1593.58 969.608 1554.84 971.713 1514.59 C 972.668 1496.32 963.987 1476.79 969.428 1457.07 C 976.612 1431.02 990.419 1407.36 995.836 1381.04 C 998.839 1365.5 991.713 1338.33 993.45 1324.25 C 994.609 1314.86 1003.18 1293.2 1006.15 1282.4 C 1010.96 1264.86 1013.23 1247.9 1017.38 1230.73 z"
     id="path20" />
  <path
     transform="translate(0,0)"
     fill="rgb(178,207,150)"
     d="M 1024.07 560.702 C 1040.44 561.754 1057.17 566.721 1068.01 579.425 C 1088.39 603.325 1081.25 649.426 1069.52 676.167 C 1064.89 686.72 1066.69 693.765 1055.01 701.703 C 1043.37 710.933 1038.68 714.089 1023.99 714.142 L 1010.74 713.87 C 1003.76 709.397 996.736 704.411 990.21 699.213 C 981.889 693.41 981.379 685.277 978.085 677.1 C 971.93 664.883 969.975 655.483 967.796 642.433 C 960.298 597.535 970.884 562.89 1024.07 560.702 z"
     id="path21" />
  <path
     transform="translate(0,0)"
     fill="rgb(85,147,70)"
     d="M 1024.07 560.702 C 1040.44 561.754 1057.17 566.721 1068.01 579.425 C 1088.39 603.325 1081.25 649.426 1069.52 676.167 C 1064.89 686.72 1066.69 693.765 1055.01 701.703 C 1043.37 710.933 1038.68 714.089 1023.99 714.142 L 1024.07 560.702 z"
     id="path22" />
  <path
     transform="translate(0,0)"
     fill="rgb(178,207,150)"
     d="M 467.026 718.256 C 482.487 721.316 485.384 721.268 498.972 716.926 C 502.764 715.714 517.917 730.251 522.646 734.5 C 534.358 735.243 547.455 736.612 559.024 738.599 C 593.085 744.452 625.916 735.412 660.218 739.48 C 682.365 742.107 700.494 749.202 721.792 753.828 C 721.139 754.132 720.488 754.443 719.841 754.76 C 712.434 758.41 701.83 764.415 699.085 772.604 C 699.51 776.479 698.688 775.007 700.958 777.478 L 702.073 776.624 C 714.221 788.022 725.295 790.891 737.361 799.35 C 733.177 800.436 702.231 801.182 696.777 801.096 C 672.065 800.707 640.838 802.557 617.15 797.095 C 588.915 790.586 560.684 780.18 532.061 774.262 C 516.624 771.07 510.621 774.963 496.269 774.809 C 490.085 774.743 475.49 768.195 468.95 765.435 C 469.166 760.371 470.606 754.364 466.412 751.069 L 464.802 752.126 C 462.772 756.274 463.403 759.405 463.595 764.094 C 450.824 763.411 438.83 765.755 425.509 765.458 C 432.144 761.645 447.008 757.934 454.78 755.723 C 454.016 735.388 459.793 735.225 477.938 741.86 C 483.835 753.281 505.274 771.654 515.029 757.129 C 513.011 754.241 489.579 758.706 484.807 741.789 C 479.682 723.618 454.442 738.086 445.249 731.642 L 445.499 730.094 C 450.916 726.134 460.022 722.525 467.026 718.256 z"
     id="path23" />
  <path
     transform="translate(0,0)"
     fill="rgb(45,101,45)"
     d="M 1327.22 753.66 C 1350.34 747.35 1376 739.305 1399.75 738.488 C 1432.54 737.359 1464.72 744.334 1497.58 738.468 C 1504.14 737.297 1516.81 737.146 1522.88 734.617 C 1534.65 729.715 1538.47 720.767 1551.15 715.1 L 1552.47 717.558 C 1559.98 725.833 1571.02 720.948 1581.07 719.342 C 1587.4 722.27 1597.08 726.367 1602.46 730.247 L 1602.65 731.575 C 1595.21 734.996 1578.99 731.892 1571.22 734.189 C 1564.29 736.238 1564.59 746.606 1557.58 751.247 C 1551.38 755.358 1538.86 755.343 1534.08 758.829 C 1536.19 763.864 1550.52 762.305 1554.42 759.593 C 1572.02 747.342 1567.81 736.449 1592.4 740.128 L 1593.2 755.921 C 1598.96 757.677 1616.03 761.404 1619.09 764.434 L 1618 765.655 C 1607.28 766.127 1594.92 762.78 1585.94 764.472 C 1575.52 766.434 1562.33 775.062 1550.95 775.996 C 1541.71 776.754 1529.85 772.11 1521.05 773.775 C 1489.35 779.764 1458.19 790.834 1426.88 797.832 C 1408.43 801.956 1383.75 800.811 1364.64 801.022 C 1360.56 801.067 1340.73 801.136 1338.32 800.295 C 1341.15 798.561 1339.94 779.103 1342.49 770.813 C 1342.77 773.428 1342.52 773.509 1344.23 775.408 L 1346.16 775.308 C 1351.16 765.453 1334.19 756.98 1327.22 753.66 z"
     id="path24" />
  <path
     transform="translate(0,0)"
     fill="rgb(45,101,45)"
     d="M 1551.15 715.1 C 1591.34 701.72 1605.27 700.933 1646.88 706.034 C 1641.32 707.634 1637.11 708.344 1631.61 709.532 C 1617.89 712.491 1601.92 706.116 1592.93 718.317 L 1581.04 713.215 C 1571.24 715.025 1561.52 715.898 1552.47 717.558 L 1551.15 715.1 z"
     id="path25" />
  <path
     transform="translate(0,0)"
     fill="rgb(178,207,150)"
     d="M 433.697 703.404 C 443.869 701.438 482.225 706.853 488.712 713.276 C 483.333 719.316 472.723 708.625 462.389 715.126 C 459.661 717.043 459.77 716.824 456.388 717.071 C 452.743 715.707 452.077 714.371 449.598 711.392 C 439.35 711.302 415.867 711.837 407.224 707.736 C 410.895 704.601 427.95 703.904 433.697 703.404 z"
     id="path26" />
  <path
     transform="translate(0,0)"
     fill="rgb(45,101,45)"
     d="M 1606.47 722.444 C 1613.3 721.989 1648.97 722.925 1650.15 730.049 L 1647.44 732.428 C 1637.24 732.874 1620.99 731.42 1610.51 730.726 C 1609.01 728.515 1607.72 726.886 1605.9 724.964 L 1604.55 723.558 L 1606.47 722.444 z"
     id="path27" />
  <path
     transform="translate(0,0)"
     fill="rgb(178,207,150)"
     d="M 431.382 722.387 C 434.897 722.442 438.829 722.314 440.995 725.167 C 436.135 732.978 417.081 731.653 408.148 732.271 C 404.027 731.946 401.769 732.181 398.339 730.14 L 398.202 728.88 C 404.441 724.236 423.585 722.926 431.382 722.387 z"
     id="path28" />
  <path
     transform="translate(0,0)"
     fill="rgb(45,101,45)"
     d="M 1612.25 737.427 C 1619.22 737.288 1635.46 736.991 1640.6 741.65 L 1639.73 743.067 C 1634.28 744.842 1629.51 744.382 1623.75 744.35 C 1616.23 744.391 1603.47 746.681 1596.94 743.838 L 1597.15 742.443 C 1602.21 738.654 1606.2 738.389 1612.25 737.427 z"
     id="path29" />
  <path
     transform="translate(0,0)"
     fill="rgb(178,207,150)"
     d="M 432.279 736.401 C 437.331 736.307 446.906 739.004 449.379 743.431 C 444.758 746.378 433.474 744.705 427.571 744.291 C 420.274 744.285 414.954 744.91 408.126 742.444 L 407.679 741.046 C 413.946 736.924 424.77 736.898 432.279 736.401 z"
     id="path30" />
</svg>
