<?xml version="1.0" encoding="UTF-8" standalone="no"?>
<!-- Created with Inkscape (http://www.inkscape.org/) -->

<svg
   version="1.1"
   id="svg1"
   width="822.53619"
   height="811.80469"
   viewBox="0 0 822.53619 811.80469"
   sodipodi:docname="da-vinci3.png"
   xmlns:inkscape="http://www.inkscape.org/namespaces/inkscape"
   xmlns:sodipodi="http://sodipodi.sourceforge.net/DTD/sodipodi-0.dtd"
   xmlns="http://www.w3.org/2000/svg"
   xmlns:svg="http://www.w3.org/2000/svg">
  <defs
     id="defs1" />
  <sodipodi:namedview
     id="namedview1"
     pagecolor="#ffffff"
     bordercolor="#000000"
     borderopacity="0.25"
     inkscape:showpageshadow="2"
     inkscape:pageopacity="0.0"
     inkscape:pagecheckerboard="0"
     inkscape:deskcolor="#d1d1d1">
    <inkscape:page
       x="0"
       y="0"
       width="822.53619"
       height="811.80469"
       id="page2"
       margin="0"
       bleed="0" />
  </sodipodi:namedview>
  <g
     inkscape:groupmode="layer"
     inkscape:label="Image"
     id="g1"
     transform="translate(-100.34236,-98.121452)">
    <g
       id="g2">
      <path
         style="fill:#d0d0d0;fill-opacity:1"
         d="m 486.8125,909.31689 c 0.72187,-0.28887 1.58438,-0.25335 1.91667,0.0789 0.33229,0.33229 -0.25834,0.56864 -1.3125,0.52522 -1.16495,-0.048 -1.4019,-0.28494 -0.60417,-0.60416 z m 28.26645,-57.90022 c 0.048,-1.16495 0.28494,-1.4019 0.60416,-0.60417 0.28887,0.72187 0.25335,1.58438 -0.0789,1.91667 -0.33229,0.33229 -0.56864,-0.25834 -0.52522,-1.3125 z M 225.92431,795.25 223.5,792.5 l 2.75,2.42431 c 2.57029,2.26589 3.20859,3.07569 2.42431,3.07569 -0.17912,0 -1.41662,-1.2375 -2.75,-2.75 z m -12,-12 -2.42431,-2.75 2.75,2.42431 c 2.57029,2.26589 3.20859,3.07569 2.42431,3.07569 -0.17912,0 -1.41662,-1.2375 -2.75,-2.75 z M 813,779.62244 c 0,-0.20765 0.7875,-0.99515 1.75,-1.75 1.58606,-1.24387 1.62143,-1.2085 0.37756,0.37756 C 813.82119,779.91575 813,780.44548 813,779.62244 Z M 257.96584,755.25 252.5,749.5 l 5.75,5.46584 c 3.1625,3.00621 5.75,5.59371 5.75,5.75 0,0.74225 -0.95622,-0.12391 -6.03416,-5.46584 z M 455.27236,695 c 0,-2.475 0.19502,-3.4875 0.43337,-2.25 0.23836,1.2375 0.23836,3.2625 0,4.5 -0.23835,1.2375 -0.43337,0.225 -0.43337,-2.25 z m 42.92259,-9.5 c 0.0204,-1.65 0.2445,-2.20394 0.49804,-1.23097 0.25354,0.97297 0.23687,2.32297 -0.0371,3 -0.27393,0.67703 -0.48137,-0.11903 -0.46099,-1.76903 z m 9.884,-62.08333 c 0.048,-1.16495 0.28494,-1.4019 0.60416,-0.60417 0.28887,0.72187 0.25335,1.58438 -0.0789,1.91667 -0.33229,0.33229 -0.56864,-0.25834 -0.52522,-1.3125 z m 414,-94 c 0.048,-1.16495 0.28494,-1.4019 0.60416,-0.60417 0.28887,0.72187 0.25335,1.58438 -0.0789,1.91667 -0.33229,0.33229 -0.56864,-0.25834 -0.52522,-1.3125 z M 100.34281,505.5 c 0.004,-4.4 0.17944,-6.07561 0.39069,-3.72357 0.21124,2.35204 0.20827,5.95204 -0.007,8 -0.21487,2.04796 -0.38771,0.12357 -0.38408,-4.27643 z M 455.09925,440.34874 C 454.53219,438.23193 453.62772,432.675 453.08932,428 c -1.28429,-11.15155 -2.58336,-14.52418 -6.53517,-16.96654 -2.9902,-1.84804 -4.79472,-2.00681 -21.16155,-1.86189 l -17.8926,0.15844 -19.17459,-5.03677 c -18.56516,-4.87668 -27.44115,-8.51762 -34.2958,-14.06818 -3.08606,-2.49894 -1.71012,-4.99668 4.65002,-8.44125 11.57641,-6.26962 35.34983,-6.34044 52.82037,-0.15735 9.37229,3.317 11.5,3.79589 11.5,2.58832 0,-0.56011 -1.42741,-1.92215 -3.17202,-3.02676 l -3.17201,-2.00837 5.37253,-1.59547 c 9.73172,-2.89001 18.1091,-3.87679 27.61274,-3.25252 11.26936,0.74026 19.89872,3.51276 27.19471,8.7373 5.87382,4.20615 9.64581,4.8161 18.80749,3.04125 l 4.14344,-0.80269 -5.61176,7.59624 c -3.08647,4.17793 -12.9092,17.42817 -21.82831,29.44498 l -16.21654,21.84874 z M 462,426.46016 c 0,-3.67549 -9.03493,-18.05156 -13.79559,-21.95108 C 444.98403,401.87123 433.86639,395 432.81873,395 432.36843,395 432,395.66487 432,396.4775 c 0,0.81262 3.63432,4.02413 8.07626,7.13668 4.85006,3.39852 9.10899,7.30233 10.66151,9.7725 C 458.35589,425.50767 460.10787,428 461.01021,428 461.5546,428 462,427.30707 462,426.46016 Z M 296.8125,366.31689 c 0.72187,-0.28887 1.58438,-0.25335 1.91667,0.0789 0.33229,0.33229 -0.25834,0.56864 -1.3125,0.52522 -1.16495,-0.048 -1.4019,-0.28494 -0.60417,-0.60416 z m 246.26645,-52.90022 c 0.048,-1.16495 0.28494,-1.4019 0.60416,-0.60417 0.28887,0.72187 0.25335,1.58438 -0.0789,1.91667 -0.33229,0.33229 -0.56864,-0.25834 -0.52522,-1.3125 z M 534.87244,286.25 c -1.24387,-1.58606 -1.2085,-1.62143 0.37756,-0.37756 1.66575,1.30637 2.19548,2.12756 1.37244,2.12756 -0.20765,0 -0.99515,-0.7875 -1.75,-1.75 z M 261,250.62244 c 0,-0.20765 0.7875,-0.99515 1.75,-1.75 1.58606,-1.24387 1.62143,-1.2085 0.37756,0.37756 C 261.82119,250.91575 261,251.44548 261,250.62244 Z M 805.92431,222.25 803.5,219.5 l 2.75,2.42431 c 1.5125,1.33338 2.75,2.57088 2.75,2.75 0,0.78428 -0.8098,0.14598 -3.07569,-2.42431 z m -10,-10 -2.42431,-2.75 2.75,2.42431 c 1.5125,1.33338 2.75,2.57088 2.75,2.75 0,0.78428 -0.8098,0.14598 -3.07569,-2.42431 z M 229,210.62244 c 0,-0.20765 0.7875,-0.99515 1.75,-1.75 1.58606,-1.24387 1.62143,-1.2085 0.37756,0.37756 C 229.82119,210.91575 229,211.44548 229,210.62244 Z m 276.25,-62.31177 c 0.9625,-0.25152 2.5375,-0.25152 3.5,0 0.9625,0.25153 0.175,0.45733 -1.75,0.45733 -1.925,0 -2.7125,-0.2058 -1.75,-0.45733 z"
         id="path9" />
      <path
         style="fill:#b9b9b9;fill-opacity:1"
         d="m 489.8125,909.31689 c 0.72187,-0.28887 1.58438,-0.25335 1.91667,0.0789 0.33229,0.33229 -0.25834,0.56864 -1.3125,0.52522 -1.16495,-0.048 -1.4019,-0.28494 -0.60417,-0.60416 z M 496.15789,835 c 0,-1.375 0.22698,-1.9375 0.50439,-1.25 0.27741,0.6875 0.27741,1.8125 0,2.5 -0.27741,0.6875 -0.50439,0.125 -0.50439,-1.25 z m -30.07894,-1.58333 c 0.048,-1.16495 0.28494,-1.4019 0.60416,-0.60417 0.28887,0.72187 0.25335,1.58438 -0.0789,1.91667 -0.33229,0.33229 -0.56864,-0.25834 -0.52522,-1.3125 z M 797.5,795 c 0.99549,-1.1 2.03498,-2 2.30998,-2 0.275,0 -0.31449,0.9 -1.30998,2 -0.99549,1.1 -2.03498,2 -2.30998,2 -0.275,0 0.31449,-0.9 1.30998,-2 z M 219.94617,789.25 216.5,785.5 l 3.75,3.44617 c 2.0625,1.89539 3.75,3.58289 3.75,3.75 0,0.76362 -0.84622,0.0442 -4.05383,-3.44617 z M 810.5,782 c 0.99549,-1.1 2.03498,-2 2.30998,-2 0.275,0 -0.31449,0.9 -1.30998,2 -0.99549,1.1 -2.03498,2 -2.30998,2 -0.275,0 0.31449,-0.9 1.30998,-2 z M 458.68116,662.30233 c -6.03183,-35.99177 -6.47482,-77.39046 -1.19625,-111.79177 3.06154,-19.95257 4.02814,-24.18855 7.15352,-31.3495 2.03122,-4.65397 2.19783,-5.92949 1.29863,-9.94191 -1.11415,-4.97155 -0.14651,-13.89371 2.43707,-22.47113 1.41214,-4.68827 1.3663,-4.95219 -3.41893,-19.68698 -2.66764,-8.21425 -5.75171,-16.702 -6.85348,-18.86166 l -2.00323,-3.92665 21.37931,-28.84745 c 11.75863,-15.8661 21.17445,-29.17894 20.92405,-29.58409 -0.75457,-1.22092 3.43661,-0.0677 5.81925,1.60112 1.22315,0.85673 3.53052,1.55769 5.12749,1.55769 h 2.90358 l -0.52715,56.10107 c -0.36436,38.77617 -0.86652,56.44043 -1.62609,57.2 -1.49271,1.49271 -1.39214,5.64889 0.15107,6.24262 0.97263,0.37421 1.23101,9.18768 1.1644,39.71862 -0.0805,36.9009 -0.20842,39.59502 -2.14788,45.23769 -1.13426,3.3 -2.38505,8.475 -2.77954,11.5 -0.39449,3.025 -1.14815,6.31904 -1.67481,7.32008 -1.04465,1.98563 -41.27223,56.36332 -43.26405,58.48225 -0.97616,1.03846 -1.55704,-0.68374 -2.86696,-8.5 z M 922.07895,481.41667 c 0.048,-1.16495 0.28494,-1.4019 0.60416,-0.60417 0.28887,0.72187 0.25335,1.58438 -0.0789,1.91667 -0.33229,0.33229 -0.56864,-0.25834 -0.52522,-1.3125 z M 458.87244,426.25 c -1.24387,-1.58606 -1.2085,-1.62143 0.37756,-0.37756 1.66575,1.30637 2.19548,2.12756 1.37244,2.12756 -0.20765,0 -0.99515,-0.7875 -1.75,-1.75 z m -10.26943,-13.08333 c -0.28327,-0.45834 0.12038,-0.83334 0.89699,-0.83334 0.77661,0 1.18026,0.375 0.89699,0.83334 C 450.11373,413.625 449.71008,414 449.5,414 c -0.21008,0 -0.61373,-0.375 -0.89699,-0.83333 z m -36.79051,-3.84978 c 0.72187,-0.28887 1.58438,-0.25335 1.91667,0.0789 0.33229,0.33229 -0.25834,0.56864 -1.3125,0.52522 -1.16495,-0.048 -1.4019,-0.28494 -0.60417,-0.60416 z m 12.9375,0.0208 c 0.6875,-0.27741 1.8125,-0.27741 2.5,0 0.6875,0.27741 0.125,0.50439 -1.25,0.50439 -1.375,0 -1.9375,-0.22698 -1.25,-0.50439 z m -61.48097,-6.03071 c 0.97297,-0.25354 2.32297,-0.23687 3,0.0371 0.67703,0.27393 -0.11903,0.48137 -1.76903,0.46099 -1.65,-0.0204 -2.20394,-0.2445 -1.23097,-0.49804 z M 311.5,398.53322 c -3.85,-0.70745 -15.1,-3.6698 -25,-6.58299 -17.17323,-5.05343 -18.55118,-5.30024 -30,-5.37347 -9.27661,-0.0593 -13.07801,-0.50475 -16.75,-1.96262 -4.32817,-1.71838 -4.75,-2.17937 -4.75,-5.19098 0,-1.81782 -0.50031,-3.61434 -1.1118,-3.99226 -1.38788,-0.85775 -2.85264,1.34437 -2.87289,4.3191 -0.0145,2.13455 -0.38733,2.24474 -7.26531,2.14741 l -7.25,-0.10259 5.5,-1.7636 c 5.18915,-1.66392 5.51728,-1.96467 5.80583,-5.3213 0.1682,-1.95673 0.87309,-4.02848 1.56641,-4.60389 2.18487,-1.81328 8.43035,0.6697 12.2113,4.85476 5.89749,6.52782 12.21393,8.39802 15.39956,4.55957 0.95428,-1.14983 0.4756,-1.51643 -2.65969,-2.03692 -6.77804,-1.12524 -9.35214,-2.61944 -11.38828,-6.61059 -2.20221,-4.31669 -3.34453,-4.75189 -13.43513,-5.11852 l -7,-0.25433 5.25288,-2.7683 c 4.10617,-2.16399 6.39832,-2.71731 10.5,-2.53468 2.88591,0.12849 6.87041,-0.12631 8.85444,-0.56622 3.32148,-0.73647 4.05329,-0.43659 9.23587,3.78468 4.11377,3.35071 6.50701,4.58655 8.89268,4.59207 1.79527,0.004 6.18913,0.52362 9.76413,1.15436 3.66942,0.64739 18.47555,1.20943 34,1.29062 29.19501,0.15269 28.46558,0.0595 48.35103,6.17694 1.62683,0.50047 1.50572,0.78351 -1,2.33695 -4.53922,2.81411 -7.68623,6.71769 -6.95401,8.62583 0.35753,0.9317 0.9366,1.40746 1.28682,1.05724 0.35023,-0.35022 1.27042,0.2679 2.04489,1.3736 0.77446,1.1057 1.78017,1.78043 2.23491,1.49938 0.45473,-0.28104 1.09577,0.18995 1.42451,1.04666 0.32875,0.8567 1.0509,1.27755 1.60479,0.93524 C 358.54682,393.16205 359,393.38508 359,394 c 0,0.61492 0.45,0.83992 1,0.5 0.55,-0.33992 1,-0.21752 1,0.272 0,0.48952 1.125,1.49212 2.5,2.228 1.375,0.73588 2.5,1.71192 2.5,2.16898 0,1.35558 -46.6228,0.81171 -54.5,-0.63576 z m 462.3125,-7.21633 c 0.72187,-0.28887 1.58438,-0.25335 1.91667,0.0789 0.33229,0.33229 -0.25834,0.56864 -1.3125,0.52522 -1.16495,-0.048 -1.4019,-0.28494 -0.60417,-0.60416 z m -293.09575,-5.743 C 479.85111,384.70825 478.64659,384 478.04004,384 c -0.60654,0 -1.36183,-0.675 -1.67841,-1.5 -0.31659,-0.825 -1.00961,-1.5 -1.54005,-1.5 -0.53044,0 -1.64357,-0.67914 -2.47363,-1.50919 -0.83005,-0.83006 -1.92291,-1.2535 -2.42857,-0.94098 C 469.41372,378.86234 469,378.61492 469,378 c 0,-0.61492 -0.45,-0.83992 -1,-0.5 -0.55,0.33992 -1,0.15303 -1,-0.4153 0,-1.63202 5.11862,-3.86031 12.96923,-5.64589 9.96199,-2.26581 13.18162,-5.2127 13.79654,-12.62785 l 0.45818,-5.52501 4.77072,3.21046 c 2.62389,1.76575 6.6235,3.50673 8.88802,3.86884 L 512,361.02364 v 10.68818 c 0,11.45052 -0.67548,12.11122 -3.49666,3.42013 -1.6372,-5.04369 -7.41012,-13.0803 -7.47403,-10.40478 -0.0289,1.21131 3.26911,10.26166 6.37302,17.48858 l 1.59589,3.71575 -3.56776,-2.10503 c -3.03493,-1.79065 -4.59534,-2.01888 -10.44816,-1.52821 -6.5648,0.55037 -10.77296,1.917 -12.08698,3.92533 -0.33258,0.5083 -1.31294,0.21594 -2.17857,-0.6497 z m -59.15246,-2.28076 c -0.54268,-1.4252 -0.42782,-1.54006 0.5598,-0.5598 0.68342,0.67834 0.99067,1.48524 0.68278,1.79313 -0.30789,0.30789 -0.86705,-0.24711 -1.24258,-1.23333 z M 206.16547,371.12342 c -0.99676,-0.63183 -0.74366,-1.00416 1,-1.47103 4.38181,-1.17325 13.39518,-0.69557 15.3934,0.81581 1.75623,1.32834 1.13146,1.46976 -6.55887,1.48468 -4.675,0.009 -9.10054,-0.36418 -9.83453,-0.82946 z m -4.99932,-5.93643 c -2.1181,-1.44293 1.22349,-2.32113 10.83385,-2.84722 7.8289,-0.42856 8.34674,-0.34192 6.55887,1.09746 -1.06762,0.85953 -2.86762,1.56668 -4,1.57146 -1.13238,0.005 -4.30887,0.2513 -7.05887,0.54783 -2.75,0.29652 -5.60023,0.13023 -6.33385,-0.36953 z m 24.89155,-8.61747 c -0.97775,-1.17811 -3.32944,-1.58705 -9.43014,-1.63981 -10.49875,-0.0908 -14.16469,-1.34722 -6.58562,-2.25709 8.48122,-1.01817 15.84893,-0.76698 23.20082,0.791 9.89806,2.09755 11.67038,3.47171 4.25724,3.30084 -3.3,-0.0761 -6.93144,0.2021 -8.06986,0.61814 -1.39571,0.51007 -2.4941,0.24526 -3.37244,-0.81308 z m 273.71455,-4.13878 c -6.38136,-4.40602 -6.74568,-4.88879 -10.19725,-13.51247 -1.9687,-4.91877 -4.29784,-13.1001 -5.17587,-18.18074 -4.02241,-23.27535 3.97062,-37.21746 22.60186,-39.42405 L 512,280.72142 V 318.86071 357 h -2.80497 c -1.69849,0 -5.41551,-1.80245 -9.42278,-4.56926 z M 213.8125,348.31689 c 0.72187,-0.28887 1.58437,-0.25335 1.91667,0.0789 0.33229,0.33229 -0.25834,0.56864 -1.3125,0.52522 -1.16495,-0.048 -1.4019,-0.28494 -0.60417,-0.60416 z M 543.19495,309.5 c 0.0204,-1.65 0.2445,-2.20394 0.49804,-1.23097 0.25354,0.97297 0.23687,2.32297 -0.0371,3 -0.27393,0.67703 -0.48137,-0.11903 -0.46099,-1.76903 z M 249,262.62244 c 0,-0.20765 0.7875,-0.99515 1.75,-1.75 1.58606,-1.24387 1.62143,-1.2085 0.37756,0.37756 C 249.82119,262.91575 249,263.44548 249,262.62244 Z m -38,-34 c 0,-0.20765 0.7875,-0.99515 1.75,-1.75 1.58606,-1.24387 1.62143,-1.2085 0.37756,0.37756 C 211.82119,228.91575 211,229.44548 211,228.62244 Z M 800.92431,217.25 798.5,214.5 l 2.75,2.42431 c 1.5125,1.33338 2.75,2.57088 2.75,2.75 0,0.78428 -0.8098,0.14598 -3.07569,-2.42431 z M 226,213.62244 c 0,-0.20765 0.7875,-0.99515 1.75,-1.75 1.58606,-1.24387 1.62143,-1.2085 0.37756,0.37756 C 226.82119,213.91575 226,214.44548 226,213.62244 Z m 285.26903,-65.31543 c 0.97297,-0.25354 2.32297,-0.23687 3,0.0371 0.67703,0.27393 -0.11903,0.48137 -1.76903,0.46099 -1.65,-0.0204 -2.20394,-0.2445 -1.23097,-0.49804 z M 531.8125,98.316886 c 0.72187,-0.288871 1.58438,-0.253344 1.91667,0.07895 0.33229,0.332292 -0.25834,0.568641 -1.3125,0.52522 -1.16495,-0.04798 -1.4019,-0.284941 -0.60417,-0.604167 z"
         id="path8" />
      <path
         style="fill:#a3a3a3;fill-opacity:1"
         d="m 493.25,909.31067 c 0.9625,-0.25152 2.5375,-0.25152 3.5,0 0.9625,0.25153 0.175,0.45733 -1.75,0.45733 -1.925,0 -2.7125,-0.2058 -1.75,-0.45733 z m 40.5625,0.006 c 0.72187,-0.28887 1.58438,-0.25335 1.91667,0.0789 0.33229,0.33229 -0.25834,0.56864 -1.3125,0.52522 -1.16495,-0.048 -1.4019,-0.28494 -0.60417,-0.60416 z M 555.87244,832.25 c -1.24387,-1.58606 -1.2085,-1.62143 0.37756,-0.37756 0.9625,0.75485 1.75,1.54235 1.75,1.75 0,0.82304 -0.82119,0.29331 -2.12756,-1.37244 z m 248.08577,-43.5 c 2.45201,-2.6125 4.58951,-4.75 4.75,-4.75 0.75088,0 -0.043,0.89783 -4.45821,5.04179 L 799.5,793.5 Z M 506.15789,783 c 0,-1.375 0.22698,-1.9375 0.50439,-1.25 0.27741,0.6875 0.27741,1.8125 0,2.5 -0.27741,0.6875 -0.50439,0.125 -0.50439,-1.25 z m -62,-26 c 0,-1.375 0.22698,-1.9375 0.50439,-1.25 0.27741,0.6875 0.27741,1.8125 0,2.5 -0.27741,0.6875 -0.50439,0.125 -0.50439,-1.25 z m 17.13154,-44.47429 c -3.08637,-1.342 -3.19327,-1.58225 -2.76353,-6.21086 0.82638,-8.90068 1.95803,-28.79345 1.77006,-31.11506 -0.12953,-1.59981 6.45116,-11.21453 21.61173,-31.57581 11.98888,-16.10158 22.32037,-30.14148 22.95887,-31.19979 1.05351,-1.74617 1.1136,-1.6929 0.64947,0.57581 -4.24569,20.75356 -6.05778,28.51398 -8.54441,36.59219 -2.79414,9.07721 -2.94475,10.44922 -2.71788,24.75877 0.25756,16.24499 -0.82581,22.64723 -5.48134,32.39236 L 486.5,711.5 l -7.78063,-0.051 c -5.99148,-0.0393 -7.66583,0.24815 -7.28138,1.25 0.68245,1.77845 -5.91915,1.66573 -10.14856,-0.17328 z M 473.46369,706.25 c -0.41266,-0.9625 -1.41415,-3.6625 -2.22553,-6 -1.35279,-3.89726 -4.24573,-5.94773 -4.23258,-3 0.0139,3.10686 2.23139,8.78693 3.78379,9.69193 2.57358,1.50033 3.51031,1.25797 2.67432,-0.69193 z m -17.38474,-57.83333 c 0.048,-1.16495 0.28494,-1.4019 0.60416,-0.60417 0.28887,0.72187 0.25335,1.58438 -0.0789,1.91667 -0.33229,0.33229 -0.56864,-0.25834 -0.52522,-1.3125 z m 52,-20 c 0.048,-1.16495 0.28494,-1.4019 0.60416,-0.60417 0.28887,0.72187 0.25335,1.58438 -0.0789,1.91667 -0.33229,0.33229 -0.56864,-0.25834 -0.52522,-1.3125 z m -54,-1 c 0.048,-1.16495 0.28494,-1.4019 0.60416,-0.60417 0.28887,0.72187 0.25335,1.58438 -0.0789,1.91667 -0.33229,0.33229 -0.56864,-0.25834 -0.52522,-1.3125 z M 453.27236,607 c 0,-2.475 0.19502,-3.4875 0.43337,-2.25 0.23836,1.2375 0.23836,3.2625 0,4.5 -0.23835,1.2375 -0.43337,0.225 -0.43337,-2.25 z m 0.0375,-14.5 c 0.006,-3.3 0.1923,-4.52944 0.41486,-2.73209 0.22256,1.79735 0.21797,4.49735 -0.0102,6 -0.22818,1.50265 -0.41027,0.0321 -0.40466,-3.26791 z M 511.232,586 c 0,-1.925 0.2058,-2.7125 0.45733,-1.75 0.25152,0.9625 0.25152,2.5375 0,3.5 -0.25153,0.9625 -0.45733,0.175 -0.45733,-1.75 z m -57.15305,-13.58333 c 0.048,-1.16495 0.28494,-1.4019 0.60416,-0.60417 0.28887,0.72187 0.25335,1.58438 -0.0789,1.91667 -0.33229,0.33229 -0.56864,-0.25834 -0.52522,-1.3125 z m 57,0 c 0.048,-1.16495 0.28494,-1.4019 0.60416,-0.60417 0.28887,0.72187 0.25335,1.58438 -0.0789,1.91667 -0.33229,0.33229 -0.56864,-0.25834 -0.52522,-1.3125 z m 0.116,-8.91667 c 0.0204,-1.65 0.2445,-2.20394 0.49804,-1.23097 0.25354,0.97297 0.23687,2.32297 -0.0371,3 -0.27393,0.67703 -0.48137,-0.11903 -0.46099,-1.76903 z m 0.2363,-27 c 6.6e-4,-13.2 0.14295,-18.46169 0.31621,-11.69265 0.17326,6.76904 0.17273,17.56904 -10e-4,24 -0.17391,6.43096 -0.31567,0.89265 -0.31502,-12.30735 z m -410.3523,-7.08333 c 0.048,-1.16495 0.28494,-1.4019 0.60416,-0.60417 0.28887,0.72187 0.25335,1.58438 -0.0789,1.91667 -0.3323,0.33229 -0.56864,-0.25834 -0.52522,-1.3125 z m 821,-5 c 0.048,-1.16495 0.28494,-1.4019 0.60416,-0.60417 0.28887,0.72187 0.25335,1.58438 -0.0789,1.91667 -0.33229,0.33229 -0.56864,-0.25834 -0.52522,-1.3125 z M 461.19495,503.5 c 0.0204,-1.65 0.2445,-2.20394 0.49804,-1.23097 0.25354,0.97297 0.23687,2.32297 -0.0371,3 -0.27393,0.67703 -0.48137,-0.11903 -0.46099,-1.76903 z m 50.20984,-22 c 0.001,-8.8 0.15425,-12.26613 0.33996,-7.70252 0.18572,4.56362 0.18468,11.76362 -0.002,16 -0.18698,4.23639 -0.33893,0.50252 -0.33766,-8.29748 z m -410.32584,-0.0833 c 0.048,-1.16495 0.28494,-1.4019 0.60416,-0.60417 0.28887,0.72187 0.25335,1.58438 -0.0789,1.91667 -0.3323,0.33229 -0.56864,-0.25834 -0.52522,-1.3125 z M 428.8125,409.31689 c 0.72187,-0.28887 1.58438,-0.25335 1.91667,0.0789 0.33229,0.33229 -0.25834,0.56864 -1.3125,0.52522 -1.16495,-0.048 -1.4019,-0.28494 -0.60417,-0.60416 z m 12,0 c 0.72187,-0.28887 1.58438,-0.25335 1.91667,0.0789 0.33229,0.33229 -0.25834,0.56864 -1.3125,0.52522 -1.16495,-0.048 -1.4019,-0.28494 -0.60417,-0.60416 z M 358.75,403.33772 c 0.6875,-0.27741 1.8125,-0.27741 2.5,0 0.6875,0.27741 0.125,0.50439 -1.25,0.50439 -1.375,0 -1.9375,-0.22698 -1.25,-0.50439 z m 312.0625,-0.0208 c 0.72187,-0.28887 1.58438,-0.25335 1.91667,0.0789 0.33229,0.33229 -0.25834,0.56864 -1.3125,0.52522 -1.16495,-0.048 -1.4019,-0.28494 -0.60417,-0.60416 z M 364.5,397.81103 l -2,-2.0701 2.25,1.16472 c 1.2375,0.64059 2.25,1.59888 2.25,2.12953 0,1.27684 -0.15885,1.19906 -2.5,-1.22415 z M 352.87244,390.25 c -1.24387,-1.58606 -1.2085,-1.62143 0.37756,-0.37756 1.66575,1.30637 2.19548,2.12756 1.37244,2.12756 -0.20765,0 -0.99515,-0.7875 -1.75,-1.75 z m 442.94006,-4.93311 c 0.72187,-0.28887 1.58438,-0.25335 1.91667,0.0789 0.33229,0.33229 -0.25834,0.56864 -1.3125,0.52522 -1.16495,-0.048 -1.4019,-0.28494 -0.60417,-0.60416 z m -544,-4 c 0.72187,-0.28887 1.58437,-0.25335 1.91667,0.0789 0.33229,0.33229 -0.25834,0.56864 -1.3125,0.52522 -1.16495,-0.048 -1.4019,-0.28494 -0.60417,-0.60416 z M 233,376 c -0.90129,-0.58246 -1.02463,-0.97549 -0.30902,-0.98469 0.65504,-0.008 1.4691,0.43469 1.80902,0.98469 0.7673,1.24153 0.42112,1.24153 -1.5,0 z m 53.75,-5.66228 c 0.6875,-0.27741 1.8125,-0.27741 2.5,0 0.6875,0.27741 0.125,0.50439 -1.25,0.50439 -1.375,0 -1.9375,-0.22698 -1.25,-0.50439 z m 10,0 c 0.6875,-0.27741 1.8125,-0.27741 2.5,0 0.6875,0.27741 0.125,0.50439 -1.25,0.50439 -1.375,0 -1.9375,-0.22698 -1.25,-0.50439 z m 21.0625,-1.02083 c 0.72187,-0.28887 1.58438,-0.25335 1.91667,0.0789 0.33229,0.33229 -0.25834,0.56864 -1.3125,0.52522 -1.16495,-0.048 -1.4019,-0.28494 -0.60417,-0.60416 z m -108,-4 c 0.72187,-0.28887 1.58437,-0.25335 1.91667,0.0789 0.33229,0.33229 -0.25834,0.56864 -1.3125,0.52522 -1.16495,-0.048 -1.4019,-0.28494 -0.60417,-0.60416 z m 29.9375,-4.97917 c 0.6875,-0.27741 1.8125,-0.27741 2.5,0 0.6875,0.27741 0.125,0.50439 -1.25,0.50439 -1.375,0 -1.9375,-0.22698 -1.25,-0.50439 z m 270.0625,-0.0208 c 0.72187,-0.28887 1.58438,-0.25335 1.91667,0.0789 0.33229,0.33229 -0.25834,0.56864 -1.3125,0.52522 -1.16495,-0.048 -1.4019,-0.28494 -0.60417,-0.60416 z M 219.5,220 c 3.26557,-3.3 6.16239,-6 6.43739,-6 0.275,0 -2.17182,2.7 -5.43739,6 -3.26557,3.3 -6.16239,6 -6.43739,6 -0.275,0 2.17182,-2.7 5.43739,-6 z m 296.3125,-71.68311 c 0.72187,-0.28887 1.58438,-0.25335 1.91667,0.0789 0.33229,0.33229 -0.25834,0.56864 -1.3125,0.52522 -1.16495,-0.048 -1.4019,-0.28494 -0.60417,-0.60416 z m 13,-50.000004 c 0.72187,-0.288871 1.58438,-0.253344 1.91667,0.07895 0.33229,0.332292 -0.25834,0.568641 -1.3125,0.52522 -1.16495,-0.04798 -1.4019,-0.284941 -0.60417,-0.604167 z"
         id="path7" />
      <path
         style="fill:#8c8c8c;fill-opacity:1"
         d="m 499.25,909.31067 c 0.9625,-0.25152 2.5375,-0.25152 3.5,0 0.9625,0.25153 0.175,0.45733 -1.75,0.45733 -1.925,0 -2.7125,-0.2058 -1.75,-0.45733 z M 787,804.62244 c 0,-0.20765 0.7875,-0.99515 1.75,-1.75 1.58606,-1.24387 1.62143,-1.2085 0.37756,0.37756 C 787.82119,804.91575 787,805.44548 787,804.62244 Z M 233.87244,802.25 c -1.24387,-1.58606 -1.2085,-1.62143 0.37756,-0.37756 0.9625,0.75485 1.75,1.54235 1.75,1.75 0,0.82304 -0.82119,0.29331 -2.12756,-1.37244 z m -27,-27 c -1.24387,-1.58606 -1.2085,-1.62143 0.37756,-0.37756 0.9625,0.75485 1.75,1.54235 1.75,1.75 0,0.82304 -0.82119,0.29331 -2.12756,-1.37244 z M 477.75,712.33772 c 0.6875,-0.27741 1.8125,-0.27741 2.5,0 0.6875,0.27741 0.125,0.50439 -1.25,0.50439 -1.375,0 -1.9375,-0.22698 -1.25,-0.50439 z m -19.67105,-5.92105 c 0.048,-1.16495 0.28494,-1.4019 0.60416,-0.60417 0.28887,0.72187 0.25335,1.58438 -0.0789,1.91667 -0.33229,0.33229 -0.56864,-0.25834 -0.52522,-1.3125 z M 467.15789,698 c 0,-1.375 0.22698,-1.9375 0.50439,-1.25 0.27741,0.6875 0.27741,1.8125 0,2.5 -0.27741,0.6875 -0.50439,0.125 -0.50439,-1.25 z m -7.07894,-21.58333 c 0.048,-1.16495 0.28494,-1.4019 0.60416,-0.60417 0.28887,0.72187 0.25335,1.58438 -0.0789,1.91667 -0.33229,0.33229 -0.56864,-0.25834 -0.52522,-1.3125 z M 512.15789,676 c 0,-1.375 0.22698,-1.9375 0.50439,-1.25 0.27741,0.6875 0.27741,1.8125 0,2.5 -0.27741,0.6875 -0.50439,0.125 -0.50439,-1.25 z m -59,-63 c 0,-1.375 0.22698,-1.9375 0.50439,-1.25 0.27741,0.6875 0.27741,1.8125 0,2.5 -0.27741,0.6875 -0.50439,0.125 -0.50439,-1.25 z m -0.0789,-27.58333 c 0.048,-1.16495 0.28494,-1.4019 0.60416,-0.60417 0.28887,0.72187 0.25335,1.58438 -0.0789,1.91667 -0.33229,0.33229 -0.56864,-0.25834 -0.52522,-1.3125 z m -352,-59 c 0.048,-1.16495 0.28494,-1.4019 0.60416,-0.60417 0.28887,0.72187 0.25335,1.58438 -0.0789,1.91667 -0.3323,0.33229 -0.56864,-0.25834 -0.52522,-1.3125 z M 922.15789,521 c 0,-1.375 0.22698,-1.9375 0.50439,-1.25 0.27741,0.6875 0.27741,1.8125 0,2.5 -0.27741,0.6875 -0.50439,0.125 -0.50439,-1.25 z m 0,-34 c 0,-1.375 0.22698,-1.9375 0.50439,-1.25 0.27741,0.6875 0.27741,1.8125 0,2.5 -0.27741,0.6875 -0.50439,0.125 -0.50439,-1.25 z m -821.07894,-2.58333 c 0.048,-1.16495 0.28494,-1.4019 0.60416,-0.60417 0.28887,0.72187 0.25335,1.58438 -0.0789,1.91667 -0.3323,0.33229 -0.56864,-0.25834 -0.52522,-1.3125 z M 433.75,412.33772 c 0.6875,-0.27741 1.8125,-0.27741 2.5,0 0.6875,0.27741 0.125,0.50439 -1.25,0.50439 -1.375,0 -1.9375,-0.22698 -1.25,-0.50439 z m 5,0 c 0.6875,-0.27741 1.8125,-0.27741 2.5,0 0.6875,0.27741 0.125,0.50439 -1.25,0.50439 -1.375,0 -1.9375,-0.22698 -1.25,-0.50439 z m -5.48625,-3.0553 c 1.52006,-0.22986 3.77006,-0.22371 5,0.0136 1.22994,0.23736 -0.0138,0.42542 -2.76375,0.41792 -2.75,-0.008 -3.75631,-0.20172 -2.23625,-0.43157 z M 325.75,403.33772 c 0.6875,-0.27741 1.8125,-0.27741 2.5,0 0.6875,0.27741 0.125,0.50439 -1.25,0.50439 -1.375,0 -1.9375,-0.22698 -1.25,-0.50439 z m 29,0 c 0.6875,-0.27741 1.8125,-0.27741 2.5,0 0.6875,0.27741 0.125,0.50439 -1.25,0.50439 -1.375,0 -1.9375,-0.22698 -1.25,-0.50439 z m 320.51375,-0.0553 c 1.52006,-0.22986 3.77006,-0.22371 5,0.0136 1.22994,0.23736 -0.0137,0.42542 -2.76375,0.41792 -2.75,-0.008 -3.75631,-0.20172 -2.23625,-0.43157 z M 231.15789,380 c 0,-1.375 0.22698,-1.9375 0.50439,-1.25 0.27741,0.6875 0.27741,1.8125 0,2.5 -0.27741,0.6875 -0.50439,0.125 -0.50439,-1.25 z M 383.25,373.31067 c 0.9625,-0.25152 2.5375,-0.25152 3.5,0 0.9625,0.25153 0.175,0.45733 -1.75,0.45733 -1.925,0 -2.7125,-0.2058 -1.75,-0.45733 z m -92,-3 c 0.9625,-0.25152 2.5375,-0.25152 3.5,0 0.9625,0.25153 0.175,0.45733 -1.75,0.45733 -1.925,0 -2.7125,-0.2058 -1.75,-0.45733 z m 152.01903,-0.004 c 0.97297,-0.25354 2.32297,-0.23687 3,0.0371 0.67703,0.27393 -0.11903,0.48137 -1.76903,0.46099 -1.65,-0.0204 -2.20394,-0.2445 -1.23097,-0.49804 z m -122,-1 c 0.97297,-0.25354 2.32297,-0.23687 3,0.0371 0.67703,0.27393 -0.11903,0.48137 -1.76903,0.46099 -1.65,-0.0204 -2.20394,-0.2445 -1.23097,-0.49804 z M 214.75,368.33772 c 0.6875,-0.27741 1.8125,-0.27741 2.5,0 0.6875,0.27741 0.125,0.50439 -1.25,0.50439 -1.375,0 -1.9375,-0.22698 -1.25,-0.50439 z m 520.0625,-1.02083 c 0.72187,-0.28887 1.58438,-0.25335 1.91667,0.0789 0.33229,0.33229 -0.25834,0.56864 -1.3125,0.52522 -1.16495,-0.048 -1.4019,-0.28494 -0.60417,-0.60416 z m -431,-1 c 0.72187,-0.28887 1.58438,-0.25335 1.91667,0.0789 0.33229,0.33229 -0.25834,0.56864 -1.3125,0.52522 -1.16495,-0.048 -1.4019,-0.28494 -0.60417,-0.60416 z m 20,0 c 0.72187,-0.28887 1.58438,-0.25335 1.91667,0.0789 0.33229,0.33229 -0.25834,0.56864 -1.3125,0.52522 -1.16495,-0.048 -1.4019,-0.28494 -0.60417,-0.60416 z m 377,0 c 0.72187,-0.28887 1.58438,-0.25335 1.91667,0.0789 0.33229,0.33229 -0.25834,0.56864 -1.3125,0.52522 -1.16495,-0.048 -1.4019,-0.28494 -0.60417,-0.60416 z m 14,0 c 0.72187,-0.28887 1.58438,-0.25335 1.91667,0.0789 0.33229,0.33229 -0.25834,0.56864 -1.3125,0.52522 -1.16495,-0.048 -1.4019,-0.28494 -0.60417,-0.60416 z M 491.15789,354 c 0,-1.375 0.22698,-1.9375 0.50439,-1.25 0.27741,0.6875 0.27741,1.8125 0,2.5 -0.27741,0.6875 -0.50439,0.125 -0.50439,-1.25 z M 218.75,348.33772 c 0.6875,-0.27741 1.8125,-0.27741 2.5,0 0.6875,0.27741 0.125,0.50439 -1.25,0.50439 -1.375,0 -1.9375,-0.22698 -1.25,-0.50439 z m 585,0 c 0.6875,-0.27741 1.8125,-0.27741 2.5,0 0.6875,0.27741 0.125,0.50439 -1.25,0.50439 -1.375,0 -1.9375,-0.22698 -1.25,-0.50439 z M 509.26903,277.30701 c 0.97297,-0.25354 2.32297,-0.23687 3,0.0371 0.67703,0.27393 -0.11903,0.48137 -1.76903,0.46099 -1.65,-0.0204 -2.20394,-0.2445 -1.23097,-0.49804 z M 235,205.62244 c 0,-0.20765 0.7875,-0.99515 1.75,-1.75 1.58606,-1.24387 1.62143,-1.2085 0.37756,0.37756 C 235.82119,205.91575 235,206.44548 235,205.62244 Z M 786.87244,204.25 c -1.24387,-1.58606 -1.2085,-1.62143 0.37756,-0.37756 1.66575,1.30637 2.19548,2.12756 1.37244,2.12756 -0.20765,0 -0.99515,-0.7875 -1.75,-1.75 z M 518.8125,148.31689 c 0.72187,-0.28887 1.58438,-0.25335 1.91667,0.0789 0.33229,0.33229 -0.25834,0.56864 -1.3125,0.52522 -1.16495,-0.048 -1.4019,-0.28494 -0.60417,-0.60416 z m 24,-49.000004 c 0.72187,-0.288871 1.58438,-0.253344 1.91667,0.07895 0.33229,0.332292 -0.25834,0.568641 -1.3125,0.52522 -1.16495,-0.04798 -1.4019,-0.284941 -0.60417,-0.604167 z m -46,-1 c 0.72187,-0.288871 1.58438,-0.253344 1.91667,0.07895 0.33229,0.332292 -0.25834,0.568641 -1.3125,0.52522 -1.16495,-0.04798 -1.4019,-0.284941 -0.60417,-0.604167 z m 27.45653,-0.0099 c 0.97297,-0.253543 2.32297,-0.236869 3,0.03705 0.67703,0.273923 -0.11903,0.481368 -1.76903,0.460988 -1.65,-0.02038 -2.20394,-0.244498 -1.23097,-0.498042 z"
         id="path6" />
      <path
         style="fill:#767676;fill-opacity:1"
         d="M 495.5,909.31789 C 453.9186,908.0666 408.04213,899.05726 369,884.47551 287.44799,854.01686 218.67537,799.67129 169.08689,726.5 96.384959,619.22316 81.051788,484.19793 127.69507,362 180.7397,223.03156 311.09745,120.89719 459.5,102.03321 c 45.23497,-5.749985 85.29722,-4.647823 128.5,3.53519 101.30596,19.1883 190.24117,74.69235 253.13863,157.98265 44.88018,59.43139 70.84362,124.42372 79.47705,198.94895 2.3627,20.39524 2.38076,62.15284 0.036,83.30487 C 909.32235,648.0079 861.99619,738.65301 784.2667,807.02689 714.47762,868.41608 633.91114,901.90886 539,908.98819 c -12.60142,0.93993 -21.08508,1.00423 -43.5,0.3297 z m 41,-45.45489 c 11.55,-0.58654 21.225,-1.09865 21.5,-1.13802 0.275,-0.0394 3.03958,0.27727 6.1435,0.70364 4.13868,0.5685 7.11285,0.34807 11.15391,-0.8267 3.03072,-0.88106 8.14412,-1.60192 11.3631,-1.60192 7.96707,0 12.37107,-1.42516 15.33949,-4.96394 2.04441,-2.43723 4.93644,-3.7237 15.86976,-7.05941 43.76052,-13.35113 85.5976,-35.50267 122.35601,-64.78398 15.48261,-12.33327 44.02356,-40.5066 55.00879,-54.30025 46.88141,-58.86685 73.88209,-125.03878 79.82848,-195.63968 C 876.57346,516.31965 875.74292,475.79691 873.54118,460 859.29079,357.75717 804.83923,269.20694 719.5,209.49514 626.09131,144.13714 503.75666,126.57823 397,163.20613 273.13031,205.70546 179.94077,309.9753 154.98221,434 c -5.50757,27.36836 -6.40376,36.96348 -6.4446,69 -0.0472,37.04344 2.20588,56.49732 10.13405,87.5 25.99139,101.63786 96.49575,188.61205 191.32834,236.02265 34.06516,17.03053 55.94843,24.24147 102,33.61087 l 28.5,5.79844 17.5,-0.50126 c 9.625,-0.27569 26.95,-0.98116 38.5,-1.5677 z m -62.42235,-3.39324 c -3.53229,-0.77796 -6.86135,-1.85346 -7.39791,-2.39002 -0.63407,-0.63407 0.24666,-3.02729 2.5161,-6.83701 4.76981,-8.00712 5.41103,-10.95493 2.96336,-13.62315 -1.37899,-1.50326 -2.06788,-4.00961 -2.36914,-8.61958 -0.35485,-5.43009 -1.36831,-8.39591 -6.15706,-18.01817 -4.715,-9.47407 -6.15644,-13.64922 -8.12225,-23.5262 -1.31447,-6.6044 -3.31713,-14.17103 -4.45035,-16.81473 -4.09331,-9.5493 -2.40514,-28.78411 4.42347,-50.40049 2.02038,-6.39563 2.904,-7.99038 4.281,-7.72626 0.95432,0.18306 1.84763,0.42351 1.98513,0.53434 0.1375,0.11083 0.7,0.31401 1.25,0.45151 0.55,0.1375 1.1125,0.34968 1.25,0.47151 0.1375,0.12184 2.5,0.37165 5.25,0.55515 2.75,0.18349 7.39909,0.65083 10.33132,1.03853 4.81693,0.63688 5.27283,0.90895 4.72519,2.81985 -3.19715,11.15592 -3.29143,12.57796 -3.05753,46.11496 0.26633,38.18551 1.04177,44.52448 7.00275,57.2452 1.86732,3.98487 3.8622,9.77182 4.43307,12.85991 1.27429,6.89326 3.34722,10.3181 10.50781,17.36073 3.05656,3.00621 5.55739,6.05485 5.55739,6.77475 0,1.9333 -4.17226,3.1761 -8.02042,2.38907 -2.71721,-0.55573 -3.52896,-1.31087 -4.20226,-3.90922 -1.12571,-4.34424 -3.37699,-4.07702 -4.46142,0.52956 -0.87913,3.73445 -0.90545,3.7508 -6.34934,3.94211 -3.00661,0.10566 -8.35662,-0.4444 -11.88891,-1.22235 z m 52.16167,-142.57367 c -10.85916,-1.26296 -13.77226,-2.22641 -13.5565,-4.48357 0.10055,-1.05189 0.66305,-6.31767 1.25,-11.70174 1.51026,-13.8536 1.2892,-39.27332 -0.45406,-52.21078 -1.15113,-8.54307 -1.33486,-16.41641 -0.82259,-35.25 0.39017,-14.34423 0.28875,-24.24986 -0.24828,-24.24965 -0.53326,2e-4 -0.79553,-16.50559 -0.63558,-40.00114 0.23409,-34.38755 0.0594,-40.32639 -1.24461,-42.31659 -1.33402,-2.03597 -1.34054,-2.54827 -0.0541,-4.24886 1.24258,-1.64263 1.46759,-10.40225 1.49461,-58.18376 L 512,389 h 2.63197 c 1.44758,0 4.03508,-0.86315 5.75,-1.91812 2.57224,-1.58237 3.90573,-1.76503 7.61803,-1.04355 7.00131,1.36069 12,1.18503 12,-0.4217 0,-1.73618 -2.58335,-2.45413 -11.75834,-3.26781 -6.17833,-0.54792 -7.5556,-0.37468 -9.25613,1.16427 -1.09879,0.99439 -2.17446,1.62324 -2.39038,1.39745 -0.21592,-0.2258 0.85647,-3.56054 2.38309,-7.41054 3.44051,-8.67664 4.55579,-13.5 3.12154,-13.5 -1.38966,0 -4.2827,5.85301 -7.04353,14.25 -1.22062,3.7125 -2.40762,6.75 -2.63778,6.75 C 512.18831,385 512,379.67729 512,373.17175 V 361.3435 l 5.19003,-1.19801 c 2.85452,-0.6589 6.67952,-2.33409 8.5,-3.72264 L 529,353.89822 v 3.03065 c 0,1.66686 0.72203,4.8352 1.60452,7.04074 l 1.60452,4.01009 13.11837,4.12321 13.11837,4.12321 8.74566,-1.25356 c 10.38696,-1.48881 23.66428,-0.86563 33.10976,1.55403 l 6.80119,1.74228 -3.30119,2.76802 c -1.81566,1.52241 -2.97135,3.10426 -2.56821,3.51522 0.40314,0.41096 4.45314,-0.67495 9,-2.41314 C 621.0597,378.0001 626.93566,377 640.42639,377 c 12.50629,0 21.05522,1.75847 26.73446,5.49914 3.91927,2.58145 3.96175,2.84523 2.27085,14.09959 l -0.46557,3.09872 -7.23306,-0.43701 c -6.28925,-0.37998 -9.58183,0.18831 -25.23307,4.35517 l -18,4.79217 -18.67526,0.23178 c -26.32984,0.32678 -26.98481,0.77342 -29.25679,19.95104 -1.13383,9.57056 -2.18761,13.77507 -5.36586,21.4094 -2.17522,5.225 -4.72139,12.2 -5.65815,15.5 -0.93676,3.3 -2.79343,7.97109 -4.12594,10.3802 l -2.42275,4.38021 2.58452,8.11979 c 2.143,6.73268 2.53395,9.65728 2.28853,17.1198 -0.24706,7.51201 0.13473,10.32266 2.30918,17 2.33506,7.17052 2.73464,10.6958 3.8538,34 1.47833,30.78321 1.34348,44.92991 -0.57672,60.5 -2.27742,18.4666 -6.43245,39.79697 -9.6423,49.5 -2.40715,7.27652 -3.13922,11.68097 -3.82288,23 -0.82088,13.59091 -3.45694,25.23344 -5.62541,24.84539 -6.1118,-1.09372 -14.23195,-1.36802 -14.7691,-0.4989 -1.05714,1.71049 3.51233,3.49772 9.14911,3.57843 2.88419,0.0413 5.24669,0.41258 5.25,0.82508 0.007,0.92841 -8.12233,0.76636 -17.75466,-0.35391 z m 7.2522,-18.1896 c 2.19533,-1.24333 4.14082,-3.03593 4.32332,-3.98355 0.56759,-2.94724 -0.71813,-2.47479 -10.66498,3.91893 -0.5429,0.34898 0.8821,2.36018 1.65916,2.34168 0.38004,-0.009 2.48716,-1.03372 4.6825,-2.27706 z M 568.4428,421.25 c 5.85391,-10.21348 8.20888,-12.88951 16.21171,-18.42186 6.74181,-4.66061 9.21296,-7.83289 6.09549,-7.82496 -1.92382,0.005 -12.64911,7.42858 -17.43934,12.07092 C 569.30094,410.96002 562,423.58601 562,426.63436 c 0,3.25591 2.861,0.86492 6.4428,-5.38436 z M 458.19495,702.5 c 0.0204,-1.65 0.2445,-2.20394 0.49804,-1.23097 0.25354,0.97297 0.23687,2.32297 -0.0371,3 -0.27393,0.67703 -0.48137,-0.11903 -0.46099,-1.76903 z m 94.884,-4.08333 c 0.048,-1.16495 0.28494,-1.4019 0.60416,-0.60417 0.28887,0.72187 0.25335,1.58438 -0.0789,1.91667 -0.33229,0.33229 -0.56864,-0.25834 -0.52522,-1.3125 z M 508.15789,634 c 0,-1.375 0.22698,-1.9375 0.50439,-1.25 0.27741,0.6875 0.27741,1.8125 0,2.5 -0.27741,0.6875 -0.50439,0.125 -0.50439,-1.25 z M 351.8125,403.31689 c 0.72187,-0.28887 1.58438,-0.25335 1.91667,0.0789 0.33229,0.33229 -0.25834,0.56864 -1.3125,0.52522 -1.16495,-0.048 -1.4019,-0.28494 -0.60417,-0.60416 z m 331.45653,-0.01 c 0.97297,-0.25354 2.32297,-0.23687 3,0.0371 0.67703,0.27393 -0.11903,0.48137 -1.76903,0.46099 -1.65,-0.0204 -2.20394,-0.2445 -1.23097,-0.49804 z m 14.54347,0.01 c 0.72187,-0.28887 1.58438,-0.25335 1.91667,0.0789 0.33229,0.33229 -0.25834,0.56864 -1.3125,0.52522 -1.16495,-0.048 -1.4019,-0.28494 -0.60417,-0.60416 z M 215.26903,382.30701 c 0.97297,-0.25354 2.32297,-0.23687 3,0.0371 0.67703,0.27393 -0.11903,0.48137 -1.76903,0.46099 -1.65,-0.0204 -2.20394,-0.2445 -1.23097,-0.49804 z M 227.15789,376 c 0,-1.375 0.22698,-1.9375 0.50439,-1.25 0.27741,0.6875 0.27741,1.8125 0,2.5 -0.27741,0.6875 -0.50439,0.125 -0.50439,-1.25 z M 380.25,376.31067 c 0.9625,-0.25152 2.5375,-0.25152 3.5,0 0.9625,0.25153 0.175,0.45733 -1.75,0.45733 -1.925,0 -2.7125,-0.2058 -1.75,-0.45733 z m -169.4375,-0.99378 c 0.72187,-0.28887 1.58437,-0.25335 1.91667,0.0789 0.33229,0.33229 -0.25834,0.56864 -1.3125,0.52522 -1.16495,-0.048 -1.4019,-0.28494 -0.60417,-0.60416 z m 597.45653,-0.01 c 0.97297,-0.25354 2.32297,-0.23687 3,0.0371 0.67703,0.27393 -0.11903,0.48137 -1.76903,0.46099 -1.65,-0.0204 -2.20394,-0.2445 -1.23097,-0.49804 z m -365.50737,-2.01427 c 1.24391,-0.23919 3.04391,-0.23011 4,0.0202 0.95609,0.25029 -0.0617,0.446 -2.26166,0.4349 -2.2,-0.0111 -2.98225,-0.21589 -1.73834,-0.45508 z M 312.8125,369.31689 c 0.72187,-0.28887 1.58438,-0.25335 1.91667,0.0789 0.33229,0.33229 -0.25834,0.56864 -1.3125,0.52522 -1.16495,-0.048 -1.4019,-0.28494 -0.60417,-0.60416 z M 225.75,366.33772 c 0.6875,-0.27741 1.8125,-0.27741 2.5,0 0.6875,0.27741 0.125,0.50439 -1.25,0.50439 -1.375,0 -1.9375,-0.22698 -1.25,-0.50439 z m 483.01166,-0.045 c 1.24391,-0.23919 3.04391,-0.23011 4,0.0202 0.95609,0.25029 -0.0617,0.446 -2.26166,0.4349 -2.2,-0.0111 -2.98225,-0.21589 -1.73834,-0.45508 z M 511.77308,318.60306 511.5,280.20612 l 3.5,0.48834 c 13.23381,1.84647 21.29528,8.39639 24.05833,19.54729 0.67856,2.73847 0.9976,8.8644 0.75517,14.5 -0.34027,7.90995 -1.13503,11.88721 -4.19598,20.99824 -3.27884,9.75958 -4.30645,11.69387 -7.80207,14.68599 C 522.9626,354.57983 518.10553,357 514.62195,357 h -2.57579 z m -294.50933,36.67936 c 1.52006,-0.22986 3.77006,-0.22371 5,0.0136 1.22994,0.23736 -0.0137,0.42542 -2.76375,0.41792 -2.75,-0.008 -3.75631,-0.20172 -2.23625,-0.43157 z"
         id="path5" />
      <path
         style="fill:#606060;fill-opacity:1"
         d="m 520.75,864.29427 c 1.2375,-0.23836 3.2625,-0.23836 4.5,0 1.2375,0.23835 0.225,0.43337 -2.25,0.43337 -2.475,0 -3.4875,-0.19502 -2.25,-0.43337 z m 35.0625,-1.97738 c 0.72187,-0.28887 1.58438,-0.25335 1.91667,0.0789 0.33229,0.33229 -0.25834,0.56864 -1.3125,0.52522 -1.16495,-0.048 -1.4019,-0.28494 -0.60417,-0.60416 z M 599,858.62244 c 0,-0.20765 0.7875,-0.99515 1.75,-1.75 1.58606,-1.24387 1.62143,-1.2085 0.37756,0.37756 C 599.82119,858.91575 599,859.44548 599,858.62244 Z M 498.40499,846.75 496.5,844.5 l 2.25,1.90499 c 1.2375,1.04774 2.25,2.06024 2.25,2.25 0,0.80025 -0.80479,0.20945 -2.59501,-1.90499 z m -25.32604,-6.33333 c 0.048,-1.16495 0.28494,-1.4019 0.60416,-0.60417 0.28887,0.72187 0.25335,1.58438 -0.0789,1.91667 -0.33229,0.33229 -0.56864,-0.25834 -0.52522,-1.3125 z M 481.15789,791 c 0,-1.375 0.22698,-1.9375 0.50439,-1.25 0.27741,0.6875 0.27741,1.8125 0,2.5 -0.27741,0.6875 -0.50439,0.125 -0.50439,-1.25 z m 3.14177,-7 c 0,-3.025 0.18747,-4.2625 0.41659,-2.75 0.22913,1.5125 0.22913,3.9875 0,5.5 -0.22912,1.5125 -0.41659,0.275 -0.41659,-2.75 z m -206.42722,-4.75 c -1.24387,-1.58606 -1.2085,-1.62143 0.37756,-0.37756 1.66575,1.30637 2.19548,2.12756 1.37244,2.12756 -0.20765,0 -0.99515,-0.7875 -1.75,-1.75 z m 203.20651,-3.83333 c 0.048,-1.16495 0.28494,-1.4019 0.60416,-0.60417 0.28887,0.72187 0.25335,1.58438 -0.0789,1.91667 -0.33229,0.33229 -0.56864,-0.25834 -0.52522,-1.3125 z M 749,776.62244 c 0,-0.20765 0.7875,-0.99515 1.75,-1.75 1.58606,-1.24387 1.62143,-1.2085 0.37756,0.37756 C 749.82119,776.91575 749,777.44548 749,776.62244 Z M 270.40499,772.75 268.5,770.5 l 2.25,1.90499 c 2.11444,1.79022 2.70524,2.59501 1.90499,2.59501 -0.18976,0 -1.20226,-1.0125 -2.25,-2.25 z M 759,767.5 c 1.29175,-1.375 2.57363,-2.5 2.84863,-2.5 0.275,0 -0.55688,1.125 -1.84863,2.5 -1.29175,1.375 -2.57363,2.5 -2.84863,2.5 -0.275,0 0.55688,-1.125 1.84863,-2.5 z M 543.15789,766 c 0,-1.375 0.22698,-1.9375 0.50439,-1.25 0.27741,0.6875 0.27741,1.8125 0,2.5 -0.27741,0.6875 -0.50439,0.125 -0.50439,-1.25 z M 254,757.5 c -4.09747,-4.125 -7.22494,-7.5 -6.94994,-7.5 0.275,0 3.85247,3.375 7.94994,7.5 4.09747,4.125 7.22494,7.5 6.94994,7.5 -0.275,0 -3.85247,-3.375 -7.94994,-7.5 z m 194.30987,-1 c 0.006,-3.3 0.1923,-4.52944 0.41486,-2.73209 0.22256,1.79735 0.21797,4.49735 -0.0102,6 -0.22818,1.50265 -0.41027,0.0321 -0.40466,-3.26791 z M 767.5,754 c 2.14824,-2.2 4.1309,-4 4.4059,-4 0.275,0 -1.25766,1.8 -3.4059,4 -2.14824,2.2 -4.1309,4 -4.4059,4 -0.275,0 1.25766,-1.8 3.4059,-4 z m -286.42105,-5.58333 c 0.048,-1.16495 0.28494,-1.4019 0.60416,-0.60417 0.28887,0.72187 0.25335,1.58438 -0.0789,1.91667 -0.33229,0.33229 -0.56864,-0.25834 -0.52522,-1.3125 z M 778,748.68709 c 0,-0.1721 1.4625,-1.6346 3.25,-3.25 l 3.25,-2.93709 -2.93709,3.25 C 778.82513,748.77946 778,749.45965 778,748.68709 Z m -235.92105,-4.27042 c 0.048,-1.16495 0.28494,-1.4019 0.60416,-0.60417 0.28887,0.72187 0.25335,1.58438 -0.0789,1.91667 -0.33229,0.33229 -0.56864,-0.25834 -0.52522,-1.3125 z M 237.87244,740.25 c -1.24387,-1.58606 -1.2085,-1.62143 0.37756,-0.37756 0.9625,0.75485 1.75,1.54235 1.75,1.75 0,0.82304 -0.82119,0.29331 -2.12756,-1.37244 z M 542.15789,740 c 0,-1.375 0.22698,-1.9375 0.50439,-1.25 0.27741,0.6875 0.27741,1.8125 0,2.5 -0.27741,0.6875 -0.50439,0.125 -0.50439,-1.25 z M 788.5,737 c 0.99549,-1.1 2.03498,-2 2.30998,-2 0.275,0 -0.31449,0.9 -1.30998,2 -0.99549,1.1 -2.03498,2 -2.30998,2 -0.275,0 0.31449,-0.9 1.30998,-2 z m 4.5,-5.37756 c 0,-0.20765 0.7875,-0.99515 1.75,-1.75 1.58606,-1.24387 1.62143,-1.2085 0.37756,0.37756 C 793.82119,731.91575 793,732.44548 793,731.62244 Z m -255.23834,-14.3297 c 1.24391,-0.23919 3.04391,-0.23011 4,0.0202 0.95609,0.25029 -0.0617,0.446 -2.26166,0.4349 -2.2,-0.0111 -2.98225,-0.21589 -1.73834,-0.45508 z M 484.5,716 c -0.33992,-0.55 -0.14148,-1 0.44098,-1 0.58246,0 1.05902,0.45 1.05902,1 0,0.55 -0.19844,1 -0.44098,1 -0.24254,0 -0.7191,-0.45 -1.05902,-1 z m 42.95888,-15.06653 c -1.02606,-1.66021 -0.10511,-1.89043 1.33055,-0.33261 0.70918,0.76953 0.84824,1.39914 0.30901,1.39914 -0.53922,0 -1.27702,-0.47994 -1.63956,-1.06653 z M 458.19495,697.5 c 0.0204,-1.65 0.2445,-2.20394 0.49804,-1.23097 0.25354,0.97297 0.23687,2.32297 -0.0371,3 -0.27393,0.67703 -0.48137,-0.11903 -0.46099,-1.76903 z m 55.884,-3.08333 c 0.048,-1.16495 0.28494,-1.4019 0.60416,-0.60417 0.28887,0.72187 0.25335,1.58438 -0.0789,1.91667 -0.33229,0.33229 -0.56864,-0.25834 -0.52522,-1.3125 z m 38,-10 c 0.048,-1.16495 0.28494,-1.4019 0.60416,-0.60417 0.28887,0.72187 0.25335,1.58438 -0.0789,1.91667 -0.33229,0.33229 -0.56864,-0.25834 -0.52522,-1.3125 z M 512.19495,618.5 c 0.0204,-1.65 0.2445,-2.20394 0.49804,-1.23097 0.25354,0.97297 0.23687,2.32297 -0.0371,3 -0.27393,0.67703 -0.48137,-0.11903 -0.46099,-1.76903 z m 53.09106,-27 c 0.008,-2.75 0.20172,-3.75631 0.43157,-2.23625 0.22986,1.52006 0.22371,3.77006 -0.0136,5 -0.23736,1.22994 -0.42542,-0.0137 -0.41792,-2.76375 z m -0.0911,-10 c 0.0204,-1.65 0.2445,-2.20394 0.49804,-1.23097 0.25354,0.97297 0.23687,2.32297 -0.0371,3 -0.27393,0.67703 -0.48137,-0.11903 -0.46099,-1.76903 z m -112.116,-1.08333 c 0.048,-1.16495 0.28494,-1.4019 0.60416,-0.60417 0.28887,0.72187 0.25335,1.58438 -0.0789,1.91667 -0.33229,0.33229 -0.56864,-0.25834 -0.52522,-1.3125 z M 563.27236,542 c 0,-2.475 0.19502,-3.4875 0.43337,-2.25 0.23836,1.2375 0.23836,3.2625 0,4.5 -0.23835,1.2375 -0.43337,0.225 -0.43337,-2.25 z m 311.80659,-14.58333 c 0.048,-1.16495 0.28494,-1.4019 0.60416,-0.60417 0.28887,0.72187 0.25335,1.58438 -0.0789,1.91667 -0.33229,0.33229 -0.56864,-0.25834 -0.52522,-1.3125 z M 148.15789,525 c 0,-1.375 0.22698,-1.9375 0.50439,-1.25 0.27741,0.6875 0.27741,1.8125 0,2.5 -0.27741,0.6875 -0.50439,0.125 -0.50439,-1.25 z m 410.09429,-21.5 c 0.0111,-2.2 0.21589,-2.98225 0.45508,-1.73834 0.23919,1.24391 0.23011,3.04391 -0.0202,4 -0.25029,0.95609 -0.446,-0.0617 -0.4349,-2.26166 z M 148.07895,482.41667 c 0.048,-1.16495 0.28494,-1.4019 0.60416,-0.60417 0.28887,0.72187 0.25335,1.58438 -0.0789,1.91667 -0.3323,0.33229 -0.56864,-0.25834 -0.52522,-1.3125 z M 875.15789,482 c 0,-1.375 0.22698,-1.9375 0.50439,-1.25 0.27741,0.6875 0.27741,1.8125 0,2.5 -0.27741,0.6875 -0.50439,0.125 -0.50439,-1.25 z M 570.07895,431.41667 c 0.048,-1.16495 0.28494,-1.4019 0.60416,-0.60417 0.28887,0.72187 0.25335,1.58438 -0.0789,1.91667 -0.33229,0.33229 -0.56864,-0.25834 -0.52522,-1.3125 z m 33.19008,-22.10966 c 0.97297,-0.25354 2.32297,-0.23687 3,0.0371 0.67703,0.27393 -0.11903,0.48137 -1.76903,0.46099 -1.65,-0.0204 -2.20394,-0.2445 -1.23097,-0.49804 z M 587.75,408.33772 c 0.6875,-0.27741 1.8125,-0.27741 2.5,0 0.6875,0.27741 0.125,0.50439 -1.25,0.50439 -1.375,0 -1.9375,-0.22698 -1.25,-0.50439 z m -255.9375,-5.02083 c 0.72187,-0.28887 1.58438,-0.25335 1.91667,0.0789 0.33229,0.33229 -0.25834,0.56864 -1.3125,0.52522 -1.16495,-0.048 -1.4019,-0.28494 -0.60417,-0.60416 z m 15.45653,-0.01 c 0.97297,-0.25354 2.32297,-0.23687 3,0.0371 0.67703,0.27393 -0.11903,0.48137 -1.76903,0.46099 -1.65,-0.0204 -2.20394,-0.2445 -1.23097,-0.49804 z M 689.25,403.28375 c 1.5125,-0.22913 3.9875,-0.22913 5.5,0 1.5125,0.22912 0.275,0.41659 -2.75,0.41659 -3.025,0 -4.2625,-0.18747 -2.75,-0.41659 z m -356.5,-3.02626 c 3.9875,-0.18981 10.5125,-0.18981 14.5,0 3.9875,0.18982 0.725,0.34512 -7.25,0.34512 -7.975,0 -11.2375,-0.1553 -7.25,-0.34512 z m 329.51903,-0.95048 c 0.97297,-0.25354 2.32297,-0.23687 3,0.0371 0.67703,0.27393 -0.11903,0.48137 -1.76903,0.46099 -1.65,-0.0204 -2.20394,-0.2445 -1.23097,-0.49804 z M 498.8125,382.31689 c 0.72187,-0.28887 1.58438,-0.25335 1.91667,0.0789 0.33229,0.33229 -0.25834,0.56864 -1.3125,0.52522 -1.16495,-0.048 -1.4019,-0.28494 -0.60417,-0.60416 z m 140.45653,-6.00988 c 0.97297,-0.25354 2.32297,-0.23687 3,0.0371 0.67703,0.27393 -0.11903,0.48137 -1.76903,0.46099 -1.65,-0.0204 -2.20394,-0.2445 -1.23097,-0.49804 z m -425,-1 c 0.97297,-0.25354 2.32297,-0.23687 3,0.0371 0.67703,0.27393 -0.11903,0.48137 -1.76903,0.46099 -1.65,-0.0204 -2.20394,-0.2445 -1.23097,-0.49804 z m 590.54347,0.01 c 0.72187,-0.28887 1.58438,-0.25335 1.91667,0.0789 0.33229,0.33229 -0.25834,0.56864 -1.3125,0.52522 -1.16495,-0.048 -1.4019,-0.28494 -0.60417,-0.60416 z m -586.54347,-3.00988 c 0.97297,-0.25354 2.32297,-0.23687 3,0.0371 0.67703,0.27393 -0.11903,0.48137 -1.76903,0.46099 -1.65,-0.0204 -2.20394,-0.2445 -1.23097,-0.49804 z m 363.54347,-1.99012 c 0.72187,-0.28887 1.58438,-0.25335 1.91667,0.0789 0.33229,0.33229 -0.25834,0.56864 -1.3125,0.52522 -1.16495,-0.048 -1.4019,-0.28494 -0.60417,-0.60416 z m -272,-1 c 0.72187,-0.28887 1.58438,-0.25335 1.91667,0.0789 0.33229,0.33229 -0.25834,0.56864 -1.3125,0.52522 -1.16495,-0.048 -1.4019,-0.28494 -0.60417,-0.60416 z m -0.0508,-3.02415 c 1.24391,-0.23919 3.04391,-0.23011 4,0.0202 0.95609,0.25029 -0.0617,0.446 -2.26166,0.4349 -2.2,-0.0111 -2.98225,-0.21589 -1.73834,-0.45508 z m 212.31729,-0.10176 c -0.0452,-0.74876 -0.61395,-1.00697 -1.32895,-0.60329 -0.99237,0.56026 -0.9958,0.43159 -0.0167,-0.62432 1.4224,-1.53392 2.72596,-0.71551 1.94978,1.22413 -0.43135,1.07794 -0.53932,1.07856 -0.60416,0.003 z m -8.26645,-5.87409 c 0.72187,-0.28887 1.58438,-0.25335 1.91667,0.0789 0.33229,0.33229 -0.25834,0.56864 -1.3125,0.52522 -1.16495,-0.048 -1.4019,-0.28494 -0.60417,-0.60416 z M 525,356.62244 c 0,-0.20765 0.7875,-0.99515 1.75,-1.75 1.58606,-1.24387 1.62143,-1.2085 0.37756,0.37756 C 525.82119,356.91575 525,357.44548 525,356.62244 Z m -312.1875,-1.30555 c 0.72187,-0.28887 1.58437,-0.25335 1.91667,0.0789 0.33229,0.33229 -0.25834,0.56864 -1.3125,0.52522 -1.16495,-0.048 -1.4019,-0.28494 -0.60417,-0.60416 z m 5.9375,-3.97917 c 0.6875,-0.27741 1.8125,-0.27741 2.5,0 0.6875,0.27741 0.125,0.50439 -1.25,0.50439 -1.375,0 -1.9375,-0.22698 -1.25,-0.50439 z M 540.232,311 c 0,-1.925 0.2058,-2.7125 0.45733,-1.75 0.25152,0.9625 0.25152,2.5375 0,3.5 -0.25153,0.9625 -0.45733,0.175 -0.45733,-1.75 z m 246.64044,-40.75 c -1.24387,-1.58606 -1.2085,-1.62143 0.37756,-0.37756 0.9625,0.75485 1.75,1.54235 1.75,1.75 0,0.82304 -0.82119,0.29331 -2.12756,-1.37244 z M 238.5,268 c 0.99549,-1.1 2.03498,-2 2.30998,-2 0.275,0 -0.31449,0.9 -1.30998,2 -0.99549,1.1 -2.03498,2 -2.30998,2 -0.275,0 0.31449,-0.9 1.30998,-2 z M 769.48295,251.75 758.5,240.5 769.75,251.48295 C 780.19944,261.68434 781.45409,263 780.73295,263 c -0.14688,0 -5.20938,-5.0625 -11.25,-11.25 z m -3.01425,2 -5.9687,-6.25 6.25,5.9687 c 5.80572,5.54441 6.7076,6.5313 5.9687,6.5313 -0.15472,0 -2.96722,-2.8125 -6.25,-6.25 z M 253,252.5 c 2.98742,-3.025 5.65668,-5.5 5.93168,-5.5 0.275,0 -1.94426,2.475 -4.93168,5.5 -2.98742,3.025 -5.65668,5.5 -5.93168,5.5 -0.275,0 1.94426,-2.475 4.93168,-5.5 z M 268.5,238 c 0.99549,-1.1 2.03498,-2 2.30998,-2 0.275,0 -0.31449,0.9 -1.30998,2 -0.99549,1.1 -2.03498,2 -2.30998,2 -0.275,0 0.31449,-0.9 1.30998,-2 z m 482.37244,-3.75 c -1.24387,-1.58606 -1.2085,-1.62143 0.37756,-0.37756 1.66575,1.30637 2.19548,2.12756 1.37244,2.12756 -0.20765,0 -0.99515,-0.7875 -1.75,-1.75 z M 275,232.62244 c 0,-0.20765 0.7875,-0.99515 1.75,-1.75 1.58606,-1.24387 1.62143,-1.2085 0.37756,0.37756 C 275.82119,232.91575 275,233.44548 275,232.62244 Z m 208.8125,-87.30555 c 0.72187,-0.28887 1.58438,-0.25335 1.91667,0.0789 0.33229,0.33229 -0.25834,0.56864 -1.3125,0.52522 -1.16495,-0.048 -1.4019,-0.28494 -0.60417,-0.60416 z m 55,0 c 0.72187,-0.28887 1.58438,-0.25335 1.91667,0.0789 0.33229,0.33229 -0.25834,0.56864 -1.3125,0.52522 -1.16495,-0.048 -1.4019,-0.28494 -0.60417,-0.60416 z m -30.02898,-1.05529 c 2.90594,-0.20265 7.40594,-0.20052 10,0.005 2.59406,0.20525 0.21648,0.37104 -5.28352,0.36844 -5.5,-0.003 -7.62242,-0.17053 -4.71648,-0.37317 z"
         id="path4" />
      <path
         style="fill:#494949;fill-opacity:1"
         d="m 482.75,865.33772 c 0.6875,-0.27741 1.8125,-0.27741 2.5,0 0.6875,0.27741 0.125,0.50439 -1.25,0.50439 -1.375,0 -1.9375,-0.22698 -1.25,-0.50439 z m 30,-1.04345 c 1.2375,-0.23836 3.2625,-0.23836 4.5,0 1.2375,0.23835 0.225,0.43337 -2.25,0.43337 -2.475,0 -3.4875,-0.19502 -2.25,-0.43337 z m 27,-0.95655 c 0.6875,-0.27741 1.8125,-0.27741 2.5,0 0.6875,0.27741 0.125,0.50439 -1.25,0.50439 -1.375,0 -1.9375,-0.22698 -1.25,-0.50439 z m 13.0625,-1.02083 c 0.72187,-0.28887 1.58438,-0.25335 1.91667,0.0789 0.33229,0.33229 -0.25834,0.56864 -1.3125,0.52522 -1.16495,-0.048 -1.4019,-0.28494 -0.60417,-0.60416 z m -61.24821,-1.61002 c 0.37553,-0.98622 0.93469,-1.54122 1.24258,-1.23333 0.30789,0.30789 6.4e-4,1.11479 -0.68278,1.79313 -0.98762,0.98026 -1.10248,0.8654 -0.5598,-0.5598 z m 93.69946,-0.42445 c 1.52006,-0.22986 3.77006,-0.22371 5,0.0136 1.22994,0.23736 -0.0137,0.42542 -2.76375,0.41792 -2.75,-0.008 -3.75631,-0.20172 -2.23625,-0.43157 z m -89.1848,-1.86575 c 0.048,-1.16495 0.28494,-1.4019 0.60416,-0.60417 0.28887,0.72187 0.25335,1.58438 -0.0789,1.91667 -0.33229,0.33229 -0.56864,-0.25834 -0.52522,-1.3125 z m 24.90587,0.0615 c -1.83665,-2.21735 -1.67248,-9.24799 0.44916,-19.23573 1.89106,-8.90225 1.27469,-12.36842 -5.46678,-30.74248 -2.99138,-8.15308 -5.03721,-15.60988 -5.48716,-20 -0.42973,-4.19282 -1.76704,-9.20564 -3.33473,-12.5 -4.32504,-9.08868 -4.14602,-18.40733 0.7947,-41.36657 C 510.173,724.25681 512,715.66023 512,715.52991 c 0,-0.13031 2.22579,0.34043 4.94619,1.04609 2.72041,0.70566 9.69541,1.60116 15.5,1.98998 5.8046,0.38883 10.55381,1.10124 10.55381,1.58315 0,0.4819 -0.84199,3.91461 -1.87109,7.62824 -1.69382,6.11235 -1.83418,9.82982 -1.48147,39.23734 0.21429,17.86691 0.89012,35.62337 1.50185,39.4588 3.52213,22.08317 12.83062,33.00181 33.7157,39.54775 5.29926,1.66092 11.43501,3.25912 13.63501,3.55154 9.37506,1.24613 10.5,1.56213 10.5,2.94946 0,3.10192 -4.69167,4.77647 -11.77978,4.20443 -5.13725,-0.4146 -8.15456,-0.0722 -12.80946,1.4534 -5.67677,1.86056 -6.65016,1.90245 -14.36976,0.61832 -5.20395,-0.86566 -10.37238,-1.10746 -13.91075,-0.6508 -3.09664,0.39965 -9.68708,1.04086 -14.64543,1.42491 -7.96827,0.61719 -9.18762,0.49011 -10.5,-1.09431 z M 531.57365,838.75 c -0.25545,-1.2375 -0.75784,-4.5 -1.11643,-7.25 -0.76912,-5.8985 -1.39545,-7.20556 -2.56691,-5.35676 -1.2447,1.96439 -1.08279,9.3402 0.27021,12.30971 1.46692,3.21955 4.06305,3.44549 3.41313,0.29705 z m -27.62748,13.5 -3.44617,-3.75 3.75,3.44617 c 2.0625,1.89539 3.75,3.58289 3.75,3.75 0,0.76362 -0.84622,0.0442 -4.05383,-3.44617 z M 481.32007,783 c 0,-3.575 0.1815,-5.0375 0.40333,-3.25 0.22182,1.7875 0.22182,4.7125 0,6.5 -0.22183,1.7875 -0.40333,0.325 -0.40333,-3.25 z M 266.87244,769.25 c -1.24387,-1.58606 -1.2085,-1.62143 0.37756,-0.37756 1.66575,1.30637 2.19548,2.12756 1.37244,2.12756 -0.20765,0 -0.99515,-0.7875 -1.75,-1.75 z M 482.29966,761 c 0,-3.025 0.18747,-4.2625 0.41659,-2.75 0.22913,1.5125 0.22913,3.9875 0,5.5 -0.22912,1.5125 -0.41659,0.275 -0.41659,-2.75 z M 769.5,757 c 4.37419,-4.4 8.17808,-8 8.45308,-8 0.275,0 -3.07889,3.6 -7.45308,8 -4.37419,4.4 -8.17808,8 -8.45308,8 -0.275,0 3.07889,-3.6 7.45308,-8 z m -8.5,3.62244 c 0,-0.20765 0.7875,-0.99515 1.75,-1.75 1.58606,-1.24387 1.62143,-1.2085 0.37756,0.37756 C 761.82119,760.91575 761,761.44548 761,760.62244 Z M 542.07895,747.41667 c 0.048,-1.16495 0.28494,-1.4019 0.60416,-0.60417 0.28887,0.72187 0.25335,1.58438 -0.0789,1.91667 -0.33229,0.33229 -0.56864,-0.25834 -0.52522,-1.3125 z m -61,-2 c 0.048,-1.16495 0.28494,-1.4019 0.60416,-0.60417 0.28887,0.72187 0.25335,1.58438 -0.0789,1.91667 -0.33229,0.33229 -0.56864,-0.25834 -0.52522,-1.3125 z M 240.87244,743.25 c -1.24387,-1.58606 -1.2085,-1.62143 0.37756,-0.37756 0.9625,0.75485 1.75,1.54235 1.75,1.75 0,0.82304 -0.82119,0.29331 -2.12756,-1.37244 z M 479.25,715.31067 c 0.9625,-0.25152 2.5375,-0.25152 3.5,0 0.9625,0.25153 0.175,0.45733 -1.75,0.45733 -1.925,0 -2.7125,-0.2058 -1.75,-0.45733 z m 52.5,-1.97295 c 0.6875,-0.27741 1.8125,-0.27741 2.5,0 0.6875,0.27741 0.125,0.50439 -1.25,0.50439 -1.375,0 -1.9375,-0.22698 -1.25,-0.50439 z m -18.67105,-10.92105 c 0.048,-1.16495 0.28494,-1.4019 0.60416,-0.60417 0.28887,0.72187 0.25335,1.58438 -0.0789,1.91667 -0.33229,0.33229 -0.56864,-0.25834 -0.52522,-1.3125 z m 1,-11 c 0.048,-1.16495 0.28494,-1.4019 0.60416,-0.60417 0.28887,0.72187 0.25335,1.58438 -0.0789,1.91667 -0.33229,0.33229 -0.56864,-0.25834 -0.52522,-1.3125 z M 514.15789,662 c 0,-1.375 0.22698,-1.9375 0.50439,-1.25 0.27741,0.6875 0.27741,1.8125 0,2.5 -0.27741,0.6875 -0.50439,0.125 -0.50439,-1.25 z m -2,-48 c 0,-1.375 0.22698,-1.9375 0.50439,-1.25 0.27741,0.6875 0.27741,1.8125 0,2.5 -0.27741,0.6875 -0.50439,0.125 -0.50439,-1.25 z m 51.92106,-2.58333 c 0.048,-1.16495 0.28494,-1.4019 0.60416,-0.60417 0.28887,0.72187 0.25335,1.58438 -0.0789,1.91667 -0.33229,0.33229 -0.56864,-0.25834 -0.52522,-1.3125 z M 565.15789,598 c 0,-1.375 0.22698,-1.9375 0.50439,-1.25 0.27741,0.6875 0.27741,1.8125 0,2.5 -0.27741,0.6875 -0.50439,0.125 -0.50439,-1.25 z m -0.0789,-20.58333 c 0.048,-1.16495 0.28494,-1.4019 0.60416,-0.60417 0.28887,0.72187 0.25335,1.58438 -0.0789,1.91667 -0.33229,0.33229 -0.56864,-0.25834 -0.52522,-1.3125 z m -1,-12 c 0.048,-1.16495 0.28494,-1.4019 0.60416,-0.60417 0.28887,0.72187 0.25335,1.58438 -0.0789,1.91667 -0.33229,0.33229 -0.56864,-0.25834 -0.52522,-1.3125 z m 310,-28 c 0.048,-1.16495 0.28494,-1.4019 0.60416,-0.60417 0.28887,0.72187 0.25335,1.58438 -0.0789,1.91667 -0.33229,0.33229 -0.56864,-0.25834 -0.52522,-1.3125 z M 563.15789,536 c 0,-1.375 0.22698,-1.9375 0.50439,-1.25 0.27741,0.6875 0.27741,1.8125 0,2.5 -0.27741,0.6875 -0.50439,0.125 -0.50439,-1.25 z m 312,-12 c 0,-1.375 0.22698,-1.9375 0.50439,-1.25 0.27741,0.6875 0.27741,1.8125 0,2.5 -0.27741,0.6875 -0.50439,0.125 -0.50439,-1.25 z m -727,-3 c 0,-1.375 0.22698,-1.9375 0.50439,-1.25 0.27741,0.6875 0.27741,1.8125 0,2.5 -0.27741,0.6875 -0.50439,0.125 -0.50439,-1.25 z m 3.12812,-15.5 c 0.008,-2.75 0.20172,-3.75631 0.43157,-2.23625 0.22986,1.52006 0.22371,3.77006 -0.0136,5 -0.23736,1.22994 -0.42542,-0.0138 -0.41792,-2.76375 z m -3.09106,-19 c 0.0204,-1.65 0.2445,-2.20394 0.49804,-1.23097 0.25354,0.97297 0.23687,2.32297 -0.0371,3 -0.27393,0.67703 -0.48137,-0.11903 -0.46099,-1.76903 z m 726.884,-1.08333 c 0.048,-1.16495 0.28494,-1.4019 0.60416,-0.60417 0.28887,0.72187 0.25335,1.58438 -0.0789,1.91667 -0.33229,0.33229 -0.56864,-0.25834 -0.52522,-1.3125 z m -726,-13 c 0.048,-1.16495 0.28494,-1.4019 0.60416,-0.60417 0.28887,0.72187 0.25335,1.58438 -0.0789,1.91667 -0.3323,0.33229 -0.56864,-0.25834 -0.52522,-1.3125 z M 598.75,409.33772 c 0.6875,-0.27741 1.8125,-0.27741 2.5,0 0.6875,0.27741 0.125,0.50439 -1.25,0.50439 -1.375,0 -1.9375,-0.22698 -1.25,-0.50439 z m 9,0 c 0.6875,-0.27741 1.8125,-0.27741 2.5,0 0.6875,0.27741 0.125,0.50439 -1.25,0.50439 -1.375,0 -1.9375,-0.22698 -1.25,-0.50439 z m -271,-6.06112 c 1.7875,-0.22182 4.7125,-0.22182 6.5,0 1.7875,0.22183 0.325,0.40333 -3.25,0.40333 -3.575,0 -5.0375,-0.1815 -3.25,-0.40333 z m -12.9375,-2.95971 c 0.72187,-0.28887 1.58438,-0.25335 1.91667,0.0789 0.33229,0.33229 -0.25834,0.56864 -1.3125,0.52522 -1.16495,-0.048 -1.4019,-0.28494 -0.60417,-0.60416 z m 31.4375,-0.006 c 0.9625,-0.25152 2.5375,-0.25152 3.5,0 0.9625,0.25153 0.175,0.45733 -1.75,0.45733 -1.925,0 -2.7125,-0.2058 -1.75,-0.45733 z m 301,-1 c 0.9625,-0.25152 2.5375,-0.25152 3.5,0 0.9625,0.25153 0.175,0.45733 -1.75,0.45733 -1.925,0 -2.7125,-0.2058 -1.75,-0.45733 z m 13.74537,-5.46632 c 0.37546,-4.72043 0.88507,-6.34435 1.99093,-6.34435 3.04749,0 2.02403,-3.33531 -2.10905,-6.87307 -2.32258,-1.98805 -4.03261,-3.7827 -3.80007,-3.9881 0.23255,-0.20541 5.14782,-1.67068 10.92282,-3.25615 10.38093,-2.84999 10.8232,-2.88373 39,-2.97492 25.8955,-0.0838 43.17786,-1.22669 46.31284,-3.06265 0.65294,-0.38238 3.77665,-2.70941 6.94158,-5.17116 5.5874,-4.34602 5.81187,-4.42393 7.73383,-2.68458 1.62334,1.4691 3.09527,1.69016 8.18251,1.22886 5.42296,-0.49173 6.83986,-0.22641 11.26617,2.10965 L 801.5,365.5 796,365.74932 c -10.30053,0.46692 -11.72914,0.99644 -14.10808,5.2292 -2.18584,3.88916 -4.24277,5.17233 -10.89192,6.79465 -4.55906,1.11237 -4.08805,2.64588 0.93121,3.03183 3.59877,0.27672 4.52672,-0.21002 10.00896,-5.25 5.20294,-4.78321 6.59142,-5.555 9.99364,-5.555 3.92716,0 3.95306,0.0256 4.25869,4.20967 l 0.3075,4.20968 6,1.54032 6,1.54033 -9,0.52334 c -6.38968,0.37156 -11.21855,1.34141 -16.64923,3.3439 -7.11162,2.62232 -8.11369,2.74824 -14.25767,1.79171 -7.37736,-1.14854 -11.72444,-0.30952 -41.0931,7.93135 l -15,4.20901 -21.50463,0.44469 -21.50464,0.4447 z M 248.8125,390.31689 c 0.72187,-0.28887 1.58437,-0.25335 1.91667,0.0789 0.33229,0.33229 -0.25834,0.56864 -1.3125,0.52522 -1.16495,-0.048 -1.4019,-0.28494 -0.60417,-0.60416 z m -1.0625,-2.97917 c 0.6875,-0.27741 1.8125,-0.27741 2.5,0 0.6875,0.27741 0.125,0.50439 -1.25,0.50439 -1.375,0 -1.9375,-0.22698 -1.25,-0.50439 z m 279.0625,-5.02083 c 0.72187,-0.28887 1.58438,-0.25335 1.91667,0.0789 0.33229,0.33229 -0.25834,0.56864 -1.3125,0.52522 -1.16495,-0.048 -1.4019,-0.28494 -0.60417,-0.60416 z m -292.73355,-2.90022 c 0.048,-1.16495 0.28494,-1.4019 0.60416,-0.60417 0.28887,0.72187 0.25335,1.58438 -0.0789,1.91667 -0.3323,0.33229 -0.56864,-0.25834 -0.52522,-1.3125 z M 219.5,376 c -1.90836,-0.82005 -1.8969,-0.86265 0.25,-0.92971 1.2375,-0.0387 2.25,0.37971 2.25,0.92971 0,0.55 -0.1125,0.96837 -0.25,0.92971 -0.1375,-0.0387 -1.15,-0.45702 -2.25,-0.92971 z m 414.76903,0.30701 c 0.97297,-0.25354 2.32297,-0.23687 3,0.0371 0.67703,0.27393 -0.11903,0.48137 -1.76903,0.46099 -1.65,-0.0204 -2.20394,-0.2445 -1.23097,-0.49804 z m 10,0 c 0.97297,-0.25354 2.32297,-0.23687 3,0.0371 0.67703,0.27393 -0.11903,0.48137 -1.76903,0.46099 -1.65,-0.0204 -2.20394,-0.2445 -1.23097,-0.49804 z M 577.25,373.28375 c 1.5125,-0.22913 3.9875,-0.22913 5.5,0 1.5125,0.22912 0.275,0.41659 -2.75,0.41659 -3.025,0 -4.2625,-0.18747 -2.75,-0.41659 z m 222.51481,-2.44856 C 802.18573,368.41427 819,368.59795 819,371.04531 819,371.58916 814.61058,372 808.8,372 c -7.76213,0 -9.9216,-0.2784 -9.03519,-1.16481 z M 315.75,366.33772 c 0.6875,-0.27741 1.8125,-0.27741 2.5,0 0.6875,0.27741 0.125,0.50439 -1.25,0.50439 -1.375,0 -1.9375,-0.22698 -1.25,-0.50439 z m 493.07611,-1.06165 c -2.02064,-0.21325 -4.21324,-1.0376 -4.87244,-1.8319 -1.02855,-1.23932 -0.0819,-1.43003 6.67389,-1.34449 8.81171,0.11157 12.52887,0.8696 13.13163,2.6779 0.40713,1.22139 -6.04299,1.43671 -14.93308,0.49849 z m -15.46178,-7.76493 c -2.2643,-0.95206 -4.44321,-1.04202 -8.29268,-0.34235 -8.93781,1.62449 -8.9805,0.35947 -0.0716,-2.12338 9.32624,-2.59917 23.22076,-3.72881 30.70563,-2.4964 4.57101,0.75264 4.6546,0.82261 1.79437,1.50189 -1.65,0.39186 -5.97681,0.76571 -9.61514,0.83079 -4.85478,0.0868 -7.25835,0.62426 -9.0322,2.01957 -2.12611,1.6724 -2.78675,1.74581 -5.48833,0.60988 z M 758.87244,246.25 c -1.24387,-1.58606 -1.2085,-1.62143 0.37756,-0.37756 1.66575,1.30637 2.19548,2.12756 1.37244,2.12756 -0.20765,0 -0.99515,-0.7875 -1.75,-1.75 z m -5,-9 c -1.24387,-1.58606 -1.2085,-1.62143 0.37756,-0.37756 1.66575,1.30637 2.19548,2.12756 1.37244,2.12756 -0.20765,0 -0.99515,-0.7875 -1.75,-1.75 z M 486.75,145.33772 c 0.6875,-0.27741 1.8125,-0.27741 2.5,0 0.6875,0.27741 0.125,0.50439 -1.25,0.50439 -1.375,0 -1.9375,-0.22698 -1.25,-0.50439 z m 49.0625,-0.0208 c 0.72187,-0.28887 1.58438,-0.25335 1.91667,0.0789 0.33229,0.33229 -0.25834,0.56864 -1.3125,0.52522 -1.16495,-0.048 -1.4019,-0.28494 -0.60417,-0.60416 z"
         id="path3" />
      <path
         style="fill:#333333;fill-opacity:1"
         d="m 482.5,865.33637 c -5.90018,-0.60016 -48.42373,-9.0958 -60,-11.98721 -47.43882,-11.84881 -97.88322,-37.21121 -138,-69.38353 C 267.48619,770.32112 241.1378,743.93166 227.62301,727 167.17023,651.26326 139.74451,557.84358 150.51429,464.34611 166.58385,324.83866 265.6019,206.34947 403.5,161.61269 c 32.73789,-10.62079 61.27291,-15.30961 99,-16.26747 43.93695,-1.11552 80.6577,4.0084 120.10132,16.75864 56.61024,18.29938 103.81244,47.31035 147.00449,90.35049 40.9707,40.82662 70.05865,87.49015 87.95841,141.10483 12.82821,38.42401 17.94237,70.31131 17.87315,111.44082 -0.0435,25.84625 -0.80715,35.62302 -4.51788,57.8409 -18.6437,111.62876 -92.79388,210.98277 -196.09365,262.74637 -19.99487,10.01945 -53.42297,22.97931 -66.83263,25.91058 -2.12364,0.46422 -4.68373,2.13763 -6.52974,4.26822 -2.91384,3.36302 -3.39869,3.53611 -12,4.28396 -4.92991,0.42864 -11.75867,1.44879 -15.17502,2.267 -4.59761,1.10112 -7.32581,1.2364 -10.5,0.52065 -2.81006,-0.63364 -9.11477,-0.60279 -18.28845,0.0895 -7.7,0.58108 -22.325,1.3207 -32.5,1.64359 -10.175,0.32289 -20.3,0.71878 -22.5,0.87976 -2.2,0.16099 -5.8,0.10961 -8,-0.11417 z m 10.5,-7.12572 c 0.63101,-4.15121 2.34054,-4.523 3.00698,-0.65395 0.41659,2.4186 1.17922,3.10966 4.27798,3.8765 4.04053,0.9999 8.76099,-0.0577 9.44427,-2.11603 0.21596,-0.65055 -2.71937,-4.47555 -6.52296,-8.5 -7.9567,-8.4187 -8.73258,-9.69145 -9.64229,-15.81717 -0.36755,-2.475 -2.2485,-7.95613 -4.17989,-12.1803 -6.00669,-13.13728 -7.34816,-22.50625 -7.49126,-52.3197 -0.0686,-14.3 -0.14673,-29.375 -0.17354,-33.5 -0.0417,-6.40918 1.38912,-13.90701 3.90485,-20.46292 C 486.10792,715.27639 485.28385,715 481.04125,715 475.76227,715 472,713.72235 472,711.92963 c 0,-0.62056 0.8142,-0.56425 2.14581,0.14841 3.14983,1.68573 11.87974,0.60751 13.54746,-1.67324 0.74664,-1.02109 2.72518,-6.12606 4.39676,-11.34437 2.93567,-9.16458 3.0299,-10.03421 2.76572,-25.52413 -0.26704,-15.65749 -0.19917,-16.26071 2.87315,-25.5363 3.2878,-9.92616 7.06106,-26.7236 9.70035,-43.18313 0.85398,-5.32573 2.09841,-10.88086 2.7654,-12.34474 1.08547,-2.38235 1.29094,-2.46806 1.95825,-0.81687 0.41004,1.01461 0.49591,12.64474 0.19081,25.84474 -0.35903,15.53294 -0.16422,26.29316 0.55218,30.5 3.78283,22.21368 1.89856,54.76591 -5.03597,87 -4.85484,22.56698 -5.01848,31.95581 -0.71461,41 1.56769,3.29436 2.905,8.30718 3.33473,12.5 0.44995,4.39012 2.49578,11.84692 5.48716,20 6.74147,18.37406 7.35784,21.84023 5.46678,30.74248 -2.12164,9.98774 -2.28581,17.01838 -0.44916,19.23573 1.31238,1.58442 2.53173,1.7115 10.5,1.09431 4.95835,-0.38405 11.54879,-1.02526 14.64543,-1.42491 3.53837,-0.45666 8.7068,-0.21486 13.91075,0.6508 7.7196,1.28413 8.69299,1.24224 14.36976,-0.61832 4.6549,-1.52564 7.67221,-1.868 12.80946,-1.4534 7.08811,0.57204 11.77978,-1.10251 11.77978,-4.20443 0,-1.38733 -1.12494,-1.70333 -10.5,-2.94946 -8.02291,-1.0664 -23.28449,-6.58108 -29.26504,-10.57474 C 552.71512,834.64428 547.0662,827.37487 544.47195,820 c -3.7324,-10.61033 -4.28843,-17.01853 -4.59875,-53 l -0.30617,-35.5 2.54019,-7.25 2.54019,-7.25 h -5.63257 c -3.62591,0 -6.32413,-0.55907 -7.57371,-1.56926 -1.79114,-1.44801 -1.31901,-1.52887 6.11044,-1.0466 l 8.05158,0.52265 1.80509,-4.70339 c 1.22116,-3.1819 2.05714,-9.23226 2.58424,-18.7034 0.62295,-11.19344 1.30846,-15.50351 3.41955,-21.5 3.01507,-8.56422 6.66995,-26.10716 9.68504,-46.48686 2.49075,-16.83565 2.87858,-38.18161 1.2902,-71.01314 -1.01663,-21.0136 -1.34894,-23.64774 -3.84772,-30.5 -1.50425,-4.125 -2.59286,-8.625 -2.41914,-10 0.92044,-7.28513 0.0978,-17.08999 -2.02162,-24.09468 l -2.29792,-7.59468 1.96248,-3.90532 c 1.07936,-2.14792 2.75547,-6.38032 3.72469,-9.40532 0.96922,-3.025 3.73993,-10.54577 6.15714,-16.71282 3.53652,-9.02276 4.58322,-13.189 5.35896,-21.33065 1.07286,-11.25998 2.18078,-14.30386 6.32113,-17.3666 2.61014,-1.93079 4.20917,-2.09662 21,-2.17784 l 18.17473,-0.0879 16,-4.38221 16,-4.38222 32,-0.61696 32,-0.61695 15,-4.22227 c 29.24002,-8.23062 33.70781,-9.09439 41.0931,-7.94461 6.14398,0.95653 7.14605,0.83061 14.25767,-1.79171 5.43068,-2.00249 10.25955,-2.97234 16.64923,-3.3439 l 9,-0.52334 -6,-1.54033 -6,-1.54032 -0.3075,-4.20968 C 795.88687,370.0256 795.86097,370 791.93381,370 c -3.40222,0 -4.7907,0.77179 -9.99364,5.555 -5.48224,5.03998 -6.41019,5.52672 -10.00896,5.25 -4.79483,-0.36869 -5.15835,-2.00926 -0.68589,-3.0954 6.3785,-1.54901 8.4813,-2.87845 10.6466,-6.73108 2.37894,-4.23276 3.80755,-4.76228 14.10808,-5.2292 l 5.5,-0.24932 -5.06307,-2.67212 c -4.42631,-2.33606 -5.84321,-2.60138 -11.26617,-2.10965 -5.08724,0.4613 -6.55917,0.24024 -8.18251,-1.22886 -1.92196,-1.73935 -2.14643,-1.66144 -7.73383,2.68458 -3.16493,2.46175 -6.28864,4.78878 -6.94158,5.17116 -3.13498,1.83596 -20.41734,2.97884 -46.31284,3.06265 -28.1768,0.0912 -28.61907,0.12493 -39,2.97492 -5.775,1.58547 -10.69027,3.05074 -10.92282,3.25615 -0.23254,0.2054 1.45496,1.98077 3.75,3.94524 4.1217,3.52802 5.12243,5.711 3.17095,6.91709 -0.55103,0.34055 -1.42189,-0.48553 -1.93524,-1.83575 -2.28997,-6.02306 -19.80234,-10.4483 -36.49548,-9.22212 -11.42247,0.83903 -17.17021,2.09398 -25.69953,5.61119 -7.31398,3.01605 -9.64566,2.01985 -3.61788,-1.54571 l 3.25,-1.92244 -5.76893,-1.75844 c -10.45149,-3.18574 -21.7144,-4.16443 -31.48107,-2.73552 -11.69524,1.71106 -13.35804,1.6076 -23.25,-1.44657 -15.85965,-4.89671 -17.22975,-5.97671 -18.62119,-14.67833 -0.62387,-3.90146 -1.65184,-4.95276 -2.88764,-2.95318 C 524.97624,357.4655 517.86771,360 512.50772,360 c -6.3632,0 -10.59987,-1.50981 -15.25772,-5.43736 l -3.25,-2.74043 -0.022,3.8389 c -0.0121,2.11139 -0.88032,5.72959 -1.92942,8.04044 -1.96836,4.3357 -3.63267,5.18112 -15.54862,7.89819 -1.65,0.37623 -4.67405,1.52249 -6.72012,2.54724 -3.54856,1.77726 -4.14807,1.78889 -13,0.25218 -10.67599,-1.85337 -19.61172,-1.38337 -31.49842,1.65673 -9.42414,2.41029 -10.46073,3.28293 -6.39636,5.38469 5.34948,2.76633 3.4039,3.44367 -2.75079,0.95768 -9.55255,-3.85845 -19.6473,-5.63196 -32.63431,-5.73343 -15.07079,-0.11774 -22.491,1.81463 -29.01309,7.5556 -3.2226,2.83665 -4.48691,3.48705 -4.48691,2.30819 0,-1.83102 5.48388,-7.23004 8.22848,-8.10114 0.97433,-0.30924 1.77152,-0.88362 1.77152,-1.27641 0,-0.39278 -5.9625,-2.27496 -13.25,-4.18261 L 333.5,369.5 310,369.77071 c -17.47115,0.20126 -26.70684,-0.15358 -36,-1.38315 -12.23211,-1.61841 -12.61862,-1.74698 -18.03515,-5.99942 -5.346,-4.19708 -5.66943,-4.30849 -9.4652,-3.26043 -2.16154,0.59683 -5.95476,0.80763 -8.42939,0.46844 -3.71732,-0.50951 -5.41749,-0.13696 -9.7822,2.14358 -2.90558,1.51815 -5.13186,3.21027 -4.94728,3.76027 0.18457,0.55 3.67091,1 7.74741,1 4.07649,0 7.98113,0.36827 8.67696,0.81838 0.69583,0.45011 1.91714,2.37881 2.71401,4.28599 1.60279,3.83602 6.24973,6.39563 11.61117,6.39563 2.69067,0 2.97149,0.22058 1.90967,1.5 -2.60034,3.13322 -8.62363,0.97056 -13.83832,-4.96863 C 235.36526,366.79067 227,367.18023 227,375.23743 c 0,2.05417 -0.94096,2.67196 -7.08245,4.64996 -3.89534,1.25458 -6.84557,2.51792 -6.55606,2.80743 0.28951,0.28951 4.60161,0.20384 9.58244,-0.19038 L 232,381.78768 v -2.89384 C 232,377.30223 232.45,376 233,376 c 0.55,0 1,1.54267 1,3.42815 0,3.24679 0.30419,3.54676 5.75,5.67014 4.78232,1.86468 7.43292,2.20653 15.75,2.03127 8.8191,-0.18584 11.53517,0.21762 23,3.41657 7.15,1.99501 18.175,5.02149 24.5,6.72552 l 11.5,3.09824 29.5,0.17945 29.5,0.17945 15,4.27784 c 14.88303,4.24448 15.16102,4.28258 35.64874,4.8856 26.50077,0.78002 25.96502,0.42157 28.23846,18.89317 1.03446,8.40501 2.22143,12.91471 5.33326,20.26287 2.20146,5.19845 5.65111,14.73303 7.6659,21.18796 l 3.66325,11.73624 -2.13064,8.26376 c -1.67037,6.47857 -2.0205,10.09682 -1.62079,16.74904 0.35221,5.86171 0.11122,9.2628 -0.77943,11 -3.83948,7.48885 -8.06937,29.65147 -10.62572,55.6737 -2.22985,22.69863 0.18495,69.95731 4.75837,93.12317 1.39689,7.07572 1.46853,9.92471 0.49183,19.55859 C 458.51445,692.54279 458,700.6051 458,704.25698 c 0,4.27253 -0.87701,9.42125 -2.45988,14.4414 -4.2764,13.56275 -6.56575,24.50029 -7.17971,34.30162 -0.51907,8.28629 -0.30989,10.26656 1.63724,15.5 1.22778,3.3 3.469,11.85 4.98047,19 2.27445,10.75925 3.74448,14.9822 8.52854,24.5 4.87229,9.69331 5.85739,12.55862 6.27041,18.23838 0.28601,3.93314 1.05887,7.2105 1.85647,7.87245 2.16962,1.80062 1.62226,4.73956 -2.13354,11.45555 -5.14915,9.20754 -5.21711,9.07432 6,11.76082 1.1,0.26345 5.375,0.41011 9.5,0.3259 l 7.5,-0.1531 z m 35.16052,-19.7577 c -1.353,-2.96951 -1.51491,-10.34532 -0.27021,-12.30971 1.17146,-1.8488 1.79779,-0.54174 2.56691,5.35676 0.35859,2.75 0.86098,6.0125 1.11643,7.25 0.64992,3.14844 -1.94621,2.9225 -3.41313,-0.29705 z M 470.03255,705.53922 c -1.67987,-2.02412 -2.72558,-10.08557 -1.18475,-9.13329 0.63371,0.39166 1.1522,1.2654 1.1522,1.94165 0,0.67624 0.85149,2.89969 1.8922,4.94098 1.95505,3.83471 0.70778,5.34422 -1.85965,2.25066 z M 528,700.24272 c 0,-1.03913 9.11051,-6.46554 9.76175,-5.8143 0.80373,0.80372 -1.80064,3.54033 -4.88926,5.13752 C 529.80919,701.15003 528,701.40132 528,700.24272 Z M 455.50973,419.43708 c -6.39229,-10.42762 -6.79456,-10.86502 -15.25973,-16.59262 -3.9875,-2.69797 -7.25,-5.38984 -7.25,-5.98192 0,-1.47176 2.17191,-0.5191 8.7091,3.82003 7.72571,5.12804 11.51342,9.30932 15.76879,17.40732 5.19534,9.88674 3.83678,10.81667 -1.96816,1.34719 z M 563.00977,425.75 c 0.019,-2.42772 5.13643,-12.22244 8.58419,-16.42997 3.70431,-4.52062 18.11409,-14.6185 19.57358,-13.71648 1.38526,0.85613 0.19616,2.02463 -7.456,7.32677 -6.93065,4.80221 -11.23561,9.97726 -17.3192,20.81968 -1.86558,3.3249 -3.40002,4.23216 -3.38257,2 z m -58.46435,-38.85366 c -3.95474,-2.11961 -6.54375,-2.15706 -17.29542,-0.25017 -4.57144,0.81078 -4.16488,-1.29809 0.5,-2.59359 5.78256,-1.6059 14.93277,-1.30654 17.81639,0.58288 1.37282,0.8995 2.76029,1.3712 3.08327,1.04821 0.32298,-0.32298 -1.07075,-4.68237 -3.09719,-9.68752 -2.02643,-5.00516 -3.52307,-9.58434 -3.32586,-10.17597 0.54759,-1.64279 6.46268,10.04972 7.82616,15.47019 0.66275,2.63471 1.70087,4.62508 2.30695,4.42306 0.60608,-0.20203 2.05119,-3.4827 3.21137,-7.29038 2.56302,-8.41177 5.67653,-14.62744 6.17297,-12.32341 0.28563,1.32561 -2.09119,8.64425 -6.30051,19.40036 -0.73591,1.88048 -0.66797,1.9031 1.13688,0.3785 4.22794,-3.57144 5.98244,-3.91917 14.0868,-2.79196 8.7757,1.22059 10.28754,1.79964 8.01667,3.07048 -0.93413,0.52277 -4.40461,0.41261 -8.54543,-0.27123 -6.48354,-1.07073 -7.21452,-1.00191 -10.42352,0.98136 -4.40402,2.72184 -10.1251,2.73285 -15.16953,0.0292 z m 11.89693,468.29684 c -0.45178,-3.99321 -0.15497,-7.76632 0.95034,-12.08077 2.48105,-9.68447 2.06025,-15.29235 -1.99688,-26.61241 -6.34972,-17.71675 -7.51523,-21.87137 -8.12345,-28.9572 -0.41158,-4.79494 -1.45906,-8.59567 -3.37036,-12.2291 -5.08783,-9.67212 -4.83101,-16.43203 1.68356,-44.3137 2.14837,-9.1948 4.17366,-22.0508 5.53544,-35.13759 l 2.1475,-20.63759 -2.13425,-15.43981 C 509.77231,649.93233 509,639.15633 509,630.00593 c 0,-7.88659 -0.20684,-14.13242 -0.45965,-13.87961 -0.25281,0.25281 -1.5997,5.85918 -2.99309,12.45861 -1.39338,6.59943 -3.92031,16.03009 -5.6154,20.95702 -3.39987,9.88203 -3.82301,14.83522 -2.55927,29.95805 0.7997,9.56984 0.70676,10.38714 -2.16068,19 -1.64798,4.95 -4.90334,13.95 -7.23412,20 l -4.23778,11 0.73857,12 c 0.40621,6.6 0.57721,17.175 0.37999,23.5 -0.97394,31.236 0.42059,42.40991 7.10343,56.9175 2.31164,5.01828 4.038,10.28296 4.038,12.31423 0,4.44564 7.07975,14.46913 12.9756,18.37082 2.67306,1.76895 4.0244,3.4021 4.0244,4.86367 0,2.54022 0.76372,3.53378 2.71632,3.53378 1.09397,0 1.2457,-1.21353 0.72603,-5.80682 z m -53.6675,0.0568 c 1.05107,-1.5125 3.21235,-5.09792 4.80284,-7.96761 2.8325,-5.11062 2.85622,-5.27782 1.15705,-8.15429 C 467.6589,837.30684 467,834.11793 467,830.73236 c 0,-4.64468 -0.88596,-7.25924 -5.93888,-17.52623 -4.50009,-9.1437 -6.46057,-14.56722 -8.09225,-22.38665 -1.18436,-5.67571 -3.46186,-14.48736 -5.06112,-19.58144 -4.47494,-14.25387 -4.01801,-19.82739 4.11856,-50.23804 2.24386,-8.38647 3.34137,-15.39636 4.0537,-25.89145 0.53724,-7.9153 1.21004,-14.76885 1.49512,-15.23011 0.28507,-0.46126 -0.59318,-7.7101 -1.95167,-16.10855 C 449.08198,623.3292 448.92231,589.26601 455.07143,546 c 2.41414,-16.9862 3.64189,-22.35428 6.40398,-28 1.52853,-3.1243 1.97571,-5.26428 1.46276,-7 -1.44377,-4.88546 -0.90574,-12.88537 1.40259,-20.855 l 2.34077,-8.0816 -5.22663,-15.2817 c -2.87464,-8.40494 -6.37271,-17.9817 -7.77349,-21.2817 -1.68545,-3.97065 -2.96337,-9.72048 -3.7783,-17 -1.12666,-10.06409 -1.4765,-11.22911 -4.11183,-13.69284 l -2.8804,-2.69283 -18.20544,0.15861 c -17.75806,0.15471 -18.50033,0.0773 -30.20544,-3.14953 -22.7655,-6.27597 -21.26548,-6.09065 -49.5,-6.11534 -14.575,-0.0127 -29.26792,-0.47243 -32.65093,-1.02151 -3.38301,-0.54908 -14.85801,-3.53423 -25.5,-6.63367 -18.70478,-5.44771 -19.71633,-5.63011 -30.37853,-5.47798 -9.59166,0.13686 -12.00333,-0.18506 -18.5,-2.46948 -6.39679,-2.24929 -8.58487,-2.55264 -15.22339,-2.11051 C 213.51332,385.9099 211,385.3983 211,382.90369 211,381.00775 217.42208,377 220.46016,377 221.30707,377 222,376.55 222,376 c 0,-0.58476 -3.42577,-1.00567 -8.25,-1.01365 -10.3967,-0.0172 -12.62007,-0.62049 -13.3752,-3.62917 -0.33183,-1.32211 -1.36695,-2.95584 -2.30027,-3.63051 -4.91855,-3.55548 -3.21367,-6.20643 5.0952,-7.9226 l 5.9527,-1.22951 -3.70335,-1.03906 c -4.28463,-1.20214 -6.50687,-3.84771 -4.72704,-5.62754 3.02203,-3.02203 23.23424,-3.84217 34.7204,-1.40884 8.51863,1.80467 17.95415,6.12783 22.95235,10.5163 3.35822,2.94856 4.82775,3.45094 13.45263,4.59895 5.55087,0.73885 20.18791,1.30946 34.30159,1.33721 27.34859,0.0538 35.92622,1.07614 50.43636,6.01141 8.37321,2.84795 9.16721,2.94265 15.87928,1.89402 8.61089,-1.34529 24.98021,-0.55469 32.91807,1.58987 5.81539,1.57113 5.91426,1.56144 15.5,-1.51893 11.56303,-3.71577 24.03529,-4.75928 35.99047,-3.01121 7.42008,1.08496 8.66994,1.01217 13.90486,-0.80987 3.16357,-1.1011 8.33681,-2.7124 11.49608,-3.58066 6.72519,-1.84829 8.55519,-4.03613 9.4095,-11.24948 0.42702,-3.60551 0.16227,-5.6374 -0.96114,-7.37649 -3.31567,-5.13279 -7.77328,-18.4161 -9.29108,-27.68667 -4.36123,-26.63801 5.10135,-41.56702 27.25589,-43.00132 8.84558,-0.57267 19.07663,2.25208 24.52914,6.77239 2.02754,1.6809 4.95254,5.63449 6.5,8.78577 2.63917,5.37446 2.8109,6.50437 2.77068,18.22959 -0.0476,13.8634 -1.25178,19.31039 -7.05047,31.89083 -3.70791,8.04444 -4.13349,11.45614 -2.04467,16.39129 2.13153,5.03603 4.70381,6.64424 15.74657,9.84489 9.7102,2.81441 10.66744,2.91595 16.93357,1.79613 10.55733,-1.8867 27.7612,-0.73726 37.83251,2.52769 l 8.37462,2.71492 8.62538,-1.77121 c 9.17777,-1.88465 28.69283,-2.24963 35.12537,-0.65694 2.76333,0.6842 5.3418,0.27679 12.25063,-1.93568 15.68807,-5.02393 24.83265,-6.07322 48.24937,-5.53637 15.23294,0.34924 24.29546,0.0691 33,-1.01988 11.22263,-1.40407 12.22673,-1.71291 15.5,-4.76747 7.92564,-7.39609 20.79051,-11.52001 38,-12.18117 14.24478,-0.54725 20.5,0.73654 20.5,4.20733 0,1.51458 -1.20529,2.38168 -5,3.59708 l -5,1.60143 4.5,0.76045 c 9.80301,1.65659 13.40253,4.74048 9.07281,7.77313 -1.05996,0.74242 -2.46482,2.5298 -3.1219,3.97195 -1.4825,3.25373 -3.32129,3.76077 -13.70091,3.77795 -4.5375,0.008 -8.25,0.37032 -8.25,0.80625 0,0.43592 1.97876,1.32183 4.39725,1.96868 4.32271,1.15614 7.60275,3.45777 7.60275,5.3349 0,1.96303 -5.56147,3.02189 -12.48226,2.37653 -6.24522,-0.58236 -8.00778,-0.31096 -16.01147,2.46544 -8.41014,2.9174 -9.61058,3.08009 -18.5,2.50717 C 757.74675,389.84856 757.04575,389.96243 740,394.8324 711.9275,402.85271 710.82222,403 678.70866,403 h -28.37565 l -14.83407,4.06735 c -17.6986,4.85278 -24.89621,5.74363 -41.60347,5.14929 l -12.60454,-0.44839 -3.12362,2.86587 c -2.96048,2.71621 -3.18,3.43952 -4.20331,13.85002 -0.88449,8.99825 -1.8602,12.97578 -5.39672,22 -2.37436,6.05872 -5.11002,13.49086 -6.07924,16.51586 -0.96922,3.025 -2.63593,7.23898 -3.70381,9.36439 -1.92741,3.83616 -1.92673,3.9202 0.0935,11.5 2.89585,10.86542 3.55251,17.30208 2.1872,21.43903 -0.94689,2.86909 -0.87473,4.21591 0.38776,7.23748 0.85313,2.04182 2.23082,6.24291 3.06153,9.33575 1.83846,6.84484 4.0814,46.09819 3.74508,65.54227 -0.428,24.74468 -5.69284,59.10531 -11.96382,78.08108 -3.39863,10.28414 -3.64041,11.84602 -3.71531,24 l -0.0801,13 -4.95124,12 -4.95123,12 0.26299,36 c 0.18683,25.57403 0.65836,37.92805 1.62813,42.65738 2.80538,13.6811 9.93199,24.12497 20.19042,29.58856 5.72308,3.04808 27.17939,9.25406 31.99464,9.25406 1.35177,0 3.2571,0.42779 4.23407,0.95064 1.27158,0.68054 4.92857,0.003 12.87061,-2.38403 C 736.69404,809.62124 833.01397,709.0873 862.46491,587 c 6.81564,-28.25387 9.51368,-51.7923 9.51368,-83 0,-47.82453 -7.70165,-87.87148 -24.98528,-129.9182 C 810.8924,286.2574 742.17792,215.74498 656.00895,178.10029 616.17363,160.69741 580.06156,152.08978 533.5,148.8992 467.29771,144.36277 394.14821,161.19702 335.5,194.4659 286.10392,222.48641 242.09373,263.455 210.22658,311.08153 175.33017,363.23538 155.3002,424.20643 152.10604,488 c -4.02347,80.3563 18.74226,156.18884 66.55363,221.68984 56.04041,76.77469 136.82553,128.50364 227.72369,145.81777 15.38496,2.93051 14.16264,2.94972 16.39149,-0.25761 z M 223.98363,372.03128 c 2.09685,-1.32583 -4.70503,-4.06927 -9.70151,-3.91297 -10.75243,0.33637 -13.96648,3.58225 -4.09897,4.13956 3.47427,0.19622 7.66685,0.43659 9.31685,0.53414 1.65,0.0976 3.66763,-0.24478 4.48363,-0.76073 z M 819,371.04531 c 0,-2.44736 -16.81427,-2.63104 -19.23519,-0.21012 C 798.8784,371.7216 801.03787,372 808.8,372 c 5.81058,0 10.2,-0.41084 10.2,-0.95469 z m -601.54705,-6.20583 c 2.94751,-1.34297 3.26075,-2.62838 0.86457,-3.54788 -1.72005,-0.66004 -16.62388,1.16167 -18.37918,2.24651 -0.53403,0.33005 -0.71207,1.01899 -0.39563,1.53099 0.82333,1.33218 14.87794,1.15199 17.91024,-0.22962 z m 606.30624,-0.0619 c -0.60276,-1.8083 -4.31992,-2.56633 -13.13163,-2.6779 -6.7558,-0.0855 -7.70244,0.10517 -6.67389,1.34449 1.93476,2.33125 20.55603,3.58493 19.80552,1.33341 z m -586.51478,-7.25872 c 6.74682,-0.0222 7.77093,-1.29298 2.50979,-3.11443 -8.79467,-3.04479 -20.33946,-3.67622 -32.63445,-1.78491 -6.05552,0.93151 -1.79371,2.59392 8.0513,3.14059 5.4705,0.30376 10.15302,1.08666 11.32138,1.89291 1.11453,0.76909 2.6567,1.04659 3.5,0.6298 0.82917,-0.40981 4.09256,-0.75359 7.25198,-0.76396 z m 570.64045,-2.63717 c 3.63833,-0.0651 7.96514,-0.43893 9.61514,-0.83079 2.86023,-0.67928 2.77664,-0.74925 -1.79437,-1.50189 -7.48487,-1.23241 -21.37939,-0.10277 -30.70563,2.4964 -8.90885,2.48285 -8.86616,3.74787 0.0716,2.12338 3.84947,-0.69967 6.02838,-0.60971 8.29268,0.34235 2.70158,1.13593 3.36222,1.06252 5.48833,-0.60988 1.77385,-1.39531 4.17742,-1.93274 9.0322,-2.01957 z m -283.16274,-1.85497 c 4.15256,-2.77297 6.43712,-5.1142 7.56241,-7.75 10.94484,-25.63647 11.09237,-46.7464 0.399,-57.09376 -10.47197,-10.13311 -31.54565,-10.32334 -42.02511,-0.37935 -5.00882,4.75288 -6.97404,9.85538 -7.45562,19.35779 -0.54094,10.67351 0.98189,19.82776 5.04237,30.3115 3.72585,9.61973 3.79771,9.72127 10.75483,15.19698 5.31935,4.18668 5.73439,4.32888 12.63605,4.32949 6.65286,5.9e-4 7.53892,-0.2684 13.08607,-3.97265 z"
         id="path2" />
    </g>
  </g>
</svg>
