<?xml version="1.0" encoding="UTF-8" standalone="no"?>
<svg
   version="1.1"
   style="display:block"
   viewBox="0 0 1699.5854 1678.7983"
   width="849.79272"
   height="839.39917"
   preserveAspectRatio="none"
   id="svg30"
   xmlns="http://www.w3.org/2000/svg"
   xmlns:svg="http://www.w3.org/2000/svg">
  <defs
     id="defs2">
    <linearGradient
       id="Gradient1"
       gradientUnits="userSpaceOnUse"
       x1="1124.8"
       y1="1215.6"
       x2="642.71301"
       y2="857.56097"
       gradientTransform="translate(-174.02621,-168.50157)">
      <stop
         class="stop0"
         offset="0"
         stop-opacity="1"
         stop-color="rgb(153,196,122)"
         id="stop1" />
      <stop
         class="stop1"
         offset="1"
         stop-opacity="1"
         stop-color="rgb(208,227,181)"
         id="stop2" />
    </linearGradient>
  </defs>
  <path
     fill="rgb(85,147,70)"
     d="m 819.40779,27.911424 c 0.882,-0.059 1.765,-0.11 2.648,-0.153 23.808,-1.204 53.518,-0.242 77.278,1.167 184.09001,11.066 359.10001,83.771006 496.84001,206.407006 164.85,149.442 264.83,345.104 275.41,568.756 9.46,211.30997 -65.1,417.76997 -207.4,574.25997 -154.07,168.54 -352.38,262.89 -580.96001,273.14 -49.85,0.42 -91.112,-0.09 -140.697,-6.24 -159.541,-20.5 -309.467,-87.69 -430.952,-193.11 -165.442,-143.95 -268.165994,-339.23 -282.812994,-559.11997 -13.159,-210.799 57.228,-418.299 195.924994,-577.584 125.679,-145.521 297.85,-243.059006 487.277,-276.053006 36.41,-6.315 70.723,-9.084 107.444,-11.47 z"
     id="path3"
     style="fill:none;fill-opacity:1;stroke:#adcf8f;stroke-width:54.4;stroke-dasharray:none;stroke-opacity:1" />
  <path
     fill="#559346"
     d="m 814.23279,536.32043 c 13.221,10.696 18.511,15.832 35.781,15.912 16.06,-0.941 21.44,-3.413 33.71,-14.528 0.98,11.417 1.08,17.479 7.04,27.67 15.99,8.787 34.79,9.994 52.34,18.33 39.25,-9.068 62.13001,-7.153 100.83001,4.965 -4.9,2.402 -13.45,5.756 -15.35,10.75 l 0.99,1.794 c 1.59,-0.069 21.08,-8.681 26.01,-10.373 25.22,-8.649 95.39,-13.356 112.88,11.471 -2.55,8.29 -1.34,27.748 -4.17,29.482 -10.79,-0.609 -25.62,-1.953 -35.7,0.103 -35.54,7.248 -66.24,21.845 -103.6,18.82 -18.37,-1.487 -48.05001,-6.377 -54.17001,16.518 -3.53,12.014 -1.9,26.952 -4.58,39.304 -3.08,14.212 -10.25,27.193 -15.35,40.641 -5.84,15.395 -7.42,31.515 -17.79,44.844 7.62,23.706 15.28,42.175 7.69,66.695 16.36,34.71 12.18,50.51 13.41,88.39 0.56,17.14 3.64,36.14 3.75,54.05997 0.42,49.42 -8.21,98.07 -17.83,146.35 -2.49,12.51 -12.25,34.37 -13.14,44.65 -2.75,31.87 3.65,39 -10.28,69.78 -6.88,-0.99 -27.25,-5.33 -31.83,-2.3 2.82,7.08 23.44,7.02 30.65,5.42 -0.62,3.01 -0.63,3.32 -1.89,6.08 -10.55,-1.28 -58.27,-3.07 -64.19,-9.44 7.89,-51.33 9.12,-96.58 0.32,-147.56 -3.56,-20.63 6.46,-90.82 -0.57,-104.01 -6.56,7.46 -8.63,30.07 -10.43,40.55 -3.3,19.1 -7.46,37.92 -11.5,56.75 -3.782,17.61 -15.707,40.51 -13.366,57.6 5.245,38.29 1.413,54.83 -13.524,89.6 -8.358,1.78 -16.233,3.25 -24.767,1.64 l -4.038,-3.29 -2.26,0.54 c -0.681,2.8 -0.743,1.44 0.262,4.2 l 1.292,0.98 0.368,1.07 c -5.336,3.37 -24.48,-1.94 -29.589,-5.56 1.55,-6.09 1.325,-26.19 1.728,-33.87 0.497,-9.48 4.211,-33.53 2.982,-41.66 -2.519,-14.3 -5.607,-28.18 -7.252,-42.62 -7.723,-67.84 -11.189,-132.99 0.755,-200.58997 5.551,-31.41 3.822,-45.68 19.171,-75.86 -7.162,-24.01 -0.192,-41.428 5.832,-65.105 -2.18,-7.025 -5.601,-14.869 -8.023,-22.479 -2.597,-8.16 -5.571,-21.789 -8.665,-29.258 -5.806,-14.015 -10.797,-19.689 -14.464,-35.334 -3.638,-15.522 -1.201,-34.576 -8.895,-47.802 -2.337,-3.22 -9.838,-8.406 -13.68,-8.705 -24.877,-1.938 -47.979,3.368 -73.09,-1.387 -25.403,-4.811 -49.314,-14.085 -74.706,-18.7 -12.066,-8.459 -23.14,-11.328 -35.288,-22.726 19.617,-35.928 110.241,-24.258 139.635,-7.108 1.381,0.806 1.613,0.184 3.066,-0.672 l -0.174,-1.686 c -3.378,-3.78 -9.014,-6.212 -13.649,-8.675 36.876,-12.87 64.118,-15.34 101.45,-5.231 24.437,-20.813 58.025,1.244 55.858,-48.43 z"
     id="path6" />
  <path
     fill="url(#Gradient1)"
     d="m 656.92479,589.98143 c 36.876,-12.87 64.118,-15.34 101.45,-5.231 4.348,1.692 7.494,2.95 11.639,5.097 4.97,2.575 18.109,14.247 22.026,14.499 9.269,2.186 25.212,-2.042 35.224,-3.467 10.23,5.948 11.6,8.948 22.97,8.538 l -0.51,145.219 c -0.05,22.415 -1.15,58.325 0.31,80.122 -3.43,1.01 -5.76,4.17 -5.71,7.74 0.05,3.57 2.48,6.67 5.93,7.57 -1.21,8.87 -0.56,34.29 -0.53,44.65 l 0.17,85.85 c 0,4.81 0.41,26.32997 -0.7,29.56997 -6.56,7.46 -8.63,30.07 -10.43,40.55 -3.3,19.1 -7.46,37.92 -11.5,56.75 -3.782,17.61 -15.707,40.51 -13.366,57.6 5.245,38.29 1.413,54.83 -13.524,89.6 -8.358,1.78 -16.233,3.25 -24.767,1.64 l -4.038,-3.29 -2.26,0.54 c -0.681,2.8 -0.743,1.44 0.262,4.2 l 1.292,0.98 0.368,1.07 c -5.336,3.37 -24.48,-1.94 -29.589,-5.56 1.55,-6.09 1.325,-26.19 1.728,-33.87 0.497,-9.48 4.211,-33.53 2.982,-41.66 -2.519,-14.3 -5.607,-28.18 -7.252,-42.62 -7.723,-67.84 -11.189,-132.99 0.755,-200.58997 5.551,-31.41 3.822,-45.68 19.171,-75.86 -7.162,-24.01 -0.192,-41.428 5.832,-65.105 -2.18,-7.025 -5.601,-14.869 -8.023,-22.479 -2.597,-8.16 -5.571,-21.789 -8.665,-29.258 -5.806,-14.015 -10.797,-19.689 -14.464,-35.334 -3.638,-15.522 -1.201,-34.576 -8.895,-47.802 -2.337,-3.22 -9.838,-8.406 -13.68,-8.705 -24.877,-1.938 -47.979,3.368 -73.09,-1.387 -25.403,-4.811 -49.314,-14.085 -74.706,-18.7 -12.066,-8.459 -23.14,-11.328 -35.288,-22.726 19.617,-35.928 110.241,-24.258 139.635,-7.108 1.381,0.806 1.613,0.184 3.066,-0.672 l -0.174,-1.686 c -3.378,-3.78 -9.014,-6.212 -13.649,-8.675 z"
     id="path7"
     style="fill:url(#Gradient1)" />
  <path
     fill="#000100"
     d="m 691.23679,622.39543 c 9.069,2.666 28.71,16.14 35.781,23.551 6.431,6.742 22.361,31.633 22.067,40.417 -9.112,-3.606 -18.069,-29.305 -26.757,-37.258 -9.394,-8.598 -20.763,-13.326 -30.036,-21.807 -1.781,-1.629 -1.199,-2.594 -1.055,-4.903 z"
     id="path8" />
  <path
     fill="#000100"
     d="m 761.45079,1222.7484 c 7.537,2.13 4.645,14.13 10.621,19.97 1.947,1.9 1.23,1.02 1.751,3.9 -12.077,-0.89 -12.587,-14.61 -12.372,-23.87 z"
     id="path9" />
  <path
     fill="#b2cf96"
     d="m 814.23279,536.32043 c 13.221,10.696 18.511,15.832 35.781,15.912 -0.03,7.362 0.44,47.153 -1.27,51.009 -3.41,-13.586 -8.8,-32.905 -19.1,-42.832 l -1.04,0.39 c 0.59,6.402 13.25,34.008 16.66,44.095 -2.32,-1.233 -13.67,-7.709 -14.56,-7.87 -8.513,-1.557 -34.033,0.116 -38.664,7.322 -3.917,-0.252 -17.056,-11.924 -22.026,-14.499 -4.145,-2.147 -7.291,-3.405 -11.639,-5.097 24.437,-20.813 58.025,1.244 55.858,-48.43 z"
     id="path11" />
  <path
     fill="#000100"
     d="m 845.26379,604.89443 c -3.41,-10.087 -16.07,-37.693 -16.66,-44.095 l 1.04,-0.39 c 10.3,9.927 15.69,29.246 19.1,42.832 1.67,0.141 2.8,0.643 3.37,-0.407 4.51,-8.214 9.83,-38.932 18.19,-42.368 2.22,4.83 -12.44,38.32 -15.03,46.105 l 11.85,-9.76 c 11.74,-1.74 24.17,1.236 36.04,3.313 2.42,1.907 1.86,0.701 2.24,3.42 -5.62,3.665 -25.79,-1.913 -33.53,-2.485 -10.49,6.331 -8.92,9.39 -21.64,8.358 -11.37,0.41 -12.74,-2.59 -22.97,-8.538 -10.012,1.425 -25.955,5.653 -35.224,3.467 4.631,-7.206 30.151,-8.879 38.664,-7.322 0.89,0.161 12.24,6.637 14.56,7.87 z"
     id="path12" />
  <path
     fill="#000100"
     d="m 1006.5138,622.34543 c 2.2,0.361 1.18,-0.121 2.94,1.675 -1.57,5.959 -23.46001,15.983 -31.18001,24.972 -11.03,12.839 -15.02,22.981 -23.72,37.113 -0.88,0.186 -1.96,0.011 -2.94,-0.054 l -0.56,-1.934 c 11.73,-34.095 25.76,-44.976 55.46001,-61.772 z"
     id="path14" />
  <path
     fill="#000100"
     d="m 900.12379,1219.2584 1.63,0.84 c 0.75,7.19 -12.72,12.73 -18.39,14.07 -1.72,-1.74 -1.12,-0.73 -1.84,-3.02 1.22,-1.35 12.78,-7.34 17.37,-10.92 z"
     id="path15" />
  <path
     fill="#2d652d"
     d="m 987.61379,1544.0384 c -31.46,13.02 -26.28,6.96 -57.86,2.92 -15.2,0.26 -41.68,7.29 -56,5.46 -20.5,-2.63 -1.59,-45.97 -3.05,-58.59 -2.56,-22.2 -14.19,-44.05 -20.77,-65.51 -4.22,-6.1 -3.66,-33.53 -6.03,-37.22 -18.703,-29.02 -10.28,-54.09 -3.43,-85.96 2.7,-12.55 6.09,-28.69 8.97,-43.43 5.92,6.37 53.64,8.16 64.19,9.44 -2.73,10.17 -7.55,21.13 -8.35,31.74 -2.05,18.13 2.46,38.2 2.13,56.04 -0.83,39.44 -5.92,68.38 6.37,107.69 14.71,47.05 50.15,53.7 92.26001,64.8 3.5,0.92 28.14,-2.76 15.52,11.21 -5.41,5.98 -26.55001,2.73 -33.95001,1.41 z"
     id="path17" />
  <path
     fill="#000100"
     d="m 882.12379,1482.6084 2.08,0.57 c 3.36,3.87 1.41,18.74 3.81,24.34 0.99,2.31 0.99,4.36 1.03,6.82 -11.4,-3.96 -8.37,-22.29 -6.92,-31.73 z"
     id="path18" />
  <path
     fill="#559346"
     d="m 741.64179,1254.2184 c 5.109,3.62 24.253,8.93 29.589,5.56 l -0.368,-1.07 c 3.932,-0.07 3.553,1.57 7.448,2.55 7.747,1.97 13.235,1.09 20.938,0.13 -15.318,33.23 -10.432,51.55 -7.96,86.45 0.755,10.66 -1.336,28.05 -1.917,39.17 -0.947,19.89 0.629,39.81 4.689,59.3 3.81,18.05 8.589,27.85 17.019,44.04 0.725,1.39 2.174,16.17 3.567,20.65 3.602,11.61 29.537,32.01 31.547,38.14 -4.28,9.77 -19.19,6.25 -27.145,3.55 -0.303,-4.47 0.037,-9.77 -3.058,-12.55 l -2.459,0.62 c -2.234,3.04 -1.301,7.87 -2.776,13.22 -5.842,5.45 -47.719,-0.41 -53.777,-5.84 -0.84,-7.95 11.632,-19.49 14.347,-29.12 3.975,-14.1 -3.762,-8.67 -5.245,-15.65 -0.873,-4.12 -0.401,-17.46 -1.456,-22.01 -2.682,-11.55 -11.502,-25.42 -17.04,-36.12 -10.111,-19.52 -10.92,-35.51 -14.673,-56.68 -1.428,-8.06 -8.529,-19.2 -9.732,-27.46 -5.019,-34.48 7.797,-74.51 18.462,-106.88 z"
     id="path19" />
  <path
     fill="#b2cf96"
     d="m 850.04379,392.20043 c 16.37,1.052 33.1,6.019 43.94,18.723 20.38,23.9 13.24,70.001 1.51,96.742 -4.63,10.553 -2.83,17.598 -14.51,25.536 -11.64,9.23 -16.33,12.386 -31.02,12.439 l -13.25,-0.272 c -6.98,-4.473 -14.004,-9.459 -20.53,-14.657 -8.321,-5.803 -8.831,-13.936 -12.125,-22.113 -6.155,-12.217 -8.11,-21.617 -10.289,-34.667 -7.498,-44.898 3.088,-79.543 56.274,-81.731 z"
     id="path21" />
  <path
     fill="#559346"
     d="m 850.04379,392.20043 c 16.37,1.052 33.1,6.019 43.94,18.723 20.38,23.9 13.24,70.001 1.51,96.742 -4.63,10.553 -2.83,17.598 -14.51,25.536 -11.64,9.23 -16.33,12.386 -31.02,12.439 z"
     id="path22" />
  <path
     fill="#b2cf96"
     d="m 292.99979,549.75443 c 15.461,3.06 18.358,3.012 31.946,-1.33 3.792,-1.212 18.945,13.325 23.674,17.574 11.712,0.743 24.809,2.112 36.378,4.099 34.061,5.853 66.892,-3.187 101.194,0.881 22.147,2.627 40.276,9.722 61.574,14.348 -0.653,0.304 -1.304,0.615 -1.951,0.932 -7.407,3.65 -18.011,9.655 -20.756,17.844 0.425,3.875 -0.397,2.403 1.873,4.874 l 1.115,-0.854 c 12.148,11.398 23.222,14.267 35.288,22.726 -4.184,1.086 -35.13,1.832 -40.584,1.746 -24.712,-0.389 -55.939,1.461 -79.627,-4.001 -28.235,-6.509 -56.466,-16.915 -85.089,-22.833 -15.437,-3.192 -21.44,0.701 -35.792,0.547 -6.184,-0.066 -20.779,-6.614 -27.319,-9.374 0.216,-5.064 1.656,-11.071 -2.538,-14.366 l -1.61,1.057 c -2.03,4.148 -1.399,7.279 -1.207,11.968 -12.771,-0.683 -24.765,1.661 -38.086,1.364 6.635,-3.813 21.499,-7.524 29.271,-9.735 -0.764,-20.335 5.013,-20.498 23.158,-13.863 5.897,11.421 27.336,29.794 37.091,15.269 -2.018,-2.888 -25.45,1.577 -30.222,-15.34 -5.125,-18.171 -30.365,-3.703 -39.558,-10.147 l 0.25,-1.548 c 5.417,-3.96 14.523,-7.569 21.527,-11.838 z"
     id="path23" />
  <path
     fill="#2d652d"
     d="m 1153.1938,585.15843 c 23.12,-6.31 48.78,-14.355 72.53,-15.172 32.79,-1.129 64.97,5.846 97.83,-0.02 6.56,-1.171 19.23,-1.322 25.3,-3.851 11.77,-4.902 15.59,-13.85 28.27,-19.517 l 1.32,2.458 c 7.51,8.275 18.55,3.39 28.6,1.784 6.33,2.928 16.01,7.025 21.39,10.905 l 0.19,1.328 c -7.44,3.421 -23.66,0.317 -31.43,2.614 -6.93,2.049 -6.63,12.417 -13.64,17.058 -6.2,4.111 -18.72,4.096 -23.5,7.582 2.11,5.035 16.44,3.476 20.34,0.764 17.6,-12.251 13.39,-23.144 37.98,-19.465 l 0.8,15.793 c 5.76,1.756 22.83,5.483 25.89,8.513 l -1.09,1.221 c -10.72,0.472 -23.08,-2.875 -32.06,-1.183 -10.42,1.962 -23.61,10.59 -34.99,11.524 -9.24,0.758 -21.1,-3.886 -29.9,-2.221 -31.7,5.989 -62.86,17.059 -94.17,24.057 -18.45,4.124 -43.13,2.979 -62.24,3.19 -4.08,0.045 -23.91,0.114 -26.32,-0.727 2.83,-1.734 1.62,-21.192 4.17,-29.482 0.28,2.615 0.03,2.696 1.74,4.595 l 1.93,-0.1 c 5,-9.855 -11.97,-18.328 -18.94,-21.648 z"
     id="path24" />
  <path
     fill="#2d652d"
     d="m 1377.1238,546.59843 c 40.19,-13.38 54.12,-14.167 95.73,-9.066 -5.56,1.6 -9.77,2.31 -15.27,3.498 -13.72,2.959 -29.69,-3.416 -38.68,8.785 l -11.89,-5.102 c -9.8,1.81 -19.52,2.683 -28.57,4.343 z"
     id="path25" />
  <path
     fill="#b2cf96"
     d="m 259.67079,534.90243 c 10.172,-1.966 48.528,3.449 55.015,9.872 -5.379,6.04 -15.989,-4.651 -26.323,1.85 -2.728,1.917 -2.619,1.698 -6.001,1.945 -3.645,-1.364 -4.311,-2.7 -6.79,-5.679 -10.248,-0.09 -33.731,0.445 -42.374,-3.656 3.671,-3.135 20.726,-3.832 26.473,-4.332 z"
     id="path26" />
  <path
     fill="#2d652d"
     d="m 1432.4438,553.94243 c 6.83,-0.455 42.5,0.481 43.68,7.605 l -2.71,2.379 c -10.2,0.446 -26.45,-1.008 -36.93,-1.702 -1.5,-2.211 -2.79,-3.84 -4.61,-5.762 l -1.35,-1.406 z"
     id="path27" />
  <path
     fill="#b2cf96"
     d="m 257.35579,553.88543 c 3.515,0.055 7.447,-0.073 9.613,2.78 -4.86,7.811 -23.914,6.486 -32.847,7.104 -4.121,-0.325 -6.379,-0.09 -9.809,-2.131 l -0.137,-1.26 c 6.239,-4.644 25.383,-5.954 33.18,-6.493 z"
     id="path28" />
  <path
     fill="#2d652d"
     d="m 1438.2238,568.92543 c 6.97,-0.139 23.21,-0.436 28.35,4.223 l -0.87,1.417 c -5.45,1.775 -10.22,1.315 -15.98,1.283 -7.52,0.041 -20.28,2.331 -26.81,-0.512 l 0.21,-1.395 c 5.06,-3.789 9.05,-4.054 15.1,-5.016 z"
     id="path29" />
  <path
     fill="#b2cf96"
     d="m 258.25279,567.89943 c 5.052,-0.094 14.627,2.603 17.1,7.03 -4.621,2.947 -15.905,1.274 -21.808,0.86 -7.297,-0.006 -12.617,0.619 -19.445,-1.847 l -0.447,-1.398 c 6.267,-4.122 17.091,-4.148 24.6,-4.645 z"
     id="path30" />
</svg>
