<?xml version="1.0" encoding="UTF-8" standalone="no"?>
<!-- Created with Inkscape (http://www.inkscape.org/) -->

<svg
   version="1.1"
   id="svg1"
   width="886.89709"
   height="795.23755"
   viewBox="0 0 886.89709 795.23755"
   xmlns="http://www.w3.org/2000/svg"
   xmlns:svg="http://www.w3.org/2000/svg">
  <defs
     id="defs1" />
  <g
     id="g1"
     transform="translate(-333.56055,-100.50626)">
    <path
       style="fill:#000000"
       d="M 761.59073,894.47656 C 756.04689,892.37469 752.50454,889.5078 735,872.95619 726.475,864.89528 712.09491,851.4825 703.04424,843.15 L 686.58847,828 h -7.89989 C 663.14963,828 648.95643,822.08413 638,811.0406 628.27267,801.23594 622.04208,788.06771 622.01187,777.25 L 622,773 l -8.75,-0.0211 c -24.47418,-0.059 -45.84252,-18.17678 -49.60276,-42.0572 l -1.04757,-6.6529 -8.0769,-0.56999 c -14.72202,-1.03895 -26.84658,-6.94509 -37.38564,-18.21138 -7.397,-7.90741 -11.82659,-16.748 -13.90333,-27.74828 l -1.60181,-8.48462 -6.88939,-1.2312 c -19.27793,-3.44516 -35.54914,-18.61311 -41.28717,-38.48769 -2.09218,-7.24661 -2.36469,-21.93306 -0.54396,-29.31512 l 1.30215,-5.27946 -13.27719,-12.72054 C 395.77245,538.95009 365.99698,494.56834 348.8759,445 329.4282,388.69568 328.46937,326.74381 346.1847,271.11658 c 12.82067,-40.2577 32.84226,-73.24852 62.27953,-102.62187 37.05611,-36.97563 76.73126,-57.2526 129.53577,-66.20246 8.36367,-1.41756 16.2986,-1.78093 39,-1.78595 31.80181,-0.007 40.24439,0.90258 64.06752,6.90266 48.93483,12.3247 95.42136,41.57789 127.99143,80.54285 4.61951,5.5265 8.63354,10.02765 8.92007,10.00255 0.28654,-0.0251 2.68593,-2.92107 5.33197,-6.43547 7.33826,-9.74647 20.98041,-23.84917 33.18901,-34.30948 27.05355,-23.17942 61.38573,-41.06189 95.37544,-49.67784 23.10532,-5.85689 33.39545,-6.97908 64.12456,-6.99308 31.2464,-0.0142 39.3691,0.92001 65.3968,7.52172 40.8137,10.35206 78.5829,32.52759 109.1212,64.06852 36.1659,37.35336 58.7828,84.13146 67.6268,139.87127 1.9581,12.34074 2.3025,18.29732 2.3127,40 0.01,15.04593 -0.5091,29.39465 -1.2589,35 -6.5725,49.13085 -23.3324,92.48677 -51.993,134.5 -16.3243,23.92966 -32.3484,41.78295 -73.0408,81.37907 L 1065,631.25813 v 7.14104 c 0,15.81908 -6.9814,31.61998 -19.4852,44.10083 -11.8814,11.85947 -22.2606,17.25098 -38.0446,19.76232 l -7.2869,1.15939 -1.60703,6.53915 c -6.57346,26.74777 -27.9932,45.8374 -54.82939,48.86486 l -5.977,0.67428 -1.70812,5.52828 c -6.1639,19.94927 -23.88004,37.19674 -43.65396,42.49911 -3.24929,0.87129 -10.07502,1.61744 -15.1683,1.65811 l -9.26049,0.0739 -3.17574,6.12029 c -2.22105,4.28039 -6.01203,8.82588 -12.61049,15.12028 -5.18911,4.95 -21.1928,20.50673 -35.56376,34.57052 -29.56933,28.9373 -31.4308,30.24471 -43.62902,30.64319 -4.76289,0.15558 -8.92668,-0.29591 -11.40927,-1.23715 z M 780,835.1706 c -6.19217,-4.13786 -26.5988,-19.81255 -36.54776,-28.07298 l -10.93351,-9.07789 -2.98586,2.98586 c -2.9645,2.9645 -2.97172,2.99923 -1.00937,4.85476 1.08708,1.02789 10.7515,9.95467 21.4765,19.8373 10.725,9.88263 20.1412,18.74699 20.9249,19.69858 1.31531,1.59711 1.81519,1.33468 6.5,-3.41243 l 5.0751,-5.1426 z m 42.147,-38.00909 c 3.36748,-3.76886 4.46541,-7.51795 3.23022,-11.03018 -0.9762,-2.77582 -42.03933,-41.00816 -44.12722,-41.08521 -0.6875,-0.0254 -1.25,0.33773 -1.25,0.80689 0,0.46916 -3.66931,4.77485 -8.15401,9.56821 -7.93081,8.47664 -8.10189,8.76323 -6.25,10.46997 13.60084,12.53475 31.43688,27.46243 38.90783,32.5635 3.4421,2.35022 4.7474,2.66783 9.41417,2.29072 4.52598,-0.36574 5.88078,-0.95578 8.22901,-3.5839 z M 688.18198,779.37389 c 6.08737,-4.21855 55.26638,-54.69162 57.14329,-58.64691 2.19978,-4.6357 2.11126,-8.49878 -0.28479,-12.42843 -4.26758,-6.99908 -12.79242,-8.06706 -19.77357,-2.4772 -2.0718,1.6589 -15.9709,15.31524 -30.88688,30.34742 -29.03664,29.26283 -29.9643,30.53408 -27.33259,37.456 3.46284,9.10798 12.67259,11.61325 21.13454,5.74912 z M 886.01017,761.75 c 5.47254,-3.72458 7.48983,-7.24571 7.48983,-13.07333 0,-3.85487 -0.60942,-6.03112 -2.38672,-8.52304 C 887.35561,734.88507 810.25213,666.08541 770,632.0839 c -7.975,-6.73658 -15.69994,-14.02313 -17.16653,-16.19231 -9.78232,-14.46871 0.85272,-35.23361 18.03878,-35.22069 3.55847,0.003 7.28237,0.76327 10.12775,2.06856 5.83178,2.67528 112.91583,94.96269 138.5,119.36237 10.04609,9.58098 13.83298,11.90155 19.38955,11.88172 C 948.13247,713.95057 956,706.1414 956,697 956,689.63828 952.59397,685.4498 932.41895,668.00185 847.5499,594.60462 815.7556,566.96204 811.17064,562.58624 c -7.23795,-6.90777 -9.58027,-11.57423 -9.58027,-19.08624 0,-17.5834 18.57297,-28.09997 33.76208,-19.11709 6.1686,3.64812 62.44586,52.11153 115.06331,99.08727 35.48597,31.68112 33.81582,30.27975 38.76313,32.52491 14.85771,6.74264 31.82111,-4.73155 31.82111,-21.52403 0,-7.75001 -2.4344,-11.8732 -12.1985,-20.66103 C 957.97377,568.06464 874.01691,493.99275 848,471.94113 c -33.83694,-28.67978 -67.40725,-54.8149 -76.57403,-59.61432 -4.97875,-2.60671 -5.56444,-2.70554 -7.83467,-1.32207 -1.34951,0.82239 -16.01499,12.74526 -32.58995,26.49526 -39.03268,32.38013 -47.01529,38.28255 -61.50135,45.47475 -13.68179,6.79289 -24.35036,9.80625 -37.86015,10.69368 -22.47033,1.47602 -47.47866,-6.61103 -67.8256,-21.93305 -20.38614,-15.35154 -26.92496,-35.13139 -16.8602,-51.00188 1.82476,-2.87734 11.90211,-12.27332 27.70689,-25.83351 35.70907,-30.63768 45.42439,-39.14799 45.082,-39.49038 -0.16642,-0.16642 -4.33916,1.06208 -9.27276,2.72999 -26.13975,8.83711 -50.8725,9.17117 -75.18032,1.01542 -20.34018,-6.82453 -28.46077,-11.85261 -74.61817,-46.20174 -54.97243,-40.90906 -63.17491,-46.84035 -63.81957,-46.14854 -1.42016,1.52402 -7.83158,23.39325 -10.17164,34.69526 -4.46626,21.5711 -5.18211,28.94525 -5.14499,53 0.0264,17.13107 0.49678,25.93447 1.84325,34.5 7.58739,48.26713 26.96289,87.94509 63.72562,130.5 12.13648,14.04865 34.84829,37.5 36.31744,37.5 0.67559,0 8.08359,-6.98044 16.4622,-15.51209 8.37862,-8.53166 17.58418,-17.28662 20.45681,-19.45547 13.76676,-10.39401 31.96108,-14.44903 47.11764,-10.50125 17.24547,4.49188 33.63901,19.70672 38.30981,35.55533 l 1.64719,5.58915 9.60713,-0.46262 c 11.00172,-0.52977 17.66534,0.95579 27.47727,6.12566 C 659.47448,566.22878 672,585.70301 672,601.09495 v 3.67474 l 6.27069,-0.50335 c 13.37966,-1.07399 26.21926,4.07663 36.72985,14.73421 10.26344,10.40698 16.00121,23.30398 15.9981,35.95955 l -10e-4,5.5399 5.43944,-0.33896 c 10.48613,-0.65344 23.17633,4.68591 34.72863,14.61193 9.97443,8.57028 60.85099,53.41572 81.06373,71.45411 9.75098,8.70203 18.75098,16.23234 20,16.73401 4.22543,1.69718 10.29121,1.16411 13.7811,-1.21109 z M 626.5,726.9363 c 1.65,-0.99373 16.11281,-14.99842 32.13959,-31.12154 24.22579,-24.37142 29.34895,-30.01616 30.38114,-33.47417 1.60083,-5.36301 0.66656,-8.8533 -3.47967,-12.99953 -2.83,-2.83 -4.05229,-3.34106 -7.99072,-3.34106 -2.55731,0 -5.86481,0.63988 -7.35,1.42195 -4.09029,2.15388 -61.90328,60.66554 -63.13022,63.89315 -2.29023,6.02475 -0.36414,13.38681 4.13183,15.79298 5.78867,3.098 9.94639,3.05132 15.29805,-0.17178 z m -62.15113,-49.46272 c 4.30115,-2.08349 62.04762,-59.12563 64.172,-63.38929 2.56939,-5.15683 1.52592,-11.75979 -2.41484,-15.28086 -3.74998,-3.35061 -6.92886,-4.24685 -11.81312,-3.33056 -3.14937,0.59083 -8.0331,4.9929 -33.12724,29.86006 C 551.75785,654.47476 546,661.12706 546,665.96138 c 0,3.96313 3.29203,9.18968 7.06166,11.21135 4.15318,2.22738 7.14545,2.30713 11.28721,0.30085 z m -49.54921,-52.90712 c 3.24613,-1.72328 49.51795,-48.13655 51.09454,-51.25072 1.47337,-2.91031 1.34403,-9.25872 -0.24706,-12.12598 -3.07345,-5.53859 -11.56668,-7.86093 -17.4468,-4.77056 -1.48519,0.78055 -13.78535,12.59305 -27.33369,26.25 -26.90242,27.11805 -27.30294,27.70069 -24.26381,35.29622 2.85451,7.13413 11.37227,10.22401 18.19682,6.60104 z M 1039.3045,557.99561 C 1046.3469,557.44803 1057.1867,557 1063.3928,557 h 11.2839 l 10.9411,-11.25 c 27.6247,-28.40461 52.8945,-62.73024 64.9432,-88.21668 4.2669,-9.02566 13.439,-32.21628 13.439,-33.97896 0,-0.2504 -31.1625,-0.1826 -69.25,0.15068 -75.5421,0.66101 -79.2661,0.47484 -94.97251,-4.748 -11.50892,-3.82706 -18.15543,-7.26333 -36.96855,-19.1129 -8.63008,-5.43571 -21.23008,-13.08907 -28,-17.00747 -18.58638,-10.75771 -87.20304,-45.60867 -93.11841,-47.2956 -5.2952,-1.51007 -17.37519,-3.14459 -62.89884,-8.5107 -35.66673,-4.20422 -38.17427,-4.11069 -55.22769,2.05996 -13.75404,4.97679 -21.87048,11.02317 -44.064,32.82566 -11,10.80619 -24.725,23.94442 -30.5,29.19608 -7.69526,6.9979 -49.91457,44.11664 -52.8197,46.43848 -0.17583,0.14053 3.26774,2.05108 7.65238,4.24566 10.32081,5.16573 19.81169,6.88592 29.32436,5.31493 16.07004,-2.65391 26.31614,-9.75867 84.31747,-58.46667 14.31402,-12.02054 28.05049,-22.80448 30.52549,-23.9643 9.67948,-4.53596 27.13987,-2.1672 43.03734,5.83863 18.67115,9.40264 58.27219,40.9887 130.96266,104.45671 22.71802,19.83571 74.46569,65.92015 88.2166,78.56228 6.5298,6.00323 6.8498,6.165 11.5,5.81423 2.6309,-0.19844 10.5454,-0.80882 17.5879,-1.35641 z m 133.3343,-182.30108 c 0.1729,-0.17294 0.5989,-6.58746 0.9466,-14.25448 1.9647,-43.32009 -11.9283,-96.25146 -34.1,-129.91873 -24.3146,-36.92146 -60.8108,-64.21659 -102.9368,-76.98557 -38.89667,-11.79011 -78.61174,-12.27239 -116.53045,-1.41509 -47.49046,13.598 -86.74892,43.07953 -115.54766,86.77166 -9.58174,14.53699 -16.90415,18.89174 -30.01568,17.8508 C 763.9559,256.9096 758.27928,252.74546 749.58549,239.5 697.91699,160.7802 601.54649,126.45686 514,155.59382 c -19.10361,6.35801 -39.48508,17.27398 -56.5,30.26043 -13.45643,10.27048 -38.51599,36.69282 -37.05,39.06484 0.75472,1.22118 90.05856,67.66287 102.838,76.51105 17.63513,12.21016 32.60302,17.78668 47.712,17.77585 10.17388,-0.007 17.5968,-1.63153 37.5,-8.20551 8.25,-2.72496 18.825,-5.87323 23.5,-6.99615 10.95211,-2.63068 28.31516,-3.60255 37.79772,-2.11567 l 7.29772,1.14429 6.20228,-4.41811 c 12.11752,-8.63175 29.60853,-16.09038 46.20228,-19.70189 3.3,-0.71822 10.725,-1.28009 16.5,-1.24859 11.47474,0.0626 83.86045,8.35737 98.59986,11.29872 12.35845,2.46622 22.96179,6.8266 56.40014,23.19326 35.93591,17.58913 61.52719,31.73542 93.5,51.68472 13.2291,8.25422 18.4279,10.81215 24.7697,12.18716 3.7568,0.81454 152.5446,0.49082 153.3691,-0.33369 z"
       id="path1" />
  </g>
</svg>
