<?xml version="1.0" encoding="UTF-8" standalone="no"?>
<!-- Created with Inkscape (http://www.inkscape.org/) -->

<svg
   version="1.1"
   id="svg1"
   width="580.22937"
   height="741.15796"
   viewBox="0 0 580.22937 741.15796"
   xmlns="http://www.w3.org/2000/svg"
   xmlns:svg="http://www.w3.org/2000/svg">
  <defs
     id="defs1" />
  <g
     id="g1"
     transform="translate(-218.12679,-164.56473)">
    <path
       style="fill:#000000"
       d="m 497,904.99147 c -13.40684,-0.71847 -15.51644,-1.21941 -17.02778,-4.04338 -1.63429,-3.0537 -1.10408,-6.81141 1.9444,-13.78048 6.30061,-14.40366 7.64739,-26.81735 4.62387,-42.61983 -0.83297,-4.35354 -4.00676,-17.0549 -7.05287,-28.22526 -8.06071,-29.55935 -10.45021,-49.11028 -10.48916,-85.82252 -0.0223,-21.02862 -0.89422,-32.00446 -5.5602,-69.99299 -2.80147,-22.80848 -3.43464,-31.42063 -3.41874,-46.5 0.0399,-37.87082 5.02284,-56.43222 20.13595,-75.00701 13.78394,-16.94118 24.93378,-36.33775 29.0292,-50.5 2.07434,-7.17322 2.30905,-10.01528 2.27108,-27.5 -0.04,-18.41682 -0.19635,-19.99993 -2.8149,-28.5 -6.06027,-19.67224 -14.26915,-30.67001 -36.50278,-48.90426 -6.95094,-5.70061 -14.41493,-12.2147 -16.58666,-14.47577 l -3.94858,-4.11104 2.04544,-2.75446 c 1.17088,-1.57677 6.32797,-4.89227 12.06164,-7.75447 17.66179,-8.8166 22.29462,-14.14933 22.28451,-25.65113 -0.008,-8.79066 -1.35741,-12.88603 -7.85974,-23.84887 l -5.63468,-9.5 -0.34072,-9.6545 c -0.1874,-5.30997 0.18318,-12.17813 0.82351,-15.26258 2.53553,-12.2136 11.96316,-25.91815 20.74191,-30.15164 8.1886,-3.94889 23.16116,-2.81706 31.21723,2.35983 5.59813,3.59739 13.42128,15.37124 16.30134,24.53353 3.41167,10.85349 3.11499,26.43542 -0.6983,36.67536 -4.29136,11.52371 -7.06752,16.39845 -11.08324,19.46139 -6.46042,4.9276 -9.19031,14.29522 -5.97682,20.50943 2.55015,4.93145 6.5944,6.86203 21.16448,10.10318 20.63504,4.59031 27.59198,8.2848 32.81415,17.426 2.48145,4.34367 3.31735,7.48443 9.55366,35.89662 4.52,20.59277 12.02149,44.87396 16.9671,54.91993 1.72422,3.50239 7.13615,11.50146 12.0265,17.77572 8.71693,11.18369 13.46593,18.65298 23.4892,36.94409 8.91424,16.26728 19.27194,25.63937 38.6162,34.94157 9.66293,4.64667 14.8838,6.12909 14.8838,4.22611 0,-0.43778 -7.10371,-4.21113 -15.78602,-8.38523 -20.02326,-9.62634 -22.77054,-12.39081 -36.162,-36.3881 -5.19641,-9.31189 -13.84428,-24.15929 -19.21749,-32.99422 -5.37321,-8.83493 -11.55567,-20.53493 -13.7388,-26 -4.60381,-11.5248 -12.78632,-37.69169 -16.0969,-51.47637 l -2.29113,-9.53988 6.61966,-8.9523 C 610.99694,365.3338 620.20117,344.20646 625.10614,321 c 2.90976,-13.76666 3.21393,-41.44588 0.58064,-52.83763 -5.88036,-25.43882 -17.77792,-46.71103 -35.25339,-63.03119 -18.36864,-17.15428 -46.25147,-30.19364 -67.80824,-31.7104 -39.3772,-2.77063 -82.54212,31.7191 -96.58046,77.16995 -2.79947,9.06364 -5.03572,23.27272 -5.04067,32.02828 -0.0119,21.05955 9.11183,45.95606 23.28869,63.54938 2.66835,3.31138 4.69736,6.17487 4.50892,6.36331 -0.18844,0.18844 -2.58339,1.30254 -5.32212,2.47579 -11.51841,4.93436 -19.48473,13.64658 -24.68153,26.99251 -3.47815,8.93225 -9.00635,30.07581 -13.33449,51 -3.48672,16.85645 -7.2875,28.57602 -11.67055,35.98576 -1.14332,1.93283 -6.17695,9.81327 -11.18585,17.51208 -5.0089,7.69882 -13.8468,21.87382 -19.63978,31.5 -12.46784,20.71781 -12.01651,20.33546 -39.03645,33.07045 -9.83931,4.63744 -17.75144,8.88171 -17.58253,9.43171 0.16891,0.55 2.17483,1.13789 4.4576,1.30643 3.65052,0.26952 7.10748,-0.82872 14.44407,-4.58872 0.4125,-0.21141 0.75,0.91888 0.75,2.51175 0,2.29601 -1.79334,4.71384 -8.65467,11.66842 -4.76007,4.82477 -10.27257,9.80065 -12.25,11.05751 -9.39767,5.97317 -8.89749,9.54461 1.33672,9.54461 6.95114,0 20.49977,-3.12547 28.12156,-6.48723 6.91815,-3.0514 11.25757,-7.10627 19.67648,-18.3862 14.32887,-19.19829 22.4292,-28.84812 38.98452,-46.4418 15.51535,-16.48848 28.00988,-32.19942 32.24719,-40.54846 2.92922,-5.77162 4.49716,-11.04253 9.04524,-30.40706 2.42474,-10.32391 5.009,-19.62791 5.74279,-20.67555 1.19409,-1.7048 1.73622,-0.59026 5.16314,10.6146 6.01538,19.66821 7.80248,31.97296 7.31002,50.3317 -0.49613,18.49533 -1.59819,22.0945 -10.8909,35.56805 -15.50269,22.47744 -19.34094,28.58669 -23.83141,37.93195 -10.28208,21.39835 -14.45471,39.91074 -14.42538,64 0.0294,24.12058 2.99697,36.9016 13.46688,58 7.75196,15.62132 16.94211,28.41497 30.09183,41.89097 l 10.63401,10.89786 -1.11281,5.85559 c -0.69309,3.64704 -1.61433,5.85558 -2.4425,5.85558 -3.13724,0 -26.03347,-6.33723 -38.34341,-10.61271 -29.43228,-10.22239 -58.12136,-25.19516 -80.52243,-42.02447 -9.8776,-7.42076 -39.18251,-35.94706 -49.48119,-48.16651 C 271.02843,631.59183 260.32964,614.57031 246.4582,586.5 237.43453,568.23964 231.86215,552.68233 226.44223,530.61817 212.61603,474.3326 216.25812,405.67748 235.67904,356.5 c 5.39175,-13.65293 19.26992,-41.86019 25.70023,-52.23547 9.81114,-15.83026 29.12963,-40.70741 40.39321,-52.0159 12.43655,-12.48613 35.20931,-31.02019 50.05839,-40.74103 27.42328,-17.95244 66.18296,-33.79858 98.96772,-40.46103 24.09641,-4.89683 57.79776,-7.62553 74.37418,-6.02187 61.49396,5.94913 110.90297,24.82732 159.82723,61.06679 11.27544,8.35201 40.64466,37.87625 50.14384,50.40851 35.34728,46.63366 53.75684,91.07413 61.51645,148.5 2.27062,16.80397 2.25907,53.41142 -0.0227,71.91689 -5.80313,47.06444 -24.94621,95.11193 -54.21822,136.08311 -29.18075,40.84346 -61.48489,69.13313 -103.78854,90.89064 -20.06302,10.31877 -51.04221,21.24899 -67.01356,23.64404 -4.08629,0.61278 -4.61688,0.4781 -4.61378,-1.17114 0.003,-1.51693 1.93855,-2.38887 10.40737,-4.68802 40.95649,-11.11904 83.87327,-38.7621 105.35147,-67.85777 14.01709,-18.98841 23.05938,-43.42502 23.54009,-63.61661 0.18521,-7.77966 0.0421,-8.41666 -2.28788,-10.1819 -1.367,-1.03568 -8.117,-3.77666 -15,-6.09106 -6.883,-2.31441 -14.08955,-5.14321 -16.01455,-6.28622 -6.11472,-3.63075 -13.02053,-10.79112 -22.31923,-23.14196 -5.80063,-7.7046 -17.31418,-20.41183 -32.16521,-35.5 -23.62292,-24.00013 -28.33093,-29.87853 -36.9407,-46.12394 -5.12101,-9.66262 -12.61561,-27.67551 -15.1149,-36.32789 l -1.71922,-5.95182 -2.43331,4.78796 c -4.40507,8.66773 -6.30775,18.63519 -6.30424,33.02565 0.004,15.68588 1.3601,23.96771 8.50163,51.91369 7.47914,29.26712 8.5909,36.28675 9.21391,58.17635 0.70242,24.67967 -1.78959,42.76702 -11.36657,82.5 -8.86618,36.78401 -9.41239,40.71733 -10.34571,74.5 -0.92011,33.30447 -1.60242,38.95647 -7.36388,61 -1.86877,7.15 -5.27532,20.2 -7.5701,29 -6.85283,26.27917 -6.54411,34.65074 1.89694,51.43915 4.67039,9.28896 4.86675,10.97722 1.70436,14.65373 -2.07779,2.41557 -3.27932,2.78774 -11.25,3.48469 -10.06252,0.87986 -14.62469,0.86775 -32.42377,-0.0861 z M 513.15141,781 c 1.77741,-54.69603 1.72078,-134.97186 -0.10794,-153 -0.94585,-9.3246 -1.59365,-12.67892 -2.09446,-10.84528 -1.05046,3.84603 -2.80747,80.33183 -3.54559,154.34528 -0.61938,62.10778 -0.25206,73.87976 2.43336,77.98591 0.8054,1.2315 1.54705,-14.09221 3.31463,-68.48591 z M 704.92093,578.07003 c 2.0633,-1.30592 -0.61238,-5.01727 -7.20643,-9.99583 -5.64871,-4.26482 -16.46208,-9.65996 -17.42709,-8.69494 -0.89476,0.89475 4.33982,7.95978 7.92132,10.69129 4.88966,3.72919 13.17398,8.88343 14.29127,8.89155 0.55,0.004 1.63942,-0.39743 2.42093,-0.89207 z"
       id="path1" />
  </g>
</svg>
