<?xml version="1.0" encoding="UTF-8" standalone="no"?>
<!-- Created with Inkscape (http://www.inkscape.org/) -->

<svg
   version="1.1"
   id="svg1"
   width="755.35632"
   height="761.70001"
   viewBox="0 0 755.35632 761.70001"
   xmlns="http://www.w3.org/2000/svg"
   xmlns:svg="http://www.w3.org/2000/svg">
  <defs
     id="defs1" />
  <g
     id="g1"
     transform="translate(-38.183441,-240.1465)">
    <path
       style="fill:#000000"
       d="M 379.74504,1000.4087 C 305.94969,993.09641 238.46502,965.56095 180.50389,919.11321 166.07132,907.54753 142.13046,884.41774 129.66846,870 80.766174,813.42317 50.824865,745.5243 40.372194,667.5 38.237028,651.56198 37.468411,610.34977 38.950477,591.26941 48.01424,474.58112 109.97131,368.45409 206.5,304.27175 334.94641,218.86718 497.85149,218.76412 625,304.00698 719.55013,367.39524 779.85701,467.83961 792.20744,582.5 c 2.00305,18.59615 1.68971,65.76877 -0.55132,83 -4.83661,37.18857 -11.75574,64.59358 -24.3592,96.48097 -18.60996,47.08413 -45.16806,88.324 -79.78364,123.88938 C 621.08009,954.12637 539.77218,992.9495 446.5,1000.95 c -16.26501,1.3952 -49.97002,1.1219 -66.75496,-0.5413 z M 456,969.61592 c 59.91807,-7.50958 111.6537,-27.59188 161.0093,-62.49923 29.45613,-20.83321 61.15978,-52.74078 83.00464,-83.53852 C 771.29896,723.07773 783.9021,587.54347 732.44465,474.8181 699.98615,403.71281 640.70833,342.43766 570.18586,307.09208 496.53126,270.17669 413.05155,260.83918 333.5,280.6179 298.58346,289.29912 262.99657,304.33962 233.16158,323.02511 179.01542,356.93653 132.78715,407.54904 104.63632,463.73954 86.674123,499.59302 76.102588,534.95331 70.32681,578.5 c -2.201762,16.60026 -2.488839,64.57395 -0.484708,81 5.920579,48.52566 20.487481,94.29082 42.271548,132.80547 48.47583,85.70619 126.99617,145.84649 221.38635,169.56425 17.51757,4.4017 37.07044,7.48155 60.5,9.5296 9.22294,0.80621 50.90398,-0.39273 62,-1.7834 z M 355.5,955.32791 c -7.13263,-1.5695 -9.45802,-4.37471 -8.10273,-9.77464 0.33775,-1.3457 3.80507,-5.8882 7.70515,-10.09444 4.42669,-4.7742 8.27584,-10.14844 10.24431,-14.30327 3.02746,-6.39002 3.15123,-7.15428 3.10207,-19.15556 -0.0477,-11.63886 -0.31366,-13.32669 -3.8609,-24.5 -5.64847,-17.79186 -9.27437,-30.63145 -12.28439,-43.5 -2.27397,-9.72173 -2.68761,-13.74217 -2.67494,-26 0.009,-8.24481 0.80851,-20.5395 1.85444,-28.5 1.01169,-7.7 1.82492,-19.85 1.80718,-27 -0.0295,-11.89083 -0.387,-14.40084 -4.18981,-29.41861 -6.81253,-26.90345 -8.24516,-37.39611 -8.82648,-64.64578 -0.57669,-27.03242 0.55256,-39.53574 5.84066,-64.66926 6.4942,-30.86596 7.20907,-36.28795 7.22072,-54.76635 0.0118,-18.69465 -0.61393,-23.33956 -6.49382,-48.20567 l -3.24088,-13.70567 -3.178,9.70567 c -1.7479,5.33812 -6.15742,16.08057 -9.79892,23.87212 -3.64151,7.79155 -8.01613,18.14155 -9.72139,23 -1.70525,4.85845 -4.95714,12.41932 -7.22641,16.80193 -4.06346,7.84768 -18.50096,28.35647 -33.19191,47.14984 -4.12435,5.27606 -7.76746,10.78285 -8.09579,12.23731 -2.4831,10.99957 -4.27894,16.18549 -9.39991,27.14447 -9.90303,21.1927 -12.46833,24.91992 -15.24225,22.146 -0.8261,-0.8261 -0.64369,-2.63031 0.69585,-6.88279 0.99849,-3.16976 2.02209,-6.43821 2.27468,-7.26321 0.25259,-0.825 -1.62555,2.20116 -4.17363,6.72481 -5.31108,9.42882 -8.14571,12.10095 -10.42205,9.82461 -1.25841,-1.25841 -0.84199,-2.68863 3.24294,-11.13801 2.57771,-5.33181 4.55803,-9.82293 4.4007,-9.98026 -0.15733,-0.15733 -3.04196,4.28308 -6.41028,9.86757 -6.90352,11.44565 -8.50186,12.9822 -10.95377,10.53029 -1.51612,-1.51612 -1.18002,-2.49396 4.54837,-13.23305 C 234.35082,641.21818 236.89067,636 236.59293,636 c -0.29774,0 -3.26456,4.05 -6.59293,9 -6.07387,9.03314 -7.70668,10.26329 -9.98266,7.52089 -1.71468,-2.06606 -0.37072,-5.44251 6.42749,-16.14783 5.32017,-8.3778 7.3738,-12.88776 6.33949,-13.92207 -0.25072,-0.25073 -2.89227,0.88708 -5.87009,2.52846 -6.24516,3.44233 -9.43283,3.78856 -10.83082,1.17641 -0.80042,-1.4956 -0.28731,-2.5025 2.71482,-5.32743 2.03597,-1.91581 5.72677,-5.00117 8.20177,-6.85635 2.475,-1.85519 6.11943,-4.79518 8.09873,-6.53331 1.9793,-1.73813 6.43618,-4.67258 9.90418,-6.52101 6.70432,-3.57336 10.77128,-8.13048 14.20566,-15.91776 1.09153,-2.475 6.47887,-15.3 11.97186,-28.5 7.30208,-17.54738 11.54311,-26.29866 15.77415,-32.5497 7.97855,-11.78769 8.33815,-12.58559 15.19841,-33.72325 5.7444,-17.69947 6.12742,-19.49525 6.98038,-32.72705 0.49636,-7.7 1.35903,-16.27925 1.91704,-19.06499 2.47163,-12.33904 11.33087,-24.555 21.5689,-29.74127 2.68438,-1.35982 12.18141,-4.79656 21.10451,-7.63719 8.9231,-2.84063 19.43191,-6.76973 23.35291,-8.73133 6.01674,-3.01005 7.42167,-4.21084 9.00422,-7.69588 3.86156,-8.50379 0.79398,-29.14133 -5.15802,-34.70134 -3.74957,-3.50262 -5.79467,-8.3984 -6.55168,-15.6841 -0.52101,-5.01437 -0.32847,-5.98585 1.51597,-7.64889 1.7804,-1.60529 2.11278,-3.04393 2.11278,-9.14466 0,-15.01038 5.95781,-26.56268 16.47225,-31.93996 5.44776,-2.78609 6.67394,-3.01039 16.45704,-3.01039 12.03064,0 15.68806,1.34108 22.26845,8.16527 5.99936,6.22163 9.01514,14.07659 9.58464,24.96434 0.38704,7.39939 0.86852,9.64947 2.35214,10.99213 1.30716,1.18296 1.86381,3.06349 1.8599,6.28325 -0.009,7.26058 -1.85222,12.2483 -5.98336,16.1892 -3.39856,3.24206 -3.98744,4.60423 -6.01051,13.9033 -2.56637,11.79632 -2.26541,18.41744 1.04873,23.07171 3.03733,4.26555 12.83108,8.82561 32.86204,15.3009 18.51587,5.98551 24.49765,9.09531 30.94109,16.08561 8.09416,8.78113 10.903,17.22993 12.64799,38.04429 1.25809,15.00667 1.71564,17.17006 7.36996,34.84677 6.67451,20.86609 7.91538,23.64115 14.675,32.81893 5.91319,8.02856 7.11288,10.41525 14.60017,29.04576 8.82095,21.94907 16.28165,38.34875 19.16678,42.13135 1.37558,1.80349 5.35556,4.78262 8.84438,6.62029 3.48882,1.83767 9.04331,5.65482 12.34331,8.48257 3.3,2.82774 8.33882,6.83021 11.19739,8.89438 10.95982,7.9141 6.42817,13.27573 -5.61162,6.6394 -2.97782,-1.64138 -5.57791,-2.82064 -5.77798,-2.62058 -0.74924,0.74925 1.92805,6.21821 7.27826,14.86746 6.78835,10.97419 7.84455,13.5499 6.313,15.39531 -2.41676,2.91202 -4.5647,1.32691 -10.359,-7.64457 -3.20514,-4.96261 -6.02488,-8.82557 -6.2661,-8.58435 -0.24123,0.24122 2.07346,5.22832 5.14373,11.08244 6.3011,12.01437 6.8363,14.52484 3.09651,14.52484 -2.6831,0 -3.55269,-1.12365 -11.99542,-15.5 -5.37827,-9.15817 -5.31834,-8.60798 0.47033,4.31777 2.29508,5.12477 3.92555,9.96227 3.62327,10.75 -1.55928,4.06341 -6.0169,-0.31728 -11.51652,-11.31777 -1.71855,-3.4375 -3.31635,-6.25 -3.55067,-6.25 -0.23432,0 0.675,3.23716 2.0207,7.19369 2.50433,7.36304 2.23512,9.28808 -1.20966,8.65009 -3.1053,-0.57511 -17.9999,-31.32423 -20.66544,-42.66273 L 549.5,607.86211 534.60425,588.68105 C 511.5396,558.98102 508.2196,553.45757 499.99092,531.09526 497.84303,525.25812 493.19577,514.41127 489.66369,506.99114 486.1316,499.57101 482.22615,490.125 480.98492,486 c -1.24124,-4.125 -2.48664,-8.175 -2.76756,-9 -0.63965,-1.87852 -4.44183,13.25488 -7.78858,31 -5.01846,26.60889 -4.53954,38.26128 3.14415,76.5 6.13406,30.52681 7.37889,39.53756 8.08176,58.5 1.01531,27.39205 -1.58436,50.79997 -8.94027,80.5 -3.81479,15.40248 -4.21064,18.17465 -4.21244,29.5 -10e-4,6.875 0.84355,20.30944 1.87698,29.85432 3.42255,31.61111 1.89893,43.3735 -11.35307,87.64568 -6.47476,21.63082 -7.68074,29.01277 -6.32183,38.69688 1.44513,10.29859 5.19507,17.54153 13.90249,26.85239 6.57601,7.03174 7.39345,8.33703 7.39345,11.80584 0,4.53623 -0.86041,5.39135 -7.12985,7.08604 -7.17155,1.93854 -32.65043,1.09227 -36.14611,-1.20057 -4.15196,-2.72329 -6.03916,-7.3523 -6.0096,-14.74058 0.0603,-15.08166 1.27478,-37.78904 2.21952,-41.5 1.51893,-5.96637 1.23322,-39.41839 -0.43131,-50.5 -3.62931,-24.16219 -3.86392,-28.79569 -2.13803,-42.22632 C 426.4942,788.20154 426.40854,780.5829 423.9624,769 422.85895,763.775 421.27886,753.05638 420.45107,745.18084 417.7814,719.78154 411.47096,681 410.00772,681 c -2.11883,0 -6.07853,21.80003 -8.53695,47 -1.76773,18.12018 -3.79724,35.20321 -5.63292,47.41413 -0.99187,6.59792 -0.89323,11.08831 0.59313,27 1.75838,18.8238 1.75479,19.27124 -0.26199,32.58587 -3.66867,24.2203 -4.48923,37.19346 -3.19415,50.5 1.47457,15.15068 3.30522,44.8017 3.33767,54.06024 0.0487,13.8946 -3.95814,16.50224 -25.08275,16.32376 C 363.67839,955.8202 356.6,955.56996 355.5,955.32791 Z m 19.90126,-126.62825 c 0.83673,-8.55962 3.55807,-21.84251 8.55639,-41.76383 5.3352,-21.26402 6.92192,-33.08402 8.07189,-60.13018 1.07263,-25.22722 1.89663,-32.10723 5.08609,-42.46616 4.54646,-14.76631 8.35329,-21.36843 22.36393,-38.78533 14.42971,-17.93785 18.7111,-28.19883 18.7988,-45.05416 0.0767,-14.73889 -2.94874,-22.78233 -14.0094,-37.24544 -3.68227,-4.81501 -8.85812,-11.88518 -11.50189,-15.71149 l -4.80685,-6.95694 12.78017,-12.54306 c 17.76706,-17.43743 28.20001,-30.13882 35.76638,-43.54307 3.28951,-5.82755 2.67754,-5.32403 -4.25381,3.5 -9.61647,12.24237 -46.06775,45.89492 -47.41404,43.7736 -0.44456,-0.70048 -0.81519,-5.3887 -0.82361,-10.41826 -0.0282,-16.86222 3.85006,-24.63289 22.72058,-45.52363 21.94951,-24.29936 27.19931,-34.29607 27.42336,-52.21976 0.0489,-3.91157 -0.36365,-8.23695 -0.91677,-9.61195 -0.89007,-2.21266 -1.08134,-1.81039 -1.6641,3.5 -0.95151,8.67054 -4.97709,20.6215 -9.62942,28.5874 -4.86036,8.32207 -11.11556,16.04391 -23.88246,29.48211 -14.94208,15.72774 -20.0429,25.99653 -20.82816,41.93049 -0.30585,6.20621 0.0385,10.83869 1.10936,14.92321 l 1.5529,5.9232 -8.81432,9.5768 c -17.96305,19.51694 -26.69199,34.17058 -29.82359,50.06615 -1.51145,7.67194 -1.51848,9.12338 -0.0844,17.43953 0.86033,4.98911 2.21781,10.64611 3.01661,12.57111 1.36027,3.27806 1.42432,2.76683 1.01009,-8.06227 -0.52499,-13.72493 1.59015,-23.9678 7.38731,-35.77408 4.31159,-8.78081 15.95446,-24.4202 24.20643,-32.51548 l 5.96509,-5.85183 3.32857,4.85183 c 1.83071,2.66851 6.8203,9.45255 11.08799,15.07566 4.26768,5.62311 8.85771,12.3912 10.20007,15.04021 4.53815,8.95561 5.81258,22.23548 3.12433,32.55636 -2.62008,10.05919 -6.17163,15.65226 -22.81784,35.93419 -11.15231,13.58809 -18.36425,31.38187 -20.58621,50.79163 -0.59523,5.19958 -1.53447,19.43701 -2.0872,31.63875 -1.06187,23.44134 -2.63326,37.18666 -6.49518,56.81503 -3.0717,15.61207 -4.31809,25.49223 -4.91985,39 -0.52244,11.72736 0.6945,12.53718 1.80278,1.19966 z m 54.68143,-90.28936 c -3.01486,-29.95577 -0.12029,-44.37932 14.94342,-74.46244 11.17281,-22.31276 14.82804,-33.59754 15.9056,-49.10519 1.01624,-14.62516 0.068,-23.22647 -3.7968,-34.43891 C 454.1644,571.7857 446.50918,558.59856 440.3561,551.5 l -3.46722,-4 3.62316,6.5 c 10.48952,18.81835 13.54925,28.55089 14.23288,45.27264 0.90333,22.09598 -1.72188,32.38565 -15.75278,61.74381 -4.89391,10.23998 -9.80958,21.96286 -10.92372,26.05085 -4.33878,15.91984 -4.37325,30.52978 -0.12136,51.4327 1.11876,5.5 2.03835,10.4125 2.04353,10.91667 0.005,0.50416 0.27162,0.65445 0.5921,0.33397 0.32048,-0.32048 0.0955,-5.42363 -0.5,-11.34034 z m -61.32208,-22.71231 c -0.89013,-13.56578 -0.8844,-21.07009 0.0245,-32.05426 1.94244,-23.47499 5.36104,-31.66771 21.7582,-52.14373 5.28526,-6.6 11.12345,-14.97319 12.97375,-18.60709 4.53901,-8.91444 6.94164,-20.99925 5.91007,-29.72662 l -0.78795,-6.66629 -0.81802,6.7769 c -1.77907,14.73886 -7.30833,25.66943 -21.87779,43.24926 -5.00207,6.03561 -10.83463,13.89884 -12.96125,17.47384 -8.59756,14.45316 -12.35388,34.24854 -10.19945,53.75 1.10914,10.03968 6.16574,36.63494 6.83771,35.96298 0.16636,-0.16637 -0.22053,-8.27311 -0.85975,-18.01499 z M 283.81993,575.8813 C 288.21064,573.26197 294,568.00053 294,566.62952 c 0,-0.53798 -1.0125,-0.0604 -2.25,1.06121 -1.2375,1.12165 -4.84276,3.67287 -8.01169,5.66937 -3.16894,1.99651 -6.65475,5.09474 -7.74627,6.88496 -2.89872,4.75427 -2.43356,5.3274 1.07789,1.32808 1.68846,-1.92305 4.72596,-4.48438 6.75,-5.69184 z m 261.78563,3.66821 c -1.47033,-1.9277 -4.79558,-4.71359 -7.38945,-6.19085 -2.59386,-1.47726 -6.04237,-3.84979 -7.66335,-5.27229 l -2.94723,-2.58637 1.53614,2.5 c 0.84488,1.375 3.70699,4.075 6.36026,6 2.65326,1.925 6.43673,4.92652 8.4077,6.67006 4.47145,3.95545 5.20028,3.47389 1.69593,-1.12055 z m 7.87754,-1.58286 c -3.81215,-7.52293 -10.51304,-14.20578 -22.26543,-22.20552 -9.98441,-6.79629 -13.98626,-11.05147 -17.0373,-18.11586 C 512.69454,534.20497 511.39973,523 512.48802,523 c 2.66716,0 20.32979,11.12238 23.64696,14.89079 4.42528,5.02726 4.92143,4.58716 1.46885,-1.30293 -2.96703,-5.06174 -7.8426,-9.0301 -17.8069,-14.49353 l -7.70307,-4.22359 0.56523,-13.18537 c 0.83225,-19.41391 -1.94608,-29.28357 -11.67692,-41.4808 -4.52643,-5.67371 -6.84831,-6.5527 -2.69502,-1.02025 8.0648,10.74282 11.20989,22.94405 10.19932,39.56771 -0.37621,6.18862 -1.08437,11.49946 -1.57367,11.80186 -1.53901,0.95116 -7.8608,-4.81656 -11.96665,-10.91784 C 492.77577,499.41087 491,497.32288 491,497.99607 c 0,2.9238 6.75835,13.51734 11.06046,17.33699 4.59233,4.07731 4.70834,4.32651 5.39359,11.58572 1.47231,15.5969 6.68267,23.2815 22.29495,32.88214 11.83373,7.27705 18.13402,12.69589 22.38054,19.24939 1.76325,2.72116 3.38569,4.76779 3.60542,4.54806 0.21973,-0.21972 -0.79361,-2.754 -2.25186,-5.63172 z m -275.20139,-8.56538 c 2.43778,-2.1457 8.97348,-6.72765 14.52379,-10.18212 5.5503,-3.45446 11.68605,-8.14376 13.63498,-10.42065 4.53042,-5.29278 7.37423,-12.93453 8.21449,-22.07358 0.63082,-6.86115 0.87021,-7.40809 4.75465,-10.86283 4.22689,-3.75933 9.92996,-12.47962 11.02779,-16.86209 0.43986,-1.7559 0.0209,-1.39655 -1.40757,1.20733 -1.11861,2.03903 -4.58478,6.31403 -7.70259,9.5 l -5.66876,5.79267 -0.75139,-2.78225 c -0.41326,-1.53024 -1.05134,-7.15524 -1.41795,-12.5 -1.01762,-14.83555 2.18658,-26.84129 10.19988,-38.21775 1.84887,-2.62483 1.30252,-2.26789 -2.18494,1.42747 -9.80752,10.39217 -13.07567,21.75882 -12.0073,41.76146 l 0.67774,12.68894 -5.33727,2.69013 c -9.61899,4.84824 -15.57694,9.40766 -19.2363,14.72088 -1.98053,2.87564 -3.60096,5.53269 -3.60096,5.90456 0,0.37187 2.3625,-1.67077 5.25,-4.53919 C 291.65711,532.27625 306.80129,523 309.54158,523 c 1.35808,0 -0.30555,11.67868 -2.29536,16.11341 -2.61827,5.83541 -7.57354,10.70953 -18.06276,17.76694 -10.01677,6.73953 -15.98587,12.8228 -19.6209,19.99619 -3.5349,6.97579 -3.20605,7.55229 0.86213,1.51139 1.88358,-2.79696 5.41924,-6.84095 7.85702,-8.98666 z m 13.67748,-22.02039 c 3.43598,-2.89118 6.06256,-7.30381 6.00077,-10.08122 -0.0279,-1.25583 -0.51549,-0.8931 -1.61341,1.20034 -0.86536,1.65 -3.41603,4.9125 -5.66817,7.25 -4.50663,4.67744 -3.64447,5.77524 1.28081,1.63088 z M 530.95443,545.25 c -2.31856,-2.6125 -4.81419,-6.1 -5.54585,-7.75 -1.19588,-2.69688 -1.33425,-2.76764 -1.36944,-0.70034 -0.0554,3.25249 2.3666,7.52252 6.00167,10.58122 4.98857,4.19761 5.49069,3.02649 0.91362,-2.13088 z M 386.96483,491.5 c 2.68885,-12.88244 8.8312,-24.22783 21.92655,-40.5 16.21653,-20.15054 21.96293,-30.09488 24.6095,-42.58756 1.60593,-7.58053 1.97522,-14.48082 0.58402,-10.91244 -0.42886,1.1 -1.767,5.06263 -2.97365,8.80585 -2.88912,8.96249 -8.83118,18.71842 -17.53231,28.78534 -17.33035,20.05064 -22.7421,27.78568 -27.25234,38.95192 -5.42512,13.43124 -6.52577,27.76239 -3.1189,40.61013 l 1.28523,4.84676 0.60979,-11 c 0.33538,-6.05 1.17333,-13.7 1.86211,-17 z m -20.88636,7.84377 c -0.58702,-2.11407 -1.06983,-8.67589 -1.07289,-14.58181 -0.005,-9.18439 0.42543,-12.07813 2.97335,-20 4.11028,-12.77946 8.60432,-19.08128 26.29824,-36.87704 12.47844,-12.55026 15.89376,-16.61508 18.53638,-22.06152 4.10705,-8.4646 7.43525,-21.03064 5.83527,-22.03176 -1.54317,-0.96557 -1.9789,-0.28235 -4.59724,7.20836 -4.25664,12.17765 -7.61415,16.72138 -25.49322,34.5 -11.15529,11.09262 -18.30174,19.06487 -20.56574,22.94218 -9.57316,16.39495 -10.60814,32.06711 -3.39236,51.36858 1.94867,5.21249 2.96602,4.8911 1.47821,-0.46699 z"
       id="path1" />
  </g>
</svg>
