<svg class="{{ class | default('') }}" xmlns="http://www.w3.org/2000/svg" viewBox="0 0 607 633"><path style="fill:currentColor" fill-rule="evenodd" d="M279.69.75c-.235.413-.996 2.55-1.692 4.75-1.552 4.908-9.358 24.46-23.932 59.937C247.98 80.253 243 92.657 243 93.003c0 .345 9.563 1.899 21.25 3.454 11.688 1.554 21.392 2.942 21.565 3.083s-3.317 10.371-7.756 22.734l-8.07 22.478 4.13 11.606c2.272 6.383 4.49 11.384 4.929 11.112.439-.271 1.118-1.95 1.509-3.731.391-1.782 4.285-13.139 8.654-25.239 14.628-40.513 18.741-52.5 18.012-52.491-2.782.032-40.852-5.381-41.354-5.881-.347-.345 4.676-13.378 11.161-28.961l11.792-28.334-1.356-4.166c-.746-2.292-2.3-7.429-3.454-11.417-1.913-6.617-3.174-8.512-4.322-6.5M322.833 27c-.091 9.35-.204 17.788-.25 18.75-.071 1.507 1.041 1.79 8.019 2.038l8.102.288.712-18.03c.392-9.917.432-18.484.089-19.038S335.309 10 330.941 10H323zM212.69 13.709c-.262.435-.236 7.878.06 16.541l.537 15.75h7.798c4.288 0 8.01-.344 8.27-.765s.174-7.733-.191-16.25L228.5 13.5l-7.666-.291c-4.216-.159-7.881.066-8.144.5M391.352 33.75c-3.143 5.362-8.177 13.575-11.186 18.25-14.05 21.822-34.222 54.278-33.922 54.578.184.183 7.559 2.433 16.391 5l16.057 4.667-8.302 16.384-8.301 16.384 2.646 11.494c1.455 6.321 2.901 11.493 3.213 11.493 1.132 0 33.16-65.29 32.367-65.984-.448-.393-7.115-2.425-14.815-4.516s-14.149-3.92-14.331-4.065c-.574-.457 1.741-4.34 16.356-27.435l14.238-22.5-1.327-8.5c-.73-4.675-1.352-9.962-1.381-11.75-.03-1.788-.49-3.25-1.022-3.25s-3.539 4.387-6.681 9.75M156.452 42c.86 7.535 7.546 88.925 7.547 91.867.001 2.938-.052 2.949 18.888-3.8 7.913-2.819 14.463-5 14.556-4.846s1.233 7.929 2.535 17.279 2.627 17.964 2.945 19.142c.488 1.813 18.037 17.731 18.756 17.013.247-.247-8.646-56.739-10.768-68.405-.626-3.437-1.424-6.25-1.774-6.25s-7.073 2.25-14.94 5-14.668 5-15.114 5-1.136-5.062-1.532-11.25-1.479-19.394-2.406-29.349l-1.685-18.098-5.141-5.902c-2.827-3.245-6.795-7.476-8.817-9.401l-3.677-3.5zm286.137 30.244c-5.271 6.741-9.472 12.554-9.336 12.919s2.874 2.697 6.085 5.183l5.837 4.519 10.004-12.541c5.503-6.897 9.626-12.865 9.163-13.261-2.207-1.891-9.973-7.827-11.006-8.414-.71-.403-4.899 4.115-10.747 11.595M78.25 89.03C75.912 92.317 74 95.384 74 95.846s5.862 5.022 13.027 10.135 13.266 9.684 13.559 10.158c1.277 2.066 3.692.448 7.843-5.258l4.453-6.119-13.867-9.856c-7.626-5.421-14.151-10.317-14.5-10.881-1.096-1.774-1.903-1.129-6.265 5.005m412.25 11.098c-18.15 9.351-36.038 18.428-39.75 20.172s-6.75 3.701-6.75 4.349 6.727 8.119 14.949 16.601l14.948 15.423-14.198 8.038c-7.81 4.42-16.66 9.331-19.669 10.913l-5.469 2.876-4.152 11c-2.284 6.05-3.836 11.125-3.45 11.277.802.316 68.913-38.289 70.737-40.093.925-.916-2.188-4.628-13.732-16.375l-14.929-15.191 9.233-4.945c5.077-2.72 15.406-7.972 22.953-11.671 7.546-3.7 14.14-7.238 14.652-7.864.838-1.024 9.127-20.326 9.127-21.254 0-.931-3.291.666-34.5 16.744m58.016 44.9c-6.041 3.231-11.085 6.234-11.209 6.673s1.219 3.827 2.984 7.528l3.209 6.728 12.5-6.386c6.875-3.513 12.466-6.766 12.425-7.229-.25-2.825-6.12-13.331-7.411-13.265-.833.042-6.457 2.72-12.498 5.951M48 140.561c0 .309 3.938 5.633 8.75 11.831 4.813 6.198 16.625 22.116 26.25 35.373s17.95 24.116 18.5 24.132c.875.026 11.467-13.837 21.507-28.147 1.832-2.613 3.618-4.75 3.968-4.75.506 0 16.261 18.112 27.525 31.641 1.629 1.957 3.761 2.682 11.5 3.909 5.225.829 10.287 1.75 11.25 2.046s1.75.107 1.75-.42c0-1.538-51.889-61.676-53.216-61.676-.661 0-6.356 7.069-12.654 15.71-6.298 8.64-11.776 15.509-12.172 15.264s-7.145-9.405-14.998-20.356l-14.278-19.912-11.091-2.612C48.778 139.813 48 139.687 48 140.561M4.169 176.75C2.123 180.719-.16 189.23.64 189.901c2.059 1.726 26.614 10.235 27.295 9.459 1.678-1.912 5.301-13.519 4.458-14.281-.931-.841-25.357-10.101-26.608-10.087-.393.004-1.12.795-1.616 1.758m293.28 6.28c-76.669 6.312-142.982 61.856-156.041 130.7-1.376 7.255-1.526 11.62-.867 25.27 1.287 26.658 1.856 23.388-7.477 43-13.841 29.088-23.058 50.009-24.122 54.76-.781 3.482-.66 5.657.533 9.62 2.655 8.822 7.567 12.74 19.732 15.739a2177 2177 0 0 1 12.043 3.001l3.75.957v5.906c0 8.909 3.813 59.614 5.031 66.896 2.608 15.597 12.806 26.499 28.649 30.626 4.393 1.144 11.967 1.496 32.28 1.501 28.026.005 32.712.575 36.585 4.449 3.391 3.39 4.288 7.701 6.957 33.426 1.335 12.859 2.616 23.57 2.848 23.802.709.709 15.65-.909 15.65-1.694 0-7.181-5.381-49.089-6.952-54.142-2.493-8.019-8.694-15.467-15.787-18.963-4.616-2.275-5.736-2.362-36.761-2.865-35.264-.572-35.103-.544-42.291-7.366-4.252-4.037-5.872-10.025-6.671-24.653-.345-6.325-1.509-23.113-2.586-37.307-2.114-27.843-2.754-30.505-7.985-33.21-2.327-1.204-22.96-6.483-25.336-6.483-1.385 0-3.631-3.446-3.631-5.57 0-1.334 5.459-14.24 12.131-28.678 21.423-46.357 20.278-43.488 20.254-50.752-.012-3.575-.385-13.025-.829-21-.872-15.676.218-24.831 4.535-38.094 9.602-29.496 33.241-58.941 62.409-77.738 14.993-9.663 38.445-18.891 58-22.824 14.1-2.835 49.275-2.602 63.664.422C421.83 217.881 475.051 281.935 474.976 358c-.027 26.928-5.524 49.994-17.754 74.5-4.421 8.858-6.233 11.78-17.563 28.318-9.923 14.483-15.159 26.457-19.319 44.182-3.103 13.221-4.207 36.985-2.398 51.634 2.151 17.42 8.62 44.995 15.728 67.047l2.638 8.181 8.348.319c5.57.213 8.348-.045 8.346-.774-.001-.602-.919-3.752-2.04-7-5.267-15.265-12.711-43.617-15.466-58.907-.893-4.95-1.871-15.75-2.175-24-1.087-29.542 5.608-52.29 22.182-75.36 24.663-34.329 35.43-67.072 35.479-107.897.036-30.503-5.581-53.213-20.096-81.243-7.816-15.094-16.947-27.735-28.769-39.827-12.02-12.294-22.213-20.375-36.085-28.61-24.984-14.83-51.015-23.174-79.713-25.552-12.997-1.077-15.578-1.075-28.87.019M588 192.568c-.825.185-17.459.829-36.964 1.431s-35.649 1.28-35.876 1.507 2.123 7.253 5.221 15.613 5.445 15.388 5.215 15.618c-.56.56-26.072 3.236-30.992 3.251-3.576.011-4.54.691-11.72 8.262-4.303 4.537-7.837 8.652-7.854 9.142-.017.501 2.718.599 6.22.225 23.987-2.564 63.466-6.612 64.5-6.614 1.947-.005 1.562-1.806-3.119-14.58-2.403-6.558-4.665-12.88-5.028-14.05-.655-2.111-.496-2.132 21.959-2.864l22.619-.738 6.159-5.52c3.388-3.036 7.397-6.444 8.91-7.573s2.75-2.419 2.75-2.866c0-.773-8.834-.953-12-.244m-5.901 54.532c-7.92 1.577-14.579 3.046-14.797 3.264-.524.525 1.848 13.932 2.629 14.856.553.654 33.584-5.401 34.509-6.326.368-.369-.733-7.531-1.945-12.644-.681-2.872-1.986-2.818-20.396.85M76.16 254.25c-.547 1.788-2.447 8.336-4.222 14.551-2.439 8.54-3.574 11.169-4.645 10.758-.779-.299-10.069-6.551-20.644-13.892l-19.227-13.349-11.741 1.001c-6.458.55-11.615 1.359-11.461 1.799s6.805 5.233 14.78 10.654 24.093 16.464 35.818 24.542C66.544 298.391 76.48 305 76.899 305s2.92-6.863 5.558-15.25 4.922-15.396 5.076-15.574c.155-.178 5.727 2.647 12.383 6.278l12.101 6.601 11.492-2.706c6.32-1.489 11.491-3.011 11.491-3.383s-3.937-2.507-8.75-4.745c-4.812-2.238-17.742-8.828-28.732-14.645S77.45 251 77.345 251s-.638 1.463-1.185 3.25m457.492 35.5c-.351 3.712-.641 9.301-.645 12.418-.011 9.054.32 8.866-10.869 6.174l-9.767-2.349-8.436 5.55c-4.639 3.052-8.341 5.835-8.227 6.183.24.73 48.935 12.274 51.775 12.274.284 0 .517-5.792.517-12.871v-12.872l19.448 6.541 19.449 6.54 10.052-3.917c5.529-2.155 9.907-4.369 9.729-4.919-.177-.551-9.29-4.032-20.25-7.735s-26.927-9.216-35.481-12.25S535.145 283 534.841 283c-.303 0-.839 3.038-1.189 6.75"/></svg>