<?xml version="1.0" encoding="UTF-8" standalone="no"?>
<!-- Created with Inkscape (http://www.inkscape.org/) -->

<svg
   version="1.1"
   id="svg1"
   width="786.85376"
   height="759.4101"
   viewBox="0 0 786.85376 759.4101"
   xmlns="http://www.w3.org/2000/svg"
   xmlns:svg="http://www.w3.org/2000/svg">
  <defs
     id="defs1" />
  <g
     id="g1"
     transform="translate(-370.74808,-123.19361)">
    <path
       style="fill:#000000"
       d="m 560.37576,881.98746 c -3.75437,-1.17702 -5.5437,-3.09769 -4.4837,-4.8128 0.4277,-0.69205 5.91446,-2.40894 12.19279,-3.81532 15.6209,-3.49917 30.32685,-8.49729 43.41515,-14.75555 14.78833,-7.07114 62.41677,-37.90045 71.39574,-46.2136 C 689.13457,806.61399 700,794.09506 700,792.68301 c 0,-0.29338 -4.6125,2.37146 -10.25,5.92185 -13.97371,8.80039 -39.81778,21.51889 -53.75,26.4517 -18.04467,6.38885 -29.07462,8.86954 -49,11.02032 -21.70762,2.34317 -29.31793,4.22214 -43.8025,10.81473 -27.52756,12.52905 -57.32872,19.46703 -89.4475,20.82419 -12.11118,0.51174 -13.75,0.39264 -13.75,-0.99931 0,-4.35471 11.04776,-9.01065 44.41908,-18.7199 29.71119,-8.64434 37.06377,-11.20024 47.85958,-16.63692 10.01172,-5.04182 31.26902,-11.83672 43.22134,-13.8157 23.05883,-3.81792 37.21013,-8.40172 60.16125,-19.48703 24.8473,-12.00117 41.04787,-24.83048 55.26335,-43.76333 16.05746,-21.38611 23.21318,-41.74028 27.5249,-78.29361 5.36425,-45.47635 0.94025,-70.23841 -16.3674,-91.61173 -13.67777,-16.89077 -32.6083,-19.84512 -60.31972,-9.41366 -9.15789,3.44732 -14.64665,7.81317 -22.03297,17.52539 -9.3777,12.33067 -17.7655,20.59721 -25.47293,25.10468 -3.57004,2.08784 -7.67572,5.3642 -9.12373,7.2808 C 574.669,638.73537 564.60811,645.52909 550,648.60921 c -7.26621,1.53208 -18.14377,1.44968 -22.31557,-0.16904 -4.42321,-1.71628 2.17352,-18.29453 10.93448,-27.47949 11.94646,-12.52461 28.88307,-16.75793 43.88109,-10.9681 l 3,1.15811 -2.5,1.43415 c -1.375,0.78879 -7,3.60869 -12.5,6.26645 -5.5,2.65776 -10.85724,5.80349 -11.90499,6.9905 -2.49743,2.82941 -1.18715,2.7569 8.23702,-0.45581 16.94419,-5.7763 28.26209,-13.78468 36.12759,-25.56337 5.526,-8.27525 5.33893,-8.99672 -1.70962,-6.59339 -7.41926,2.52972 -22.28677,3.41723 -30.4247,1.81619 -3.42326,-0.67348 -9.39688,-2.4834 -13.27471,-4.02205 -13.77718,-5.4665 -27.49637,-5.76941 -42.55059,-0.9395 -6.13333,1.96778 -13.52104,5.72843 -12.7561,6.49338 0.19201,0.192 2.72203,-0.27687 5.62228,-1.04194 7.24428,-1.911 17.38609,-2.89816 21.6182,-2.10421 3.50769,0.65805 3.51468,0.67004 2.04676,3.50869 -2.22234,4.29753 -12.27117,12.79735 -19.03114,16.09751 -13.61088,6.64472 -28.74721,7.69198 -41,2.83672 -7.46153,-2.95669 -7.876,-4.62258 -3.41669,-13.73266 3.86533,-7.89661 14.84402,-19.3068 22.49155,-23.37554 14.36108,-7.64056 26.20249,-7.52158 53.92514,0.54182 16.07084,4.67436 29.20919,6.36762 38.0459,4.90333 6.72472,-1.11432 19.40628,-6.45498 24.10634,-10.15205 l 2.5028,-1.9687 -6.71996,-3.04698 c -3.69598,-1.67583 -8.91263,-4.39613 -11.59255,-6.0451 -5.79366,-3.56488 -7.49714,-3.6479 -18.17592,-0.88583 -9.64108,2.49366 -19.41792,2.68333 -26.85612,0.52099 -6.02327,-1.75102 -16.13013,-8.339 -16.60916,-10.82639 -0.43082,-2.23706 7.6451,-8.2282 14.64613,-10.86526 4.69526,-1.76856 7.2614,-2.0638 15.15254,-1.74335 10.78854,0.43811 16.9143,2.68464 26.17285,9.59849 11.21512,8.37494 23.00707,12.20322 37.5886,12.20322 9.90067,0 17.03773,-1.7842 26.10745,-6.52663 2.55814,-1.33762 7.12165,-3.27319 10.14113,-4.30128 l 5.48997,-1.86924 -4.17016,-2.13102 c -2.29359,-1.17206 -12.00658,-3.70844 -21.58442,-5.6364 -9.96387,-2.00566 -24.86519,-5.95321 -34.82983,-9.22685 L 586.5,525.5871 l -17,-0.0435 c -20.46359,-0.0524 -25.45502,1.18355 -44.01358,10.89859 -6.60746,3.45888 -17.40746,8.40808 -24,10.99821 -6.59253,2.59014 -15.50029,6.08687 -19.79503,7.77052 -7.40524,2.90305 -8.11339,3.46157 -13.70873,10.81191 -12.70471,16.6896 -24.8059,22.76489 -43.39201,21.78455 -5.95486,-0.3141 -9.60855,-1.12233 -13.84065,-3.06172 -6.83255,-3.13105 -7.01522,-3.99915 -2.79838,-13.29919 3.93925,-8.68783 12.29807,-17.02074 21.54838,-21.4816 6.23066,-3.00466 8.09906,-3.41586 17,-3.74138 10.61138,-0.38808 18,1.20343 18,3.87719 0,0.76965 -5.97497,4.9494 -13.27772,9.28832 -7.30274,4.33892 -13.09835,8.06831 -12.87913,8.28753 0.70855,0.70855 19.98816,-5.83085 25.65685,-8.70247 3.025,-1.53239 8.92936,-5.25649 13.12081,-8.27576 4.19144,-3.01928 8.69144,-6.06307 10,-6.76397 2.26251,-1.21188 2.08819,-1.34051 -3.55434,-2.62283 -9.80177,-2.22754 -21.16166,-8.38893 -38.46751,-20.86403 -1.87057,-1.34842 -5.24557,-2.95289 -7.5,-3.56548 C 432.3745,515.4623 418.58331,516.29222 414,518.30206 l -3.5,1.53479 8.70078,0.0816 c 9.09306,0.0853 18.38283,1.59882 19.3424,3.15144 0.74815,1.21053 -7.57928,6.41469 -14.49435,9.05812 -3.68033,1.40688 -8.82447,2.29223 -15.27639,2.6292 -8.27422,0.43214 -10.77806,0.17026 -16.75885,-1.75282 -9.62594,-3.09515 -17.60715,-7.98588 -17.20657,-10.54384 0.71089,-4.53942 5.93923,-13.32401 10.86636,-18.2575 7.70827,-7.71825 14.63543,-10.63775 25.32662,-10.67412 10.71983,-0.0365 15.96476,2.29477 28,12.44521 20.32801,17.14452 41.55773,25.69233 58.39684,23.51258 C 503.3227,528.71962 524,522.01903 524,520.8658 c 0,-0.42961 -3.2625,-1.75127 -7.25,-2.93702 -7.44459,-2.21378 -15.21417,-5.74966 -19.9095,-9.06068 -3.26483,-2.30227 -8.16253,-2.55014 -17.42755,-0.88202 -11.5244,2.07491 -24.51253,-0.95092 -32.28813,-7.52214 C 443.37449,497.2945 434,486.3343 434,485.11902 c 0,-0.42743 2.32842,-1.86657 5.17427,-3.19808 4.53926,-2.12383 6.5949,-2.42094 16.75,-2.42094 11.0368,0 11.88587,0.15172 18.23716,3.25881 4.13034,2.02059 10.01976,6.3331 15.5,11.34985 14.66466,13.42438 21.82516,15.92954 45.27223,15.83889 12.66812,-0.049 13.41614,-0.15718 11.29785,-1.63425 -1.24767,-0.86999 -5.4498,-5.57111 -9.33807,-10.44693 -13.75152,-17.24415 -25.68646,-25.99531 -39.95805,-29.29877 -3.53947,-0.81929 -16.40945,-2.67329 -28.59998,-4.12001 l -22.16458,-2.63039 -9.80692,4.18997 c -10.04316,4.29091 -20.14903,6.9581 -26.36391,6.9581 -10.2083,0 -26.11102,-5.9446 -34.02545,-12.71905 -6.35301,-5.43794 -6.59699,-6.55149 -2.44289,-11.14958 13.07094,-14.46797 35.56896,-18.21029 53.7634,-8.94302 4.60808,2.34711 11.70494,8.60843 11.70494,10.32687 0,0.91706 -3.90929,1.38592 -14.75,1.76905 -8.1125,0.28671 -15.875,0.97208 -17.25,1.52305 -2.42361,0.97116 -2.37778,1.02814 1.5,1.86459 7.59233,1.6377 67.5,0.24243 67.5,-1.5721 0,-0.34863 -1.29501,-1.39885 -2.8778,-2.33382 -4.00965,-2.36856 -12.84818,-12.12093 -19.40236,-21.40842 -7.00493,-9.92623 -17.70026,-20.26575 -24.55761,-23.74063 -7.69347,-3.89858 -8.42813,-2.67941 -1.58592,2.63182 7.65365,5.94111 15.00864,13.53436 14.04402,14.49897 -1.65757,1.65758 -15.85769,1.51959 -22.271,-0.21641 -15.85454,-4.29163 -30.33453,-19.84078 -32.83804,-35.26273 l -0.69254,-4.26615 4.84062,-2.17243 c 3.47568,-1.55985 7.47506,-2.29502 14.18331,-2.60719 11.52548,-0.53633 19.7592,1.45641 27.93618,6.76118 10.16395,6.5938 15.19958,13.67097 20.31476,28.55073 2.0518,5.96854 3.57446,8.22169 10.33354,15.29098 11.74676,12.28589 21.38828,18.13381 40.89994,24.80728 3.75491,1.28427 9.26741,3.65677 12.25,5.27221 L 522,462.80764 v -4.00948 c 0,-5.0472 -2.38636,-14.35358 -5.46646,-21.31823 -2.63708,-5.96291 -2.87322,-6.07644 -17.37012,-8.35177 -16.87293,-2.64824 -27.85308,-11.76914 -31.73837,-26.36417 C 464.82204,392.98584 464.81243,393 474.05259,393 c 15.98991,0 27.7095,4.54751 33.96132,13.1779 4.52099,6.24104 20.55389,38.64944 25.07035,50.67642 6.09326,16.22587 12.30245,25.63133 22.61647,34.25861 8.77583,7.34064 29.53441,15.88707 38.58841,15.88707 2.43681,0 2.57987,-0.21433 1.69559,-2.54017 -0.53118,-1.3971 -2.55403,-8.17681 -4.49523,-15.06602 -4.58768,-16.28141 -8.29148,-24.37825 -12.68417,-27.72872 -1.90133,-1.45022 -7.62128,-4.18498 -12.711,-6.07726 -5.08972,-1.89228 -11.74251,-4.93615 -14.78398,-6.76417 -9.31011,-5.59566 -17.38053,-16.00314 -22.11007,-28.51278 l -1.96187,-5.18912 3.6308,-1.42994 c 13.19821,-5.19798 29.37898,-1.22624 40.56147,9.95625 5.93679,5.93679 9.95725,12.95603 15.02046,26.22389 1.93396,5.06783 7.34426,17.03949 12.0229,26.60369 12.27688,25.09673 19.32601,31.9566 38.52596,37.49158 4.125,1.18916 8.35636,2.41018 9.40302,2.71339 1.75193,0.50752 1.85341,0.13233 1.2781,-4.72523 -0.80002,-6.7549 -4.18733,-16.94256 -6.99497,-21.03802 -1.6316,-2.38 -3.96179,-3.82024 -9.18615,-5.67776 -8.49241,-3.01949 -16.47123,-8.14557 -20.35456,-13.07703 C 605.12505,464.51727 601,453.24988 601,444.45078 c 0,-3.32301 0.13885,-3.45034 3.75,-3.43891 9.89217,0.0313 21.88575,5.62084 29.17562,13.59712 5.67414,6.20842 8.87264,12.67179 13.13459,26.54171 3.77944,12.29966 9.64668,24.09867 15.0176,30.20036 5.36756,6.09786 11.63218,9.87811 25.56577,15.4271 13.28891,5.29224 25.34731,12.80435 35.50974,22.12176 3.65932,3.35504 6.9542,6.10008 7.32195,6.10008 1.03731,0 -0.42319,-10.70472 -2.56487,-18.79918 -1.0622,-4.01455 -3.3261,-10.08955 -5.0309,-13.5 -6.52622,-13.05568 -12.99411,-19.38688 -32.31709,-31.63413 -8.62512,-5.46675 -16.67464,-13.15534 -29.92161,-28.57993 -8.92676,-10.3942 -20.38055,-20.37872 -29.15789,-25.41757 -3.85941,-2.21559 -14.20941,-6.66982 -23,-9.89829 -19.72076,-7.24274 -23.56518,-9.18275 -40.01789,-20.19431 C 552.62818,396.37722 540.39555,389.68899 533,387.58597 c -3.025,-0.8602 -13.15,-2.24525 -22.5,-3.07789 -9.35,-0.83263 -20.42105,-2.38173 -24.60233,-3.44243 -5.49068,-1.39287 -10.90708,-1.91476 -19.5,-1.87889 C 456.992,379.22603 453.13855,378.80037 448,377.15454 434.01452,372.6751 421.69739,362.6617 415.37627,350.63259 l -3.66716,-6.97862 2.18644,-1.77048 c 7.29781,-5.9094 27.29234,-8.71503 38.62659,-5.42008 8.6232,2.50683 14.47504,5.76738 20.91593,11.65398 4.99871,4.56854 11.52521,13.74294 11.55255,16.2396 0.005,0.47134 -0.77812,0.54548 -1.74062,0.16474 C 481.66407,363.89438 444.93895,354 444.19635,354 c -0.17291,0 -0.0301,0.46007 0.31748,1.02238 1.99745,3.23194 28.8295,13.51119 44.48617,17.04247 9.01794,2.03395 29,3.75004 29,2.49057 0,-0.41169 -1.7443,-2.73015 -3.87622,-5.15214 -2.13192,-2.42199 -5.57548,-7.66604 -7.65236,-11.65345 -12.89845,-24.76384 -23.08224,-36.79904 -40.8704,-48.30064 -2.85932,-1.8488 -2.88456,-1.84759 -1.84546,0.0882 0.57943,1.07944 4.52926,6.01262 8.77741,10.96262 8.75874,10.2058 8.56669,10.76351 -2.92779,8.50211 -11.79809,-2.32114 -22.44849,-9.40773 -28.64025,-19.05675 -5.75139,-8.96278 -8.87307,-22.99916 -5.41049,-24.32788 4.73551,-1.81718 14.88219,-2.58825 21.19556,-1.6107 17.57289,2.72095 29.50627,13.30721 36.40811,32.2981 3.9034,10.74046 8.03323,18.0183 17.19751,30.30646 9.4206,12.63184 19.4454,21.99844 28.01767,26.17812 3.62155,1.7658 6.88372,3.21054 7.24927,3.21054 2.15602,0 -4.09202,-32.01515 -7.16261,-36.70147 -0.83997,-1.28195 -3.58179,-2.85117 -6.49148,-3.71525 -8.03917,-2.38738 -14.72593,-6.554 -20.46316,-12.75088 -6.78669,-7.33045 -9.54916,-14.35604 -10.25559,-26.0824 -0.60298,-10.00899 -0.94536,-9.71693 8.95106,-7.63541 7.37164,1.55048 14.72568,5.1883 20.16199,9.97353 6.26704,5.51647 12.41933,17.9636 13.30184,26.91188 0.79343,8.04509 11.1745,39.22254 15.81594,47.5 7.33384,13.07902 16.93556,21.13814 32.20539,27.03131 5.39773,2.08317 10.86088,4.46508 12.14032,5.29312 2.32501,1.50472 2.32588,1.50342 1.61614,-2.40945 -0.39057,-2.15324 -1.69342,-6.61498 -2.89524,-9.91498 l -2.18511,-6 -8.93103,-4.42203 c -17.78486,-8.80587 -27.35635,-22.635 -27.39292,-39.57798 -0.0183,-8.47898 0.61362,-9.64579 4.83437,-8.92635 5.94539,1.0134 15.6749,5.96794 20.55721,10.46829 5.78046,5.32825 10.17126,14.19759 12.10804,24.45806 3.36174,17.80943 5.57714,22.54211 15.38676,32.8702 5.93634,6.25009 12.39719,10.95703 23.34709,17.00912 l 6.77158,3.74269 -0.50638,-3.811 C 646.25827,417.21495 645.5235,411.225 644.90395,406 641.1651,374.4681 631.88515,360.93933 595.5,333.97647 574.53762,318.4425 566.14662,310.40459 556.04028,296.17724 c -4.033,-5.67751 -8.27943,-10.91551 -9.4365,-11.64 -1.15708,-0.72448 -6.15378,-1.5351 -11.10378,-1.80138 -10.75501,-0.57856 -18.46205,-3.39247 -28.07015,-10.24867 -10.93595,-7.80373 -19.11938,-20.97167 -20.15911,-32.43799 l -0.52897,-5.83357 3.37912,-0.77225 c 1.85851,-0.42473 7.03998,-0.74519 11.51438,-0.71212 19.49981,0.1441 36.16094,9.87728 43.84004,25.61069 1.92152,3.93693 3.79492,9.14405 4.16311,11.57139 l 0.66943,4.41334 -4.90392,-3.74841 C 540.59422,266.90188 520.92603,256.76003 516,255.4162 l -2.5,-0.682 2,2.26628 c 2.88658,3.27091 10.78983,8.97534 23.70342,17.10874 13.03032,8.20693 22.29311,15.39484 32.54658,25.2561 3.9875,3.83497 7.24409,6.55913 7.23686,6.05368 -0.007,-0.50545 -0.88794,-5.1588 -1.95715,-10.34079 -1.0692,-5.18198 -2.23312,-14.40698 -2.58648,-20.5 -0.77563,-13.3745 -2.35044,-20.08261 -7.64814,-32.57821 -8.38435,-19.77606 -9.31705,-19.76867 -3.32141,0.0263 2.40804,7.95029 4.21296,14.62037 4.01093,14.8224 -0.20203,0.20203 -3.07316,-1.27637 -6.38029,-3.28535 -7.6021,-4.61803 -13.52771,-11.2565 -17.46259,-19.56337 -4.08645,-8.62684 -4.92841,-22.39582 -1.89562,-31 1.76799,-5.01588 2.18646,-5.48153 4.75411,-5.29012 4.79405,0.35736 13.3926,5.25831 19.89127,11.33749 11.60801,10.85872 14.56995,19.77857 14.59502,43.95263 0.0135,12.97594 0.41341,17.14001 2.45604,25.57111 7.71095,31.82742 17.9425,45.93072 45.80745,63.14157 l 14.75,9.11037 -0.008,-5.66152 c -0.0106,-7.94629 -1.77118,-18.04235 -3.85222,-22.09067 -1.44548,-2.81193 -3.19164,-4.02703 -9.70149,-6.75102 C 611.55425,308.41783 601,294.28328 601,276.89466 601,271.08382 601.04043,271 603.84345,271 c 3.75673,0 13.39415,3.36316 18.92408,6.60391 6.14139,3.5991 11.92166,9.82727 15.18948,16.36647 6.26216,12.53117 16.47566,49.94074 23.49173,86.04447 2.51331,12.93316 5.70668,27.78316 7.09637,33 4.83602,18.15416 14.21785,33.59498 26.0826,42.9273 l 5.12772,4.03325 -3.86404,-7.69159 C 686.04636,432.68669 684.375,418.3492 689.87165,400.64466 692.73078,391.43551 692.73829,375 689.88337,375 689.39752,375 689,377.45285 689,380.45078 689,386.45861 687.23793,396 686.12842,396 c -0.99542,0 -6.58489,-9.45885 -9.45478,-16 -4.69268,-10.69569 -6.00996,-24.41612 -3.31229,-34.5 1.8106,-6.76801 6.35444,-15.5 8.0657,-15.5 2.34637,0 11.24602,7.66447 14.65803,12.62366 9.38525,13.64099 10.8821,30.69227 4.35471,49.60633 -3.41203,9.88683 -4.10193,18.64682 -2.08742,26.50466 1.99335,7.77528 5.03932,13.84166 13.80495,27.49409 3.78865,5.90081 8.8489,14.90081 11.24501,20 3.42116,7.28063 5.68978,10.55952 10.56597,15.27126 7.70117,7.44145 13.4095,14.77676 19.0659,24.5 l 4.36305,7.5 0.91935,-4 c 0.50564,-2.2 0.97876,-10.75 1.05138,-19 0.18577,-21.10654 -2.17934,-28.87164 -15.44386,-50.70508 C 737.68957,429.53282 732.392,418.18754 729.43091,408.7562 728.25819,405.021 727.54883,397.2785 726.97953,382 726.12227,358.9936 725.56201,356.01827 720.01959,345.0388 715.99073,337.05768 709.64273,330.73126 699.5,324.58897 676.63504,310.74229 668.16344,303.58428 661.52227,292.5 c -6.6898,-11.16546 -7.60102,-16.09011 -7.29476,-39.42421 0.26625,-20.28511 0.23291,-20.66239 -2.35981,-26.70555 -1.44643,-3.37137 -4.47337,-8.84444 -6.72654,-12.16237 -3.78273,-5.57032 -4.4937,-6.11775 -9.27793,-7.14378 -15.66272,-3.35905 -27.56679,-15.19339 -29.48889,-29.31615 -0.63351,-4.65478 1.15733,-16.34046 2.64511,-17.25996 1.58066,-0.9769 11.08453,2.73365 16.83189,6.57158 10.37963,6.93125 15.51486,15.82724 17.08987,29.60556 0.78767,6.89053 1.05406,7.43817 6.95106,14.28977 13.2184,15.35821 14.96711,20.07136 16.15649,43.54511 0.99374,19.61267 1.34979,21.58634 4.41341,24.46446 l 2.25921,2.12241 1.02937,-2.79343 c 0.56615,-1.53639 2.46978,-6.61844 4.23027,-11.29344 6.83122,-18.14029 11.94517,-34.82324 12.58299,-41.04874 0.80684,-7.87519 -1.15663,-16.53079 -5.67141,-25.00138 -3.19351,-5.99165 -8.98281,-12.53619 -7.47476,-8.44988 3.16464,8.57509 5.71449,17.18631 6.25355,21.11917 l 0.64086,4.6756 -5.40612,-2.89323 C 667.89052,209.50626 658.64108,197.75959 655.36135,185.5 c -1.85334,-6.92779 -1.72567,-20.0745 0.2513,-25.87658 1.54827,-4.54394 1.73787,-4.70832 4.75,-4.11825 1.72554,0.33803 6.42744,2.20087 10.44867,4.13965 13.39317,6.45732 22.50471,18.00375 26.3213,33.35518 1.8428,7.41228 1.58052,31.79425 -0.47332,44 -0.8792,5.225 -3.18722,15.79272 -5.12892,23.48382 -5.06731,20.07159 -4.64636,29.28027 1.68983,36.96717 1.61555,1.95993 8.28121,7.18541 14.8126,11.61217 6.53138,4.42676 14.14593,10.09019 16.92122,12.58541 L 730,326.18534 v -2.88691 c 0,-1.5878 -1.56352,-5.342 -3.47448,-8.34267 C 716.92036,299.87338 713.0617,288.18537 713.00446,274 c -0.0189,-4.68646 -0.79662,-9.9384 -2.07311,-14 -6.09998,-19.40906 -1.8234,-38.40375 11.40355,-50.64957 6.96792,-6.45106 6.60442,-6.59157 12.02864,4.64957 2.9134,6.03773 3.1342,7.24674 3.10473,17 -0.0423,14.00977 -2.13979,19.36993 -11.55147,29.52045 -7.76561,8.37522 -8.08408,9.56256 -5.36967,20.01945 3.33233,12.83735 9.18684,22.25621 16.3289,26.27027 l 4.09884,2.30368 2.59699,-5.80693 c 8.24629,-18.43891 10.93825,-31.86044 10.89236,-54.30692 -0.0301,-14.73742 -0.39225,-18.93368 -2.29385,-26.58187 -2.96539,-11.92674 -11.35259,-32.41596 -18.40416,-44.95981 -5.72504,-10.18413 -16.63026,-25.9276 -17.41559,-25.14227 -0.60218,0.60218 3.74273,11.7669 8.03847,20.65574 4.50373,9.31923 4.55283,10.15874 0.52664,9.00404 -19.67959,-5.64403 -32.5157,-34.26708 -24.00022,-53.51774 1.02182,-2.30999 2.30296,-4.47508 2.84697,-4.81129 1.87516,-1.15892 13.4732,5.63371 19.18604,11.23669 6.76558,6.63547 11.38489,15.58224 13.25446,25.67153 0.95753,5.16736 3.8957,12.23105 11.47918,27.59715 5.60574,11.3587 10.63811,20.92773 11.18305,21.26453 1.31741,0.8142 1.92087,-1.77746 1.9122,-8.21223 -0.0134,-9.91776 9.38077,-24.43841 20.06256,-31.01098 l 4.77035,-2.93523 2.44484,6.12087 c 2.0049,5.01944 2.43906,7.83036 2.4127,15.62087 -0.0429,12.67635 -1.81746,16.43592 -13.43774,28.46881 -6.69171,6.92932 -9.07366,10.08625 -9.19827,12.19098 -0.0925,1.56211 -0.27842,12.06521 -0.41321,23.34021 -0.13479,11.275 -0.65154,23.3125 -1.14832,26.75 -0.49679,3.4375 -0.72011,6.25 -0.49628,6.25 1.27126,0 12.33778,-10.43273 16.83658,-15.87234 7.84005,-9.47958 11.91411,-18.15396 17.06078,-36.3254 2.5395,-8.96624 6.40519,-20.57726 8.59042,-25.80226 7.67005,-18.33952 16.73325,-46.33827 15.42362,-47.64789 -0.795,-0.795 -9.07072,15.24587 -13.23213,25.64789 -2.0903,5.225 -4.12439,9.87947 -4.52019,10.34326 -1.25527,1.4709 -4.95051,-10.24641 -5.57748,-17.68576 -0.74592,-8.85075 1.35611,-17.88915 5.93163,-25.50509 3.68683,-6.13673 14.55851,-16.72149 20.16139,-19.6293 l 3.80914,-1.97689 2.84737,3.41069 c 7.6823,9.20216 10.59695,22.75746 7.79312,36.24387 -2.0084,9.66042 -6.69341,17.62303 -15.56691,26.45742 -7.34494,7.31257 -8.41565,8.86737 -10.3297,15 -1.93943,6.21395 -3.93895,19.578 -3.98391,26.62698 -0.0223,3.50086 0.32503,3.3304 14.09139,-6.91487 14.00405,-10.42216 25.95849,-22.64107 35.58312,-36.37031 8.21149,-11.71343 14.04217,-22 12.47016,-22 -1.12606,0 -11.3564,11.59528 -17.83926,20.2194 -2.77808,3.69566 -5.33728,6.43316 -5.68712,6.08333 -1.0287,-1.0287 -0.72905,-12.75983 0.47264,-18.50351 2.49577,-11.9289 11.83455,-23.71265 23.14154,-29.20018 6.08067,-2.95109 17.29277,-5.99951 18.75113,-5.09819 1.34887,0.83365 1.26922,17.11422 -0.11596,23.69993 -2.97115,14.12614 -11.61921,24.57985 -26.13541,31.5923 -4.8125,2.32481 -8.75,4.70612 -8.75,5.29182 0,1.78738 -8.31568,14.01869 -14.39177,21.16848 -3.15657,3.71436 -11.0971,11.26451 -17.64562,16.7781 -7.35644,6.19383 -15.68054,14.50418 -21.78261,21.74662 -5.43191,6.44705 -15.93653,18.07525 -23.34362,25.84046 -14.64949,15.35779 -19.67198,22.14796 -23.99798,32.44414 -4.27883,10.18393 -5.8384,19.38105 -5.8384,34.43032 0,30.67267 7.38503,55.93346 20.51021,70.15593 l 5.39962,5.85105 0.0451,-8.64597 c 0.0257,-4.93656 -0.86711,-13.30272 -2.08107,-19.5 -1.6575,-8.46159 -2.00723,-13.03411 -1.58664,-20.74461 0.51548,-9.44993 0.41094,-10.1436 -2.34644,-15.56977 -9.57302,-18.83847 -6.28259,-40.39096 7.83153,-51.29689 l 3.56834,-2.75725 3.35292,4.71596 c 9.20488,12.94686 8.44779,32.08193 -1.90215,48.07612 -4.04829,6.25598 -4.06001,6.30244 -3.40512,13.5 0.6908,7.59215 2.381,14.89173 4.78907,20.68289 l 1.43893,3.46048 3.18884,-4.63482 c 3.82187,-5.5549 4.71147,-7.72037 7.71751,-18.78614 1.26998,-4.675 5.47669,-15.7 9.34826,-24.5 9.2511,-21.02757 12.09736,-31.5484 12.7152,-47 l 0.47983,-12 -2.52554,6.5 c -1.38905,3.575 -3.2176,10.1 -4.06345,14.5 -2.08903,10.86684 -3.39783,15.5 -4.37852,15.5 -1.13908,0 -5.75709,-10.53567 -7.01314,-16 -3.52562,-15.33785 2.59246,-36.44532 13.99178,-48.27192 4.62646,-4.79987 4.94703,-4.95821 7.13453,-3.52406 7.33549,4.80928 12.94482,18.08937 13.0078,30.79598 0.0647,13.04948 -3.01318,22.43937 -11.9641,36.5 -3.73323,5.86437 -10.20931,26.41732 -11.00818,34.93632 l -0.55668,5.93631 4.90579,-2.83831 c 18.3969,-10.64379 26.94278,-18.31866 32.79206,-29.44987 9.79682,-18.64338 10.50511,-45.43082 1.86607,-70.57397 -2.2553,-6.56385 -2.75235,-9.74319 -2.75235,-17.60509 0,-9.46075 0.0675,-9.73051 4.83642,-19.33642 7.26524,-14.63408 18.6846,-24.86611 30.30842,-27.15708 3.1029,-0.61156 3.15958,-0.5511 4.25,4.53336 3.12174,14.55617 -1.31892,31.14206 -11.49579,42.93681 C 872.65397,263.22252 865.48827,269 863.84996,269 c -1.67189,0 -0.67634,-10.11906 1.8201,-18.5 0.58922,-1.97811 0.57215,-1.97892 -1.56039,-0.074 -5.4935,4.90719 -6.71701,25.54486 -2.15366,36.32675 4.66578,11.02387 7.06899,30.87112 5.23661,43.24724 -0.5293,3.575 -0.82919,6.64748 -0.66642,6.82774 0.69465,0.76928 8.58178,-7.32091 11.36392,-11.6565 4.83478,-7.53435 7.77868,-16.73145 11.05639,-34.54143 5.1107,-27.76987 9.1936,-38.50233 22.87492,-60.12981 6.88858,-10.8895 15.87761,-29.1343 14.85701,-30.15489 -0.84284,-0.84285 -6.62098,6.75134 -12.02842,15.80891 -3.0688,5.14029 -6.43041,10.41881 -7.47026,11.73006 l -1.89063,2.38407 -1.15785,-3.32139 c -3.40049,-9.75466 -2.21123,-21.2371 3.37836,-32.61837 3.90016,-7.94135 10.73647,-14.8992 18.50855,-18.83761 5.74225,-2.90982 16.59394,-5.27865 17.95349,-3.9191 1.78843,1.78843 2.95211,14.21148 1.92729,20.57505 -2.22204,13.79761 -7.2795,22.28454 -20.52498,34.44302 -6.89761,6.33155 -10.30605,10.31368 -12.43115,14.52348 -4.19723,8.31468 -7.95338,20.0675 -9.55167,29.88677 -1.46758,9.01621 -1.9029,28.01344 -0.64117,27.9803 0.4125,-0.0108 3.675,-2.38763 7.25,-5.28175 11.98046,-9.69873 22.35375,-26.25816 31.42429,-50.16426 4.99997,-13.1778 8.83889,-19.67862 14.94393,-25.30606 9.79068,-9.02473 20.44688,-13.15555 36.01495,-13.96101 l 10.88313,-0.56307 -0.4567,8.39792 c -0.3087,5.67472 -1.1687,9.99345 -2.6523,13.31827 -4.45668,9.9877 -14.796,19.80419 -24.80215,23.54797 -4.9065,1.83576 -21.15348,4.33227 -22.24118,3.41758 -0.21232,-0.17854 5.30018,-6.22684 12.25,-13.44065 12.50367,-12.97863 15.21797,-16.61874 9.88603,-13.25802 -18.66644,11.76546 -27.39632,22.09395 -35.76375,42.31278 -4.65703,11.25313 -9.50801,20.27383 -14.59707,27.14413 -4.86563,6.56867 -15.7849,17.52772 -21.95157,22.03152 -1.75039,1.27839 -5.89979,6.37435 -9.2209,11.32435 -13.20441,19.68074 -25.76612,32.52019 -49.21671,50.30488 -16.87387,12.79698 -22.82439,18.28073 -29.95796,27.60798 -9.47043,12.38274 -16.16904,28.35111 -19.603,46.73031 -1.89451,10.13979 -1.54967,24.99076 0.99975,43.05613 l 2.35663,16.69929 2.70385,-1.39821 c 6.15733,-3.18408 16.57842,-18.21483 20.9658,-30.2398 3.58883,-9.83633 5.16008,-16.68556 8.54776,-37.26058 4.64219,-28.19435 9.74635,-41.28628 20.95799,-53.75632 5.95494,-6.62333 11.41097,-9.71543 22.27128,-12.62184 14.46026,-3.86982 15.76282,-4.8477 21.70111,-16.29187 2.04626,-3.94351 6.12364,-9.82561 9.06085,-13.07133 5.06484,-5.59683 16.17774,-14.03591 23.22901,-17.63999 4.41927,-2.2588 5.93339,-5.67632 7.6748,-17.32284 1.70162,-11.38034 4.16077,-18.30045 9.20261,-25.8963 5.66081,-8.52836 14.39843,-15.09315 23.89125,-17.95007 5.36623,-1.615 5.91896,-1.0164 6.97195,7.55056 1.4548,11.83596 -4.45377,28.43239 -13.75009,38.62233 C 957.13854,320.64811 948.87902,327 946.92891,327 c -0.37374,0 0.84989,-5.91447 2.71919,-13.14326 1.86929,-7.22879 3.21785,-13.32412 2.9968,-13.54517 -0.73125,-0.73125 -5.30634,8.06809 -8.15697,15.68843 -4.03039,10.77408 -8.37566,17.02593 -16.15691,23.24611 -12.57156,10.04946 -18.11417,17.50231 -20.92974,28.1431 l -1.2937,4.8892 7.69621,-0.56837 c 4.23292,-0.31261 11.01312,-1.71695 15.06712,-3.12076 18.90899,-6.54777 30.08417,-16.36177 42.31936,-37.16469 9.2731,-15.76664 13.93776,-21.12416 26.62225,-30.57662 5.32808,-3.9705 12.62088,-10.17308 16.20608,-13.78353 6.4729,-6.51844 14.7554,-17.62373 13.8325,-18.5467 -0.265,-0.26495 -4.0524,2.72455 -8.4164,6.64333 C 1002.1841,290.65148 994.71426,297 993.7385,297 c -0.65545,0 -0.83073,-3.04044 -0.49006,-8.50088 1.33305,-21.36727 17.66806,-39.01686 39.50916,-42.6887 7.4529,-1.25295 17.2781,-0.17472 19.6042,2.15141 1.5608,1.56078 -2.0506,16.55635 -5.9616,24.75402 -3.8832,8.13963 -12.0512,17.5691 -19.1778,22.13983 -2.5973,1.66582 -9.2064,4.47194 -14.6869,6.23584 -8.8408,2.84541 -10.5535,3.79609 -15.18766,8.43021 -8.06739,8.06738 -15.05939,19.95766 -23.00688,39.12445 -0.55457,1.33745 14.56796,-2.71337 22.15904,-5.93567 13.0193,-5.52652 25.8395,-15.50734 29.689,-23.11371 3.9686,-7.84155 9.9591,-15.37061 15.49,-19.46829 9.368,-6.94053 24.3664,-10.2963 36.3258,-8.12764 7.1861,1.30308 15.9952,5.35702 15.9952,7.36094 0,0.73046 -1.7443,3.98538 -3.8763,7.23315 -11.554,17.60094 -30.2444,26.77943 -47.7084,23.42865 -12.7489,-2.44608 -13.4306,-2.24464 -22.7803,6.73145 -12.1683,11.68212 -25.61265,18.97777 -44.135,23.95017 -4.95,1.32885 -10.35,3.23565 -12,4.23734 -1.65,1.0017 -6.76106,4.11042 -11.35792,6.90828 -12.48088,7.59644 -21.7435,10.76017 -41.3883,14.13655 -27.62787,4.74843 -35.53585,7.90971 -45.24242,18.08604 C 854.68404,415.42475 850.79011,427.977 849.09259,457 c -1.29121,22.07607 -4.65478,36.39077 -11.78084,50.13687 -3.72029,7.1764 -8.96655,13.03556 -22.47604,25.10178 -10.26086,9.16467 -15.9848,17.44111 -19.31602,27.92973 C 793.34713,567.00884 790.92238,586 792.22155,586 c 0.27968,0 2.53713,-3.4875 5.01655,-7.75 8.05964,-13.85574 16.7862,-24.4258 35.29405,-42.75 23.48743,-23.25436 33.57227,-37.9232 38.5525,-56.0763 2.38834,-8.70557 2.30456,-9.57667 -2.10203,-21.85475 -2.91911,-8.13351 -3.16952,-9.74999 -2.80425,-18.10174 0.34094,-7.79514 0.87457,-10.13038 3.5577,-15.56895 3.96725,-8.04139 11.5546,-15.83546 13.94662,-14.32661 2.63142,1.65985 7.09715,10.40807 8.89896,17.43277 3.23726,12.62107 0.8253,25.0816 -7.53255,38.91431 -3.29365,5.45118 -4.5551,9.0482 -6.54634,18.6668 -1.35659,6.55296 -3.77755,16.09233 -5.37991,21.19861 -3.29164,10.4896 -3.41093,10.35747 5.37715,5.95574 15.06171,-7.54402 28.13472,-20.23994 35.03549,-34.02488 5.68266,-11.35166 5.73953,-14.14144 0.46307,-22.715 -5.60188,-9.10232 -7.40905,-15.04511 -7.45753,-24.5237 -0.0369,-7.22627 0.30682,-8.71245 3.45897,-14.95367 4.837,-9.57719 6.15976,-10.13606 11.05482,-4.67071 8.67772,9.68871 12.15842,22.32236 10.0498,36.4771 -1.10586,7.4235 -5.95946,28.33897 -7.70251,33.19227 -0.58526,1.62956 -0.19527,1.49992 2.21017,-0.73472 4.16566,-3.86989 8.92895,-12.12537 13.84642,-23.9979 2.3438,-5.65877 9.06052,-19.96367 14.92604,-31.78867 10.37173,-20.9096 10.54521,-21.36899 6.31738,-16.72905 -2.39096,2.62402 -7.19138,9.48652 -10.6676,15.25 -3.47623,5.76348 -6.6573,10.47905 -7.06906,10.47905 -1.97807,0 -3.31628,-12.65055 -2.05815,-19.45643 3.12848,-16.92351 14.57157,-28.99934 33.72394,-35.58873 3.12502,-1.07516 6.9614,-1.95484 8.5253,-1.95484 2.63736,0 2.84345,0.28199 2.84345,3.89052 0,6.32675 -4.77928,22.99177 -9.12267,31.81014 -3.00099,6.09289 -6.43614,10.79287 -13.36507,18.28608 -5.12926,5.54698 -10.2499,12.05108 -11.3792,14.45356 -1.99353,4.24106 -6.60627,24.74999 -5.95614,26.48187 0.17769,0.47335 5.93415,-1.87341 12.79212,-5.21503 10.81344,-5.26896 13.47719,-7.08021 20.06198,-13.6414 13.5088,-13.4604 19.028,-27.50519 21.44278,-54.56574 0.7853,-8.8 2.1394,-18.01026 3.0093,-20.46723 3.9173,-11.06529 10.4912,-18.24591 21.3935,-23.3683 5.7623,-2.70738 7.9559,-3.1626 16.8734,-3.50162 5.6375,-0.21433 10.25,-0.1841 10.25,0.0672 0,1.59604 -4.3724,12.68353 -6.6575,16.88197 -4.0886,7.51222 -13.5266,15.75448 -24.4326,21.33727 -13.9528,7.14247 -12.9099,5.2068 -12.9099,23.96232 0,8.85589 -0.4423,17.64384 -0.9829,19.52878 -0.5406,1.88494 -0.8056,3.60445 -0.5889,3.82114 0.8858,0.88579 9.4634,-7.99566 19.5918,-20.28574 17.6033,-21.36046 25.0452,-27.40003 45.8593,-37.21773 11.65,-5.49516 21.1124,-11.33504 24.5257,-15.13645 1.0477,-1.16687 1.6466,-2.12159 1.3309,-2.12159 -1.1899,0 -27.4594,10.81884 -32.5853,13.41996 -2.9422,1.49298 -5.5111,2.55292 -5.7086,2.35542 -0.9053,-0.90538 7.8521,-16.82794 11.5927,-21.07751 13.1126,-14.8967 32.9571,-19.19897 51.0677,-11.07143 5.8516,2.62605 6.0548,2.84107 5.4801,5.80035 -1.1598,5.97241 -6.8332,15.77846 -12.4499,21.51856 -10.0305,10.25094 -24.4804,15.81928 -37.8099,14.57021 -9.8373,-0.92184 -14.1309,1.1871 -25.3238,12.43875 -7.5147,7.55403 -16.2911,20.04569 -14.0837,20.04569 0.4465,0 3.2357,-0.46638 6.1983,-1.03641 2.9626,-0.57002 12.1606,-1.39273 20.4401,-1.82823 l 15.0536,-0.79182 7.3201,-6.14619 c 10.0679,-8.45345 15.8666,-10.61724 28.5727,-10.66207 9.1538,-0.0323 10.55,0.22681 16.5,3.0621 6.4502,3.07367 16.0979,10.84857 18.0972,14.58419 1.3605,2.54224 0.072,4.08168 -7.5557,9.02548 -14.0693,9.11917 -30.539,10.30886 -47.0415,3.39807 -11.2138,-4.696 -17.9098,-5.949 -27.5,-5.14594 -15.9069,1.33203 -29.6552,5.83673 -40.6957,13.33418 -5.5742,3.78535 -34.47459,30.21751 -35.10409,32.10601 -0.16524,0.49573 4.53634,1.23101 10.44799,1.63395 9.4844,0.64646 11.5259,0.48221 17.3594,-1.39661 6.9599,-2.24159 9.4637,-4.31273 14.7865,-12.23159 8.519,-12.67387 25.723,-20.13555 39.3446,-17.06445 8.3514,1.88288 8.6886,2.2827 6.2046,7.35716 -2.8802,5.88411 -9.6375,13.30426 -14.9522,16.41885 -5.8681,3.43894 -11.8997,5.18881 -23.6184,6.85213 -7.9749,1.13192 -10.7674,2.01944 -15.5,4.92629 -9.9677,6.12223 -13.0177,6.82325 -33.2727,7.64741 -24.65397,1.00315 -39.15505,4.83219 -55.19043,14.57317 -5.59272,3.3974 -36.84845,27.28272 -44.80957,34.24303 l -3.5,3.06001 14,0.0273 c 12.90559,0.0251 14.65148,-0.19949 22.33389,-2.87348 11.51032,-4.00635 18.09774,-8.65631 24.55536,-17.33324 10.19974,-13.70514 15.85946,-17.17056 28.11075,-17.21212 9.37681,-0.0318 17.5,2.49592 17.5,5.44556 0,0.994 -2.03694,4.57427 -4.52653,7.95614 -7.66404,10.41087 -18.3016,15.61919 -34.83376,17.0552 l -9.96974,0.86599 -6.03832,6.03832 c -3.32107,3.32107 -5.79785,6.27878 -5.50395,6.57268 1.50438,1.50439 17.0967,4.53897 23.32216,4.53897 18.40352,0 29.00935,-6.10664 47.86984,-27.56254 11.4454,-13.02053 19.7886,-20.44256 27.1803,-24.17961 5.703,-2.88328 20.478,-7.3918 38.9372,-11.88153 17.6964,-4.3042 16.314,-3.46793 28.3303,-17.13808 8.4495,-9.61255 15.9839,-13.43879 27.578,-14.00509 6.1232,-0.29908 9.6491,0.0763 14.1545,1.50702 6.0737,1.92872 14.5,6.62292 14.5,8.0778 0,0.43609 -2.4907,3.81245 -5.5348,7.50302 -10.4583,12.67903 -20.4899,18.00672 -33.9652,18.03858 -8.2736,0.0196 -16.8346,-2.45108 -14.9271,-4.30784 0.5099,-0.4963 4.4544,-2.29712 8.7655,-4.00183 9.5982,-3.79531 16.0261,-7.01869 15.3483,-7.69658 -1.2277,-1.22768 -14.4731,3.52209 -29.6867,10.64558 -9.075,4.2492 -23.475,10.53994 -32,13.97942 -19.8592,8.01234 -23.2161,9.77051 -30.5,15.97406 -6.2845,5.35244 -8.1675,7.90149 -4.9148,6.65331 3.3966,-1.30342 25.7273,-2.40095 39.4148,-1.93719 l 13.5,0.4574 6,-3.57818 c 3.3,-1.968 8.925,-5.03382 12.5,-6.81295 6.089,-3.03025 7.1639,-3.23437 17,-3.22839 9.4973,0.006 11.0533,0.27728 16.2938,2.84336 8.3307,4.07916 17.0185,12.50787 20.7911,20.1711 1.7161,3.48601 2.8163,6.82998 2.4448,7.43105 -1.2962,2.09728 -12.8366,7.21693 -19.4077,8.60976 -14.1027,2.98927 -22.5742,1.4138 -40.622,-7.55459 -9.0096,-4.47711 -13.7444,-6.21283 -19,-6.96527 -20.3015,-2.90652 -47.252,0.72651 -60.5,8.15565 -7.2017,4.0385 -17.1456,11.86579 -16.7151,13.15718 0.1864,0.55938 4.1361,1.83056 8.777,2.82484 4.641,0.99428 10.8122,2.76764 13.714,3.94081 6.3856,2.58171 8.6572,2.30475 21.8749,-2.66715 22.7475,-8.55658 41.9745,-4.35279 57.9444,12.66895 5.8306,6.21469 7.7936,9.42245 7.0121,11.45887 -0.8741,2.27792 -9.5851,7.3294 -16.1241,9.35036 -18.1534,5.61053 -33.4224,2.49357 -48.1764,-9.83454 -11.3311,-9.4681 -21.0557,-12.78628 -40.3068,-13.75331 -8.81804,-0.44296 -15.00502,-0.0839 -26.5292,1.53943 -8.26606,1.16442 -16.25356,2.11712 -17.75,2.11712 -3.46928,0 -3.41968,0.3792 0.5292,4.04619 6.0917,5.65684 15.6229,12.04211 21.94232,14.69988 5.58717,2.34982 8.07819,2.72145 21.80768,3.25352 14.8389,0.57505 15.7597,0.73429 21.5881,3.73323 6.8083,3.50309 14.9283,11.69784 18.2753,18.44358 1.9535,3.93727 2.001,4.43 0.5308,5.51435 -2.3389,1.72515 -10.6085,3.31109 -17.1934,3.29738 -12.3572,-0.0257 -22.8558,-4.78153 -34.01169,-15.40711 C 988.51659,597.22569 979.08271,591 976.12492,591 c -1.41635,0 2.16539,10.88853 5.86501,17.82972 3.09679,5.81019 8.83429,11.95898 17.47165,18.72409 5.32602,4.17158 4.14912,5.808 -2.7333,3.80038 -14.44838,-4.21466 -25.23191,-14.82706 -31.21319,-30.71787 -1.41016,-3.74645 -3.40676,-8.45976 -4.43689,-10.47402 -4.80293,-9.39137 -16.50904,-18.78425 -29.50066,-23.67105 -29.41101,-11.06298 -53.9687,-7.77992 -73.12826,9.77634 -12.16368,11.14581 -21.16058,25.31558 -27.39034,43.13874 -4.67562,13.37678 -6.4331,24.85278 -6.36984,41.59367 0.0627,16.58466 1.75205,28.33771 6.89523,47.97007 7.1757,27.39078 16.39263,45.16249 30.15658,58.14671 13.53068,12.76415 28.64346,20.27515 53.05035,26.36584 17.31765,4.32158 22.09548,6.16053 33.68379,12.96462 19.49257,11.44509 24.92055,13.53244 51.52495,19.81409 5.775,1.36355 18.7942,5.71678 28.9316,9.67383 10.1374,3.95705 22.2874,8.26188 27,9.56629 4.7126,1.30441 13.7434,3.77545 20.0684,5.49121 12.634,3.42717 26.344,9.45967 25.7367,11.32427 -0.7715,2.36846 -11.5936,3.0955 -27.6571,1.85802 -19.8105,-1.52613 -31.5016,-3.95346 -49.3315,-10.24229 -9.9793,-3.51983 -18.5924,-5.75575 -28.7481,-7.46292 -23.73709,-3.99017 -32.40171,-6.90575 -48.13989,-16.1987 -10.7467,-6.34561 -18.50875,-9.40545 -33.36011,-13.15069 -31.19439,-7.86667 -43.77888,-14.04265 -71.93056,-35.30074 -1.61181,-1.21712 -2.54773,-1.56194 -2.07983,-0.76628 5.7412,9.76276 16.22937,21.28588 24.51039,26.92899 3.025,2.06139 9.12598,5.57018 13.55772,7.79731 4.43175,2.22714 19.05675,11.42769 32.5,20.44566 25.91648,17.38524 40.01736,25.17137 56.72087,31.31973 5.65323,2.08089 10.11943,4.27203 9.92489,4.86921 -1.22102,3.74824 -18.62664,4.6699 -31.20348,1.65228 -10.94742,-2.62666 -21.27335,-7.14588 -43.27519,-18.93969 -24.71187,-13.2465 -29.44963,-15.35287 -50.91042,-22.63438 -19.92818,-6.76151 -26.61572,-10.22698 -35.55016,-18.42201 -7.78023,-7.13634 -13.29538,-15.01627 -22.95385,-32.79598 -4.37387,-8.05158 -8.63935,-15.56967 -9.47885,-16.70685 -1.41801,-1.92082 -1.4789,-1.71266 -0.85772,2.9324 2.79479,20.89889 12.91382,42.98553 24.83598,54.20904 6.50293,6.12185 11.12693,9.26389 26.13343,17.75785 17.46421,9.88507 21.51823,13.28342 29.03667,24.34044 5.40695,7.95176 6.26729,9.75465 4.99478,10.46678 -2.24724,1.25762 -7.5334,-0.78995 -14.71887,-5.70129 -8.57987,-5.86444 -11.17454,-7.10424 -24.44229,-11.67915 -21.11746,-7.28161 -30.5067,-13.09985 -46.83419,-29.02183 -6.06138,-5.91083 -12.24868,-11.21385 -13.74957,-11.78449 -6.4136,-2.43845 -15.34973,1.74597 -31.72975,14.85771 -21.32556,17.07051 -34.48531,22.26883 -60.98137,24.08864 -18.46192,1.26801 -24.61358,3.10119 -43.51863,12.96845 -15.84638,8.27082 -20.88746,10.09758 -34.53912,12.51606 -10.61318,1.8802 -33.42936,2.77211 -37.58512,1.46925 z M 712.5,826.51892 c 4.4,-4.42367 10.83851,-12.31261 14.3078,-17.53098 6.35363,-9.55688 20.10394,-35.65202 22.77441,-43.22094 3.98711,-11.30068 -4.29163,-1.69903 -17.27436,20.03473 -10.94377,18.32042 -24.50702,36.89024 -35.20366,48.19827 -3.90198,4.125 -7.09668,7.63704 -7.09935,7.80453 -0.003,0.16749 3.25766,-1.39357 7.24516,-3.46903 5.01499,-2.61025 9.71622,-6.25303 15.25,-11.81658 z M 823.71472,767.75 c -3.95843,-6.79643 -11.22664,-24.32993 -15.0268,-36.25 -3.91852,-12.29129 -9.38794,-36.33653 -10.3424,-45.46834 -0.3436,-3.28742 -1.01191,-5.73784 -1.48513,-5.44538 -1.40167,0.86628 -0.98015,23.4676 0.60675,32.53273 2.04268,11.66877 7.98074,29.93496 12.68474,39.01978 3.328,6.42735 13.83029,19.86121 15.52705,19.86121 0.28111,0 -0.60278,-1.9125 -1.96421,-4.25 z m -98.20757,-28.20781 c 16.51836,-23.14842 26.71621,-62.85546 25.17991,-98.04219 -1.12735,-25.82013 -9.13224,-44.12465 -26.67639,-61 l -5.19816,-5 6.78636,10.5 c 12.0307,18.61416 15.30272,29.59463 15.36624,51.56721 0.0362,12.52229 -3.1517,54.25277 -4.97998,65.18921 -1.33179,7.96652 -5.9304,21.13099 -11.57209,33.12747 -2.42717,5.16114 -4.41304,9.54864 -4.41304,9.75 0,1.20799 1.41545,-0.35771 5.50715,-6.0917 z M 783.62069,727.8546 C 777.401,697.42873 775.99098,679.86764 775.44254,626 c -0.44664,-43.86929 -1.78527,-68.00906 -3.51241,-63.34015 -0.432,1.1678 -1.49568,7.90956 -2.36373,14.98171 -5.38166,43.84507 -2.84342,107.31235 5.49269,137.34211 1.96398,7.07499 8.72844,21.56214 9.64159,20.64899 0.2329,-0.2329 -0.2531,-3.73303 -1.07999,-7.77806 z M 803.48323,625.29515 C 810.98162,601.19891 827.60255,577.52336 851,557.61025 l 4.5,-3.82986 -6,3.25141 c -14.12931,7.65669 -30.61699,22.82639 -39.73251,36.55639 -11.75095,17.69956 -16.41207,35.60169 -13.70467,52.63607 l 1.31532,8.27574 1.77593,-10.5 c 0.97677,-5.775 2.92489,-14.19218 4.32916,-18.70485 z M 1079,570.44468 c 0,-0.30543 -2.4789,-1.69019 -5.5086,-3.07724 -5.5705,-2.55025 -19.6744,-5.35664 -26.9557,-5.36363 -3.6148,-0.003 -3.8248,0.13562 -2.3826,1.57789 0.9515,0.95144 6.9143,2.55584 14.9643,4.02642 7.3604,1.3446 13.8326,2.62231 14.3826,2.83936 1.5625,0.61662 5.5,0.61462 5.5,-0.003 z m 43.974,-46.8993 c -10.1278,-5.51106 -37.9825,-6.80225 -37.9726,-1.7602 8e-4,0.39315 6.1883,0.77079 13.75,0.8392 7.5617,0.0684 15.5486,0.5857 17.7486,1.14955 2.2,0.56384 5.125,1.05235 6.5,1.08558 l 2.5,0.0604 z M 578.90635,449.62299 C 577.49109,444.49736 572.2031,438.9199 565.24015,435.20868 559.12987,431.95194 554,429.7792 554,430.44795 c 0,0.21915 4.0092,3.56099 8.90933,7.42632 4.90013,3.86533 10.61118,9.06384 12.69123,11.55224 2.08004,2.4884 3.90865,4.39761 4.06357,4.2427 0.15491,-0.15492 -0.18609,-1.97571 -0.75778,-4.04622 z m 520.46975,-31.07475 c 5.0182,-0.79847 11.3739,-1.77462 14.1239,-2.16922 4.666,-0.66952 4.7996,-0.76503 2,-1.42992 -5.1599,-1.22542 -13.7441,-0.97986 -20.3732,0.58282 -7.5917,1.78958 -8.8159,2.41675 -6.9836,3.57777 1.7011,1.07787 0.5773,1.13404 11.2329,-0.56145 z m -57.3315,-97.00781 c 8.1587,-3.4409 22.4439,-11.38526 21.7394,-12.08979 -0.7819,-0.78187 -12.1867,2.78335 -19.3582,6.05153 -8.1281,3.7041 -13.4258,7.08413 -13.4258,8.56592 0,1.62571 2.6163,1.02693 11.0446,-2.52766 z M 636.29218,266.00862 C 630.91098,254.87433 618.91268,236.01391 614.97525,232.5 l -2.24105,-2 0.74278,2.5 c 1.48769,5.00714 8.27793,18.69192 11.85496,23.892 4.81948,7.00629 4.80462,8.26001 -0.0819,6.91331 -12.28235,-3.38492 -22.7537,-12.09204 -28.60283,-23.78376 C 592.1929,231.118 590.61476,223.48393 591.2679,214 c 0.64228,-9.3264 3.18827,-15.27826 6.17088,-14.42588 6.57407,1.87876 13.73468,6.53596 20.59414,13.39425 6.03085,6.02981 8.45972,9.42594 12.18081,17.03163 5.58513,11.41567 10.51799,26.64339 12.06161,37.23416 1.69622,11.63778 0.073,11.30529 -5.98316,-1.22554 z M 747.90323,170.9073 c -5.51288,-18.14993 2.04721,-36.67869 18.49571,-45.33049 6.29733,-3.31236 7.18275,-3.24844 9.32538,0.67319 1.34823,2.46764 1.77568,5.5369 1.77568,12.75 0,8.59146 -0.30264,10.13881 -3.16452,16.17961 -1.74049,3.67378 -5.11549,8.80689 -7.5,11.4069 C 762.66258,171.13654 753.18616,178 751.07682,178 c -0.56059,0 -1.98871,-3.19172 -3.17359,-7.0927 z"
       id="path1" />
  </g>
</svg>
